<svg width="22" height="20" viewBox="0 0 22 20" fill="none" xmlns="http://www.w3.org/2000/svg">
<path d="M16.179 19.9966H5.2681C2.48649 19.9966 0.223633 17.7338 0.223633 14.9523V5.04446C0.223633 2.26286 2.48649 0 5.2681 0H16.179C18.9608 0 21.2236 2.26286 21.2236 5.04446V14.9523C21.2236 17.7338 18.9608 19.9966 16.179 19.9966ZM5.2681 1.51784C3.32365 1.51784 1.74148 3.10002 1.74148 5.04446V14.9523C1.74148 16.8968 3.32365 18.4788 5.2681 18.4788H16.179C18.1234 18.4788 19.7058 16.8968 19.7058 14.9523V5.04446C19.7058 3.10002 18.1236 1.51784 16.179 1.51784H5.2681Z" fill="#9D9D9D"/>
<path d="M10.7236 15.4977C7.67821 15.4977 5.20068 13.0202 5.20068 9.9746C5.20068 6.92901 7.67821 4.45166 10.7236 4.45166C13.769 4.45166 16.2466 6.92918 16.2466 9.9746C16.2466 13.02 13.769 15.4977 10.7236 15.4977ZM10.7236 5.9695C8.5152 5.9695 6.71853 7.76617 6.71853 9.97443C6.71853 12.1827 8.5152 13.9797 10.7236 13.9797C12.932 13.9797 14.7287 12.1829 14.7287 9.97443C14.7287 7.766 12.932 5.9695 10.7236 5.9695Z" fill="#9D9D9D"/>
<path d="M16.8593 4.98307C17.3552 4.98307 17.7572 4.58107 17.7572 4.08516C17.7572 3.58926 17.3552 3.18726 16.8593 3.18726C16.3634 3.18726 15.9614 3.58926 15.9614 4.08516C15.9614 4.58107 16.3634 4.98307 16.8593 4.98307Z" fill="#9D9D9D"/>
</svg>
