<svg width="19" height="19" viewBox="0 0 19 19" fill="none" xmlns="http://www.w3.org/2000/svg">
<g clip-path="url(#clip0_49_1396)">
<path d="M4.67454 6.47729H1.01562V18.1435H4.67454V6.47729Z" fill="#9D9D9D"/>
<path d="M14.5637 6.21776C14.4255 6.20259 14.2839 6.19163 14.1397 6.18573C12.0915 6.10229 10.9334 7.31771 10.5339 7.83607C10.4277 7.97515 10.3746 8.06449 10.3746 8.06449V6.50349H6.875V18.1697H10.5339V12.6885C10.5339 11.897 10.4724 11.0508 10.8685 10.3318C11.204 9.72411 11.81 9.41983 12.4961 9.41983C14.5165 9.41983 14.5645 11.248 14.5645 11.4217V18.2228H18.2234V10.6133C18.2234 8.00971 16.9001 6.46978 14.5645 6.21776H14.5637Z" fill="#9D9D9D"/>
<path d="M2.84514 4.9669C4.01682 4.9669 4.96665 4.01707 4.96665 2.84539C4.96665 1.67371 4.01682 0.723877 2.84514 0.723877C1.67347 0.723877 0.723633 1.67371 0.723633 2.84539C0.723633 4.01707 1.67347 4.9669 2.84514 4.9669Z" fill="#9D9D9D"/>
</g>
<defs>
<clipPath id="clip0_49_1396">
<rect width="17.4989" height="17.4989" fill="white" transform="translate(0.723633 0.723877)"/>
</clipPath>
</defs>
</svg>
