<svg width="105" height="88" xmlns="http://www.w3.org/2000/svg" xmlns:xlink="http://www.w3.org/1999/xlink" xmlns:svgjs="http://svgjs.com/svgjs" viewBox="0.472 0 104.055 88" fill="#fff"><svg xmlns="http://www.w3.org/2000/svg" width="105" height="88" viewBox="1.8 1.2 102.4 86.6"><path paint-order="stroke fill markers" fill-rule="evenodd" d="M62.91 75.453h-7.76a2 2 0 000 4.001h7.76c1.198 0 2.172.974 2.172 2.173a2.174 2.174 0 01-2.172 2.172H42.022c-3.14 0-6.093-1.385-8.101-3.8l-4.996-6.006a14.488 14.488 0 00-10.755-5.23V56.946h7.363c3.632 0 7.07 1.39 9.682 3.912l10.781 10.41c.763.736.798 1.968.08 2.747a1.968 1.968 0 01-2.772.116l-8.464-7.762a2 2 0 10-2.703 2.949l8.465 7.762a5.941 5.941 0 004.027 1.563 5.95 5.95 0 004.386-1.915c2.18-2.363 2.073-6.104-.24-8.338L37.992 57.98a17.85 17.85 0 00-12.46-5.035h-7.751a4.965 4.965 0 00-4.569-3.034H3.8a2 2 0 00-2 2v14.628a2 2 0 104 0V53.911h7.413a.96.96 0 01.958.958v16.034c0 .528-.43.957-.958.957h-2.077a2 2 0 000 4h2.077a4.963 4.963 0 004.597-3.106 10.506 10.506 0 018.04 3.798l4.996 6.006A14.495 14.495 0 0042.022 87.8H62.91a6.18 6.18 0 006.172-6.173 6.18 6.18 0 00-6.172-6.174zM102.2 19.68a2 2 0 00-2 2v13.41h-7.414a.959.959 0 01-.957-.958V18.097a.96.96 0 01.957-.958h1.93a2 2 0 000-4h-1.93a4.964 4.964 0 00-4.597 3.107 10.506 10.506 0 01-8.04-3.798l-4.996-6.006A14.495 14.495 0 0063.978 1.2H43.089a6.18 6.18 0 00-6.171 6.173 6.18 6.18 0 006.171 6.173h8.542a2 2 0 000-4h-8.542a2.175 2.175 0 01-2.172-2.173c0-1.198.974-2.173 2.172-2.173h20.889c3.14 0 6.093 1.385 8.1 3.8l4.996 6.006a14.49 14.49 0 0010.756 5.23v11.817h-7.364a13.87 13.87 0 01-9.681-3.911l-10.782-10.41a1.977 1.977 0 01-.079-2.748 1.968 1.968 0 012.771-.115l8.465 7.761a2 2 0 102.703-2.949l-8.465-7.761a5.974 5.974 0 00-8.413.351c-2.181 2.364-2.073 6.105.24 8.339l10.782 10.41a17.85 17.85 0 0012.46 5.034h7.751a4.965 4.965 0 004.569 3.035h9.413a2 2 0 002-2v-15.41a2 2 0 00-2-2zM66.367 69.236a1.997 1.997 0 00-2.642-1.001 2 2 0 001.597 3.668l.043-.02a2.003 2.003 0 001.002-2.647zm4.971-3.368a2.008 2.008 0 00-2.799-.422 2 2 0 002.363 3.228l.025-.018a1.992 1.992 0 00.411-2.788zm-10.561 5.614a2.002 2.002 0 00-2.364-1.545 2 2 0 00.766 3.927l.059-.012a1.998 1.998 0 001.539-2.37zm14.739-9.965a2 2 0 00-2.867.194 2 2 0 003.016 2.628 2 2 0 00-.15-2.822zm-1.117 1.687l-.222-.201.24.217-.018-.016zm6.207-12.528a2.005 2.005 0 00-2.495 1.34 2 2 0 003.822 1.177l.008-.028a1.995 1.995 0 00-1.335-2.489zm2.561-10.324a1.999 1.999 0 00-2.38-1.624 2.002 2.002 0 00-1.552 2.355 2 2 0 003.932-.731zm-1.834 4.34a2.002 2.002 0 00-2.173 1.895 2 2 0 003.99.264 2 2 0 00-1.817-2.159zM78.648 56.37a2 2 0 00-2.725.754l-.028.05a2.01 2.01 0 00.8 2.72 1.985 1.985 0 002.706-.795l-1.739-.99 1.74.987a2 2 0 00-.754-2.726zm-36.27-38.097a1.999 1.999 0 00-2.682-.895l-.018.009a1.992 1.992 0 00-.885 2.679 2 2 0 001.793 1.103 2 2 0 001.793-2.896zm5.786-1.668a2 2 0 00-2.415-1.473l-.046.012a2.004 2.004 0 00-1.442 2.437 1.998 1.998 0 002.431 1.439 2 2 0 001.472-2.415zm-11.073 4.552a2.002 2.002 0 00-2.811-.304l1.24 1.57-1.246-1.566a2.001 2.001 0 002.491 3.13l.027-.021a2 2 0 00.299-2.809zM26.428 35.39a2 2 0 00-2.474 1.478 2 2 0 003.884.953 2 2 0 00-1.41-2.43zm-1.273 5.878a2 2 0 00-2.116 1.958 1.999 1.999 0 001.94 2.057h.06a2 2 0 001.997-1.927 2 2 0 00-1.881-2.088zm3.79-11.345a2 2 0 00-2.7.842l-.032.065a2 2 0 003.584 1.775 2 2 0 00-.852-2.682zm3.612-4.812a2 2 0 00-2.816.26l-.041.052a2 2 0 003.13 2.49 2.001 2.001 0 00-.273-2.802zm-5.143 23.797a2 2 0 10-3.937.705l.004.02a1.989 1.989 0 002.32 1.606 2.009 2.009 0 001.613-2.331zM59.866 33.72a9.26 9.26 0 00-6.733 2.886 9.26 9.26 0 00-6.734-2.886c-5.12 0-9.286 4.167-9.286 9.29a9.27 9.27 0 003.343 7.136l.04.033 11.395 9.025a1.994 1.994 0 002.488-.004l11.879-9.465c.058-.046.113-.096.166-.148a9.228 9.228 0 002.729-6.577c0-5.123-4.166-9.29-9.287-9.29zm3.806 12.961l-10.543 8.4L43 47.06a5.278 5.278 0 01-1.886-4.049 5.294 5.294 0 015.286-5.289 5.274 5.274 0 014.886 3.267 2 2 0 003.695 0 5.274 5.274 0 014.886-3.267 5.294 5.294 0 015.287 5.289c0 1.38-.525 2.68-1.481 3.671zM3.8 71.867a1.993 1.993 0 110 3.987 1.993 1.993 0 010-3.987zm98.4-58.722a1.993 1.993 0 110 3.986 1.993 1.993 0 010-3.986z"/></svg></svg>