<svg width="100" height="100" xmlns="http://www.w3.org/2000/svg" xmlns:xlink="http://www.w3.org/1999/xlink" xmlns:svgjs="http://svgjs.com/svgjs" viewBox="0.041 0 99.917 100" fill="#cca375"><svg xmlns="http://www.w3.org/2000/svg" width="100" height="100" viewBox="1.4 2 98.2 98.281"><path paint-order="stroke fill markers" fill-rule="evenodd" d="M86.163 15.447a2.135 2.135 0 00-3.018 0L53.258 45.36a2.14 2.14 0 000 3.021c.419.414.965.624 1.511.624.547 0 1.093-.21 1.508-.624l29.886-29.912a2.14 2.14 0 000-3.02zm-1.507-.628a2.136 2.136 0 00-2.135 2.137v25.638c0 1.18.957 2.137 2.135 2.137a2.136 2.136 0 002.135-2.137V16.956c0-1.18-.956-2.137-2.135-2.137zm0 0H59.04a2.136 2.136 0 000 4.273h25.617a2.137 2.137 0 000-4.273zM47.738 53.905a2.135 2.135 0 00-3.02 0L14.833 83.817a2.14 2.14 0 000 3.02c.419.415.965.625 1.512.625a2.13 2.13 0 001.507-.624l29.887-29.912a2.14 2.14 0 000-3.021zM16.344 57.55a2.136 2.136 0 00-2.135 2.137v25.638c0 1.18.956 2.137 2.135 2.137a2.136 2.136 0 002.134-2.137V59.687c0-1.18-.956-2.137-2.134-2.137zM41.96 83.188H16.344a2.137 2.137 0 000 4.274H41.96a2.137 2.137 0 000-4.274zM93.195 2H7.805C4.272 2 1.4 4.876 1.4 8.41v85.46c0 3.534 2.873 6.41 6.404 6.41h85.391c3.531 0 6.405-2.876 6.405-6.41V8.41C99.6 4.876 96.726 2 93.195 2zm2.135 91.87c0 1.175-.96 2.137-2.135 2.137H7.805A2.142 2.142 0 015.67 93.87V8.41c0-1.176.96-2.137 2.134-2.137h85.391c1.175 0 2.135.961 2.135 2.137v85.46z"/></svg></svg>