<svg xmlns="http://www.w3.org/2000/svg" width="125.525" height="76.864"><path data-name="Path 2202" d="M62.081 76.864a2.489 2.489 0 01-1.192-.312l-3.774-2.241c-.568-.312-.284-.426-.113-.482a6.885 6.885 0 001.7-.766.261.261 0 01.284.028l2.894 1.731a.36.36 0 00.34 0l11.321-6.554a.326.326 0 00.17-.312v-13.08a.326.326 0 00-.17-.312L62.22 48.038a.359.359 0 00-.34 0l-11.321 6.526a.356.356 0 00-.17.312v13.08a.357.357 0 00.17.312l3.093 1.787c1.674.851 2.724-.142 2.724-1.135V56.009a.345.345 0 01.341-.341h1.447a.345.345 0 01.34.341v12.91c0 2.241-1.22 3.547-3.348 3.547a4.867 4.867 0 01-2.61-.71l-2.979-1.7a2.394 2.394 0 01-1.192-2.071v-13.08a2.4 2.4 0 011.192-2.071l11.321-6.554a2.533 2.533 0 012.384 0l11.321 6.554a2.4 2.4 0 011.192 2.071v13.08a2.4 2.4 0 01-1.192 2.071L63.272 76.61a2.9 2.9 0 01-1.192.255zm3.49-8.994c-4.965 0-5.987-2.27-5.987-4.2a.345.345 0 01.34-.341h1.475a.292.292 0 01.312.284c.227 1.5.88 2.241 3.887 2.241 2.383 0 3.405-.539 3.405-1.816 0-.738-.284-1.277-4-1.646-3.093-.312-5.022-.993-5.022-3.462 0-2.3 1.93-3.66 5.164-3.66 3.632 0 5.419 1.249 5.646 3.972a.458.458 0 01-.085.256.351.351 0 01-.227.113h-1.475a.332.332 0 01-.312-.255c-.341-1.56-1.22-2.071-3.547-2.071-2.61 0-2.923.908-2.923 1.589 0 .823.369 1.078 3.887 1.532 3.49.454 5.136 1.107 5.136 3.547-.027 2.498-2.07 3.917-5.674 3.917z" fill="#689f63"/><path data-name="Path 2203" d="M26.955 25.706a1.444 1.444 0 00-.738-1.249l-12.03-6.923a1.747 1.747 0 00-.653-.2h-.114a1.348 1.348 0 00-.653.2L.738 24.458A1.443 1.443 0 000 25.707l.028 18.612a.706.706 0 00.369.624.644.644 0 00.709 0l7.15-4.086a1.444 1.444 0 00.738-1.248V30.9a1.443 1.443 0 01.738-1.248l3.037-1.761a1.375 1.375 0 01.738-.2 1.22 1.22 0 01.709.2l3.036 1.759a1.443 1.443 0 01.737 1.25v8.711a1.444 1.444 0 00.738 1.248l7.15 4.086a.692.692 0 00.738 0 .705.705 0 00.369-.624l-.028-18.613zM84.78.085a.78.78 0 00-.709 0 .74.74 0 00-.369.624v18.443a.511.511 0 01-.766.454l-3.008-1.731a1.462 1.462 0 00-1.447 0l-12.03 6.952a1.444 1.444 0 00-.738 1.248V39.95a1.444 1.444 0 00.738 1.249l12.03 6.951a1.462 1.462 0 001.447 0l12.031-6.95a1.444 1.444 0 00.738-1.249V5.362a1.455 1.455 0 00-.738-1.277l-7.178-4zm-1.111 35.297a.326.326 0 01-.17.312l-4.11 2.383a.421.421 0 01-.369 0l-4.114-2.383a.356.356 0 01-.17-.312v-4.767a.326.326 0 01.17-.312l4.114-2.384a.421.421 0 01.369 0l4.114 2.381a.355.355 0 01.17.312v4.767zm41.141-4.88a1.417 1.417 0 00.709-1.249v-3.377a1.478 1.478 0 00-.709-1.248l-11.941-6.923a1.462 1.462 0 00-1.447 0l-12.03 6.951a1.443 1.443 0 00-.738 1.249v13.874a1.443 1.443 0 00.738 1.248l11.945 6.81a1.409 1.409 0 001.419 0l7.235-4.029a.713.713 0 000-1.249l-12.087-6.952a.739.739 0 01-.369-.624v-4.339a.706.706 0 01.369-.624l3.774-2.156a.693.693 0 01.738 0l3.774 2.156a.739.739 0 01.369.624v3.4a.7.7 0 00.369.624.692.692 0 00.738 0l7.15-4.171z" fill="#333"/><path data-name="Path 2204" d="M111.962 29.849a.258.258 0 01.284 0l2.3 1.334a.3.3 0 01.142.255v2.667a.3.3 0 01-.142.255l-2.3 1.334a.258.258 0 01-.284 0l-2.3-1.334a.3.3 0 01-.142-.255v-2.667a.3.3 0 01.142-.255z" fill="#689f63"/><g data-name="Group 472"><path data-name="Path 2205" d="M47.072 17.762a1.462 1.462 0 00-1.447 0l-11.946 6.895a1.417 1.417 0 00-.709 1.244v13.822a1.478 1.478 0 00.709 1.248l11.945 6.895a1.462 1.462 0 001.447 0l11.945-6.895a1.417 1.417 0 00.709-1.248V25.901a1.478 1.478 0 00-.709-1.248z" fill="#689f63"/><g data-name="Group 470"><path data-name="Path 2206" d="M45.597 17.762l-11.974 6.894a1.472 1.472 0 00-.766 1.249v13.818a1.367 1.367 0 00.369.908l13.449-23.039a1.621 1.621 0 00-1.078.17zm1.16 30.246a1.745 1.745 0 00.341-.142l11.974-6.895a1.443 1.443 0 00.738-1.248V25.905a1.445 1.445 0 00-.426-.993L46.757 48.008z" fill="none"/><path data-name="Path 2207" d="M59.046 24.656l-12-6.895a1.97 1.97 0 00-.369-.142l-13.453 23.04a1.493 1.493 0 00.4.341l12 6.895a1.382 1.382 0 001.106.142l12.626-23.1a1.489 1.489 0 00-.312-.284z" fill="#689f63"/></g><g data-name="Group 471"><path data-name="Path 2208" d="M59.812 39.723V25.905a1.471 1.471 0 00-.766-1.248l-12-6.895a1.254 1.254 0 00-.454-.17l13.134 22.443a.572.572 0 00.085-.312zM33.623 24.657a1.472 1.472 0 00-.766 1.248v13.818a1.534 1.534 0 00.766 1.248l12 6.895a1.336 1.336 0 00.936.17L33.708 24.628l-.085.028z" fill="none"/><path data-name="Path 2209" d="M45.228 15.237l-.168.085h.227z" fill="#689f63" fill-rule="evenodd"/><path data-name="Path 2210" d="M59.074 40.969a1.614 1.614 0 00.709-.908L46.618 17.592a1.441 1.441 0 00-1.021.17L33.68 24.628l12.849 23.441a1.978 1.978 0 00.539-.17l12-6.923z" fill="#689f63" fill-rule="evenodd"/><path data-name="Path 2211" d="M60.181 40.745l-.085-.142v.2l.085-.057z" fill="#689f63" fill-rule="evenodd"/><path data-name="Path 2212" d="M59.074 40.971L47.1 47.866a1.712 1.712 0 01-.539.17l.227.426 13.279-7.689v-.17l-.341-.568a1.318 1.318 0 01-.652.936z" fill="#689f63" fill-rule="evenodd"/><path data-name="Path 2213" d="M59.074 40.971L47.1 47.866a1.712 1.712 0 01-.539.17l.227.426 13.279-7.689v-.17l-.341-.568a1.318 1.318 0 01-.652.936z" fill="#689f63" fill-rule="evenodd"/></g></g></svg>