<svg xmlns="http://www.w3.org/2000/svg" width="42.129" height="67.439"><g data-name="Group 452" fill="#0746cd" stroke="#fff" stroke-width=".6"><path data-name="Path 1726" d="M36.303.3H5.825A5.391 5.391 0 00.3 5.533v55.959a5.391 5.391 0 005.525 5.233h5.249a1.01 1.01 0 100-2.017H5.825a3.312 3.312 0 01-3.4-3.215v-2.376h9.941v1.046a5.832 5.832 0 001.491 3.875l1.578 2.6a1.077 1.077 0 00.924.506 1.108 1.108 0 00.53-.134.98.98 0 00.392-1.378l-1.627-2.677a1.026 1.026 0 00-.119-.159 3.885 3.885 0 01-1.038-2.629v-5.423a3.639 3.639 0 011.082-2.567v.984a1.067 1.067 0 002.13 0V34.81a1.221 1.221 0 011.25-1.246 1.278 1.278 0 011.3 1.246v12.086a.962.962 0 00-.019.177v6.115a1.067 1.067 0 002.13 0v-5.964c.005-.031.014-.061.016-.092a1.253 1.253 0 011.286-1.084h.012a1.31 1.31 0 01.9.359 1.287 1.287 0 01.414.929v1.445a.957.957 0 00-.016.15v4.257a1.067 1.067 0 002.13 0V49.01a.948.948 0 00.016-.149 1.3 1.3 0 012.6-.023.953.953 0 00-.01.1v4.257a1.067 1.067 0 002.13 0v-3.52a.925.925 0 00.013-.123c0-.42.826-.774 1.345-.774a1.316 1.316 0 011.345 1.246v10.169a7.189 7.189 0 01-1.18 3.935l-.962 1.475a.977.977 0 00.346 1.388 1.1 1.1 0 00.559.151 1.079 1.079 0 00.907-.479l.963-1.475a9.128 9.128 0 001.5-5v-1.074h3.01v2.376a3.171 3.171 0 01-1.5 2.667.976.976 0 00-.286 1.4 1.1 1.1 0 001.479.271 5.159 5.159 0 002.436-4.338V5.531A5.393 5.393 0 0036.303.3zm.383 56.8v-7.076a3.378 3.378 0 00-3.475-3.264 4.228 4.228 0 00-1.822.443 3.473 3.473 0 00-2.956-1.6 3.558 3.558 0 00-1.616.384 3.356 3.356 0 00-.733-1 3.509 3.509 0 00-2.428-.944 3.637 3.637 0 00-1.263.238v-9.458a3.355 3.355 0 00-3.433-3.263 3.288 3.288 0 00-3.38 3.263v14.745l-1.1.822-.046.036a5.633 5.633 0 00-2.061 4.32v2.359h-9.94V5.54a3.313 3.313 0 013.4-3.216h30.478a3.313 3.313 0 013.4 3.216v51.565h-3.01z"/><path data-name="Path 1727" d="M18.879 24.528a7.213 7.213 0 00-5.785 11.521 1.065 1.065 0 001.708-1.274 5.082 5.082 0 118.339-.265 1.065 1.065 0 001.785 1.163 7.213 7.213 0 00-6.047-11.144z"/><path data-name="Path 1728" d="M18.879 18.427a13.315 13.315 0 00-6.683 24.832 1.065 1.065 0 101.07-1.842 11.185 11.185 0 1113.7-1.95 1.065 1.065 0 001.54 1.472 13.314 13.314 0 00-9.626-22.512z"/></g></svg>