<svg xmlns="http://www.w3.org/2000/svg" width="74.884" height="74.884"><path data-name="Path 2180" d="M0 0h74.884v74.884H0z" fill="#f7df1e"/><path data-name="Path 2181" d="M19.69 62.579l5.73-3.468c1.106 1.96 2.111 3.619 4.524 3.619 2.312 0 3.771-.9 3.771-4.423V34.379h7.037v24.027c0 7.289-4.272 10.606-10.506 10.606-5.629 0-8.9-2.915-10.556-6.434m24.889-.754l5.73-3.317c1.508 2.463 3.469 4.273 6.937 4.273 2.916 0 4.775-1.458 4.775-3.469 0-2.413-1.91-3.267-5.127-4.674l-1.759-.755c-5.077-2.161-8.445-4.875-8.445-10.606 0-5.278 4.021-9.3 10.3-9.3 4.474 0 7.691 1.559 10 5.63l-5.479 3.519c-1.207-2.161-2.513-3.016-4.524-3.016a3.062 3.062 0 00-3.368 3.016c0 2.111 1.307 2.966 4.323 4.273l1.759.754c5.982 2.564 9.35 5.178 9.35 11.058 0 6.334-4.976 9.8-11.662 9.8-6.535 0-10.757-3.116-12.818-7.188"/></svg>