<svg xmlns="http://www.w3.org/2000/svg" width="89.413" height="71.955"><g data-name="google-cloud-1 (1)"><path data-name="Path 2240" d="M56.734 19.814h2.728l7.773-7.773.382-3.3a34.937 34.937 0 00-56.832 17.043 4.233 4.233 0 012.728-.165l15.543-2.565s.791-1.308 1.2-1.226a19.391 19.391 0 0126.535-2.016h-.056z" fill="#ea4335"/><path data-name="Path 2241" d="M78.308 25.785A35.016 35.016 0 0067.753 8.769L56.847 19.675a19.389 19.389 0 017.117 15.381v1.938a9.707 9.707 0 010 19.414H44.546l-1.938 1.961v11.645l1.938 1.938h19.418a25.253 25.253 0 0014.343-46.171z" fill="#4285f4"/><path data-name="Path 2242" d="M25.101 71.846h19.418V56.303H25.101a9.621 9.621 0 01-4.01-.873l-2.729.843-7.826 7.773-.682 2.728A25.132 25.132 0 0025.1 71.845z" fill="#34a853"/><path data-name="Path 2243" d="M25.102 21.425A25.251 25.251 0 009.859 66.689l11.262-11.264a9.708 9.708 0 1112.844-12.844l11.262-11.262a25.241 25.241 0 00-20.126-9.9z" fill="#fbbc05"/></g></svg>