<svg xmlns="http://www.w3.org/2000/svg" width="46.997" height="104.632"><path data-name="Path 2219" d="M23.171.286l2.792 5.244a15.722 15.722 0 002.109 2.623 73.253 73.253 0 016.553 7.409 64.382 64.382 0 0110.202 20.574 50.581 50.581 0 012.164 13.961 49.268 49.268 0 01-14.385 36.356 41.541 41.541 0 01-5.133 4.388c-.968 0-1.426-.742-1.825-1.425a11.739 11.739 0 01-1.425-4.1 19.8 19.8 0 01-.458-5.186v-.8c-.078-.17-.931-78.637-.592-79.039z" fill="#459b45"/><path data-name="Path 2220" d="M23.172.112c-.115-.228-.228-.056-.344.056a5.273 5.273 0 01-.968 3.139 15.017 15.017 0 01-2.508 2.508A54.633 54.633 0 007.102 21.43 62.721 62.721 0 00.04 46.958c-.285 3.243 1.027 14.703 2.05 18.009a54.591 54.591 0 0014.3 22.51 62.529 62.529 0 005.068 4.332c.513 0 .569-.457.686-.8a15.8 15.8 0 00.513-2.224l1.145-8.545L23.171.112z" fill="#56ad4e"/><path data-name="Path 2221" d="M25.963 94.309a7.8 7.8 0 011.426-3.476 3.594 3.594 0 01-1.6-1.481 10.532 10.532 0 01-.85-1.88 32.54 32.54 0 01-1.2-7.35v-1.481a7.112 7.112 0 00-.344 2.452 56.322 56.322 0 01-1.026 7.695 6.837 6.837 0 01-.916 2.962 1.137 1.137 0 00.056.4 34.011 34.011 0 011.481 9.233v1.144c0 1.366-.056 1.078 1.079 1.537a4.991 4.991 0 011.425.569c.344 0 .4-.284.4-.513l-.17-1.88v-5.245a13.9 13.9 0 01.228-2.681z" fill="#b2afa5"/></svg>