<svg xmlns="http://www.w3.org/2000/svg" width="56.135" height="57"><g data-name="Group 230" fill="#0444cc"><path data-name="Path 459" d="M14.776 39.624a.864.864 0 01-.676-.324 17.723 17.723 0 01-3.965-11.227 17.935 17.935 0 0134.667-6.454.868.868 0 01-1.619.624 16.2 16.2 0 00-31.314 5.83 16.01 16.01 0 003.581 10.144.868.868 0 01-.675 1.411z"/><path data-name="Path 460" d="M41.359 39.625a.869.869 0 01-.676-1.412 16.441 16.441 0 00.968-1.332.868.868 0 111.454.947c-.329.505-.689 1-1.069 1.474a.869.869 0 01-.677.323z"/><path data-name="Path 461" d="M43.735 35.694a.868.868 0 01-.8-1.213 15.952 15.952 0 00.866-2.58.868.868 0 011.687.41 17.921 17.921 0 01-.96 2.86.869.869 0 01-.793.523zm1.356-5.555h-.062a.868.868 0 01-.8-.926 16.62 16.62 0 00-.036-2.724.868.868 0 111.728-.168 18.188 18.188 0 01.039 3.014.867.867 0 01-.87.805z"/><path data-name="Path 462" d="M44.534 24.442a.87.87 0 01-.838-.64 15.924 15.924 0 00-.513-1.564.868.868 0 111.619-.624 17.938 17.938 0 01.569 1.732.868.868 0 01-.609 1.065.855.855 0 01-.228.031z"/><path data-name="Path 463" d="M48.397 47.067a.867.867 0 01-.613-1.481l1.572-1.572a.371.371 0 000-.522l-3.113-3.112a1.486 1.486 0 01-.228-1.8 20.674 20.674 0 002.173-5.249 1.486 1.486 0 011.435-1.114h4.4a.369.369 0 00.369-.369V24.29a.37.37 0 00-.369-.37h-4.4a1.486 1.486 0 01-1.435-1.114 20.658 20.658 0 00-2.173-5.248 1.486 1.486 0 01.228-1.8l3.113-3.113a.37.37 0 000-.522l-5.344-5.344a.369.369 0 00-.521 0l-3.114 3.113a1.489 1.489 0 01-1.8.228 20.713 20.713 0 00-5.25-2.174 1.484 1.484 0 01-1.113-1.434v-4.4a.369.369 0 00-.37-.369h-7.555a.369.369 0 00-.37.369v4.4a1.485 1.485 0 01-1.114 1.434 20.758 20.758 0 00-5.249 2.173 1.486 1.486 0 01-1.8-.227l-3.113-3.113a.37.37 0 00-.521 0l-5.346 5.345a.37.37 0 000 .522l3.113 3.113a1.484 1.484 0 01.228 1.8 20.681 20.681 0 00-2.173 5.249 1.488 1.488 0 01-1.435 1.114h-4.4a.369.369 0 00-.369.37v7.558a.369.369 0 00.369.369h4.4a1.488 1.488 0 011.435 1.113 20.662 20.662 0 002.172 5.25 1.484 1.484 0 01-.227 1.8l-3.113 3.112a.37.37 0 000 .522l1.572 1.572a.868.868 0 11-1.227 1.227l-1.572-1.572a2.106 2.106 0 010-2.975l2.974-2.974a22.406 22.406 0 01-2.212-5.341H2.105a2.107 2.107 0 01-2.1-2.1v-7.558a2.107 2.107 0 012.1-2.1h4.207a22.4 22.4 0 012.212-5.34L5.55 13.88a2.1 2.1 0 010-2.975l5.344-5.344a2.106 2.106 0 012.975 0l2.974 2.963a22.383 22.383 0 015.341-2.21V2.106a2.107 2.107 0 012.1-2.1h7.557a2.107 2.107 0 012.1 2.1v4.208a22.4 22.4 0 015.35 2.21l2.974-2.974a2.153 2.153 0 012.975 0l5.344 5.344a2.1 2.1 0 010 2.975l-2.975 2.974a22.412 22.412 0 012.212 5.341h4.207a2.107 2.107 0 012.1 2.1v7.558a2.107 2.107 0 01-2.1 2.1h-4.206a22.4 22.4 0 01-2.211 5.341l2.974 2.974a2.107 2.107 0 010 2.975l-1.573 1.572a.863.863 0 01-.615.263z"/><path data-name="Path 464" d="M28.067 37.479a7.539 7.539 0 117.539-7.54 7.548 7.548 0 01-7.539 7.54zm0-13.343a5.8 5.8 0 105.8 5.8 5.81 5.81 0 00-5.8-5.8z"/><path data-name="Path 465" d="M44.543 57h-32.95a.867.867 0 01-.868-.867 17.372 17.372 0 0112.748-16.708.867.867 0 11.459 1.672 15.64 15.64 0 00-11.448 14.168h31.167a15.641 15.641 0 00-11.448-14.168.867.867 0 11.459-1.672A17.373 17.373 0 0145.41 56.133a.867.867 0 01-.867.867z"/></g></svg>