<svg xmlns="http://www.w3.org/2000/svg" width="88.296" height="88.296"><path data-name="Path 2238" d="M0 44.148V0h88.3v88.3H0" fill="#007acc"/><path data-name="Path 2239" d="M19.359 44.303v3.6h11.478v32.669h8.145V47.901h11.477v-3.532a27.51 27.51 0 00-.088-3.642c0-.066-7-.088-15.5-.088l-15.452.066v3.62zm51.587-3.686a10.688 10.688 0 015.518 3.157 13.889 13.889 0 012.119 2.825c0 .132-3.819 2.715-6.137 4.15-.088.066-.441-.309-.795-.883a5.048 5.048 0 00-4.15-2.472c-2.649-.177-4.415 1.214-4.415 3.532a3.488 3.488 0 00.4 1.678c.6 1.214 1.7 1.942 5.121 3.444 6.313 2.715 9.05 4.5 10.706 7.064a12.862 12.862 0 011.037 10.75c-1.413 3.686-4.856 6.181-9.779 7a27.535 27.535 0 01-6.733-.066 16.665 16.665 0 01-8.984-4.7 15.779 15.779 0 01-2.3-3.4l.839-.53 3.311-1.92 2.494-1.457.574.773a12.012 12.012 0 003.311 3.223c2.87 1.479 6.71 1.28 8.609-.441a3.308 3.308 0 001.17-2.649 3.406 3.406 0 00-.662-2.252c-.706-.971-2.119-1.766-6.092-3.532-4.569-1.942-6.512-3.179-8.322-5.077a12.54 12.54 0 01-2.428-4.415 16.905 16.905 0 01-.132-5.673c.949-4.415 4.282-7.505 9.05-8.388a21.4 21.4 0 016.71.221l-.044.044z" fill="#fff"/></svg>