<svg xmlns="http://www.w3.org/2000/svg" width="64.856" height="50.295"><g data-name="Group 310" fill="#0444cc" stroke="#fff"><path data-name="Path 912" d="M62.96 13.229V8.28a3.7 3.7 0 00-3.7-3.7H31.773a1.251 1.251 0 01-.864-.357l-2.647-2.64A3.7 3.7 0 0025.626.494H5.591a3.7 3.7 0 00-3.7 3.7v15.179a4.7 4.7 0 00-1.4 3.326v25.845a1.249 1.249 0 001.249 1.249h61.358a1.249 1.249 0 001.249-1.249v-31.99a4.679 4.679 0 00-1.387-3.325zM4.393 4.194a1.2 1.2 0 011.2-1.2h20.035a1.22 1.22 0 01.871.358l2.653 2.647a3.774 3.774 0 002.622 1.081h27.49a1.2 1.2 0 011.2 1.2v3.662h-.022a4.637 4.637 0 00-.762-.065h-3.037v-.912a2.512 2.512 0 00-2.508-2.508H10.548a2.511 2.511 0 00-2.508 2.508v7.058H5.174a4.748 4.748 0 00-.769.063h-.014V4.196zm36.038 7.681a4.625 4.625 0 00-3.938 2.221l-2.289 2.656a1.323 1.323 0 00-.139.2 2.122 2.122 0 01-1.835 1.073H10.54l.009-7.069 43.595.01v.912H40.431zm21.423 35.422H2.994v-24.6a2.194 2.194 0 01.894-1.761 2.128 2.128 0 011.285-.418h27.055a4.581 4.581 0 001.731-.34 4.637 4.637 0 002.207-1.88l2.288-2.656a1.28 1.28 0 00.138-.2 2.122 2.122 0 011.835-1.074h19.248a2.188 2.188 0 012.178 2.178v30.743z"/><path data-name="Path 913" d="M45.192 20.534a4.722 4.722 0 00-4.713 4.721c0 .075.014.146.018.22l-12.943 4.229a5.958 5.958 0 10-.018 6.03l7.687 2.58c0 .088-.022.175-.022.263a4.75 4.75 0 10.815-2.631l-7.689-2.581a5.966 5.966 0 00.055-.666 5.769 5.769 0 00-.05-.622l12.937-4.227a4.675 4.675 0 003.923 2.118 4.718 4.718 0 100-9.435zm-22.78 15.629a3.468 3.468 0 113.3-4.52 3.225 3.225 0 01.173 1.057 3.3 3.3 0 01-.187 1.106 3.444 3.444 0 01-3.286 2.356zm17.51.191a2.23 2.23 0 11-2.1 1.512 2.225 2.225 0 012.099-1.513zm5.271-8.884a2.2 2.2 0 01-2.107-1.544 2.05 2.05 0 01-.108-.671 2.219 2.219 0 112.215 2.215z"/></g></svg>