<svg xmlns="http://www.w3.org/2000/svg" width="80.725" height="62.291"><g data-name="Group 453" fill="#0746cd" stroke="#fff"><path data-name="Path 798" d="M59.734 16.743a7.154 7.154 0 107.154 7.154 7.162 7.162 0 00-7.154-7.154zm0 11.757a4.6 4.6 0 114.6-4.6 4.608 4.608 0 01-4.6 4.599z"/><path data-name="Path 799" d="M76.835 18.093h-2.3q-.113-.29-.236-.572l1.627-1.626a3.394 3.394 0 000-4.794l-3.409-3.41a3.472 3.472 0 00-4.794 0l-1.638 1.637a14.97 14.97 0 00-.567-.234V6.776a3.393 3.393 0 00-3.39-3.39h-4.819a3.394 3.394 0 00-3.39 3.39v2.331c-.185.073-.37.151-.555.231l-1.649-1.649a3.47 3.47 0 00-4.793 0l-3.409 3.409a3.389 3.389 0 000 4.794l1.655 1.655c-.079.181-.154.361-.226.544h-2.337a3.394 3.394 0 00-3.39 3.39v4.824a3.393 3.393 0 003.39 3.39h2.336c.072.184.147.366.227.548l-1.655 1.655a3.389 3.389 0 000 4.794l3.409 3.409a3.389 3.389 0 004.794 0l1.649-1.649c.186.082.37.159.555.232v2.325a3.394 3.394 0 003.39 3.39h4.819a3.394 3.394 0 003.39-3.39v-2.311c.191-.075.38-.152.567-.234l1.638 1.637a3.389 3.389 0 004.794 0l3.409-3.409a3.394 3.394 0 000-4.794L74.3 30.271a14.1 14.1 0 00.24-.577h2.3a3.393 3.393 0 003.389-3.39V21.48a3.4 3.4 0 00-3.394-3.387zm.838 8.214a.84.84 0 01-.839.839h-3.193c-.016 0-.032 0-.048.005a1.273 1.273 0 00-.157.016 1.419 1.419 0 00-.094.018 1.387 1.387 0 00-.142.044 1.538 1.538 0 00-.094.038 1.215 1.215 0 00-.125.068c-.03.018-.059.036-.087.056a1.318 1.318 0 00-.107.088c-.026.024-.052.048-.077.074a1.22 1.22 0 00-.085.1.825.825 0 00-.066.1 1.151 1.151 0 00-.06.11c-.019.04-.036.08-.052.121-.007.019-.018.036-.023.055a12.315 12.315 0 01-.8 1.925c-.013.025-.019.051-.03.076s-.016.041-.024.061a1.265 1.265 0 00-.082.42v.055a1.278 1.278 0 00.082.423.395.395 0 00.023.051 1.262 1.262 0 00.249.374c.006.006.008.015.014.021l2.256 2.255a.84.84 0 010 1.186l-3.409 3.409a.858.858 0 01-1.186 0l-2.268-2.267c-.007-.007-.016-.009-.024-.016a1.268 1.268 0 00-.371-.247l-.053-.023a1.276 1.276 0 00-.423-.082h-.055a1.264 1.264 0 00-.42.082l-.061.024c-.026.011-.053.018-.079.031a12.763 12.763 0 01-1.922.8c-.017.006-.031.015-.048.021a1.19 1.19 0 00-.123.054c-.036.018-.073.036-.107.058s-.066.045-.1.07a1.147 1.147 0 00-.1.082 1.083 1.083 0 00-.08.085 1.188 1.188 0 00-.08.1 1.414 1.414 0 00-.123.206 1.224 1.224 0 00-.046.115 1.174 1.174 0 00-.037.119 1.148 1.148 0 00-.021.115 1.287 1.287 0 00-.014.138c0 .017-.005.033-.005.051v3.2a.839.839 0 01-.839.839h-4.819a.84.84 0 01-.839-.839v-3.216c0-.019 0-.036-.006-.055a1.262 1.262 0 00-.014-.137 1.082 1.082 0 00-.06-.235 1.15 1.15 0 00-.046-.115 1.356 1.356 0 00-.058-.106 1.106 1.106 0 00-.066-.1 1.16 1.16 0 00-.08-.1 1.148 1.148 0 00-.082-.084 1.218 1.218 0 00-.1-.081 1.379 1.379 0 00-.1-.07 1.1 1.1 0 00-.107-.058 1.2 1.2 0 00-.124-.053c-.018-.007-.034-.017-.053-.023a12.317 12.317 0 01-1.905-.79c-.024-.013-.05-.019-.075-.03l-.062-.024a1.249 1.249 0 00-.42-.082h-.054a1.271 1.271 0 00-.422.082l-.055.024a1.275 1.275 0 00-.371.247c-.007.007-.016.009-.023.016L49.9 38.298a.859.859 0 01-1.186 0l-3.409-3.41a.838.838 0 010-1.186l2.284-2.284c.007-.007.009-.017.016-.024a1.255 1.255 0 00.246-.371l.024-.055a1.265 1.265 0 00.082-.421v-.056a1.256 1.256 0 00-.082-.419c-.008-.021-.015-.041-.025-.062s-.017-.051-.029-.076a12.44 12.44 0 01-.785-1.9c-.006-.019-.016-.035-.023-.053a1.303 1.303 0 00-.112-.23 1.182 1.182 0 00-.068-.1 1.316 1.316 0 00-.084-.1 1.38 1.38 0 00-.078-.075 1.187 1.187 0 00-.106-.087 1.36 1.36 0 00-.089-.058 1.173 1.173 0 00-.123-.066c-.031-.014-.063-.026-.095-.038a1.228 1.228 0 00-.142-.044c-.031-.008-.063-.013-.094-.018a1.324 1.324 0 00-.158-.016h-3.273a.84.84 0 01-.839-.839v-4.834a.84.84 0 01.839-.839h3.234a1.258 1.258 0 00.346-.055c.024-.007.048-.014.072-.023a1.267 1.267 0 00.307-.156c.014-.01.026-.022.039-.032a1.259 1.259 0 00.227-.225c.013-.016.028-.031.039-.048a1.294 1.294 0 00.161-.317c0-.012.013-.021.016-.033a12.429 12.429 0 01.785-1.9c.013-.024.019-.051.029-.075l.024-.062a1.26 1.26 0 00.082-.419v-.056a1.265 1.265 0 00-.082-.421c-.007-.019-.016-.036-.024-.055a1.273 1.273 0 00-.246-.371c-.007-.007-.009-.016-.016-.024L45.3 14.081a.838.838 0 010-1.186l3.409-3.409a.859.859 0 011.186 0l2.277 2.278c.011.011.026.014.037.024a1.281 1.281 0 00.332.221c.036.016.07.033.106.046a1.132 1.132 0 00.853 0c.029-.01.056-.019.085-.031s.047-.014.07-.026a12.342 12.342 0 011.905-.79c.019-.006.035-.016.053-.023a1.209 1.209 0 00.124-.053.995.995 0 00.207-.128 1.214 1.214 0 00.1-.081 1.32 1.32 0 00.082-.085 1.166 1.166 0 00.08-.1 1.1 1.1 0 00.067-.1.89.89 0 00.104-.221c.013-.039.027-.078.037-.119s.016-.077.023-.116a1.231 1.231 0 00.014-.137c0-.019.006-.036.006-.055V6.776a.84.84 0 01.839-.839h4.819a.84.84 0 01.839.839v3.205c0 .018 0 .033.005.051a1.242 1.242 0 00.014.138 1.147 1.147 0 00.021.115c.01.041.023.08.037.119a1.211 1.211 0 00.046.115c.017.036.037.071.058.106s.041.07.065.1l.08.1c.028.035.052.058.08.085s.065.055.1.082.065.048.1.07.07.04.107.058a1.256 1.256 0 00.123.054c.017.006.031.016.048.021a12.8 12.8 0 011.922.8c.024.013.049.017.073.027s.056.022.086.032a1.132 1.132 0 00.853 0c.037-.013.07-.029.106-.045a1.256 1.256 0 00.333-.221c.011-.01.026-.013.036-.024l2.268-2.267a.859.859 0 011.186 0l3.409 3.409a.841.841 0 010 1.186l-2.256 2.255c-.007.007-.009.016-.015.023a1.251 1.251 0 00-.247.372c-.008.018-.016.035-.023.054a1.271 1.271 0 00-.082.422v.055a1.267 1.267 0 00.082.421l.024.06c.009.021.018.054.031.08a12.627 12.627 0 01.8 1.925c0 .011.011.018.014.029a1.262 1.262 0 00.164.321c.011.016.025.029.037.045a1.277 1.277 0 00.23.228c.013.009.023.021.036.03a1.263 1.263 0 00.307.156c.024.009.048.015.072.023a1.254 1.254 0 00.345.055h3.2a.84.84 0 01.839.839v4.824z"/><path data-name="Path 800" d="M21.028 31.763a9.522 9.522 0 109.523 9.522 9.533 9.533 0 00-9.523-9.522zm0 16.495A6.972 6.972 0 1128 41.286a6.98 6.98 0 01-6.972 6.972z"/><path data-name="Path 801" d="M38.124 35.482h-2.3q-.113-.29-.236-.572l1.627-1.626a3.394 3.394 0 000-4.794l-3.409-3.409a3.472 3.472 0 00-4.794 0l-1.638 1.637q-.279-.122-.566-.234v-2.317a3.393 3.393 0 00-3.389-3.389H18.6a3.394 3.394 0 00-3.39 3.389v2.331q-.278.109-.555.231l-1.649-1.649a3.4 3.4 0 00-4.794 0l-3.408 3.408a3.39 3.39 0 000 4.794l1.654 1.655q-.119.271-.226.543H3.895a3.394 3.394 0 00-3.39 3.39v4.824a3.394 3.394 0 003.39 3.39h2.336q.108.277.227.549l-1.655 1.655a3.39 3.39 0 000 4.794l3.408 3.409a3.4 3.4 0 004.794 0l1.649-1.649c.186.082.37.159.555.231v2.326a3.394 3.394 0 003.39 3.39h4.819a3.393 3.393 0 003.389-3.39v-2.311q.287-.112.567-.234l1.638 1.637a3.389 3.389 0 004.794 0l3.409-3.409a3.394 3.394 0 000-4.794l-1.627-1.627c.085-.193.164-.384.24-.577h2.3a3.394 3.394 0 003.39-3.39V38.87a3.4 3.4 0 00-3.394-3.388zm.839 8.215a.84.84 0 01-.839.839h-3.195c-.017 0-.033 0-.05.005a1.293 1.293 0 00-.157.016 1.36 1.36 0 00-.092.018 1.207 1.207 0 00-.147.046 1.628 1.628 0 00-.088.036 1.325 1.325 0 00-.131.072 1.108 1.108 0 00-.08.053 1.322 1.322 0 00-.113.093c-.025.023-.05.046-.073.071a1.283 1.283 0 00-.087.105.991.991 0 00-.066.1c-.021.035-.04.07-.058.107a1.3 1.3 0 00-.054.127c-.006.018-.016.033-.022.052a12.131 12.131 0 01-.795 1.923c-.013.025-.019.051-.03.077l-.023.06a1.253 1.253 0 00-.082.421v.055a1.278 1.278 0 00.082.423l.023.053a1.267 1.267 0 00.248.373c.006.006.008.016.014.022l2.256 2.255a.841.841 0 010 1.187l-3.409 3.408a.857.857 0 01-1.186 0l-2.268-2.267c-.008-.008-.018-.009-.025-.017a1.264 1.264 0 00-.368-.244l-.057-.024a1.269 1.269 0 00-.418-.082h-.059a1.255 1.255 0 00-.418.082l-.061.024c-.027.012-.055.018-.08.032a12.63 12.63 0 01-1.92.8c-.017.006-.031.015-.048.021a1.2 1.2 0 00-.123.054 1.237 1.237 0 00-.107.058 1.2 1.2 0 00-.1.07 1.032 1.032 0 00-.1.082c-.028.026-.055.055-.08.084s-.056.063-.08.1-.045.067-.065.1-.041.07-.058.106a1.237 1.237 0 00-.046.115 1.174 1.174 0 00-.037.119 1.147 1.147 0 00-.021.115 1.288 1.288 0 00-.014.138c0 .017-.005.033-.005.051v3.2a.84.84 0 01-.839.839h-4.819a.841.841 0 01-.839-.839v-3.216c0-.019-.005-.036-.006-.055a1.262 1.262 0 00-.014-.137 1.082 1.082 0 00-.023-.116 1.133 1.133 0 00-.037-.119 1.166 1.166 0 00-.046-.115 1.356 1.356 0 00-.058-.106 1.1 1.1 0 00-.066-.1c-.024-.034-.052-.065-.08-.1a1.142 1.142 0 00-.082-.084c-.031-.029-.064-.055-.1-.081s-.065-.048-.1-.069a1.1 1.1 0 00-.107-.058 1.2 1.2 0 00-.124-.053c-.018-.006-.034-.017-.053-.023a12.317 12.317 0 01-1.905-.79c-.025-.013-.05-.019-.075-.029l-.062-.024a1.249 1.249 0 00-.42-.082h-.053a1.269 1.269 0 00-.424.083l-.052.023a1.279 1.279 0 00-.373.248c-.007.006-.016.008-.023.015L11.194 55.7a.84.84 0 01-1.187 0l-3.408-3.409a.839.839 0 010-1.187l2.283-2.284c.007-.007.009-.016.016-.023a1.264 1.264 0 00.246-.37c.008-.019.017-.036.024-.056a1.3 1.3 0 00.082-.421v-.056a1.255 1.255 0 00-.082-.419l-.024-.062c-.009-.021-.017-.051-.029-.076a12.436 12.436 0 01-.785-1.9c-.006-.018-.016-.034-.023-.051a1.34 1.34 0 00-.111-.23c-.021-.034-.044-.066-.068-.1a1.266 1.266 0 00-.083-.1c-.026-.028-.054-.053-.082-.079a1.256 1.256 0 00-.2-.146c-.035-.02-.072-.041-.11-.06s-.073-.031-.111-.045-.082-.028-.124-.038a1.133 1.133 0 00-.112-.021 1.301 1.301 0 00-.14-.014c-.018 0-.035-.005-.053-.005H3.892a.84.84 0 01-.839-.839v-4.824a.84.84 0 01.839-.839h3.234a1.237 1.237 0 00.346-.055.862.862 0 00.072-.023 1.263 1.263 0 00.307-.156c.014-.009.026-.022.039-.032a1.277 1.277 0 00.226-.225c.013-.016.028-.031.04-.048a1.292 1.292 0 00.161-.317c0-.012.013-.021.016-.033a12.407 12.407 0 01.785-1.9c.013-.025.019-.051.03-.077l.024-.061a1.265 1.265 0 00.082-.42v-.055a1.269 1.269 0 00-.083-.424.467.467 0 00-.023-.051 1.265 1.265 0 00-.248-.375c-.006-.006-.008-.015-.014-.022l-2.283-2.284a.838.838 0 010-1.186l3.408-3.408a.84.84 0 011.187 0l2.277 2.278c.011.011.026.014.037.025a1.266 1.266 0 00.332.221c.036.016.07.033.106.046a1.132 1.132 0 00.853 0c.029-.01.056-.019.085-.031s.047-.014.07-.026a12.317 12.317 0 011.905-.79c.018-.006.035-.016.053-.023a1.209 1.209 0 00.124-.053.995.995 0 00.207-.128 1.2 1.2 0 00.1-.081c.029-.027.055-.055.082-.084a1.171 1.171 0 00.08-.1 1.1 1.1 0 00.067-.1.89.89 0 00.104-.221 1.14 1.14 0 00.037-.119c.009-.038.017-.077.023-.117a1.247 1.247 0 00.014-.137c0-.019.006-.036.006-.055v-3.222a.84.84 0 01.839-.839h4.819a.84.84 0 01.839.839v3.205c0 .018 0 .034.005.051a1.258 1.258 0 00.014.138 1.157 1.157 0 00.058.234 1.22 1.22 0 00.046.115 1.165 1.165 0 00.058.106c.021.035.041.07.065.1l.08.1c.028.035.052.058.08.085s.065.055.1.082a1.192 1.192 0 00.1.07c.034.021.07.04.107.058a1.27 1.27 0 00.123.054c.017.006.031.016.048.021a12.631 12.631 0 011.92.8c.024.013.05.017.075.028s.055.021.084.031a1.134 1.134 0 00.854 0c.036-.013.07-.029.106-.045a1.257 1.257 0 00.331-.22c.011-.011.026-.014.038-.025l2.268-2.267a.859.859 0 011.186 0l3.409 3.409a.841.841 0 010 1.187l-2.256 2.255c-.007.007-.009.016-.016.024a1.276 1.276 0 00-.247.371l-.024.056a1.271 1.271 0 00-.082.42v.058a1.258 1.258 0 00.081.417c.008.022.016.043.026.065s.018.053.031.078a12.491 12.491 0 01.794 1.923c0 .011.012.02.016.031a1.266 1.266 0 00.162.318c.012.017.026.031.038.046a1.261 1.261 0 00.229.226l.037.031a1.262 1.262 0 00.307.156c.024.009.048.015.072.023a1.255 1.255 0 00.345.055h3.2a.84.84 0 01.839.839v4.822z"/><path data-name="Path 802" d="M21.028 17.577a1.276 1.276 0 001.275-1.275v-6.111a2.036 2.036 0 012.033-2.033h13.043l-2.823 2.947a1.275 1.275 0 101.842 1.764l4.889-5.105a397.363 397.363 0 01.257-.4 1.188 1.188 0 00.051-.238 1 1 0 00-.188-.932 1.216 1.216 0 00-.12-.19l-4.889-5.1a1.275 1.275 0 10-1.841 1.765l2.823 2.948H24.333a4.589 4.589 0 00-4.584 4.583v6.112a1.274 1.274 0 001.279 1.265z"/></g></svg>