<svg xmlns="http://www.w3.org/2000/svg" width="69.823" height="55.72"><g data-name="Group 454" fill="#0444cc" stroke="#fff" stroke-width=".5"><path data-name="Path 1723" d="M13.5 51.713h2.705a1.071 1.071 0 100-2.143H13.5a1.071 1.071 0 000 2.143z"/><path data-name="Path 1724" d="M64.635.25H45.301a4.944 4.944 0 00-4.938 4.938v11.356a10.9 10.9 0 00-6.557 9.984 8.744 8.744 0 01-4.345 7.55V5.188A4.943 4.943 0 0024.523.25H5.189A4.944 4.944 0 00.251 5.188v45.344a4.944 4.944 0 004.938 4.938h19.334a4.944 4.944 0 004.938-4.938V40.356a1.072 1.072 0 00-2.143 0v5.418H2.394V5.187a2.8 2.8 0 012.794-2.795h19.334a2.8 2.8 0 012.795 2.795v29.785a8.708 8.708 0 01-2.252.3h-.625a4.472 4.472 0 100 2.144h.625a10.9 10.9 0 0010.884-10.884 8.75 8.75 0 018.74-8.74h4.268l-.865.71a1.072 1.072 0 101.361 1.656l3.177-2.61a1.072 1.072 0 00.047-1.615L49.5 12.997a1.072 1.072 0 00-1.455 1.574l1.166 1.077H44.69a10.886 10.886 0 00-2.183.22V5.191a2.8 2.8 0 012.795-2.795h19.334a2.8 2.8 0 012.795 2.795v40.587H42.505V21.769a1.072 1.072 0 00-2.143 0v28.765a4.944 4.944 0 004.938 4.938h19.335a4.943 4.943 0 004.938-4.938V5.19A4.942 4.942 0 0064.635.25zm-37.32 47.667v2.613a2.8 2.8 0 01-2.795 2.795H5.186a2.8 2.8 0 01-2.795-2.795v-2.613zm-7.213-9.249a2.329 2.329 0 112.328-2.329 2.331 2.331 0 01-2.328 2.33zm44.533 14.656H45.301a2.8 2.8 0 01-2.795-2.794v-2.614H67.43v2.614a2.8 2.8 0 01-2.795 2.794z"/><path data-name="Path 1725" d="M56.319 49.568h-2.7a1.072 1.072 0 000 2.143h2.7a1.072 1.072 0 000-2.143z"/></g></svg>