<svg xmlns="http://www.w3.org/2000/svg" width="148.756" height="103.105"><g data-name="mysql (1)"><path data-name="Path 2244" d="M0 0h148.758v103.105H0z" fill="none"/><path data-name="Path 2245" d="M45.532 83.271h-4.025q-.214-10.2-1.176-19.177h-.036l-6.132 19.177h-3.065l-6.095-19.177h-.035q-.678 8.624-.855 19.177h-3.671q.355-12.832 1.781-24.062h4.991l5.809 17.68h.036l5.845-17.68h4.776q1.569 13.153 1.854 24.062M63 65.518q-2.46 13.347-6.488 19.4-3.138 4.66-6.879 4.661a6.762 6.762 0 01-2.459-.6v-2.146a11.844 11.844 0 001.675.107 4.048 4.048 0 002.817-.963 3.515 3.515 0 001.282-2.637 17.543 17.543 0 00-1-4.1l-4.416-13.723h3.956l3.172 10.265a13.851 13.851 0 01.891 4.885 67.049 67.049 0 003.637-15.15h3.814z" fill="#5d87a1"/><path data-name="Path 2246" d="M116.608 83.27h-11.44V59.209h3.848v21.1h7.591zm-14.434.581l-4.423-2.183a8.221 8.221 0 001.105-1.075q2.82-3.313 2.818-9.8 0-11.94-9.374-11.942a8.877 8.877 0 00-7.165 3.031q-2.819 3.315-2.817 9.765 0 6.344 2.494 9.3 2.282 2.674 6.882 2.675a11.087 11.087 0 003.15-.423l5.759 3.353zm-14.329-5.4q-1.463-2.346-1.463-7.549 0-9.088 5.525-9.091a4.636 4.636 0 014.24 2.173q1.459 2.354 1.462 7.486 0 9.162-5.525 9.163a4.627 4.627 0 01-4.242-2.176m-7.2-1.854a6.384 6.384 0 01-2.244 5.026 8.84 8.84 0 01-6.021 1.96 12.058 12.058 0 01-6.844-2.247l1.034-2.066a11.707 11.707 0 005.166 1.425 5.426 5.426 0 003.4-.959 3.268 3.268 0 001.311-2.672c0-1.43-1-2.651-2.826-3.675-1.686-.926-5.059-2.862-5.059-2.862a5.759 5.759 0 01-2.743-5.119 5.978 5.978 0 012.048-4.722 7.72 7.72 0 015.294-1.8 10.977 10.977 0 016.093 1.783l-.928 2.067a11.78 11.78 0 00-4.631-1 4.126 4.126 0 00-2.848.892 2.981 2.981 0 00-1.079 2.282c0 1.423 1.018 2.66 2.9 3.7 1.709.928 5.166 2.9 5.166 2.9a5.686 5.686 0 012.811 5.085" fill="#f8981d"/><path data-name="Path 2247" d="M121.438 51.15a13.435 13.435 0 00-5.64.815c-.437.174-1.131.174-1.191.726.236.233.263.61.468.932a6.755 6.755 0 001.511 1.771c.609.467 1.221.929 1.862 1.336 1.131.7 2.412 1.107 3.514 1.8.642.405 1.28.93 1.923 1.367.316.233.518.61.928.756v-.089c-.205-.261-.264-.64-.465-.931l-.873-.842a13.837 13.837 0 00-3.023-2.935c-.931-.641-2.967-1.513-3.344-2.585l-.059-.059a11.581 11.581 0 002.006-.47c.989-.261 1.891-.2 2.906-.462.467-.117.93-.263 1.4-.407v-.262c-.526-.524-.9-1.219-1.454-1.714a38.709 38.709 0 00-4.8-3.576c-.9-.583-2.064-.958-3.025-1.454-.346-.175-.93-.261-1.134-.553a11.844 11.844 0 01-1.193-2.239 73.25 73.25 0 01-2.382-5.06 31.442 31.442 0 00-1.483-3.313A29.322 29.322 0 0096.639 22.83a13.942 13.942 0 00-3.719-1.193l-2.181-.115a11.558 11.558 0 01-1.338-1.019c-1.658-1.042-5.932-3.312-7.149-.312-.786 1.892 1.163 3.752 1.832 4.711a13.363 13.363 0 011.48 2.181c.2.494.262 1.019.467 1.541a34.822 34.822 0 001.512 3.9 13.872 13.872 0 001.075 1.8c.233.322.64.465.728.99a8.343 8.343 0 00-.67 2.18 12.811 12.811 0 00.845 9.768c.464.727 1.57 2.327 3.051 1.714 1.311-.523 1.02-2.18 1.4-3.633.086-.351.03-.581.2-.812v.057c.405.813.815 1.6 1.191 2.412a16.576 16.576 0 003.781 3.893c.7.526 1.248 1.426 2.121 1.747v-.087h-.058a3.257 3.257 0 00-.667-.58 14.116 14.116 0 01-1.512-1.744 37.446 37.446 0 01-3.254-5.293c-.468-.9-.872-1.889-1.25-2.791-.176-.348-.176-.872-.468-1.047a10.874 10.874 0 00-1.394 1.975 16.444 16.444 0 00-.816 4.394l-.114.056c-.926-.233-1.248-1.191-1.6-2a12.592 12.592 0 01-.261-7.763c.2-.609 1.078-2.528.728-3.109-.175-.556-.757-.873-1.076-1.311a11.818 11.818 0 01-1.047-1.86c-.7-1.627-1.048-3.43-1.8-5.057a15.661 15.661 0 00-1.454-2.24 14.4 14.4 0 01-1.6-2.267c-.145-.32-.348-.843-.115-1.191a.463.463 0 01.407-.379c.377-.318 1.453.086 1.83.261a14.73 14.73 0 012.879 1.453c.407.292.844.844 1.366.99h.612c.928.2 1.975.056 2.849.319a18.715 18.715 0 014.187 2 25.8 25.8 0 019.068 9.944c.348.668.5 1.279.813 1.976.612 1.426 1.37 2.879 1.977 4.275a19.155 19.155 0 002.065 3.895c.435.61 2.183.93 2.967 1.25a20.507 20.507 0 012.005.812c.989.609 1.974 1.309 2.9 1.979.463.349 1.918 1.075 2 1.658M91.784 25.891a4.529 4.529 0 00-1.19.146v.054h.056a9.487 9.487 0 00.932 1.192c.234.466.437.928.667 1.394l.056-.058a1.634 1.634 0 00.614-1.454 6.646 6.646 0 01-.351-.61c-.171-.291-.549-.436-.784-.669" fill="#5d87a1"/><path data-name="Path 2248" d="M124.207 83.267h.6v-2.948h-.9l-.737 2.012-.8-2.012h-.87v2.948h.569v-2.243h.032l.839 2.243h.433l.836-2.243v2.243zm-4.852 0h.637v-2.448h.834v-.5h-2.336v.5h.868v2.448z" fill="#f8981d"/></g></svg>