<svg xmlns="http://www.w3.org/2000/svg" width="58.5" height="49.956"><g data-name="Group 461" transform="translate(-168.962 -388.25)" fill="none" stroke="#0444cc" stroke-linecap="round" stroke-linejoin="round" stroke-width="1.5"><path data-name="Path 2140" d="M199.798 428.762h-26.681a3.14 3.14 0 01-3.14-3.138v-33.486a3.14 3.14 0 013.14-3.138H220.8a3.14 3.14 0 013.14 3.138v1.122"/><path data-name="Line 20" d="M198.712 419.456h-29"/><path data-name="Line 21" d="M199.712 437.456h-14"/><path data-name="Path 2141" d="M188.762 436.655l3.121-2.2a2.4 2.4 0 00.815-1.964l-.007-3.729"/><path data-name="Line 22" d="M187.712 398.456h11"/><path data-name="Line 23" d="M187.712 405.456h11"/><path data-name="Line 24" d="M176.712 409.456h22"/><path data-name="Path 2142" d="M177.077 404.62h7.1v-5.68"/><path data-name="Path 2143" d="M184.177 398.94h-7.1v5.68"/><rect data-name="Rectangle 156" width="23" height="42" rx="1.432" transform="translate(203.712 395.456)"/><path data-name="Line 25" d="M218.712 408.456h3"/><path data-name="Line 26" d="M218.712 415.456h3"/><path data-name="Line 27" d="M209.712 419.456h12"/><path data-name="Rectangle 157" d="M209.712 408.456h4v7h-4z"/><path data-name="Line 28" d="M203.712 401.456h23"/><path data-name="Line 29" d="M203.712 427.456h23"/><path data-name="Line 30" d="M213.712 432.456h3"/></g></svg>