<svg xmlns="http://www.w3.org/2000/svg" width="89.199" height="89.199"><circle data-name="Ellipse 335" cx="43.987" cy="43.987" transform="translate(1.226)" fill="#5c2d91" r="43.987"/><path data-name="Path 2222" d="M14.724 12.371a43.987 43.987 0 1062.1 62.1z" fill="#fff" opacity=".1"/><path data-name="Path 2223" d="M11.397 51.204a1.856 1.856 0 01-1.375-.577 1.9 1.9 0 01-.564-1.375 1.924 1.924 0 01.564-1.375 1.842 1.842 0 011.375-.591 1.883 1.883 0 011.375.591 1.911 1.911 0 01.577 1.375 1.971 1.971 0 01-1.952 1.952z" fill="#fff"/><path data-name="Path 2224" d="M38.711 50.86h-3.6L22.23 30.873a8.248 8.248 0 01-.8-1.567h-.11a25.733 25.733 0 01.137 3.436V50.86h-2.925V25.801h3.81l12.534 19.63q.784 1.223 1.017 1.677h.069a26.5 26.5 0 01-.179-3.684V25.801h2.928z" fill="#fff"/><path data-name="Path 2225" d="M58.532 50.86h-13.32V25.801h12.7v2.653h-9.7v8.33h9.045v2.639h-9.045v8.687h10.333z" fill="#fff"/><path data-name="Path 2226" d="M78.202 28.454h-7.285V50.86h-2.928V28.454h-7.2v-2.653h17.413z" fill="#fff"/><path data-name="Path 2227" d="M37.129 67.905a6.777 6.777 0 01-3.189.674 5.141 5.141 0 01-3.945-1.581 5.856 5.856 0 01-1.485-4.124 6.131 6.131 0 011.663-4.481 5.663 5.663 0 014.234-1.7 6.777 6.777 0 012.749.481v1.373a5.5 5.5 0 00-2.749-.687 4.206 4.206 0 00-3.23 1.375 5 5 0 00-1.237 3.546 4.77 4.77 0 001.155 3.366 3.931 3.931 0 003.038 1.251 5.691 5.691 0 003.01-.77z" fill="#f2f2f2"/><path data-name="Path 2228" d="M42.752 68.578a3.821 3.821 0 01-2.928-1.223 4.275 4.275 0 01-1.086-3.065 4.454 4.454 0 011.141-3.244 4.124 4.124 0 013.067-1.17 3.7 3.7 0 012.871 1.139 4.509 4.509 0 011.029 3.15 4.426 4.426 0 01-1.113 3.162 3.9 3.9 0 01-2.981 1.251zm.1-7.519a2.516 2.516 0 00-2.007.866 3.56 3.56 0 00-.746 2.39 3.368 3.368 0 00.742 2.309 2.543 2.543 0 002.007.852 2.419 2.419 0 001.966-.825 3.6 3.6 0 00.687-2.364 3.656 3.656 0 00-.687-2.378 2.406 2.406 0 00-1.966-.852z" fill="#f2f2f2"/><path data-name="Path 2229" d="M53.267 61.471a1.622 1.622 0 00-1-.261 1.691 1.691 0 00-1.375.8 3.684 3.684 0 00-.564 2.172v4.206h-1.377v-8.25h1.375v1.718a2.887 2.887 0 01.866-1.375A1.966 1.966 0 0152.484 60a2.158 2.158 0 01.784.11z" fill="#f2f2f2"/><path data-name="Path 2230" d="M61.323 64.605h-5.815a3.079 3.079 0 00.7 2.117 2.557 2.557 0 001.952.742 4.124 4.124 0 002.557-.921v1.237a4.784 4.784 0 01-2.873.784 3.491 3.491 0 01-2.749-1.127 4.6 4.6 0 01-1-3.162 4.509 4.509 0 011.086-3.134 3.505 3.505 0 012.749-1.211 3.107 3.107 0 012.5 1.045 4.371 4.371 0 01.88 2.914zm-1.375-1.113a2.749 2.749 0 00-.55-1.773 1.883 1.883 0 00-1.512-.632 2.131 2.131 0 00-1.581.674 3.038 3.038 0 00-.811 1.746z" fill="#f2f2f2"/></svg>