<svg xmlns="http://www.w3.org/2000/svg" width="94.538" height="84.19"><path data-name="Path 2182" d="M94.538 42.1c0-6.263-7.843-12.2-19.867-15.878 2.775-12.256 1.542-22.006-3.893-25.128A8.448 8.448 0 0066.462.015v4.3a4.462 4.462 0 012.2.5c2.621 1.5 3.758 7.226 2.871 14.587-.212 1.811-.559 3.719-.983 5.665a93.386 93.386 0 00-12.236-2.1 94 94 0 00-8.016-9.635c6.282-5.839 12.179-9.038 16.187-9.038V0c-5.3 0-12.236 3.777-19.251 10.329C40.22 3.816 33.283.077 27.983.077v4.3c3.989 0 9.9 3.18 16.187 8.98a91.012 91.012 0 00-7.958 9.616 89.989 89.989 0 00-12.256 2.12 57.704 57.704 0 01-1-5.588c-.906-7.361.212-13.084 2.813-14.607a4.289 4.289 0 012.216-.5V.1a8.592 8.592 0 00-4.355 1.079c-5.415 3.122-6.629 12.853-3.835 25.07C7.809 29.949.005 35.865.005 42.108c0 6.263 7.843 12.2 19.867 15.878-2.775 12.256-1.542 22.006 3.893 25.128a8.471 8.471 0 004.336 1.079c5.3 0 12.236-3.777 19.251-10.329 7.014 6.513 13.951 10.252 19.251 10.252a8.592 8.592 0 004.355-1.079c5.415-3.122 6.629-12.853 3.835-25.07 11.947-3.681 19.752-9.616 19.752-15.859zM69.449 29.247c-.713 2.486-1.6 5.049-2.6 7.612a91.683 91.683 0 00-2.524-4.625 103.517 103.517 0 00-2.775-4.509c2.734.409 5.374.91 7.899 1.527zm-8.826 20.522c-1.5 2.6-3.045 5.068-4.644 7.361-2.871.251-5.781.385-8.71.385-2.91 0-5.819-.135-8.671-.366q-2.4-3.44-4.663-7.323-2.2-3.787-4.008-7.669a100.828 100.828 0 013.989-7.689c1.5-2.6 3.045-5.068 4.644-7.361 2.871-.251 5.781-.385 8.71-.385 2.91 0 5.819.135 8.671.366q2.4 3.44 4.663 7.323 2.2 3.787 4.008 7.669a105.99 105.99 0 01-3.989 7.694zm6.224-2.505a82.365 82.365 0 012.659 7.669 86.483 86.483 0 01-7.939 1.542 107.339 107.339 0 002.775-4.567 105.626 105.626 0 002.505-4.639zm-19.54 20.561a79.443 79.443 0 01-5.357-6.166c1.734.077 3.507.135 5.3.135 1.811 0 3.6-.039 5.357-.135a75.224 75.224 0 01-5.299 6.171zM32.97 56.475a85.574 85.574 0 01-7.9-1.522c.713-2.486 1.6-5.049 2.6-7.612.79 1.542 1.619 3.083 2.524 4.625s1.833 3.049 2.777 4.514zm14.24-40.1a79.453 79.453 0 015.357 6.166 119.397 119.397 0 00-5.3-.135c-1.811 0-3.6.039-5.357.135a75.209 75.209 0 015.301-6.162zm-14.26 11.35a107.339 107.339 0 00-5.28 9.192 82.365 82.365 0 01-2.659-7.669 92.314 92.314 0 017.939-1.522zM15.511 51.851C8.689 48.941 4.277 45.126 4.277 42.1s4.413-6.86 11.234-9.751c1.657-.713 3.469-1.349 5.338-1.946a92.554 92.554 0 004.336 11.735 91.245 91.245 0 00-4.278 11.678 59.884 59.884 0 01-5.4-1.966zm10.367 27.537c-2.621-1.5-3.758-7.226-2.871-14.587.212-1.811.559-3.719.983-5.665a93.391 93.391 0 0012.236 2.1 94.005 94.005 0 008.016 9.635c-6.282 5.839-12.179 9.038-16.187 9.038a4.6 4.6 0 01-2.176-.517zm45.708-14.684c.906 7.361-.212 13.084-2.813 14.607a4.289 4.289 0 01-2.216.5c-3.989 0-9.9-3.18-16.187-8.98a91.018 91.018 0 007.958-9.616 89.98 89.98 0 0012.256-2.12 53.957 53.957 0 011.004 5.613zm7.419-12.853c-1.657.713-3.469 1.349-5.338 1.946a92.538 92.538 0 00-4.336-11.735 91.244 91.244 0 004.278-11.678c1.908.6 3.719 1.253 5.415 1.966 6.822 2.91 11.234 6.725 11.234 9.751-.019 3.025-4.432 6.86-11.254 9.751z" fill="#61dafb"/><circle data-name="Ellipse 334" cx="8.806" cy="8.806" transform="translate(38.443 33.298)" fill="#61dafb" r="8.806"/></svg>