<svg width="200" height="36" viewBox="0 0 200 36" fill="none" xmlns="http://www.w3.org/2000/svg">
<g clip-path="url(#clip0_74_8233)">
<path d="M12.385 33.6045L0.350586 33.6045L0.350585 9.72159L1.97606 9.72159L1.97606 31.9683L12.385 31.9683L12.385 33.6045Z" fill="#231F20"/>
<path d="M12.385 33.6045L0.350586 33.6045L0.350585 9.72159L1.97606 9.72159L1.97606 31.9683L12.385 31.9683L12.385 33.6045Z" stroke="#231F20" stroke-width="0.93" stroke-miterlimit="10"/>
<path d="M60.1056 33.6045L51.4115 12.934L51.4115 33.6045L49.9277 33.6045L49.9277 9.72159L51.6949 9.72159L60.8661 31.4654L70.1119 9.72159L71.8492 9.72159L71.8492 33.6045L70.358 33.6045L70.358 12.8965L61.731 33.6045L60.1056 33.6045Z" fill="#231F20"/>
<path d="M60.1056 33.6045L51.4115 12.934L51.4115 33.6045L49.9277 33.6045L49.9277 9.72159L51.6949 9.72159L60.8661 31.4654L70.1119 9.72159L71.8492 9.72159L71.8492 33.6045L70.358 33.6045L70.358 12.8965L61.731 33.6045L60.1056 33.6045Z" stroke="#231F20" stroke-width="0.93" stroke-miterlimit="10"/>
<path d="M82.7872 9.72173L82.7872 24.6955C82.7872 25.6937 82.9736 26.6394 83.3539 27.5326C83.7342 28.4257 84.2487 29.2063 84.9123 29.8668C85.5759 30.5348 86.3439 31.0602 87.2312 31.4505C88.1185 31.8408 89.058 32.036 90.0496 32.036C91.0413 32.036 92.0554 31.8258 92.9502 31.413C93.8449 31.0002 94.6204 30.4298 95.2691 29.7242C95.9177 29.0112 96.4248 28.1856 96.7901 27.2474C97.1555 26.3092 97.3419 25.3034 97.3419 24.2376L97.3419 9.72923L98.9674 9.72923L98.9674 24.6955C98.9674 25.9564 98.7362 27.1273 98.2739 28.2081C97.8116 29.2889 97.1779 30.2421 96.3651 31.0602C95.5524 31.8783 94.598 32.5238 93.5168 32.9817C92.4282 33.447 91.2725 33.6797 90.0496 33.6797C88.8268 33.6797 87.6264 33.447 86.5452 32.9817C85.4566 32.5163 84.5245 31.8783 83.7267 31.0602C82.9364 30.2421 82.31 29.2889 81.8477 28.2081C81.3854 27.1273 81.1543 25.9564 81.1543 24.6955L81.1543 9.72173L82.7798 9.72173L82.7872 9.72173Z" fill="#231F20"/>
<path d="M82.7876 9.72172L82.7876 24.6955C82.7876 25.6937 82.974 26.6394 83.3543 27.5326C83.7345 28.4257 84.249 29.2063 84.9126 29.8668C85.5762 30.5348 86.3442 31.0602 87.2315 31.4505C88.1188 31.8408 89.0583 32.036 90.05 32.036C91.0417 32.036 92.0558 31.8258 92.9505 31.413C93.8453 31.0002 94.6207 30.4298 95.2694 29.7242C95.9181 29.0112 96.4251 28.1856 96.7905 27.2474C97.1558 26.3092 97.3423 25.3034 97.3423 24.2376L97.3423 9.72923L98.9752 9.72923L98.9752 24.6954C98.9752 25.9564 98.744 27.1273 98.2817 28.2081C97.8195 29.2889 97.1857 30.2421 96.3729 31.0602C95.5602 31.8783 94.6058 32.5238 93.5246 32.9817C92.436 33.447 91.2803 33.6797 90.0575 33.6797C88.8346 33.6797 87.6342 33.447 86.553 32.9817C85.4644 32.5163 84.5324 31.8783 83.7345 31.0602C82.9442 30.2421 82.3178 29.2889 81.8555 28.2081C81.3933 27.1273 81.1621 25.9564 81.1621 24.6955L81.1621 9.72172L82.7876 9.72172Z" stroke="#231F20" stroke-width="0.93" stroke-miterlimit="10"/>
<path d="M125.743 9.72159L125.743 33.6045L124.468 33.6045L109.809 12.8214L109.809 33.6045L108.325 33.6045L108.325 9.72159L109.742 9.72159L124.259 30.5047L124.259 9.72159L125.743 9.72159Z" fill="#231F20"/>
<path d="M125.743 9.72159L125.743 33.6045L124.468 33.6045L109.809 12.8214L109.809 33.6045L108.325 33.6045L108.325 9.72159L109.742 9.72159L124.259 30.5047L124.259 9.72159L125.743 9.72159Z" stroke="#231F20" stroke-width="0.93" stroke-miterlimit="10"/>
<path d="M137.009 11.365L137.009 31.968L140.73 31.968C142.146 31.968 143.474 31.6978 144.711 31.1649C145.949 30.632 147.03 29.8964 147.955 28.9657C148.872 28.035 149.61 26.9467 150.147 25.7008C150.691 24.4473 150.96 23.1113 150.96 21.6852C150.96 20.2592 150.691 18.9157 150.147 17.6547C149.603 16.3938 148.872 15.298 147.955 14.3673C147.03 13.4366 145.956 12.7085 144.711 12.1681C143.474 11.6352 142.146 11.365 140.73 11.365L137.009 11.365ZM140.715 9.72128C142.363 9.72128 143.906 10.029 145.345 10.652C146.784 11.2674 148.037 12.1156 149.11 13.2039C150.184 14.2847 151.034 15.5607 151.653 17.0167C152.279 18.4803 152.593 20.0415 152.593 21.7003C152.593 23.359 152.279 24.9202 151.653 26.3688C151.027 27.8173 150.177 29.0783 149.11 30.1441C148.037 31.2099 146.784 32.058 145.345 32.6735C143.906 33.2889 142.363 33.5967 140.715 33.5967L135.376 33.5967L135.376 9.71377L140.715 9.71377L140.715 9.72128Z" fill="#231F20"/>
<path d="M137.009 11.365L137.009 31.968L140.73 31.968C142.146 31.968 143.474 31.6978 144.711 31.1649C145.949 30.632 147.03 29.8964 147.955 28.9657C148.872 28.035 149.61 26.9467 150.147 25.7008C150.691 24.4473 150.96 23.1113 150.96 21.6852C150.96 20.2592 150.691 18.9157 150.147 17.6547C149.603 16.3938 148.872 15.298 147.955 14.3673C147.03 13.4366 145.956 12.7085 144.711 12.1681C143.474 11.6352 142.146 11.365 140.73 11.365L137.009 11.365ZM140.715 9.72128C142.363 9.72128 143.906 10.029 145.345 10.652C146.784 11.2674 148.037 12.1156 149.11 13.2039C150.184 14.2847 151.034 15.5607 151.653 17.0167C152.272 18.4728 152.593 20.0415 152.593 21.7003C152.593 23.359 152.279 24.9202 151.653 26.3688C151.027 27.8173 150.177 29.0783 149.11 30.1441C148.037 31.2099 146.784 32.058 145.345 32.6735C143.906 33.2889 142.363 33.5967 140.715 33.5967L135.376 33.5967L135.376 9.71377L140.715 9.71377L140.715 9.72128Z" stroke="#231F20" stroke-width="0.93" stroke-miterlimit="10"/>
<path d="M165.157 26.3315L175.282 26.3315L170.145 11.9282L165.149 26.3315L165.157 26.3315ZM160.944 33.6045L169.302 9.72159L170.965 9.72159L179.607 33.6045L177.87 33.6045L175.745 27.7201L164.695 27.7201L162.674 33.6045L160.937 33.6045L160.944 33.6045Z" fill="#231F20"/>
<path d="M165.157 26.3315L175.282 26.3315L170.145 11.9282L165.149 26.3315L165.157 26.3315ZM160.944 33.6045L169.302 9.72159L170.965 9.72159L179.607 33.6045L177.87 33.6045L175.745 27.7201L164.695 27.7201L162.674 33.6045L160.937 33.6045L160.944 33.6045Z" stroke="#231F20" stroke-width="0.93" stroke-miterlimit="10"/>
<path d="M199.65 33.6045L187.615 33.6045L187.615 9.72159L189.241 9.72159L189.241 31.9683L199.65 31.9683L199.65 33.6045Z" fill="#231F20"/>
<path d="M199.65 33.6045L187.615 33.6045L187.615 9.72159L189.241 9.72159L189.241 31.9683L199.65 31.9683L199.65 33.6045Z" stroke="#231F20" stroke-width="0.93" stroke-miterlimit="10"/>
<mask id="path-15-inside-1_74_8233" fill="white">
<path d="M38.9073 21.1301L41.2112 21.1301C41.4648 22.0383 41.599 22.984 41.599 23.9672C41.599 30.0918 36.3274 35.0605 29.818 35.0605C23.3087 35.0605 18.0371 30.0993 18.0371 23.9747C18.0371 23.2092 18.1191 22.4586 18.2757 21.7381C18.2757 21.7381 18.3354 18.5031 29.8031 1.02253L37.4756 14.2775L34.9032 14.2775L29.7882 5.45835C22.3543 16.6567 21.0942 20.5146 21.0942 20.5146C20.6617 21.5504 20.4306 22.6763 20.4306 23.8622C20.4306 28.8684 24.6508 32.9214 29.8553 32.9214C35.0598 32.9214 39.0564 28.9585 39.1682 23.8622C39.1682 23.8622 39.1309 22.6913 38.9073 21.1376"/>
</mask>
<path d="M38.9073 21.1301L41.2112 21.1301C41.4648 22.0383 41.599 22.984 41.599 23.9672C41.599 30.0918 36.3274 35.0605 29.818 35.0605C23.3087 35.0605 18.0371 30.0993 18.0371 23.9747C18.0371 23.2092 18.1191 22.4586 18.2757 21.7381C18.2757 21.7381 18.3354 18.5031 29.8031 1.02253L37.4756 14.2775L34.9032 14.2775L29.7882 5.45835C22.3543 16.6567 21.0942 20.5146 21.0942 20.5146C20.6617 21.5504 20.4306 22.6763 20.4306 23.8622C20.4306 28.8684 24.6508 32.9214 29.8553 32.9214C35.0598 32.9214 39.0564 28.9585 39.1682 23.8622C39.1682 23.8622 39.1309 22.6913 38.9073 21.1376" fill="#231F20"/>
<path d="M41.2112 21.1301L42.1744 20.8612L41.9703 20.1301L41.2112 20.1301L41.2112 21.1301ZM18.2757 21.7381L19.2529 21.9504L19.2737 21.8546L19.2755 21.7565L18.2757 21.7381ZM29.8031 1.02253L30.6686 0.52156L29.8564 -0.881665L28.967 0.474002L29.8031 1.02253ZM37.4756 14.2775L37.4756 15.2775L39.2099 15.2775L38.3411 13.7765L37.4756 14.2775ZM34.9032 14.2775L34.0382 14.7792L34.3272 15.2775L34.9032 15.2775L34.9032 14.2775ZM29.7882 5.45835L30.6533 4.95664L29.8455 3.56396L28.9551 4.90529L29.7882 5.45835ZM21.0942 20.5146L22.017 20.8999L22.0324 20.8631L22.0448 20.8251L21.0942 20.5146ZM39.1682 23.8622L40.168 23.8841L40.1686 23.8572L40.1677 23.8303L39.1682 23.8622ZM38.9073 22.1301L41.2112 22.1301L41.2112 20.1301L38.9073 20.1301L38.9073 22.1301ZM40.2481 21.399C40.4775 22.2209 40.599 23.0762 40.599 23.9672L42.599 23.9672C42.599 22.8918 42.452 21.8556 42.1744 20.8612L40.2481 21.399ZM40.599 23.9672C40.599 29.484 35.8323 34.0605 29.818 34.0605L29.818 36.0605C36.8224 36.0605 42.599 30.6996 42.599 23.9672L40.599 23.9672ZM29.818 34.0605C23.8029 34.0605 19.0371 29.4907 19.0371 23.9747L17.0371 23.9747C17.0371 30.708 22.8145 36.0605 29.818 36.0605L29.818 34.0605ZM19.0371 23.9747C19.0371 23.2805 19.1115 22.6011 19.2529 21.9504L17.2985 21.5257C17.1268 22.3161 17.0371 23.1379 17.0371 23.9747L19.0371 23.9747ZM18.2757 21.7381C19.2755 21.7565 19.2755 21.7582 19.2755 21.7598C19.2755 21.7603 19.2754 21.762 19.2754 21.763C19.2753 21.7651 19.2753 21.7672 19.2752 21.7692C19.2751 21.7731 19.275 21.7768 19.2748 21.7803C19.2745 21.7871 19.2741 21.7929 19.2738 21.7976C19.2732 21.807 19.2726 21.8121 19.2725 21.8124C19.2725 21.813 19.2745 21.7957 19.282 21.7573C19.2972 21.6798 19.3336 21.5233 19.4165 21.2647C19.5828 20.7459 19.9284 19.8401 20.6392 18.371C22.0612 15.4317 24.9174 10.2931 30.6393 1.57106L28.967 0.474002C23.2211 9.23259 20.3136 14.4517 18.8388 17.5C18.1012 19.0247 17.7152 20.0202 17.5119 20.6542C17.4101 20.972 17.3522 21.2048 17.3193 21.3726C17.3028 21.4568 17.2924 21.526 17.2858 21.5825C17.2825 21.6108 17.2802 21.6362 17.2786 21.6589C17.2779 21.6702 17.2772 21.6809 17.2768 21.691C17.2766 21.6961 17.2764 21.701 17.2762 21.7058C17.2762 21.7081 17.2761 21.7105 17.276 21.7128C17.276 21.714 17.276 21.7157 17.2759 21.7162C17.2759 21.7179 17.2759 21.7196 18.2757 21.7381ZM28.9377 1.52349L36.6102 14.7784L38.3411 13.7765L30.6686 0.52156L28.9377 1.52349ZM37.4756 13.2775L34.9032 13.2775L34.9032 15.2775L37.4756 15.2775L37.4756 13.2775ZM35.7683 13.7758L30.6533 4.95664L28.9232 5.96007L34.0382 14.7792L35.7683 13.7758ZM28.9551 4.90529C25.2239 10.5259 23.032 14.3195 21.7686 16.7202C21.1366 17.9209 20.736 18.775 20.4908 19.3368C20.3681 19.6177 20.2842 19.8259 20.2295 19.9681C20.2021 20.0392 20.1821 20.0938 20.1682 20.1329C20.1612 20.1524 20.1558 20.168 20.1518 20.1799C20.1497 20.1858 20.148 20.1908 20.1467 20.1948C20.146 20.1968 20.1454 20.1986 20.1449 20.2002C20.1447 20.201 20.1444 20.2017 20.1442 20.2023C20.1441 20.2027 20.1439 20.2031 20.1439 20.2033C20.1437 20.2037 20.1436 20.2042 21.0942 20.5146C22.0448 20.8251 22.0446 20.8255 22.0445 20.8259C22.0445 20.826 22.0444 20.8264 22.0443 20.8266C22.0441 20.827 22.044 20.8274 22.0439 20.8277C22.0437 20.8283 22.0436 20.8287 22.0436 20.8288C22.0435 20.829 22.0437 20.8283 22.0443 20.8266C22.0455 20.8231 22.048 20.8157 22.0521 20.8043C22.0603 20.7813 22.0746 20.7422 22.0962 20.6859C22.1395 20.5734 22.2121 20.3927 22.3237 20.137C22.547 19.6254 22.926 18.8152 23.5384 17.6516C24.7635 15.3238 26.9186 11.5892 30.6214 6.01142L28.9551 4.90529ZM20.1714 20.1293C19.6878 21.2876 19.4306 22.5445 19.4306 23.8622L21.4306 23.8622C21.4306 22.8081 21.6357 21.8132 22.017 20.8999L20.1714 20.1293ZM19.4306 23.8622C19.4306 29.4578 24.1365 33.9214 29.8553 33.9214L29.8553 31.9214C25.1652 31.9214 21.4306 28.279 21.4306 23.8622L19.4306 23.8622ZM29.8553 33.9214C35.6037 33.9214 40.0442 29.5239 40.168 23.8841L38.1685 23.8402C38.0685 28.393 34.516 31.9214 29.8553 31.9214L29.8553 33.9214ZM39.1682 23.8622C40.1677 23.8303 40.1677 23.8302 40.1677 23.8302C40.1677 23.8301 40.1677 23.83 40.1677 23.83C40.1677 23.8298 40.1677 23.8297 40.1677 23.8295C40.1677 23.8292 40.1677 23.8288 40.1677 23.8283C40.1676 23.8273 40.1676 23.8261 40.1675 23.8246C40.1674 23.8215 40.1673 23.8173 40.1671 23.8121C40.1667 23.8015 40.1661 23.7865 40.1653 23.7673C40.1637 23.7289 40.1612 23.6735 40.1575 23.6028C40.1502 23.4615 40.138 23.2585 40.1187 23.0062C40.0801 22.5022 40.0127 21.7984 39.8971 20.9951L37.9175 21.2801C38.0255 22.0304 38.0886 22.689 38.1245 23.1588C38.1425 23.3935 38.1537 23.5803 38.1603 23.707C38.1636 23.7703 38.1657 23.8186 38.167 23.8503C38.1677 23.8662 38.1682 23.8778 38.1684 23.8852C38.1686 23.8889 38.1686 23.8914 38.1687 23.8929C38.1687 23.8936 38.1687 23.8941 38.1687 23.8943C38.1687 23.8944 38.1687 23.8944 38.1687 23.8943C38.1687 23.8943 38.1687 23.8943 38.1687 23.8942C38.1687 23.8942 38.1687 23.8941 38.1687 23.8941C38.1687 23.894 38.1687 23.894 39.1682 23.8622Z" fill="#231F20" mask="url(#path-15-inside-1_74_8233)"/>
<path d="M38.9073 21.1301L41.2112 21.1301C41.4648 22.0383 41.599 22.984 41.599 23.9672C41.599 30.0918 36.3274 35.0605 29.818 35.0605C23.3087 35.0605 18.0371 30.0993 18.0371 23.9747C18.0371 23.2092 18.1191 22.4586 18.2757 21.7381C18.2757 21.7381 18.3354 18.5031 29.8031 1.02253L37.4756 14.2775L34.9032 14.2775L29.7882 5.45835C22.3543 16.6567 21.0942 20.5146 21.0942 20.5146C20.6617 21.5504 20.4306 22.6763 20.4306 23.8622C20.4306 28.8684 24.6508 32.9214 29.8553 32.9214C35.0598 32.9214 39.0564 28.9585 39.1682 23.8622C39.1682 23.8622 39.1309 22.6913 38.9073 21.1376L38.9073 21.1301Z" fill="#231F20" stroke="#231F20" stroke-width="0.22"/>
</g>
<defs>
<clipPath id="clip0_74_8233">
<rect width="34.2857" height="200" fill="white" transform="translate(0 35.1431) rotate(-90)"/>
</clipPath>
</defs>
</svg>
