<svg data-name="002-idea" xmlns="http://www.w3.org/2000/svg" width="59.476" height="56"><path data-name="Path 41" d="M39.57 19.771a14.039 14.039 0 10-16.313 22.453v7.285a1.2 1.2 0 001.16 1.233h5.052c.049 0 .1.01.148.01s.1-.01.149-.01h5.275a1.2 1.2 0 001.181-1.211v-7.267a14.08 14.08 0 007.551-12.451 13.928 13.928 0 00-4.2-10.041zm-5.063 20.621a1.244 1.244 0 00-.733 1.112v6.791h-2.935V33.618h1.345a1.223 1.223 0 000-2.446h-5.015a1.223 1.223 0 000 2.446h1.223v14.677h-2.691v-6.841a1.242 1.242 0 00-.747-1.118 11.584 11.584 0 1116.382-10.525 11.715 11.715 0 01-6.83 10.581zm0 0" fill="#1f698b"/><path data-name="Path 42" d="M33.486 53.554h-7.5a1.223 1.223 0 100 2.446h7.5a1.223 1.223 0 100-2.446zm0 0" fill="#1f698b"/><path data-name="Path 43" d="M55.704 25.47a1.224 1.224 0 00-1.73 0 1.2 1.2 0 00-.009 1.7l.012.012 1.316 1.295h-4.987a1.223 1.223 0 100 2.446h4.983l-1.316 1.329a1.231 1.231 0 00.863 2.1 1.216 1.216 0 00.863-.355l3.412-3.4a1.222 1.222 0 000-1.728zm0 0" fill="#1f698b"/><path data-name="Path 44" d="M27.203 5.499l1.311-1.316v4.983a1.223 1.223 0 002.446 0V4.183l1.312 1.316a1.223 1.223 0 101.739-1.72l-.007-.007-3.4-3.413a1.224 1.224 0 00-1.73 0l-3.4 3.413a1.223 1.223 0 001.732 1.727zm0 0" fill="#1f698b"/><path data-name="Path 45" d="M4.183 30.927H9.17a1.223 1.223 0 000-2.446H4.183l1.316-1.294a1.219 1.219 0 00-1.716-1.731l-.011.011-3.412 3.4a1.225 1.225 0 000 1.732l3.412 3.4a1.223 1.223 0 001.73 0 1.244 1.244 0 000-1.747zm0 0" fill="#1f698b"/><path data-name="Path 46" d="M49.893 43.892a1.21 1.21 0 00-1.221 1.2v1.862l-3.526-3.53a1.222 1.222 0 10-1.73 1.726l3.527 3.523-1.858-.008a1.222 1.222 0 00-.026 2.444h4.842a1.209 1.209 0 001.223-1.2v-.018l-.008-4.8a1.208 1.208 0 00-1.213-1.2zm0 0" fill="#1f698b"/><path data-name="Path 47" d="M14.329 43.416l-3.526 3.526V45.1a1.209 1.209 0 00-1.209-1.209h-.015a1.21 1.21 0 00-1.223 1.2v.01l-.008 4.81a1.2 1.2 0 00.358.855 1.209 1.209 0 00.865.346h4.82a1.223 1.223 0 100-2.446l-1.858.007 3.527-3.525a1.223 1.223 0 10-1.73-1.728zm0 0" fill="#1f698b"/><path data-name="Path 48" d="M44.281 16.417a1.219 1.219 0 00.865-.358l3.526-3.526v1.869a1.232 1.232 0 001.221 1.236 1.233 1.233 0 001.223-1.232l.008-4.823a1.291 1.291 0 00-.358-.9 1.25 1.25 0 00-.865-.387l-4.818.034a1.206 1.206 0 10-.022 2.412h.026l1.858.027-3.529 3.542a1.235 1.235 0 00.865 2.1zm0 0" fill="#1f698b"/><path data-name="Path 49" d="M9.582 15.638a1.232 1.232 0 001.221-1.236v-1.863l3.526 3.524a1.224 1.224 0 001.73-1.732l-3.527-3.557 1.858-.027a1.2 1.2 0 001.223-1.172v-.018a1.233 1.233 0 00-1.221-1.236l-4.818-.019a1.269 1.269 0 00-1.223 1.265l.009 4.836a1.238 1.238 0 001.223 1.238zm0 0" fill="#1f698b"/></svg>