<svg data-name="003-file-2" xmlns="http://www.w3.org/2000/svg" width="49.414" height="56.508"><path data-name="Path 50" d="M38.363.379A1.229 1.229 0 0037.486 0H15.959a4.963 4.963 0 00-4.951 4.909v3.653H4.951A4.991 4.991 0 000 13.5v38.1a4.963 4.963 0 004.951 4.909h28.5a4.963 4.963 0 004.954-4.909v-3.654h6.057A4.991 4.991 0 0049.413 43V12.2a1.264 1.264 0 00-.375-.856zm.287 3.876l6.589 6.752h-5.76a.846.846 0 01-.829-.8zM35.959 51.6a2.514 2.514 0 01-2.5 2.462H4.951a2.514 2.514 0 01-2.5-2.462V13.5a2.542 2.542 0 012.5-2.495h6.057V43a4.991 4.991 0 004.951 4.941h20zm8.5-6.1h-28.5a2.542 2.542 0 01-2.505-2.5V4.909a2.514 2.514 0 012.5-2.462H36.2v7.767a3.293 3.293 0 003.276 3.241h7.488V43a2.542 2.542 0 01-2.5 2.495zm0 0" fill="#1f698b"/><path data-name="Path 51" d="M41.378 38.039H18.427a1.223 1.223 0 000 2.446h22.948a1.223 1.223 0 000-2.446zm0 0" fill="#1f698b"/><path data-name="Path 52" d="M18.427 35.103h13.738a1.223 1.223 0 100-2.446H18.427a1.223 1.223 0 000 2.446zm0 0" fill="#1f698b"/><path data-name="Path 53" d="M30.211 26.086a2.145 2.145 0 01-2.143-2.143 1.223 1.223 0 00-2.446 0 4.6 4.6 0 003.244 4.388v1.024a1.223 1.223 0 002.446 0v-.958a4.59 4.59 0 00-1.1-9.045 2.143 2.143 0 112.143-2.144 1.223 1.223 0 002.446 0 4.6 4.6 0 00-3.489-4.455V11.62a1.223 1.223 0 00-2.446 0v1.2a4.59 4.59 0 001.345 8.978 2.144 2.144 0 11.033 4.287h-.032zm0 0" fill="#1f698b"/></svg>