<svg data-name="002-envelope" xmlns="http://www.w3.org/2000/svg" width="24.572" height="25.759"><g data-name="Group 16"><g data-name="Group 15"><path data-name="Path 31" d="M24.263 9.22L12.787.174a.81.81 0 00-1 0L.309 9.22A.81.81 0 000 9.856v15.093a.81.81 0 00.81.81h22.951a.81.81 0 00.81-.81V9.856a.81.81 0 00-.308-.636zm-1.311 14.92H1.62V10.249l10.666-8.407 10.666 8.407z" fill="#fff"/></g></g><g data-name="Group 18"><g data-name="Group 17"><path data-name="Path 32" d="M18.005 17.858a.81.81 0 00-.588-.253H7.156a.809.809 0 00-.588.253l-6.21 6.561 1.176 1.114 5.971-6.308h9.563l5.971 6.308 1.177-1.114z" fill="#fff"/></g></g><g data-name="Group 20"><g data-name="Group 19"><path data-name="Rectangle 12" fill="#fff" d="M16.767 17.929l6.348-8.54 1.301.968-6.348 8.54z"/></g></g><g data-name="Group 22"><g data-name="Group 21"><path data-name="Rectangle 13" fill="#fff" d="M.134 10.367l1.298-.97 6.372 8.533-1.298.969z"/></g></g></svg>