<svg data-name="004-file" xmlns="http://www.w3.org/2000/svg" width="49.414" height="56.508"><path data-name="Path 54" d="M38.363.379A1.229 1.229 0 0037.486 0H15.959a4.963 4.963 0 00-4.951 4.909v3.653H4.951A4.991 4.991 0 000 13.5v38.1a4.963 4.963 0 004.951 4.909h28.5a4.963 4.963 0 004.954-4.909v-3.654h6.057A4.991 4.991 0 0049.413 43V12.2a1.264 1.264 0 00-.375-.856zm.287 3.876l6.589 6.752h-5.76a.846.846 0 01-.829-.8zM35.959 51.6a2.514 2.514 0 01-2.5 2.462H4.951a2.514 2.514 0 01-2.5-2.462V13.5a2.542 2.542 0 012.5-2.495h6.057V43a4.991 4.991 0 004.951 4.941h20zm8.5-6.1h-28.5a2.542 2.542 0 01-2.505-2.5V4.909a2.514 2.514 0 012.5-2.462H36.2v7.767a3.293 3.293 0 003.276 3.241h7.488V43a2.542 2.542 0 01-2.5 2.495zm0 0" fill="#1f698b"/><path data-name="Path 55" d="M41.378 38.039H18.427a1.223 1.223 0 000 2.446h22.948a1.223 1.223 0 000-2.446zm0 0" fill="#1f698b"/><path data-name="Path 56" d="M18.427 35.103h13.738a1.223 1.223 0 100-2.446H18.427a1.223 1.223 0 000 2.446zm0 0" fill="#1f698b"/><path data-name="Path 57" d="M28.148 20.303h-2.761a1.226 1.226 0 00-.84 2.117l6.9 6.518a1.223 1.223 0 101.72-1.74l-.04-.038-4.671-4.428a5.325 5.325 0 004.912-4.143h1.666a1.223 1.223 0 100-2.446h-1.666a6.634 6.634 0 00-.723-1.712h2.388a1.223 1.223 0 100-2.446h-9.646a1.223 1.223 0 000 2.446h2.76a2.97 2.97 0 012.645 1.712h-5.4a1.223 1.223 0 000 2.446h5.4a2.969 2.969 0 01-2.644 1.712zm0 0" fill="#1f698b"/></svg>