<svg data-name="001-place" xmlns="http://www.w3.org/2000/svg" width="20.84" height="25.76"><g data-name="Group 12"><g data-name="Group 11"><path data-name="Path 29" d="M18.971 4.479a10.4 10.4 0 00-17.1 0A10.4 10.4 0 00.66 14.063a8.192 8.192 0 001.51 2.493l7.566 8.887a.9.9 0 001.371 0l7.564-8.884a8.2 8.2 0 001.51-2.489 10.4 10.4 0 00-1.21-9.591zm-.478 8.959a6.425 6.425 0 01-1.188 1.946l-6.88 8.081-6.884-8.086a6.429 6.429 0 01-1.19-1.952A8.6 8.6 0 013.352 5.5a8.6 8.6 0 0114.137 0 8.606 8.606 0 011.004 7.938z" fill="#fff"/></g></g><g data-name="Group 14"><g data-name="Group 13"><path data-name="Path 30" d="M10.423 5.344a5.044 5.044 0 105.044 5.044 5.05 5.05 0 00-5.044-5.044zm0 8.286a3.242 3.242 0 113.242-3.242 3.246 3.246 0 01-3.242 3.242z" fill="#fff"/></g></g></svg>