<svg data-name="005-bar-chart" xmlns="http://www.w3.org/2000/svg" width="60.206" height="47.658"><path data-name="Path 58" d="M30.21 20.505a1.223 1.223 0 00-1.223-1.223h-7.583a1.223 1.223 0 00-1.223 1.223v21.282a1.223 1.223 0 001.223 1.223h7.583a1.223 1.223 0 001.223-1.223zm-7.583 1.223h5.137v18.836h-5.137zm0 0" fill="#1f698b"/><path data-name="Path 59" d="M16.022 31.88a1.223 1.223 0 00-1.223-1.223H7.216a1.223 1.223 0 00-1.223 1.223v9.911a1.223 1.223 0 001.223 1.223h7.583a1.223 1.223 0 001.223-1.223zm-7.583 1.223h5.015v7.461H8.439zm0 0" fill="#1f698b"/><path data-name="Path 60" d="M44.398 27.599a1.223 1.223 0 00-1.223-1.223h-7.583a1.223 1.223 0 00-1.223 1.223v14.188a1.223 1.223 0 001.223 1.223h7.583a1.223 1.223 0 001.223-1.223zm-7.583 1.223h5.137v11.742h-5.137zm0 0" fill="#1f698b"/><path data-name="Path 61" d="M54.58 0a5.623 5.623 0 00-5.1 8l-4.875 4.083a5.615 5.615 0 00-8.523.309l-5.639-3.634c0-.066.005-.131.005-.2a5.625 5.625 0 10-10.69 2.448l-5.908 5.777a5.637 5.637 0 101.96 1.5l5.478-5.355a5.619 5.619 0 008.483-1.7l5.231 3.37a5.625 5.625 0 1010.848-.367l5.123-4.293A5.624 5.624 0 1054.58.001zM11.494 25.068a3.179 3.179 0 113.179-3.179 3.179 3.179 0 01-3.179 3.179zm13.33-13.329a3.179 3.179 0 113.179-3.18 3.179 3.179 0 01-3.179 3.18zm15.652 7.337a3.179 3.179 0 113.179-3.179 3.179 3.179 0 01-3.179 3.179zM54.58 8.805a3.179 3.179 0 113.179-3.18 3.179 3.179 0 01-3.179 3.18zm0 0" fill="#1f698b"/><path data-name="Path 62" d="M48.9 45.212H2.446V6.029a1.223 1.223 0 00-2.446 0v40.363a1.236 1.236 0 001.194 1.266H48.9a1.223 1.223 0 000-2.446zm0 0" fill="#1f698b"/></svg>