<svg data-name="003-chat" xmlns="http://www.w3.org/2000/svg" width="25.309" height="25.76"><g data-name="Group 24"><g data-name="Group 23"><path data-name="Path 33" d="M12.671 0a12.655 12.655 0 00-11.8 17.27 12.513 12.513 0 001.773 3.117l-1.73 4.027a.965.965 0 001.053 1.331L8.496 24.6a12.421 12.421 0 004.142.709A12.655 12.655 0 1012.671 0zm-.033 23.38a10.429 10.429 0 01-3.705-.675.956.956 0 00-.513-.05l-5.028.882 1.257-2.927a.965.965 0 00-.157-1.01 10.491 10.491 0 01-1.824-3.032 10.725 10.725 0 119.971 6.815z" fill="#fff"/></g></g><g data-name="Group 26"><g data-name="Group 25"><path data-name="Path 34" d="M6.368 10.323a2.573 2.573 0 102.573 2.573 2.576 2.576 0 00-2.573-2.573zm0 3.216a.643.643 0 11.643-.643.644.644 0 01-.643.643z" fill="#fff"/></g></g><g data-name="Group 28"><g data-name="Group 27"><path data-name="Path 35" d="M12.671 10.323a2.573 2.573 0 102.573 2.573 2.576 2.576 0 00-2.573-2.573zm0 3.216a.643.643 0 11.643-.643.644.644 0 01-.643.643z" fill="#fff"/></g></g><g data-name="Group 30"><g data-name="Group 29"><path data-name="Path 36" d="M18.974 10.323a2.573 2.573 0 102.573 2.573 2.576 2.576 0 00-2.573-2.573zm0 3.216a.643.643 0 11.643-.643.644.644 0 01-.643.643z" fill="#fff"/></g></g></svg>