<svg id="_003-measurement" data-name="003-measurement" xmlns="http://www.w3.org/2000/svg" width="48.027" height="48.027" viewBox="0 0 48.027 48.027">
  <g id="Group_25" data-name="Group 25">
    <path id="Path_34" data-name="Path 34" d="M42.884,9.358A3,3,0,1,0,38.192,8H27.015V3a3,3,0,0,0-6,0V8H9.834A3,3,0,1,0,5.141,9.358L0,27.015a7,7,0,0,0,14.008,0v0h0L9.054,10.005h4.372a15.951,15.951,0,0,0,7.586,3.72v2.283a2,2,0,0,0,2,2V32.143a4,4,0,0,0-3,3.877v6h-8a2,2,0,0,0-2,2v2H8a1,1,0,1,0,0,2H40.023a1,1,0,0,0,0-2h-2v-2a2,2,0,0,0-2-2h-8v-6a4.006,4.006,0,0,0-3-3.877V18.01a2,2,0,0,0,2-2V13.725a15.948,15.948,0,0,0,7.585-3.72h4.372L34.02,27.015a7,7,0,0,0,14.007,0v0ZM7,6A1,1,0,1,1,6,7,1,1,0,0,1,7,6ZM7,32.017a5.008,5.008,0,0,1-4.585-3h9.17A5.01,5.01,0,0,1,7,32.017Zm4.92-5H2.084L7,10.122Zm9.089-15.332a13.9,13.9,0,0,1-2.451-.777,13.893,13.893,0,0,1-1.766-.9h4.217Zm7,32.341h8v2H12.007v-2h16.01Zm-2-8v6h-4v-6a2,2,0,0,1,4,0ZM25.014,8v8h-2V3a1,1,0,1,1,2,0Zm4.452,2.9a13.868,13.868,0,0,1-2.451.777V10.005h4.217A13.852,13.852,0,0,1,29.466,10.907ZM41.022,6a1,1,0,1,1-1,1A1,1,0,0,1,41.022,6Zm0,26.014a5.009,5.009,0,0,1-4.585-3h9.171A5.011,5.011,0,0,1,41.022,32.017Zm-4.919-5,4.919-16.893,4.92,16.893Z" fill="#c4a66a"/>
  </g>
</svg>
