<svg id="_001-hammer" data-name="001-hammer" xmlns="http://www.w3.org/2000/svg" width="48.027" height="37.106" viewBox="0 0 48.027 37.106">
  <g id="Group_18" data-name="Group 18" transform="translate(18.344 14.019)">
    <g id="Group_17" data-name="Group 17">
      <path id="Path_29" data-name="Path 29" d="M196.551,207.652a1,1,0,1,0,1,1A1,1,0,0,0,196.551,207.652Z" transform="translate(-195.55 -207.652)" fill="#c4a66a"/>
    </g>
  </g>
  <g id="Group_20" data-name="Group 20" transform="translate(15.343 11.017)">
    <g id="Group_19" data-name="Group 19">
      <path id="Path_30" data-name="Path 30" d="M167.555,175.654a4,4,0,1,0,4,4A4.007,4.007,0,0,0,167.555,175.654Zm0,6a2,2,0,1,1,2-2A2,2,0,0,1,167.555,181.658Z" transform="translate(-163.552 -175.654)" fill="#c4a66a"/>
    </g>
  </g>
  <g id="Group_22" data-name="Group 22" transform="translate(0 0)">
    <g id="Group_21" data-name="Group 21">
      <path id="Path_31" data-name="Path 31" d="M46.818,89.9l-1.435-1.068a.972.972,0,0,0-.141-.126,1.08,1.08,0,0,0-.161-.1L29.328,76.888a.969.969,0,0,0-.139-.127,1,1,0,0,0-.161-.1l-2.257-1.68,1.778-2.39a1,1,0,0,0-.205-1.4l-.762-.566a1.994,1.994,0,0,1,.258-.432,2.016,2.016,0,0,1,.34-.372l.762.567a1,1,0,0,0,1.4-.205l2.389-3.211a1,1,0,0,0-.205-1.4l-9.632-7.169a1,1,0,0,0-1.4.205L19.1,61.823a1,1,0,0,0,.205,1.4l.761.567c0,.01-.009.023-.012.028s-.019.04-.022.05-.025.046-.029.056-.031.053-.037.065-.037.058-.044.07-.044.064-.053.078l-.063.088a1.984,1.984,0,0,1-.337.367l-.762-.567a1,1,0,0,0-1.4.205l-7.169,9.632a1,1,0,0,0,.205,1.4l.762.567a2.012,2.012,0,0,1-.258.432,1.978,1.978,0,0,1-.34.371l-.762-.567a1,1,0,0,0-1.4.206L5.961,79.482a1,1,0,0,0,.205,1.4l7.306,5.436H3a1,1,0,0,0-1,1v1.99H1a1,1,0,0,0-1,1v4a1,1,0,0,0,1,1H29.017a1,1,0,0,0,1-1v-4a1,1,0,0,0-1-1h-1v-1.99a1,1,0,0,0-1-1H18.334l1.255-1.684a1,1,0,0,0-.207-1.4l-.761-.566a1.949,1.949,0,0,1,.258-.432,2.008,2.008,0,0,1,.339-.371l.762.567a1,1,0,0,0,1.4-.205L23.185,79.8,43.234,94.721a2.975,2.975,0,0,0,1.79.593h0a3,3,0,0,0,1.793-5.41ZM22.5,60.609l8.026,5.974-1.195,1.6-7.821-5.821-.006,0-.2-.149Zm-1.083,4.807A4.686,4.686,0,0,0,21.7,65l4.857,3.614a4.766,4.766,0,0,0-.32.386,4.82,4.82,0,0,0-.279.417L21.1,65.8A4.622,4.622,0,0,0,21.418,65.416ZM8.164,79.875l1.195-1.606.2.15h0L17.18,84.09l0,0a0,0,0,0,0,0,0l.2.148-1.2,1.6Zm3.974-2.032a4.566,4.566,0,0,0,.32-.386,4.513,4.513,0,0,0,.279-.416l4.857,3.616a4.583,4.583,0,0,0-.32.385,4.865,4.865,0,0,0-.277.416Zm-.131,10.479h2a1,1,0,0,0,.865.989h-3.73A1,1,0,0,0,12.007,88.321Zm-4,0h2a1,1,0,0,0,.863.989H7.141A1,1,0,0,0,8,88.321Zm-4,0H6a1,1,0,0,0,.865.989H4Zm23.149,2.991h.865v2H2v-2h.865a1.036,1.036,0,0,0,.136.01H27.015A1.036,1.036,0,0,0,27.151,91.313Zm-3.138-2.991h2v.989H23.15A1,1,0,0,0,24.013,88.321Zm-4,0h2a1,1,0,0,0,.863.989H19.147A1,1,0,0,0,20.012,88.321Zm-1.137.989h-3.73a1,1,0,0,0,.865-.989h2A1,1,0,0,0,18.875,89.311Zm3.283-11.521a1,1,0,0,0-.108.186l-1.677,2.254L12.546,74.4h0l-.2-.149,5.974-8.027L26.345,72.2l-1.652,2.219a1.021,1.021,0,0,0-.145.157Zm3.828,1.6L24.38,78.2l1.194-1.606,1.606,1.2ZM42.04,91.338,27.591,80.584l1.194-1.6L43.234,89.731Zm3.789,1.573a1,1,0,0,1-1.4.205l-.784-.583,1.194-1.6.784.583A1,1,0,0,1,45.828,92.91Z" transform="translate(0 -58.209)" fill="#c4a66a"/>
    </g>
  </g>
</svg>
