<svg id="_002-miscellaneous" data-name="002-miscellaneous" xmlns="http://www.w3.org/2000/svg" width="38.02" height="48.027" viewBox="0 0 38.02 48.027">
  <g id="Group_24" data-name="Group 24" transform="translate(0)">
    <g id="Group_23" data-name="Group 23">
      <path id="Path_32" data-name="Path 32" d="M90.36,42.024v-4h0a1,1,0,0,0,1-1V1a1,1,0,0,0-1-1H57.341a4.006,4.006,0,0,0-4,4V40.021a4.007,4.007,0,0,0,4,4h1v3a1,1,0,0,0,1.318.948l2.687-.9,2.685.9a1.016,1.016,0,0,0,.316.051,1,1,0,0,0,1-1v-3H90.36a1,1,0,0,0,0-2Zm-35.021-10a1,1,0,1,0,0-2v-4a1,1,0,1,0,0-2v-4a1,1,0,1,0,0-2v-4a1,1,0,1,0,0-2V8a1,1,0,1,0,0-2V4a2,2,0,0,1,2-2h1V36.02h-1a3.971,3.971,0,0,0-2,.539Zm9.005,13.619-1.684-.561a.991.991,0,0,0-.632,0l-1.686.561V41.024h4Zm24.014-6.616h-7a1,1,0,0,0,0,2h7v1H66.346v-1a1,1,0,0,0,0-2H58.341a1,1,0,0,0,0,2v1h-1a2,2,0,1,1,0-4H88.358v1Zm1-3H60.343V2H89.36Z" transform="translate(-53.34)" fill="#c4a66a"/>
      <path id="Path_33" data-name="Path 33" d="M163.99,101.339a4.008,4.008,0,0,0,4-4s0,0,0-.007c0-.023,0-.045,0-.068s0-.023,0-.034,0-.034-.007-.05l-.009-.051-.009-.033-.018-.067,0-.006-2.562-7.688h4.614v14.009h-5a1,1,0,1,0,0,2H177a1,1,0,1,0,0-2h-5V89.332h4.615l-2.563,7.688a.009.009,0,0,1,0,.006c-.007.022-.013.044-.019.067s-.006.021-.007.033-.006.034-.009.051-.006.034-.007.05a.138.138,0,0,0,0,.034c0,.023,0,.045,0,.068v.007a4,4,0,1,0,8,0V97.33c0-.023,0-.045,0-.068a.138.138,0,0,0,0-.034c0-.017,0-.034-.007-.05s0-.034-.009-.051-.006-.022-.007-.033-.012-.045-.019-.067a.009.009,0,0,1,0-.006l-3-8.985v0l-.006-.016L178.94,88a.288.288,0,0,0-.012-.036c-.006-.011-.009-.021-.015-.032a.171.171,0,0,0-.012-.027c-.006-.01-.009-.02-.015-.029l-.016-.03a.274.274,0,0,0-.016-.029l-.018-.026-.016-.026c-.007-.01-.013-.02-.022-.029a.274.274,0,0,0-.019-.025l-.018-.021-.023-.028-.023-.024-.019-.019-.025-.023a.3.3,0,0,0-.028-.023l-.021-.018-.026-.02a.3.3,0,0,0-.028-.021l-.025-.017-.026-.017-.029-.017-.029-.015-.031-.015-.026-.012-.031-.013-.037-.014-.019-.007-.006,0-.029-.009-.041-.011-.029-.007-.023,0-.044-.007-.035-.005h-.015l-.045,0H172v-1a1,1,0,0,0-2,0v1h-6.009l-.04,0-.048,0-.015,0-.032,0a.434.434,0,0,0-.047.008l-.023,0-.026.007-.044.011-.028.009-.006,0-.019.007-.038.014c-.009,0-.021.008-.029.013l-.026.012-.032.015-.028.015-.028.017-.028.017-.025.017-.029.021-.026.021-.021.018-.026.023-.026.024-.018.019c-.009.008-.016.016-.023.024a.272.272,0,0,0-.023.028l-.018.021a.226.226,0,0,0-.021.025c-.006.01-.015.02-.021.029l-.018.026c-.006.009-.01.018-.016.026s-.012.02-.016.029l-.018.03-.013.029-.013.027-.013.032-.013.035a.113.113,0,0,0-.007.02l0,.016s0,0,0,0L160.04,97.02a.009.009,0,0,0,0,.006.53.53,0,0,0-.018.067.279.279,0,0,0-.009.032c0,.018-.006.034-.009.052l-.009.05a.3.3,0,0,1,0,.035c0,.023,0,.045,0,.067v.007A4.007,4.007,0,0,0,163.99,101.339Zm14.009-2a2,2,0,0,1-1.732-1h3.465A2,2,0,0,1,178,99.337Zm0-7.842,1.614,4.84h-3.227Zm-14.009,0,1.615,4.84h-3.227Zm1.734,6.842a2,2,0,0,1-3.466,0Z" transform="translate(-149.984 -77.325)" fill="#c4a66a"/>
    </g>
  </g>
</svg>
