<svg xmlns="http://www.w3.org/2000/svg" width="1045.101" height="1054.626"><path d="M530.133.051c-7.806-.065-15.425-.068-16.935-.006S507.047.31 502.876.5s-11.354.639-15.967.993-11.145.932-14.515 1.284-10.119 1.148-15 1.771-12.644 1.719-17.257 2.435-11.2 1.8-14.638 2.413-8.664 1.626-11.612 2.258-7.974 1.8-11.167 2.59-7.693 1.955-10 2.584-6.877 1.935-10.161 2.906-9.6 2.932-14.031 4.361-12.562 4.166-18.062 6.086-17.112 6.058-25.8 9.2-19.941 7.158-25 8.929-11.877 4.106-15.16 5.184-6.019 2-6.08 2.045.645 4.277 1.577 9.4l1.7 9.319 6.322 3.016c3.477 1.661 7.558 3.551 9.064 4.206s7.751 3.009 13.87 5.235 15.628 5.713 21.128 7.754 22.121 8.235 36.933 13.767 32.234 12.022 38.707 14.415 18.38 6.748 26.45 9.674 20.7 7.429 28.063 10 19.628 6.764 27.257 9.3 18.734 6.138 24.676 8 13.709 4.264 17.257 5.332 9.035 2.671 12.2 3.564 8.674 2.277 12.257 3.074 9.125 1.877 12.319 2.41 8.129 1.261 10.967 1.619 7.558.871 10.483 1.132 8.516.648 12.419.855c4.506.239 12.1.306 20.805.187 7.542-.1 15.741-.339 18.225-.526s6.984-.561 10-.832 8.287-.852 11.709-1.293 7.851-1.152 9.838-1.581 5.355-1.313 7.483-1.958 5.467-1.829 7.419-2.622 5.19-2.31 7.2-3.361 5.058-2.819 6.774-3.929 4.577-3.174 6.351-4.584 4.558-3.916 6.184-5.567 3.868-4.122 4.977-5.5 3.016-4.026 4.235-5.887a82.313 82.313 0 004.119-7.258c1.048-2.129 2.351-5.084 2.893-6.567s1.339-3.951 1.768-5.484 1.068-4.313 1.419-6.174.819-5.122 1.035-7.242a83.479 83.479 0 00.209-9.838 87.757 87.757 0 00-.7-9.048c-.284-1.687-.932-4.661-1.442-6.616a72.945 72.945 0 00-2.264-6.935c-.739-1.861-2-4.619-2.8-6.125s-2.374-4.122-3.5-5.806-3.442-4.7-5.154-6.69a81.638 81.638 0 00-5.942-6.154c-1.551-1.393-3.951-3.429-5.332-4.526s-4.345-3.21-6.593-4.7-5.974-3.764-8.28-5.051-5.938-3.171-8.071-4.187-5.667-2.593-7.858-3.509-6.1-2.468-8.7-3.458-6.974-2.584-9.725-3.551-7.467-2.532-10.483-3.48-8.606-2.593-12.419-3.655-10.058-2.661-13.87-3.561-9.548-2.155-12.741-2.79-8.854-1.664-12.58-2.284-10.693-1.619-15.483-2.229-12.264-1.4-16.612-1.761-10.586-.806-13.87-.99-12.354-.381-20.16-.445zM822.375 105.49a22.324 22.324 0 00-4.193.148 25.687 25.687 0 00-2.932.9 18.283 18.283 0 00-3.174 1.677 28.33 28.33 0 00-3.284 2.835 36.43 36.43 0 00-3.526 4.445 56.028 56.028 0 00-3.339 6c-.861 1.839-2.542 6.1-3.732 9.474s-2.874 7.906-3.742 10.077-2.48 5.929-3.58 8.345-3.4 6.958-5.106 10.083-4.361 7.69-5.9 10.138-4.161 6.367-5.825 8.709-4.3 5.854-5.864 7.806-4.306 5.216-6.093 7.258-5.425 5.89-8.09 8.551-6.993 6.69-9.625 8.945-6.551 5.425-8.709 7.045-6.174 4.442-8.925 6.264-6.958 4.445-9.354 5.826-6.822 3.7-9.838 5.161-7.88 3.6-10.806 4.755-7.406 2.768-9.951 3.584-6.974 2.058-9.838 2.764-7.313 1.642-9.887 2.084-6.78 1.058-9.354 1.368a194.041 194.041 0 01-29.837 0c-2.839-.319-8.645-1.081-12.9-1.687s-10.564-1.616-14.012-2.245-9.764-1.881-14.031-2.78-11.751-2.626-16.631-3.842-11.338-2.877-14.354-3.7-8.022-2.216-11.128-3.106-7.822-2.268-10.483-3.068-7.451-2.251-10.645-3.232-10.306-3.206-15.806-4.951-15.225-4.838-21.612-6.877-14.151-4.506-17.257-5.49-12.322-3.816-20.483-6.3-18.612-5.7-23.224-7.138-14.7-4.655-22.418-7.135-39.433-12.993-70.48-23.36l-56.452-18.84-8.5.8c-4.674.439-11.425 1.168-15 1.619s-9.328 1.261-12.79 1.8-9.483 1.616-13.386 2.387-9.809 2.064-13.125 2.868-8.541 2.184-11.612 3.068-7.761 2.326-10.422 3.206-6.942 2.4-9.516 3.377-6.78 2.671-9.354 3.768-7.29 3.284-10.483 4.864-8.129 4.193-10.967 5.809-7.629 4.574-10.645 6.574-7.006 4.767-8.87 6.155-4.548 3.455-5.967 4.6-4.542 3.787-6.935 5.877-7.261 6.761-10.816 10.37-7.774 8.087-9.377 9.951-4.2 4.98-5.771 6.925-4.264 5.432-5.98 7.742-4.584 6.306-6.367 8.88-4.974 7.435-7.087 10.806-5.232 8.525-6.925 11.451-4.458 7.861-6.145 10.967-5.109 9.735-7.606 14.731-5.984 12.183-7.742 15.967-4.293 9.358-5.635 12.383-2.9 6.658-3.468 8.064-1.671 4.448-2.458 6.754-1.855 5.864-2.371 7.9-1.164 5.087-1.442 6.774-.594 4.819-.7 6.964a43.79 43.79 0 00.206 7.093 46.175 46.175 0 001.177 5.871 36.68 36.68 0 002.026 5.161A35.674 35.674 0 0034.66 382a35.808 35.808 0 003.658 3.977 42.388 42.388 0 004.255 3.364c1.158.768 3.287 1.99 4.729 2.716s3.913 1.81 5.484 2.406 4.6 1.535 6.732 2.084 5.467 1.281 7.419 1.632 4.784.8 6.29.993 4.338.5 6.29.674 8.048.41 13.548.519c6.242.126 19.383-.013 34.966-.368 17.367-.4 30.176-.513 42.094-.387 9.419.1 19.234.335 21.805.523s7.074.568 10 .842 7.822.858 10.88 1.293 7.554 1.164 10 1.613 6.838 1.406 9.764 2.126 8.08 2.219 11.451 3.335 8.383 2.974 11.138 4.129 9 3.842 13.87 5.974 13 5.754 18.054 8.054 13.477 6.19 18.709 8.651 18.154 8.783 28.708 14.054 23.912 12.073 29.676 15.118 15.273 8.154 21.128 11.354 15.144 8.367 20.644 11.477 13.848 7.9 18.547 10.645 11.961 7.025 16.128 9.515 12.661 7.642 18.87 11.454 16.009 9.935 21.773 13.606 14.257 9.138 18.87 12.151 14.122 9.254 21.128 13.867 15.428 10.051 18.709 12.1 8.545 5.261 11.7 7.154 9.254 5.454 13.57 7.916 10.88 6.113 14.593 8.112 11.325 5.929 16.912 8.725 13.148 6.464 16.8 8.148 9.383 4.251 12.741 5.7 9.3 3.919 13.2 5.487 9.493 3.739 12.419 4.832 9.387 3.361 14.354 5.038 12.225 4 16.128 5.155 10.351 2.961 14.331 4.013 10.8 2.709 15.16 3.684 10.248 2.216 13.086 2.758 7.774 1.413 10.967 1.932 7.913 1.235 10.483 1.59 7.29.939 10.483 1.294 8.564.864 11.935 1.129 9.612.648 13.87.855c4.809.232 12.993.306 21.612.194 7.629-.1 16.993-.41 20.805-.69s9.767-.8 13.225-1.164 8.977-1.016 12.257-1.461 8.58-1.242 11.773-1.777 8.058-1.41 10.806-1.942 7.251-1.477 10-2.1 7.88-1.845 11.4-2.729 9.687-2.555 13.709-3.713 11.374-3.455 16.341-5.109 12.225-4.2 16.128-5.671 10.164-3.942 13.909-5.5 9.338-3.955 12.419-5.319 8.874-4.058 12.864-5.98 10.19-5.013 13.773-6.871 8.59-4.635 11.128-6.171 6.035-3.806 7.774-5.048 4.616-3.416 6.4-4.832 4.787-4.125 6.69-6.022 4.564-4.826 5.919-6.516 3.28-4.371 4.287-5.968 2.535-4.358 3.4-6.142a67.209 67.209 0 002.719-6.674c.632-1.884 1.426-4.777 1.768-6.432s.774-4.413.961-6.135.339-4.555.339-6.29-.223-5.625-.49-8.641-1.5-17.605-2.739-32.418-2.755-32.159-3.371-38.546-1.416-14.225-1.781-17.418-1.029-8.783-1.477-12.419-1.326-10.1-1.942-14.354-1.487-9.919-1.929-12.58-1.39-7.961-2.1-11.774-1.952-9.912-2.748-13.548-2.258-9.806-3.245-13.709-2.71-10.219-3.832-14.031-3.125-10.2-4.442-14.193-3.371-9.941-4.564-13.225-3.371-9.016-4.845-12.741-3.777-9.345-5.119-12.486-3.909-8.874-5.7-12.741-4.9-10.222-6.909-14.125-4.767-9.129-6.142-11.612-3.806-6.767-5.413-9.516-4.364-7.322-6.138-10.161-4.925-7.7-7.012-10.806-5.348-7.822-7.251-10.483-5.293-7.219-7.532-10.132-6.38-8.061-9.2-11.451-6.871-8.09-9-10.454-6.129-6.674-8.9-9.583-7.438-7.58-10.37-10.38-6.777-6.4-8.548-8.006-5.248-4.651-7.732-6.78-6.693-5.613-9.354-7.748-6.58-5.2-8.709-6.809-6.048-4.48-8.709-6.383-7.306-5.1-10.322-7.093-7.455-4.867-9.861-6.377-5.964-3.629-7.9-4.713-4.874-2.555-6.525-3.268a48.4 48.4 0 00-5.484-1.964 30.523 30.523 0 00-5.387-.79zm-676.9 357.628c-3.635.035-7.7.1-9.032.152s-5.248.245-8.709.439-8.538.561-11.29.816-7.974.839-11.612 1.293-9.587 1.323-13.225 1.926-9.08 1.6-12.1 2.21-8.1 1.713-11.29 2.448-9.725 2.271-14.515 3.409-10.667 2.59-13.064 3.219-6.677 1.926-9.516 2.881-6.432 2.322-7.987 3.039a50.938 50.938 0 00-5.161 2.806 46.056 46.056 0 00-4.077 2.984 32.129 32.129 0 00-3.558 3.761 36.241 36.241 0 00-3.145 4.851 49.246 49.246 0 00-2.287 5.313c-.526 1.506-1.261 4.048-1.635 5.645s-.9 4.393-1.171 6.213-.713 5.593-.977 8.387-.626 9-.8 13.786-.326 15.28-.326 23.315v14.606l1.135 8.941c.626 4.916 1.645 12.28 2.264 16.36s1.642 10.393 2.274 14.031 1.722 9.586 2.432 13.225 2.084 10.241 3.061 14.677 2.719 11.838 3.874 16.451 2.819 10.993 3.7 14.177 2.484 8.7 3.555 12.257 3.084 9.877 4.467 14.048 3.609 10.554 4.945 14.193 3.222 8.645 4.193 11.128 2.706 6.764 3.855 9.516 3.18 7.467 4.513 10.483 3.971 8.719 5.871 12.673 4.982 10.124 6.855 13.707 4.5 8.477 5.843 10.877 3.658 6.458 5.164 9.032 4.268 7.145 6.142 10.161 5.187 8.141 7.364 11.393 5.845 8.548 8.154 11.773 6.035 8.258 8.287 11.186 5.7 7.28 7.658 9.677 5.706 6.842 8.325 9.883 6.674 7.612 9.009 10.161 8.106 8.477 12.832 13.18 10.906 10.641 13.741 13.2 7.048 6.28 9.358 8.271 6.416 5.435 9.125 7.651 7.322 5.877 10.254 8.135 7.487 5.651 10.128 7.538 6.3 4.364 8.125 5.509 4.832 2.848 6.674 3.787a51.255 51.255 0 006.29 2.652 41.9 41.9 0 005.551 1.319 15.113 15.113 0 005.155 0 24.134 24.134 0 004.161-1.023 29.193 29.193 0 003.558-1.806 31.514 31.514 0 004.677-3.926 51.512 51.512 0 005.032-6.153c1.258-1.864 3.168-4.984 4.238-6.935s3.135-6.161 4.587-9.354 4.058-8.564 5.79-11.935 4.319-8.09 5.748-10.483 3.864-6.242 5.413-8.548 4.229-6.08 5.948-8.387 4.635-6.009 6.471-8.225 6.69-7.38 10.783-11.47 9.187-8.89 11.322-10.664 5.619-4.535 7.741-6.135 5.6-4.074 7.732-5.5 5.977-3.861 8.548-5.413 8.012-4.464 12.093-6.471 9.6-4.516 12.257-5.58 6.58-2.535 8.709-3.268 5.877-1.913 8.325-2.622 6.267-1.719 8.48-2.248 5.506-1.255 7.319-1.613 5.035-.926 7.164-1.261 5.832-.836 8.225-1.11 7.113-.661 10.483-.868c3.645-.223 9.593-.3 14.677-.19 4.7.1 10.945.416 13.87.7s7.822.874 10.874 1.313 8.064 1.31 11.128 1.939 7.319 1.584 9.448 2.116 6.413 1.7 9.516 2.58 9.1 2.7 13.319 4.019 10.822 3.506 14.677 4.848 9.98 3.532 13.615 4.867 11.477 4.355 17.418 6.706 14.289 5.735 18.547 7.516 11.951 5.048 17.1 7.264 15.38 6.67 22.741 9.9 15.564 6.813 18.225 7.964 7.016 2.964 9.677 4.032 7.161 2.813 10 3.874 7.7 2.793 10.806 3.848 8.693 2.845 12.419 3.977 8.661 2.574 10.967 3.2 7.461 1.935 11.451 2.906 10.161 2.348 13.709 3.061 9.5 1.81 13.225 2.438 10.183 1.568 14.354 2.09 10.048 1.174 13.064 1.448 7.735.648 10.483.832 10.009.426 16.128.532c6.861.122 14.283.052 19.354-.184 4.526-.209 10.767-.6 13.87-.858s8.622-.839 12.257-1.281 9.606-1.306 13.264-1.919 9.093-1.632 12.08-2.261 8.341-1.88 11.9-2.784 9.222-2.484 12.593-3.519 8.38-2.671 11.128-3.642 7.177-2.626 9.838-3.687 7.09-2.919 9.838-4.132 7.758-3.6 11.128-5.316 8.525-4.493 11.458-6.177 7.429-4.416 10-6.077 6.413-4.245 8.541-5.742 5.9-4.287 8.387-6.2 6.754-5.413 9.49-7.764 7.293-6.532 10.129-9.293 7.254-7.338 9.825-10.177 6.59-7.558 8.938-10.483 5.422-6.919 6.838-8.87 4.019-5.725 5.793-8.387 4.319-6.654 5.658-8.87 3.677-6.3 5.2-9.077 3.5-6.5 4.39-8.284 2.693-5.6 4.006-8.5 3.258-7.445 4.329-10.106 2.316-6.006 2.764-7.435 1.177-4.332 1.619-6.451 1.039-5.451 1.323-7.4 1.016-8.558 1.632-14.677 1.213-11.883 1.329-12.806l.209-1.677-3.352.139c-1.842.077-8.354.213-14.477.3s-12.725.319-14.677.516-4.987.629-6.748.968a68.784 68.784 0 00-7.741 2.19c-2.5.868-7.88 2.761-11.961 4.2s-10.612 3.632-14.515 4.864-10.145 3.109-13.87 4.167-9.022 2.51-11.773 3.222-7.891 1.968-11.415 2.78-9.593 2.126-13.49 2.919-11.028 2.1-15.851 2.9-12.757 1.955-17.638 2.564-12.209 1.406-16.289 1.771-9.522.806-12.1.977-9.177.484-14.677.69c-6.08.229-14.615.3-21.773.171-6.474-.113-15.4-.419-19.838-.684s-9.877-.629-12.1-.813-5.555-.484-7.419-.664-5.874-.616-8.912-.961-7.683-.919-10.322-1.274-6.754-.942-9.151-1.31-6.822-1.1-9.838-1.629-8.458-1.542-12.1-2.255-9.516-1.948-13.064-2.745-8.848-2.032-11.774-2.748-8.587-2.174-12.58-3.238-10.306-2.874-14.031-4.019-8.516-2.671-10.645-3.39-6.629-2.3-10-3.519-9.1-3.387-12.741-4.829-9.951-4.08-14.031-5.861-9.741-4.329-12.58-5.658-9.151-4.429-14.032-6.883-11.338-5.793-14.354-7.419-9.128-5.038-13.586-7.58-10.7-6.18-13.87-8.077-8.38-5.077-11.574-7.058-8.49-5.326-11.773-7.426-9.316-6.022-13.406-8.712-11.351-7.551-16.128-10.806-12.68-8.671-17.56-12.041-14.167-9.828-20.644-14.357-16.78-11.706-22.9-15.954-16.86-11.532-23.87-16.186-15.86-10.419-19.676-12.812-10.1-6.258-13.961-8.59-9.6-5.719-12.741-7.522-9.125-5.151-13.3-7.432-11.715-6.229-16.773-8.777-11.586-5.755-14.515-7.125-7.79-3.574-10.806-4.9-8.516-3.648-12.225-5.155-9.077-3.616-11.935-4.69-8.822-3.171-13.257-4.667-11.764-3.787-16.289-5.093-10.909-3.035-14.193-3.842-8.725-2.042-12.1-2.751-8.161-1.658-10.645-2.106-6.909-1.171-9.838-1.61-7.861-1.084-10.967-1.439-8.329-.871-11.612-1.145-9.451-.642-13.709-.819-10.715-.294-14.354-.261zm275.308 398.68c-3.371.035-6.854.1-7.742.161s-3.716.329-6.29.61-6.635.865-9.032 1.3-6.387 1.319-8.87 1.955-6.619 1.877-9.193 2.751-6.4 2.316-8.512 3.2-5.593 2.487-7.741 3.558-6.084 3.242-8.745 4.829-6.558 4.093-8.661 5.567-5.729 4.19-8.058 6.035-6.5 5.6-9.264 8.354-6.013 6.235-7.212 7.742-3.345 4.484-4.764 6.613a93.933 93.933 0 00-4.9 8.548c-1.274 2.571-2.78 5.984-3.348 7.58s-1.39 4.28-1.829 5.967-1.055 4.442-1.364 6.129a53.758 53.758 0 00-.565 9.838c0 5.671.113 7.4.716 10.6a74.5 74.5 0 001.883 7.426c.639 1.977 1.764 4.974 2.506 6.661s2.177 4.48 3.2 6.209 2.968 4.635 4.332 6.451a82.46 82.46 0 006.2 7.038c2.045 2.055 5.1 4.832 6.784 6.174s4.88 3.629 7.1 5.084 6.935 4.071 10.483 5.819 9.138 4.335 12.419 5.751 8.29 3.51 11.128 4.655 7.774 3.064 10.967 4.264 9.654 3.464 14.354 5.029 11.815 3.784 15.806 4.932 10.161 2.819 13.709 3.713 8.7 2.132 11.451 2.751 8.048 1.706 11.774 2.419 8.661 1.6 10.967 1.964 6.735 1.022 9.841 1.451 8.458 1.074 11.893 1.439 9.167.881 12.738 1.145 10.051.622 14.4.8 10.806.32 14.354.32 10.08-.145 14.515-.323 11.112-.542 14.838-.813 10.112-.858 14.193-1.306 10.4-1.245 14.031-1.771 8.354-1.248 10.483-1.609 7.209-1.31 11.29-2.113 11.109-2.322 15.618-3.38 11.77-2.855 16.128-3.993 12.064-3.248 17.122-4.684 13.041-3.78 17.741-5.206 12.9-3.967 18.225-5.651 13.886-4.438 19.031-6.125 15.667-5.148 23.386-7.693 19.4-6.371 25.966-8.5 16.364-5.284 21.773-7 9.877-3.155 9.922-3.193-1.619-1.584-3.7-3.429-7.345-6.832-11.7-11.077-8.822-8.47-9.932-9.386a28.653 28.653 0 00-3.609-2.529 11.062 11.062 0 00-4.274-1.161c-1.474-.161-4.713-.458-7.2-.661s-7.922-.79-12.083-1.306-10.693-1.461-14.515-2.093-10.07-1.784-13.883-2.561-9.419-1.993-12.457-2.706-7.535-1.826-10-2.464-7.306-1.964-10.767-2.945-9.919-2.919-14.354-4.309-11.619-3.758-15.967-5.255-11.6-4.106-16.128-5.793-11.564-4.374-15.644-5.971-12.354-4.935-18.386-7.422-23.521-9.893-38.869-16.454-32.279-13.76-37.63-15.993-13.77-5.667-18.709-7.635-12.422-4.867-16.628-6.445-9.722-3.51-12.257-4.3-6.932-2.016-9.77-2.739-7.483-1.742-10.322-2.268-7.048-1.184-9.354-1.468-6.151-.658-8.548-.836-7.112-.294-10.483-.261z" opacity=".05"/></svg>