<svg xmlns="http://www.w3.org/2000/svg" id="uk" width="23.809" height="15.873"><defs><style>.cls-1{fill:#f0f0f0}.cls-2{fill:#d80027}.cls-3{fill:#0052b4}</style></defs><path id="Rectangle_155" d="M0 0h23.809v15.873H0z" class="cls-1" data-name="Rectangle 155"/><path id="Path_2123" d="M13.393 85.33h-2.977v6.448H0v2.976h10.416v6.446h2.976v-6.445h10.417v-2.977H13.393z" class="cls-2" data-name="Path 2123" transform="translate(0 -85.33)"/><g id="Group_457" data-name="Group 457" transform="translate(14.493 10.697)"><path id="Path_2124" d="M393.785 315.358l5.5 3.054v-3.054z" class="cls-3" data-name="Path 2124" transform="translate(-389.966 -315.358)"/><path id="Path_2125" d="M311.652 315.358l9.317 5.176v-1.464l-6.682-3.712z" class="cls-3" data-name="Path 2125" transform="translate(-311.652 -315.358)"/><path id="Path_2126" d="M318.487 348.8l-6.835-3.8v3.8z" class="cls-3" data-name="Path 2126" transform="translate(-311.652 -343.62)"/></g><path id="Path_2127" d="M311.652 315.358l9.317 5.176v-1.464l-6.682-3.712z" class="cls-1" data-name="Path 2127" transform="translate(-297.159 -304.661)"/><path id="Path_2128" d="M311.652 315.358l9.317 5.176v-1.464l-6.682-3.712z" class="cls-2" data-name="Path 2128" transform="translate(-297.159 -304.661)"/><g id="Group_458" data-name="Group 458" transform="translate(0 10.697)"><path id="Path_2129" d="M4.2 315.356L0 317.69v-2.334z" class="cls-3" data-name="Path 2129" transform="translate(0 -315.356)"/><path id="Path_2130" d="M33.622 329.51v4.518h-8.131z" class="cls-3" data-name="Path 2130" transform="translate(-24.306 -328.852)"/></g><path id="Path_2131" d="M6.682 315.358L0 319.07v1.464l9.317-5.176z" class="cls-2" data-name="Path 2131" transform="translate(0 -304.661)"/><g id="Group_459" data-name="Group 459"><path id="Path_2132" d="M5.5 134.012L0 130.958v3.054z" class="cls-3" data-name="Path 2132" transform="translate(0 -128.836)"/><path id="Path_2133" d="M9.317 90.506L0 85.33v1.464l6.682 3.712z" class="cls-3" data-name="Path 2133" transform="translate(0 -85.33)"/><path id="Path_2134" d="M53.366 85.33l6.835 3.8v-3.8z" class="cls-3" data-name="Path 2134" transform="translate(-50.884 -85.33)"/></g><path id="Path_2135" d="M9.317 90.506L0 85.33v1.464l6.682 3.712z" class="cls-1" data-name="Path 2135" transform="translate(0 -85.33)"/><path id="Path_2136" d="M9.317 90.506L0 85.33v1.464l6.682 3.712z" class="cls-2" data-name="Path 2136" transform="translate(0 -85.33)"/><g id="Group_460" data-name="Group 460" transform="translate(14.493)"><path id="Path_2137" d="M421.659 148.78l4.2-2.334v2.334z" class="cls-3" data-name="Path 2137" transform="translate(-416.543 -143.604)"/><path id="Path_2138" d="M311.652 89.849v-4.518h8.131z" class="cls-3" data-name="Path 2138" transform="translate(-311.652 -85.331)"/></g><path id="Path_2139" d="M314.287 90.506l6.682-3.712V85.33l-9.317 5.176z" class="cls-2" data-name="Path 2139" transform="translate(-297.159 -85.33)"/></svg>