<svg xmlns="http://www.w3.org/2000/svg" viewBox="0 0 1024 337.56"><g data-name="Layer 2"><g data-name="Layer 1"><path fill="#fe194f" d="M0 0h1024v337.56H0z"/><path d="M269.69 266.88c-11 7.44-24.57 9.7-57.86 9.7H103.54v-38.47h98.27c16.49 0 25.86-1.29 31.36-4.85 7.44-4.2 11.31-11.31 11.31-20 0-9.7-4.85-18.42-13.25-22.63-4.85-2.9-13.25-4.2-23.92-4.2h-39.76c-24.89 0-41.7-4.21-52.69-13.25C101.28 161.82 93.2 144 93.2 124.66c0-26.83 14.22-50.43 35.56-58.51C139.1 62.27 150.41 61 176.92 61h106.67v38.44h-96.32c-20 0-27.48.65-32.65 3.24-6.79 3.88-10.67 11-10.67 20.69 0 8.41 3.56 15.52 9.7 19.72 5.82 3.56 12.93 4.85 29.74 4.85H218c31 0 47.52 4.53 60.12 16.49 10.67 10 17.46 29.09 17.46 48.81-.03 22.29-10.05 42.66-25.89 53.64zm259.31 9.7l-20.7-50.1h-82.1l-20.7 50.1h-54L440.74 61h52.69l89.22 215.61zM829.65 99.44h-88.9c-41.05 0-57.22 18.75-57.22 65.95 0 26.18 5.82 48.81 14.87 59.15 8.73 9.38 22.31 13.58 44 13.58h41.38V187h-60.16v-38.43h106v128h-96.3c-33.29 0-50.43-4.21-66.27-16.81-22-17.13-33.94-48.49-33.94-90.19 0-41.05 12-72.73 33.62-90.19C682.25 67.12 704.55 61 735.26 61h94.39zm118.49 25.94L931 137.67l-14.16-20-13.9 20-17.1-12.29 14.46-19.78-24.3-7.21 7.48-19.78 23.78 7.75-.81-25.36h21.11l-.8 25.38 23.52-7.75L958 98.39l-24.32 7.22zM436.54 188H498l-30.76-75.3z" fill="#fff"/></g></g></svg>