<svg xmlns="http://www.w3.org/2000/svg" width="799.938" height="120.764" viewBox="0 239.625 799.938 120.764"><path d="M799.938 313.5v-5.938c0-10.563-3.688-20.625-10.5-28.25-3.375-3.875-7.438-6.875-11.938-9-4.75-2.25-9.813-3.375-15.063-3.375s-10.313 1.125-15.063 3.375c-4.5 2.125-8.5 5.188-11.938 9C728.75 286.937 725 297 725 307.562c0 10.625 3.75 20.625 10.5 28.25 3.438 3.813 7.438 6.875 11.938 9 4.75 2.25 9.813 3.375 15.063 3.375 10.875 0 21.063-4.25 28.75-11.938 1.063-1.063 2.063-2.25 3-3.375l-9.375-7.5c-5.25 6.563-13.313 10.813-22.438 10.813-12.25 0-22.5-9.75-24.938-22.75h62.438v.063zM762.5 278.875c12.25 0 22.5 9.75 24.938 22.75h-49.813c2.375-13 12.625-22.75 24.875-22.75zM568.063 328l-18.313-59.375h-13.562L517.875 328l-18.312-59.375H487l24.25 78.562h13.25l18.5-58.25 18.438 58.25h13.25l24.25-78.562h-12.563zM454 270.312c-4.75-2.25-9.813-3.375-15.063-3.375s-10.313 1.125-15.063 3.375c-4.5 2.125-8.5 5.188-11.938 9-6.75 7.625-10.5 17.625-10.5 28.25s3.75 20.625 10.5 28.25c3.438 3.813 7.438 6.875 11.938 9 4.75 2.25 9.813 3.375 15.063 3.375 10.875 0 21.063-4.25 28.75-11.938a51.608 51.608 0 003.063-3.375l-9.375-7.5c-5.25 6.563-13.313 10.813-22.375 10.813-12.25 0-22.5-9.75-24.938-22.75h62.376v-5.875c0-10.563-3.75-20.625-10.5-28.25-3.438-3.812-7.438-6.875-11.938-9zm-15.062 8.563c12.249 0 22.5 9.75 24.938 22.75h-49.813c2.375-13 12.625-22.75 24.875-22.75zM168.125 336.25c-15.813 0-28.688-12.813-28.688-28.688 0-15.813 12.813-28.688 28.688-28.688 9.063 0 17.188 4.25 22.438 10.813l9.375-7.5a31.258 31.258 0 00-3.063-3.375c-7.688-7.688-17.875-11.875-28.75-11.875s-21.063 4.25-28.75 11.875c-7.688 7.688-11.875 17.875-11.875 28.75s4.25 21.063 11.875 28.75c7.688 7.688 17.875 11.938 28.75 11.938s21.063-4.25 28.75-11.938a51.608 51.608 0 003.063-3.375l-9.375-7.5c-5.313 6.563-13.375 10.813-22.438 10.813zm84-69c-10.875 0-21.063 4.25-28.75 11.875-7.688 7.688-11.938 17.875-11.938 28.75s4.25 21.063 11.938 28.75 17.875 11.938 28.75 11.938 21.063-4.25 28.75-11.938 11.875-17.875 11.875-28.75-4.25-21.063-11.875-28.75c-7.687-7.625-17.937-11.875-28.75-11.875zm0 69.312c-15.813 0-28.688-12.813-28.688-28.688 0-15.813 12.813-28.688 28.688-28.688 15.813 0 28.688 12.813 28.688 28.688-.063 15.876-12.875 28.688-28.688 28.688zM370.5 277.625a39.01 39.01 0 00-10.375-7.438c-4.75-2.25-9.813-3.438-15.063-3.438s-10.313 1.125-15.063 3.438c-4.5 2.125-8.5 5.188-11.875 9-6.75 7.625-10.5 17.625-10.5 28.25s3.688 20.625 10.5 28.25c3.438 3.813 7.438 6.875 11.875 9 4.75 2.25 9.813 3.438 15.063 3.438s10.313-1.125 15.063-3.438c3.813-1.813 7.313-4.313 10.375-7.375v9.813h12v-107.5h-12v38zm-25.437 58.5c-14.063 0-25.5-12.813-25.5-28.688 0-15.813 11.438-28.688 25.5-28.688s25.438 12.813 25.438 28.688-11.376 28.688-25.438 28.688zm272.875-67.563h12v78.563h-12zm-.813-23h13.625v12.625h-13.625zm62 33.313c9.063 0 17.188 4.25 22.438 10.813l9.375-7.5a31.173 31.173 0 00-3.063-3.376c-7.688-7.688-17.875-11.875-28.75-11.875-6.688 0-13.188 1.75-18.313 4.938-6.687 4.25-10.5 10.625-10.5 17.625 0 15.625 14.938 20.25 27.375 22.938 13.376 2.875 20.438 4.563 21.063 11.75v.313c0 6.563-6.875 11.688-15.313 11.688h-4.313a28.549 28.549 0 01-22.438-10.813l-9.375 7.5a31.07 31.07 0 003.063 3.375c7.688 7.688 17.875 11.938 28.75 11.938h4.313c6.75 0 13.188-2.125 18.188-6.063 5.813-4.5 9.125-11.063 9.125-17.875 0-2.938-.625-5.75-1.75-8.438-.125-.375-1.375-3.313-3.938-5.875-5.813-5.5-16.625-8.188-21.688-9.125-3.688-.688-8.25-1.688-11.375-2.375-4.875-1.313-9.5-3.688-9.625-9.125.064-5.751 7.564-10.438 16.751-10.438z" fill="#261F3B"/><path fill="#DD788A" d="M19.813 307.187H0c0 5.563.875 11.125 2.625 16.438L21.5 317.5c-1.125-3.25-1.687-6.75-1.687-10.313z"/><path fill="#C27184" d="M21.438 317.5l-18.875 6.125c1.75 5.313 3.813 9.5 7 14.063l16.25-11.375c-1.813-2.688-3.313-5.626-4.375-8.813z"/><path fill="#A86F8D" d="M25.875 326.312l-16.25 11.375c3.188 4.563 6.438 7.938 10.813 11.375l12.188-15.625c-2.563-2.062-4.876-4.437-6.751-7.125z"/><path fill="#996D8E" d="M32.625 333.437l-12.188 15.625c4.375 3.438 8.438 5.75 13.688 7.75l7.125-18.5c-3.125-1.25-6.062-2.875-8.625-4.875z"/><path fill="#816C98" d="M41.188 338.312l-7.125 18.5c5.188 2 9.75 3 15.313 3.375l1.375-19.813c-3.313-.187-6.501-.937-9.563-2.062z"/><path fill="#686BA2" d="M50.813 340.437l-1.375 19.813c5.563.375 10.25 0 15.688-1.25l-4.5-19.313c-2.438.563-4.875.875-7.5.875-.751 0-1.501-.062-2.313-.125z"/><path fill="#5C73AB" d="M60.625 339.687l3.75 16.25c5.125-1.188 9.188-2.813 13.75-5.438l-8.313-14.438c-2.812 1.626-5.874 2.876-9.187 3.626z"/><path fill="#5788BB" d="M69.813 336.062l8.313 14.438c4.563-2.624 8.625-5.938 12.188-9.875l-12.375-11.188c-2.376 2.625-5.064 4.875-8.126 6.625z"/><path fill="#559FCE" d="M77.938 329.5l12.375 11.188c3.5-3.875 5.938-7.563 8.188-12.313l-15.125-7.063c-1.438 3-3.251 5.75-5.438 8.188z"/><path fill="#4FB6DF" d="M83.375 321.25l15.125 7.063c2.188-4.75 3.438-9 4.188-14.188l-16.5-2.313c-.5 3.375-1.438 6.5-2.813 9.438z"/><path fill="#5ECBEE" d="M102.563 299.375l-3.313.5-13.188 2.063c.25 1.688.438 3.438.438 5.188 0 1.563-.125 3.125-.375 4.625l16.5 2.313c.75-5.127.75-9.502-.062-14.689z"/><path fill="#72A964" d="M53.188 273.812c2.375 0 4.688.25 6.938.75l2.063-9.75c-4.5-1-8.313-1.188-12.813-.813l.875 10a22.618 22.618 0 012.937-.187z"/><path fill="#A3B061" d="M50.25 274l-.875-10c-4.5.375-8.25 1.313-12.438 3l3.75 9.25c3.001-1.188 6.188-2 9.563-2.25z"/><path fill="#EBB159" d="M32.188 281.25c2.563-2.063 5.375-3.75 8.5-5l-3.75-9.25c-4.188 1.688-7.5 3.625-11.063 6.5L28 276.062l4.188 5.188z"/><path fill="#EB9641" d="M32.188 281.25L28 276.062c-3.25 2.625-5.625 5.25-8 8.75l5.5 3.75a35.389 35.389 0 016.688-7.312z"/><path fill="#F58357" d="M21.25 297.437c1-3.188 2.438-6.188 4.25-8.875l-5.5-3.75c-2.375 3.5-3.875 6.688-5.063 10.688l3.188 1 3.125.937z"/><path fill="#F37B7D" d="M21.25 297.437l-3.188-1c-1.125 3.688-1.625 6.875-1.625 10.75h3.313c.063-3.375.563-6.687 1.5-9.75z"/><path fill="#58C3BD" d="M86.063 302l13.188-2.063c-.75-4.813-2-8.75-4.125-13.188l-12 5.813A31.976 31.976 0 0186.063 302z"/><path fill="#52B79D" d="M83.125 292.562l12-5.875c-2.125-4.375-4.5-7.813-7.813-11.375l-9.813 9.125a34.907 34.907 0 015.626 8.125z"/><path fill="#4CB289" d="M77.5 284.437l9.75-9.125c-3.313-3.563-6.563-6.125-10.813-8.563l-6.688 11.563a33.848 33.848 0 017.751 6.125z"/><path fill="#57AD78" d="M60.063 274.562c3.5.75 6.75 2 9.75 3.75L76.5 266.75a48.102 48.102 0 00-13.625-5.25l-.688 3.25-2.124 9.812z"/></svg>