<svg xmlns="http://www.w3.org/2000/svg" xmlns:xlink="http://www.w3.org/1999/xlink" width="576.052" height="581.784"><defs><linearGradient id="a" x1="7.822" y1="1.19" x2="8.599" y2=".188" gradientUnits="objectBoundingBox"><stop offset="0" stop-color="#4095de"/><stop offset="1" stop-color="#19072d"/></linearGradient><linearGradient id="b" x1="5.614" y1="-1.12" x2="4.29" y2="1.861" xlink:href="#a"/><linearGradient id="c" x1="35.467" y1="-.239" x2="34.988" y2="2.176" xlink:href="#a"/><linearGradient id="d" x1="6.949" y1="-.225" x2="6.715" y2="1.518" xlink:href="#a"/><linearGradient id="e" x1="3.639" y1=".237" x2="5.975" y2="1.162" gradientUnits="objectBoundingBox"><stop offset="0" stop-color="#19072d"/><stop offset="1" stop-color="#4095de"/></linearGradient><clipPath id="f"><path data-name="Path 382" d="M279.343 129.567l-8.181-4.754a2.746 2.746 0 01.523.579l8.179 4.754a2.739 2.739 0 00-.521-.579z" transform="translate(-271.162 -124.813)" fill="#d5d5d5"/></clipPath><clipPath id="g"><path data-name="Path 386" d="M278.918 129.239l-8.179-4.754a4.581 4.581 0 01.769.556l8.179 4.754a4.585 4.585 0 00-.769-.556z" transform="translate(-270.739 -124.485)" fill="#d5d5d5"/></clipPath></defs><g data-name="Group 201"><g data-name="Group 137"><g data-name="Group 129" style="mix-blend-mode:multiply;isolation:isolate"><path data-name="Path 128" d="M292.433 577.777l257.379-148.6c8.329-4.808 7.283-13.2-2.332-18.756L358.471 301.298c-9.613-5.551-24.159-6.153-32.486-1.348L68.604 448.55c-8.327 4.806-7.283 13.2 2.332 18.756l189.012 109.126c9.613 5.551 24.159 6.153 32.485 1.345z" fill="#fefefe" opacity=".02"/><path data-name="Path 129" d="M292.411 577.035l256.115-147.868c8.282-4.782 7.243-13.134-2.321-18.655L358.32 302.033c-9.564-5.521-24.03-6.121-32.312-1.339L69.89 448.565c-8.282 4.78-7.243 13.132 2.321 18.653l187.888 108.478c9.564 5.521 24.027 6.121 32.312 1.339z" fill="#fcfcfc" opacity=".039"/><path data-name="Path 130" d="M292.38 576.289l254.863-147.137c8.235-4.756 7.2-13.062-2.309-18.554l-186.767-107.83c-9.51-5.492-23.9-6.088-32.136-1.334L71.174 448.578c-8.235 4.754-7.2 13.062 2.309 18.552l186.768 107.832c9.51 5.49 23.898 6.086 32.129 1.327z" fill="#fbfbfb" opacity=".059"/><path data-name="Path 131" d="M292.361 575.55l253.6-146.412c8.193-4.73 7.164-12.991-2.295-18.451L358.015 303.502c-9.459-5.46-23.768-6.053-31.958-1.324L72.461 448.592c-8.193 4.728-7.164 12.989 2.295 18.451l185.647 107.182c9.459 5.463 23.768 6.056 31.958 1.325z" fill="#f9f9f9" opacity=".078"/><path data-name="Path 132" d="M292.338 574.809l252.334-145.685c8.146-4.7 7.124-12.919-2.283-18.35L357.865 304.238c-9.407-5.431-23.639-6.022-31.785-1.317L73.746 448.604c-8.146 4.7-7.124 12.921 2.283 18.35l184.525 106.538c9.407 5.429 23.636 6.02 31.784 1.317z" fill="#f8f8f8" opacity=".098"/><path data-name="Path 133" d="M292.314 574.067L543.385 429.11c8.1-4.677 7.086-12.848-2.269-18.249l-183.4-105.889c-9.356-5.4-23.507-5.987-31.609-1.31L75.032 448.618c-8.1 4.679-7.086 12.848 2.269 18.249l183.4 105.889c9.36 5.401 23.511 5.987 31.613 1.311z" fill="#f7f7f7" opacity=".118"/><path data-name="Path 134" d="M292.288 573.323l249.81-144.227c8.057-4.651 7.047-12.776-2.257-18.146L357.559 305.708c-9.3-5.371-23.374-5.954-31.431-1.3L76.317 448.632c-8.057 4.653-7.047 12.776 2.257 18.149l182.283 105.241c9.302 5.371 23.377 5.955 31.431 1.301z" fill="#f5f5f5" opacity=".137"/><path data-name="Path 135" d="M292.265 572.582l248.551-143.5c8.01-4.625 7.007-12.705-2.246-18.045L357.41 306.441c-9.252-5.34-23.245-5.921-31.257-1.294L77.602 448.646c-8.01 4.625-7.007 12.705 2.246 18.045l181.16 104.595c9.252 5.34 23.245 5.922 31.257 1.296z" fill="#f4f4f4" opacity=".157"/><path data-name="Path 136" d="M292.242 571.84l247.287-142.772c7.968-4.6 6.967-12.633-2.232-17.945L357.258 307.178c-9.2-5.312-23.114-5.889-31.081-1.289L78.889 448.66c-7.968 4.6-6.967 12.633 2.232 17.945L261.16 570.553c9.199 5.309 23.114 5.886 31.082 1.287z" fill="#f2f2f2" opacity=".176"/><path data-name="Path 137" d="M292.216 571.096l246.028-142.042c7.921-4.573 6.927-12.562-2.22-17.842l-178.919-103.3c-9.147-5.279-22.982-5.853-30.9-1.28L80.173 448.674c-7.921 4.573-6.927 12.562 2.22 17.844l178.919 103.3c9.15 5.28 22.983 5.852 30.904 1.278z" fill="#f1f1f1" opacity=".196"/><path data-name="Path 138" d="M292.192 570.356L536.957 429.04c7.877-4.548 6.89-12.49-2.206-17.741l-177.8-102.651c-9.1-5.251-22.853-5.821-30.73-1.275L81.46 448.689c-7.876 4.548-6.89 12.49 2.206 17.741l177.8 102.654c9.092 5.25 22.851 5.82 30.726 1.272z" fill="#efefef" opacity=".216"/><path data-name="Path 139" d="M292.171 569.61l243.5-140.584c7.832-4.522 6.85-12.419-2.194-17.64l-176.676-102c-9.044-5.22-22.722-5.788-30.554-1.266L82.745 448.703c-7.832 4.522-6.85 12.419 2.194 17.64l176.676 102c9.044 5.225 22.722 5.792 30.556 1.267z" fill="#eee" opacity=".235"/><path data-name="Path 140" d="M292.143 568.872l242.245-139.86c7.785-4.494 6.81-12.347-2.182-17.537L356.65 310.117c-8.99-5.19-22.591-5.755-30.376-1.259L84.026 448.717c-7.785 4.5-6.81 12.347 2.182 17.539l175.559 101.355c8.99 5.192 22.591 5.755 30.376 1.261z" fill="#ededed" opacity=".255"/><path data-name="Path 141" d="M292.12 568.129l240.981-139.131c7.743-4.468 6.77-12.276-2.168-17.436L356.501 310.851c-8.938-5.16-22.462-5.72-30.2-1.252L85.317 448.731c-7.743 4.47-6.77 12.276 2.168 17.436l174.433 100.715c8.94 5.157 22.463 5.718 30.202 1.247z" fill="#ebebeb" opacity=".275"/><path data-name="Path 142" d="M292.096 567.386l239.72-138.4c7.7-4.442 6.73-12.2-2.157-17.335L356.348 311.587c-8.887-5.131-22.331-5.689-30.026-1.245l-239.72 138.4c-7.7 4.442-6.73 12.2 2.157 17.335L262.07 566.141c8.886 5.132 22.33 5.69 30.026 1.245z" fill="#eaeaea" opacity=".294"/><path data-name="Path 143" d="M292.07 566.645l238.459-137.676c7.651-4.416 6.693-12.131-2.143-17.232L356.195 312.32c-8.833-5.1-22.2-5.654-29.851-1.238L87.89 448.758c-7.651 4.416-6.693 12.133 2.143 17.234l172.191 99.414c8.831 5.102 22.197 5.655 29.846 1.239z" fill="#e8e8e8" opacity=".314"/><path data-name="Path 144" d="M292.044 565.902l237.2-136.946c7.607-4.391 6.653-12.061-2.131-17.131l-171.069-98.768c-8.784-5.07-22.068-5.621-29.675-1.231L89.173 448.773c-7.607 4.391-6.653 12.061 2.131 17.131l171.068 98.767c8.784 5.073 22.072 5.618 29.672 1.231z" fill="#e7e7e7" opacity=".333"/><path data-name="Path 145" d="M292.024 565.161l235.937-136.218c7.56-4.367 6.613-11.99-2.119-17.033l-169.948-98.12c-8.73-5.04-21.937-5.586-29.5-1.221L90.458 448.787c-7.56 4.365-6.613 11.99 2.119 17.03l169.948 98.12c8.73 5.04 21.937 5.587 29.499 1.224z" fill="#e6e6e6" opacity=".353"/><path data-name="Path 146" d="M292 564.418l234.673-135.489c7.518-4.341 6.573-11.92-2.105-16.932L355.74 314.526c-8.678-5.012-21.806-5.556-29.323-1.217L91.744 448.801c-7.518 4.339-6.573 11.918 2.105 16.93l168.828 97.471c8.676 5.011 21.805 5.557 29.323 1.216z" fill="#e4e4e4" opacity=".373"/><path data-name="Path 147" d="M291.974 563.674l233.415-134.759c7.471-4.313 6.533-11.847-2.093-16.829l-167.7-96.826c-8.627-4.979-21.677-5.521-29.147-1.207L93.029 448.815c-7.471 4.313-6.533 11.847 2.093 16.827l167.7 96.826c8.631 4.981 21.686 5.52 29.152 1.206z" fill="#e3e3e3" opacity=".392"/><path data-name="Path 148" d="M291.951 562.931l232.151-134.03c7.426-4.288 6.5-11.777-2.079-16.728l-166.585-96.177c-8.575-4.951-21.545-5.488-28.972-1.2L94.316 448.831c-7.426 4.287-6.5 11.775 2.079 16.726l166.584 96.174c8.575 4.951 21.546 5.49 28.972 1.2z" fill="#e1e1e1" opacity=".412"/><path data-name="Path 149" d="M291.928 562.191l230.889-133.304c7.382-4.262 6.456-11.7-2.068-16.627l-165.464-95.53c-8.521-4.92-21.414-5.455-28.8-1.193L95.601 448.843c-7.382 4.259-6.456 11.7 2.068 16.625l165.464 95.53c8.52 4.92 21.413 5.455 28.795 1.193z" fill="#e0e0e0" opacity=".431"/><path data-name="Path 150" d="M291.902 561.447l229.631-132.574c7.335-4.236 6.416-11.634-2.056-16.524l-164.341-94.883c-8.472-4.89-21.285-5.422-28.62-1.186L96.886 448.857c-7.335 4.234-6.416 11.632 2.056 16.522l164.34 94.882c8.472 4.893 21.29 5.422 28.62 1.186z" fill="#dfdfdf" opacity=".451"/><path data-name="Path 151" d="M291.878 560.707l228.368-131.848c7.293-4.21 6.376-11.561-2.042-16.423L354.984 318.2c-8.418-4.859-21.154-5.387-28.444-1.179L98.172 448.871c-7.29 4.208-6.376 11.562 2.042 16.421l163.22 94.236c8.418 4.86 21.154 5.389 28.444 1.179z" fill="#ddd" opacity=".471"/><path data-name="Path 152" d="M291.855 559.964l227.106-131.119c7.246-4.184 6.336-11.491-2.03-16.322l-162.1-93.586c-8.366-4.831-21.023-5.354-28.268-1.172L99.457 448.886c-7.246 4.182-6.336 11.489 2.03 16.32l162.1 93.587c8.366 4.831 21.022 5.356 28.268 1.171z" fill="#dcdcdc" opacity=".49"/><path data-name="Path 153" d="M291.829 559.223l225.847-130.392c7.2-4.159 6.3-11.418-2.018-16.219l-160.977-92.94c-8.315-4.8-20.894-5.324-28.093-1.165l-225.844 130.39c-7.2 4.159-6.3 11.421 2.016 16.219l160.976 92.942c8.316 4.801 20.894 5.321 28.093 1.165z" fill="#dadada" opacity=".51"/><path data-name="Path 154" d="M291.806 558.48L516.39 428.817c7.157-4.13 6.259-11.348-2-16.119l-159.861-92.292c-8.263-4.77-20.762-5.288-27.917-1.158L102.028 448.911c-7.157 4.133-6.259 11.348 2 16.119l159.862 92.292c8.262 4.771 20.761 5.289 27.916 1.158z" fill="#d9d9d9" opacity=".529"/><path data-name="Path 155" d="M291.782 557.737l223.322-128.934c7.11-4.1 6.219-11.275-1.993-16.018l-158.733-91.643c-8.212-4.742-20.631-5.256-27.743-1.151L103.312 448.925c-7.11 4.107-6.219 11.278 1.993 16.018l158.733 91.646c8.212 4.74 20.632 5.255 27.744 1.148z" fill="#d7d7d7" opacity=".549"/><path data-name="Path 156" d="M291.757 556.996l222.061-128.208c7.065-4.079 6.179-11.205-1.978-15.915l-157.613-91c-8.158-4.709-20.5-5.223-27.565-1.142L104.6 448.939c-7.065 4.079-6.179 11.205 1.978 15.917l157.613 91c8.161 4.708 20.5 5.219 27.566 1.14z" fill="#d6d6d6" opacity=".569"/><path data-name="Path 157" d="M291.733 556.252l220.8-127.479c7.021-4.053 6.139-11.132-1.967-15.814l-156.492-90.347c-8.106-4.681-20.368-5.19-27.389-1.137l-220.8 127.477c-7.021 4.053-6.139 11.135 1.967 15.814l156.492 90.353c8.11 4.679 20.368 5.187 27.389 1.133z" fill="#d5d5d5" opacity=".588"/><path data-name="Path 158" d="M291.708 555.513l219.54-126.752c6.974-4.027 6.1-11.062-1.955-15.713l-155.37-89.7c-8.055-4.651-20.24-5.155-27.216-1.127L107.169 448.968c-6.974 4.027-6.1 11.062 1.955 15.713l155.37 89.7c8.054 4.653 20.239 5.159 27.214 1.132z" fill="#d3d3d3" opacity=".608"/><path data-name="Path 159" d="M291.686 554.77l218.277-126.023c6.932-4 6.062-10.99-1.941-15.61l-154.25-89.055c-8-4.62-20.108-5.122-27.04-1.123L108.456 448.982c-6.932 4-6.062 10.992 1.941 15.612l154.249 89.055c8.003 4.621 20.109 5.122 27.04 1.121z" fill="#d2d2d2" opacity=".627"/><path data-name="Path 160" d="M291.66 554.027l217.017-125.294c6.885-3.976 6.022-10.919-1.929-15.509l-153.131-88.409c-7.949-4.59-19.977-5.089-26.862-1.114L109.74 448.996c-6.885 3.976-6.022 10.919 1.929 15.509l153.129 88.408c7.949 4.592 19.977 5.089 26.862 1.114z" fill="#d0d0d0" opacity=".647"/><path data-name="Path 161" d="M291.637 553.286L507.39 428.719c6.84-3.95 5.982-10.847-1.915-15.408l-152.002-87.759c-7.9-4.562-19.848-5.056-26.688-1.106L111.028 449.01c-6.84 3.95-5.982 10.846 1.915 15.408l152.006 87.761c7.9 4.56 19.848 5.055 26.688 1.107z" fill="#cfcfcf" opacity=".667"/><path data-name="Path 162" d="M291.614 552.543l214.492-123.838c6.8-3.922 5.943-10.776-1.9-15.305l-150.889-87.115c-7.846-4.529-19.717-5.021-26.513-1.1L112.313 449.024c-6.8 3.924-5.942 10.776 1.9 15.307l150.885 87.112c7.849 4.532 19.72 5.024 26.516 1.1z" fill="#cecece" opacity=".686"/><path data-name="Path 163" d="M291.587 551.8l213.234-123.109c6.749-3.9 5.9-10.7-1.892-15.2l-149.765-86.47c-7.794-4.5-19.586-4.991-26.334-1.092L113.597 449.038c-6.749 3.9-5.9 10.7 1.892 15.2l149.765 86.467c7.793 4.505 19.585 4.993 26.333 1.095z" fill="#ccc" opacity=".706"/><path data-name="Path 164" d="M291.564 551.058l211.971-122.382c6.707-3.87 5.865-10.633-1.878-15.1l-148.643-85.821c-7.743-4.47-19.457-4.956-26.161-1.085l-211.97 122.382c-6.707 3.87-5.865 10.633 1.878 15.1l148.642 85.818c7.742 4.473 19.456 4.959 26.161 1.088z" fill="#cbcbcb" opacity=".725"/><path data-name="Path 165" d="M291.541 550.315l210.708-121.653c6.66-3.844 5.825-10.56-1.866-15l-147.521-85.171c-7.691-4.442-19.325-4.923-25.985-1.078L116.168 449.066c-6.66 3.844-5.825 10.56 1.866 15l147.521 85.171c7.692 4.442 19.323 4.925 25.986 1.078z" fill="#c9c9c9" opacity=".745"/><path data-name="Path 166" d="M291.515 549.573l209.447-120.922c6.615-3.821 5.785-10.492-1.852-14.9l-146.4-84.524c-7.637-4.409-19.192-4.89-25.807-1.069L117.455 449.08c-6.615 3.819-5.785 10.49 1.852 14.9l146.4 84.524c7.638 4.411 19.192 4.89 25.808 1.069z" fill="#c8c8c8" opacity=".765"/><path data-name="Path 167" d="M291.491 548.831l208.186-120.2c6.571-3.8 5.746-10.42-1.84-14.8L352.559 329.96c-7.588-4.381-19.063-4.857-25.634-1.064L118.739 449.094c-6.571 3.793-5.746 10.418 1.84 14.8l145.278 83.877c7.589 4.377 19.063 4.853 25.634 1.06z" fill="#c7c7c7" opacity=".784"/><path data-name="Path 168" d="M291.468 548.089l206.925-119.467c6.524-3.77 5.706-10.347-1.828-14.7l-144.158-83.228c-7.534-4.351-18.932-4.822-25.458-1.055L120.024 449.108c-6.524 3.767-5.706 10.347 1.828 14.7l144.158 83.226c7.534 4.35 18.932 4.822 25.458 1.055z" fill="#c5c5c5" opacity=".804"/><path data-name="Path 169" d="M291.442 547.348l205.667-118.74c6.482-3.741 5.668-10.277-1.814-14.6l-143.04-82.578c-7.483-4.32-18.8-4.789-25.28-1.048l-205.666 118.74c-6.479 3.741-5.668 10.275 1.814 14.595l143.04 82.583c7.482 4.32 18.8 4.789 25.279 1.048z" fill="#c4c4c4" opacity=".824"/><path data-name="Path 170" d="M291.419 546.604l204.4-118.01c6.435-3.716 5.628-10.2-1.8-14.5l-141.914-81.93c-7.431-4.29-18.671-4.756-25.106-1.041L122.596 449.136c-6.435 3.716-5.628 10.2 1.8 14.494l141.917 81.934c7.431 4.29 18.671 4.751 25.106 1.04z" fill="#c2c2c2" opacity=".843"/><path data-name="Path 171" d="M291.395 545.864L494.534 428.58c6.39-3.69 5.588-10.134-1.789-14.393L351.952 332.9c-7.379-4.262-18.54-4.724-24.93-1.034L123.883 449.151c-6.39 3.687-5.589 10.132 1.789 14.393l140.793 81.287c7.379 4.259 18.54 4.72 24.93 1.033z" fill="#c1c1c1" opacity=".863"/><path data-name="Path 172" d="M291.372 545.121L493.25 428.566c6.346-3.664 5.549-10.061-1.777-14.292L351.8 333.634c-7.326-4.229-18.409-4.688-24.752-1.027L125.172 449.164c-6.346 3.662-5.549 10.061 1.777 14.29l139.673 80.64c7.321 4.231 18.404 4.693 24.75 1.027z" fill="#bfbfbf" opacity=".882"/><path data-name="Path 173" d="M291.346 544.377l200.619-115.825c6.3-3.638 5.509-9.991-1.765-14.192l-138.55-79.99c-7.274-4.2-18.28-4.658-24.579-1.02L126.452 449.178c-6.3 3.636-5.509 9.989 1.765 14.189l138.55 79.993c7.275 4.199 18.28 4.656 24.579 1.017z" fill="#bebebe" opacity=".902"/><path data-name="Path 174" d="M291.323 543.637l199.359-115.099c6.254-3.612 5.471-9.918-1.751-14.088l-137.43-79.346c-7.222-4.17-18.149-4.623-24.4-1.01L127.739 449.19c-6.254 3.612-5.471 9.921 1.751 14.091l137.43 79.343c7.223 4.171 18.149 4.623 24.403 1.013z" fill="#bdbdbd" opacity=".922"/><path data-name="Path 175" d="M291.299 542.894l198.095-114.37c6.21-3.587 5.431-9.848-1.739-13.988l-136.309-78.7c-7.168-4.14-18.017-4.59-24.227-1.006L129.024 449.204c-6.21 3.587-5.431 9.848 1.739 13.988l136.309 78.7c7.164 4.138 18.018 4.586 24.227 1.002z" fill="#bbb" opacity=".941"/><path data-name="Path 176" d="M291.273 542.151L488.107 428.51c6.165-3.559 5.392-9.775-1.725-13.887l-135.191-78.049c-7.119-4.109-17.886-4.555-24.051-1L130.311 449.219c-6.165 3.561-5.392 9.777 1.725 13.887l135.186 78.049c7.119 4.109 17.886 4.557 24.051.996z" fill="#bababa" opacity=".961"/><path data-name="Path 177" d="M291.245 541.41l195.577-112.914c6.121-3.533 5.352-9.7-1.714-13.784L351.045 337.31c-7.065-4.081-17.755-4.524-23.875-.992L131.595 449.233c-6.121 3.535-5.352 9.7 1.714 13.786l134.066 77.4c7.065 4.081 17.754 4.524 23.87.991z" fill="#b8b8b8" opacity=".98"/><path data-name="Path 178" d="M291.227 540.667l194.311-112.185c6.074-3.507 5.312-9.632-1.7-13.683l-132.947-76.755c-7.014-4.048-17.624-4.489-23.7-.982L132.88 449.247c-6.074 3.507-5.312 9.635 1.7 13.683l132.945 76.755c7.016 4.051 17.626 4.489 23.702.982z" fill="#b7b7b7"/></g><g data-name="Group 136"><g data-name="Group 135"><g data-name="Group 131"><path data-name="Path 179" d="M128.951 408.524l228.513-131.933v-160.96c0-3.2-1.943-4.663-4.339-3.28L133.29 239.275c-2.4 1.383-4.339 5.094-4.339 8.289z" fill="#fefefe"/><g data-name="Group 130"><path data-name="Path 180" d="M95.347 201.251L315.181 74.328a2.847 2.847 0 012.614-.314l.014-.021.363.218c.028.021.061.033.089.054l3.88 2.325-.014.019a2.853 2.853 0 00-2.621.312L99.672 203.843c-2.4 1.383-4.339 5.094-4.339 8.289v160.96l-4.325-2.592V209.54c0-3.195 1.943-6.906 4.339-8.289z" transform="translate(33.618 35.431)" fill="url(#a)"/></g><path data-name="Path 181" d="M137.655 394.208l211.106-121.882V124.161L137.655 246.044z" fill="#0444cc"/></g><path data-name="Path 182" d="M279.665 488.239L495.54 363.606c3.491-2.016 3.052-5.535-.977-7.862l-137.108-79.158-228.513 131.93 137.108 79.165c4.03 2.321 10.127 2.574 13.615.558z" fill="#f2f2f2"/><path data-name="Path 183" d="M229.957 308.463c4.03 2.325 10.127 2.579 13.615.563l215.875-124.633a3.944 3.944 0 002.321-3.6h.035v8.244l-.042.016a3.988 3.988 0 01-2.314 3.425L243.572 317.116c-3.488 2.016-9.585 1.763-13.615-.565L92.849 237.39v-8.09z" transform="translate(36.093 179.214)" fill="url(#b)"/><g data-name="Group 133" fill="#fff"><g data-name="Group 132"><path data-name="Path 184" d="M359.435 301.341l9.986-5.767c1.4-.806 1.4-2.114 0-2.921l-9.986-5.764a5.591 5.591 0 00-5.059 0l-9.986 5.764c-1.4.806-1.4 2.114 0 2.921l9.986 5.767a5.592 5.592 0 005.059 0z"/><path data-name="Path 185" d="M339.835 312.659l9.986-5.767c1.4-.806 1.4-2.114 0-2.921l-9.986-5.767a5.591 5.591 0 00-5.059 0l-9.984 5.767c-1.4.806-1.4 2.114 0 2.921l9.989 5.767a5.592 5.592 0 005.054 0z"/><path data-name="Path 186" d="M320.229 323.977l9.986-5.764c1.4-.806 1.4-2.114 0-2.921l-9.986-5.767a5.592 5.592 0 00-5.059 0l-9.986 5.767c-1.4.806-1.4 2.114 0 2.921l9.986 5.764a5.592 5.592 0 005.059 0z"/><path data-name="Path 187" d="M300.622 335.297l9.986-5.767c1.4-.806 1.4-2.112 0-2.921l-9.986-5.764a5.591 5.591 0 00-5.059 0l-9.986 5.764c-1.4.809-1.4 2.114 0 2.923l9.986 5.764a5.591 5.591 0 005.059.001z"/><path data-name="Path 188" d="M281.017 346.617l9.984-5.767c1.4-.806 1.4-2.112 0-2.919l-9.984-5.767a5.582 5.582 0 00-5.061 0l-9.986 5.767c-1.4.806-1.4 2.112 0 2.919l9.986 5.767a5.6 5.6 0 005.061 0z"/><path data-name="Path 189" d="M261.411 357.937l9.986-5.767c1.4-.806 1.4-2.114 0-2.921l-9.986-5.764a5.591 5.591 0 00-5.059 0l-9.986 5.764c-1.4.806-1.4 2.114 0 2.921l9.986 5.767a5.592 5.592 0 005.059 0z"/><path data-name="Path 190" d="M241.804 369.254l9.986-5.764c1.4-.806 1.4-2.114 0-2.921l-9.986-5.767a5.592 5.592 0 00-5.059 0l-9.986 5.767c-1.4.806-1.4 2.114 0 2.921l9.986 5.764a5.577 5.577 0 005.059 0z"/><path data-name="Path 191" d="M222.198 380.575l9.986-5.764c1.4-.806 1.4-2.114 0-2.921l-9.984-5.767a5.6 5.6 0 00-5.061 0l-9.986 5.767c-1.4.806-1.4 2.114 0 2.921l9.986 5.764a5.591 5.591 0 005.059 0z"/><path data-name="Path 192" d="M202.59 391.894l9.986-5.767c1.4-.8 1.4-2.112 0-2.921l-9.986-5.764a5.586 5.586 0 00-5.056 0l-9.986 5.764c-1.4.809-1.4 2.117 0 2.921l9.986 5.767a5.586 5.586 0 005.056 0z"/><path data-name="Path 193" d="M182.987 403.214l9.986-5.767c1.4-.806 1.4-2.114 0-2.921l-9.986-5.764a5.592 5.592 0 00-5.059 0l-9.986 5.764c-1.4.809-1.4 2.114 0 2.921l9.986 5.767a5.592 5.592 0 005.059 0z"/><path data-name="Path 194" d="M163.38 414.535l9.986-5.767c1.4-.806 1.4-2.114 0-2.921l-9.986-5.764a5.592 5.592 0 00-5.059 0l-9.986 5.766c-1.4.806-1.4 2.114 0 2.921l9.986 5.767a5.591 5.591 0 005.059-.002z"/><path data-name="Path 195" d="M378.523 312.542l10.31-5.952c1.306-.755 1.306-1.978 0-2.736l-10.31-5.95a5.239 5.239 0 00-4.738 0l-10.307 5.95c-1.308.757-1.308 1.981 0 2.736l10.307 5.952a5.239 5.239 0 004.738 0z"/><path data-name="Path 196" d="M358.916 323.862l10.31-5.952c1.308-.755 1.308-1.981 0-2.736l-10.31-5.95a5.219 5.219 0 00-4.735 0l-10.308 5.947c-1.308.755-1.308 1.981 0 2.736l10.31 5.952a5.234 5.234 0 004.733.003z"/><path data-name="Path 197" d="M339.312 335.18l10.307-5.949c1.308-.757 1.308-1.981 0-2.736l-10.307-5.952a5.239 5.239 0 00-4.738 0l-10.307 5.952c-1.308.755-1.308 1.978 0 2.736l10.307 5.949a5.224 5.224 0 004.738 0z"/><path data-name="Path 198" d="M319.705 346.502l10.307-5.954c1.308-.752 1.308-1.978 0-2.733l-10.307-5.952a5.239 5.239 0 00-4.738 0l-10.307 5.952c-1.308.755-1.308 1.981 0 2.736l10.307 5.952a5.253 5.253 0 004.738-.001z"/><path data-name="Path 199" d="M300.099 357.82l10.31-5.952c1.306-.755 1.306-1.978 0-2.733l-10.31-5.952a5.239 5.239 0 00-4.738 0l-10.307 5.952c-1.308.755-1.308 1.978 0 2.733l10.307 5.952a5.224 5.224 0 004.738 0z"/><path data-name="Path 200" d="M280.492 369.14l10.313-5.952c1.308-.755 1.308-1.978 0-2.736l-10.31-5.95a5.22 5.22 0 00-4.735 0l-10.31 5.95c-1.306.757-1.306 1.981 0 2.736l10.31 5.952a5.234 5.234 0 004.732 0z"/><path data-name="Path 201" d="M260.888 380.459l10.307-5.952c1.308-.755 1.308-1.981 0-2.736l-10.307-5.947a5.239 5.239 0 00-4.738 0l-10.307 5.952c-1.308.755-1.308 1.981 0 2.736l10.307 5.952a5.239 5.239 0 004.738-.005z"/><path data-name="Path 202" d="M241.281 391.779l10.307-5.952c1.308-.755 1.308-1.978 0-2.736l-10.307-5.952a5.239 5.239 0 00-4.738 0l-10.307 5.952c-1.308.757-1.308 1.981 0 2.736l10.307 5.952a5.239 5.239 0 004.738 0z"/><path data-name="Path 203" d="M221.677 403.097l10.307-5.95c1.31-.757 1.31-1.981 0-2.736l-10.3-5.952a5.239 5.239 0 00-4.738 0l-10.31 5.952c-1.308.755-1.308 1.978 0 2.736l10.31 5.95a5.219 5.219 0 004.731 0z"/><path data-name="Path 204" d="M397.607 323.745l10.628-6.137a1.345 1.345 0 000-2.548l-10.628-6.139a4.887 4.887 0 00-4.416 0l-10.628 6.137a1.345 1.345 0 000 2.548l10.628 6.137a4.872 4.872 0 004.416.002z"/><path data-name="Path 205" d="M378.001 335.065l10.631-6.137a1.345 1.345 0 000-2.548l-10.631-6.137a4.867 4.867 0 00-4.414 0l-10.632 6.137a1.345 1.345 0 000 2.548l10.628 6.137a4.886 4.886 0 004.418 0z"/><path data-name="Path 206" d="M358.394 346.384l10.631-6.137a1.346 1.346 0 000-2.55l-10.631-6.137a4.881 4.881 0 00-4.414 0l-10.631 6.141a1.346 1.346 0 000 2.55l10.631 6.137a4.881 4.881 0 004.414-.004z"/><path data-name="Path 207" d="M338.79 357.704l10.628-6.137a1.347 1.347 0 000-2.55l-10.628-6.137a4.886 4.886 0 00-4.416 0l-10.629 6.137a1.347 1.347 0 000 2.55l10.629 6.137a4.887 4.887 0 004.416 0z"/><path data-name="Path 208" d="M319.183 369.022l10.631-6.135a1.347 1.347 0 000-2.55l-10.631-6.137a4.882 4.882 0 00-4.414 0l-10.631 6.137a1.347 1.347 0 000 2.55l10.631 6.135a4.867 4.867 0 004.414 0z"/><path data-name="Path 209" d="M299.576 380.342l10.631-6.137a1.345 1.345 0 000-2.548l-10.631-6.137a4.881 4.881 0 00-4.414 0l-10.631 6.137a1.345 1.345 0 000 2.548l10.631 6.137a4.881 4.881 0 004.414 0z"/><path data-name="Path 210" d="M279.97 391.664l10.631-6.137a1.346 1.346 0 000-2.55l-10.631-6.135a4.867 4.867 0 00-4.414 0l-10.629 6.137a1.344 1.344 0 000 2.548l10.629 6.137a4.881 4.881 0 004.414 0z"/><path data-name="Path 211" d="M260.365 402.982l10.628-6.137a1.347 1.347 0 000-2.55l-10.628-6.14a4.867 4.867 0 00-4.414 0l-10.631 6.135a1.347 1.347 0 000 2.55l10.631 6.137a4.881 4.881 0 004.414.005z"/><path data-name="Path 212" d="M240.758 414.302l10.631-6.137a1.347 1.347 0 000-2.55l-10.631-6.138a4.881 4.881 0 00-4.414 0l-10.631 6.137a1.347 1.347 0 000 2.55l10.631 6.137a4.881 4.881 0 004.414.001z"/><path data-name="Path 213" d="M221.152 425.622l10.631-6.139a1.345 1.345 0 000-2.548l-10.631-6.137a4.882 4.882 0 00-4.414 0l-10.631 6.139a1.345 1.345 0 000 2.548l10.631 6.139a4.881 4.881 0 004.414-.002z"/><path data-name="Path 214" d="M167.419 417.052l8.113-4.686 2.194-1.266 19.607-11.32a5.239 5.239 0 014.738 0l10.307 5.95c1.308.757 1.308 1.981 0 2.736l-17.239 9.953 6.409 3.7 4.44 2.562 6.189 3.575a1.345 1.345 0 010 2.548l-10.629 6.137a4.886 4.886 0 01-4.416 0l-5.823-3.362-4.806-2.776-19.084-11.018c-1.308-.755-1.308-1.979 0-2.733z"/><path data-name="Path 215" d="M416.691 334.949l10.952-6.325a1.247 1.247 0 000-2.363l-10.952-6.322a4.519 4.519 0 00-4.1 0l-10.95 6.322a1.246 1.246 0 000 2.363l10.95 6.325a4.534 4.534 0 004.1 0z"/><path data-name="Path 216" d="M397.085 346.267l10.952-6.322a1.247 1.247 0 000-2.363l-10.952-6.322a4.514 4.514 0 00-4.093 0l-10.956 6.322a1.247 1.247 0 000 2.363l10.952 6.322a4.514 4.514 0 004.097 0z"/><path data-name="Path 217" d="M377.478 357.587l10.952-6.322a1.247 1.247 0 000-2.363l-10.952-6.322a4.514 4.514 0 00-4.093 0l-10.952 6.321a1.247 1.247 0 000 2.363l10.952 6.322a4.514 4.514 0 004.093.001z"/><path data-name="Path 218" d="M264.404 405.5l19.6-11.32 10.952-6.322 8.655-5 10.952-6.322 8.655-5 10.952-6.322 8.655-5 4.672-2.7 6.278-3.624a4.529 4.529 0 014.093 0l10.952 6.325a1.246 1.246 0 010 2.363l-6.278 3.624-4.674 2.7-8.655 5-10.95 6.322-8.655 5-10.952 6.322-8.655 5-10.952 6.322-19.6 11.32a4.519 4.519 0 01-4.1 0l-10.95-6.322a1.246 1.246 0 01.005-2.366z"/><path data-name="Path 219" d="M259.84 425.505l10.952-6.322a1.249 1.249 0 000-2.365l-10.952-6.323a4.529 4.529 0 00-4.093 0l-10.952 6.322a1.249 1.249 0 000 2.365l10.952 6.322a4.529 4.529 0 004.093.001z"/><path data-name="Path 220" d="M240.236 436.825l10.952-6.322a1.249 1.249 0 000-2.365l-10.952-6.322a4.529 4.529 0 00-4.093 0l-10.952 6.322a1.249 1.249 0 000 2.365l10.952 6.322a4.529 4.529 0 004.093 0z"/><path data-name="Path 221" d="M220.632 448.145l10.95-6.325a1.247 1.247 0 000-2.363l-10.95-6.322a4.533 4.533 0 00-4.1 0l-10.95 6.322a1.246 1.246 0 000 2.363l10.95 6.325a4.534 4.534 0 004.1 0z"/></g><path data-name="Path 222" d="M343.129 441.133l72.362-41.778c1.779-1.027 1.557-2.82-.5-4.006l-40.114-23.16a7.718 7.718 0 00-6.939-.286l-72.362 41.778c-1.779 1.027-1.557 2.82.5 4.006l40.114 23.158a7.7 7.7 0 006.939.288z"/></g><g data-name="Group 134"><path data-name="Path 223" d="M157.879 406.431l211.106-121.882V136.388L157.879 258.266z" fill="#4c76d1" opacity=".85"/><path data-name="Path 224" d="M177.883 418l211.106-121.878V147.954L177.883 269.836z" fill="#2a2a2a" opacity=".65"/></g></g></g></g><g data-name="Group 165"><g data-name="Group 163"><g data-name="Group 141"><g data-name="Group 140"><g data-name="Group 139"><path data-name="Path 225" d="M421.305 259.547l61.49-40.535c2.6-1.5 4.7-5.521 4.7-8.985l4.378-158.38c0-3.09-5.307-6.3-9.074-4.541L417.35 84.89c-3.308 1.453-4.7 4.7-4.7 8.985v159.367c-.002 3.949 5.354 7.482 8.655 6.305z" fill="#183268"/><path data-name="Path 226" d="M422.036 259.2l65.442-37.783c2.6-1.5 4.7-5.523 4.7-8.985V53.065c0-3.462-2.105-5.054-4.7-3.556l-65.442 37.786c-3.31 1.453-4.7 4.7-4.7 8.983V255.65c-.002 3.459 2.103 5.05 4.7 3.55z" fill="#fefefe"/><path data-name="Path 227" d="M421.106 244.902l67.3-38.857V59.053l-67.3 38.857z" fill="#0444cc"/><path data-name="Path 228" d="M449.719 78.162l10.074-5.819a2.657 2.657 0 001.111-2.124c0-.818-.5-1.193-1.111-.839l-10.078 5.818a2.661 2.661 0 00-1.111 2.124c.004.819.501 1.194 1.115.84z" fill="#ddd"/><path data-name="Path 229" d="M481.982 58.466c0 1.074.755 1.51 1.688.973a3.73 3.73 0 001.685-2.921c0-1.076-.755-1.512-1.685-.973a3.722 3.722 0 00-1.688 2.921z" fill="#ddd"/><path data-name="Path 230" d="M478.618 60.407c0 .513.361.722.806.464a1.778 1.778 0 00.806-1.395c0-.513-.361-.722-.806-.464a1.778 1.778 0 00-.806 1.395z" fill="#ddd"/><g data-name="Group 138"><path data-name="Path 231" d="M229.881 132.57c0 2.926 2.056 4.112 4.588 2.649a10.139 10.139 0 004.59-7.944c0-2.928-2.056-4.112-4.59-2.649a10.143 10.143 0 00-4.588 7.944z" transform="translate(220.288 102.876)" fill="url(#c)"/><path data-name="Path 232" d="M450.915 235.018c0 2.452 1.721 3.444 3.842 2.22a8.5 8.5 0 003.844-6.657c0-2.452-1.721-3.446-3.844-2.22a8.5 8.5 0 00-3.842 6.657z" fill="#fff"/></g></g></g></g><g data-name="Group 162"><g data-name="Group 145"><g data-name="Group 142"><path data-name="Path 233" d="M488.407 59.053l-67.3 38.857v16.515l67.3-38.857z" fill="#0444cc"/></g><g data-name="Group 144" fill="#fdf7fb"><g data-name="Group 143"><path data-name="Path 234" d="M485.354 66.829l-8.307 4.8v-1.323l8.307-4.8z"/><path data-name="Path 235" d="M485.354 69.567l-8.307 4.8v-1.323l8.307-4.8z"/><path data-name="Path 236" d="M485.354 72.305l-8.307 4.8v-1.323l8.307-4.8z"/></g><path data-name="Path 237" d="M428.058 102.481c-.609-.921-.34-2.712.687-4.222 1.135-1.667 2.771-2.368 3.648-1.564s.666 2.813-.469 4.48c-1.027 1.51-2.464 2.227-3.378 1.753l-.858 1.264a1.385 1.385 0 01-.258.759l-2.426 3.568c-.023.033-.047.063-.068.091l-.8-.736.061-.1 2.429-3.568a1.088 1.088 0 01.579-.464zm.9-.738c.588.539 1.685.068 2.445-1.048s.9-2.464.314-3-1.686-.068-2.445 1.05-.902 2.46-.314 2.994z"/></g></g><g data-name="Group 161"><g data-name="Group 147" opacity=".2"><g data-name="Group 146"><path data-name="Path 238" d="M425.769 232.953l53.743-31.027a4.392 4.392 0 001.835-3.507v-29.46c0-1.35-.82-1.971-1.835-1.385l-53.743 31.027a4.395 4.395 0 00-1.836 3.507v29.459c0 1.35.823 1.972 1.836 1.386z"/></g><path data-name="Path 239" d="M425.781 151.115l53.721-31.016a4.4 4.4 0 001.835-3.507V90.546c0-1.353-.823-1.974-1.835-1.388l-53.721 31.016a4.392 4.392 0 00-1.835 3.507v26.046c-.001 1.355.819 1.974 1.835 1.388z"/><path data-name="Path 240" d="M479.364 142.673l-53.447 30.859c-1.088.628-1.971.117-1.971-1.139V156.95a4.359 4.359 0 011.971-3.415l53.447-30.862c1.09-.628 1.974-.12 1.974 1.139v15.441a4.359 4.359 0 01-1.974 3.42z"/><path data-name="Path 241" d="M479.364 165.16l-53.447 30.859c-1.088.628-1.971.12-1.971-1.139v-15.44a4.363 4.363 0 011.971-3.415l53.447-30.855c1.09-.628 1.974-.117 1.974 1.139v15.439a4.355 4.355 0 01-1.974 3.412z"/></g><g data-name="Group 160"><g data-name="Group 148"><path data-name="Path 242" d="M429.251 228.496l53.743-31.03a4.395 4.395 0 001.836-3.507v-29.457c0-1.353-.823-1.974-1.836-1.388l-53.743 31.028a4.4 4.4 0 00-1.835 3.507v29.459c0 1.35.825 1.972 1.835 1.388z" fill="#fefeff"/><path data-name="Path 243" d="M221.759 143.786c.762-6.866 4.224-21.644 9.224-24.616 5.687-3.383 7.933 8.221 10.4 6.683s2.243-9.609 6.775-12.225 4.29 9.421 8.1 7.042c3.68-2.3 3.35-10.178 7.977-12.642 3.376-1.8 6.343 4 7.508 6.9z" transform="translate(209.37 80.954)" fill="url(#d)"/></g><g data-name="Group 153"><path data-name="Path 244" d="M429.261 146.656l53.721-31.016a4.392 4.392 0 001.835-3.507V86.087c0-1.353-.82-1.974-1.835-1.388l-53.721 31.016a4.4 4.4 0 00-1.833 3.51v26.046c0 1.354.82 1.971 1.833 1.385z" fill="#fefeff"/><g data-name="Group 152"><g data-name="Group 149"><path data-name="Path 245" d="M479.319 99.43l-44.716 25.819a1.347 1.347 0 01-2.021-1.167v-3.617a2 2 0 011-1.73l44.886-25.917a1.237 1.237 0 011.854 1.071v3.812a2 2 0 01-1.003 1.729z" fill="#eaeaea"/></g><g data-name="Group 150"><path data-name="Path 246" d="M480.32 103.934v1.254a1.6 1.6 0 01-.8 1.383l-45.571 26.311a.913.913 0 01-1.369-.792v-1.358a1.6 1.6 0 01.8-1.385l45.477-26.257a.975.975 0 011.463.844z" fill="#eaeaea"/></g><g data-name="Group 151"><path data-name="Path 247" d="M480.32 110.563v1.158a1.622 1.622 0 01-.809 1.4l-45.66 26.36a.847.847 0 01-1.271-.734v-1.463a1.616 1.616 0 01.806-1.4l45.4-26.21a1.024 1.024 0 011.534.889z" fill="#eaeaea"/></g></g></g><g data-name="Group 156"><path data-name="Path 248" d="M482.848 138.211l-53.447 30.859c-1.09.628-1.971.12-1.971-1.139v-15.439a4.353 4.353 0 011.971-3.415l53.447-30.86c1.09-.628 1.971-.12 1.971 1.139v15.439a4.353 4.353 0 01-1.971 3.416z" fill="#fefeff"/><g data-name="Group 154"><path data-name="Path 249" d="M464.944 145.79l16.525-9.541V121.77l-16.525 9.538z" fill="#eaeaea"/><path data-name="Path 250" d="M481.469 132.766l-4.049-1.688-3.552 5.317-5.185-2.407-3.739 5.76v6.044l16.525-9.546z" fill="#0444cc"/><path data-name="Path 251" d="M472.842 131.298c0 .931.652 1.308 1.458.842a3.22 3.22 0 001.458-2.527c0-.931-.652-1.306-1.458-.842a3.22 3.22 0 00-1.458 2.527z" fill="#0444cc"/></g><g data-name="Group 155" fill="#eaeaea"><path data-name="Path 252" d="M431.704 162.703l30.148-17.406a.955.955 0 00.478-.83v-1.4a.72.72 0 00-1.078-.624l-30 17.319a.956.956 0 00-.478.827v1.58a.619.619 0 00.93.534z"/><path data-name="Path 253" d="M447.363 148.218l14.494-8.366a.952.952 0 00.474-.823v-4.049a.6.6 0 00-.9-.52l-14.4 8.315a.945.945 0 00-.476.82v4.156a.539.539 0 00.808.467z"/></g></g><g data-name="Group 159"><path data-name="Path 254" d="M482.848 160.702l-53.447 30.856c-1.09.631-1.971.12-1.971-1.137v-15.44a4.36 4.36 0 011.971-3.415l53.447-30.853c1.09-.631 1.971-.12 1.971 1.137v15.439a4.36 4.36 0 01-1.971 3.413z" fill="#fefeff"/><g data-name="Group 157" fill="#eaeaea"><path data-name="Path 255" d="M431.704 185.207l30.148-17.406a.954.954 0 00.478-.827v-1.41a.72.72 0 00-1.078-.624l-30 17.319a.959.959 0 00-.478.827v1.582a.617.617 0 00.93.539z"/><path data-name="Path 256" d="M447.363 170.724l14.494-8.369a.949.949 0 00.474-.823v-4.048a.6.6 0 00-.9-.52l-14.4 8.315a.946.946 0 00-.476.823v4.154a.54.54 0 00.808.468z"/></g><g data-name="Group 158"><path data-name="Path 257" d="M464.944 168.282l16.525-9.541v-14.48l-16.525 9.544z" fill="#eaeaea"/><path data-name="Path 258" d="M481.469 155.257l-4.049-1.688-3.552 5.316-5.185-2.407-3.739 5.76v6.044l16.525-9.54z" fill="#0444cc"/><path data-name="Path 259" d="M472.842 153.788c0 .931.652 1.308 1.458.844a3.224 3.224 0 001.458-2.527c0-.931-.652-1.308-1.458-.844a3.224 3.224 0 00-1.458 2.527z" fill="#0444cc"/></g></g></g></g></g></g><g data-name="Group 164" style="mix-blend-mode:multiply;isolation:isolate"><path data-name="Path 261" d="M429.477 296.907l81.125-46.839c1.983-1.573 1.995-4.386.091-5.546L497.662 237a5.469 5.469 0 00-4.916-.2l-80.353 46.384a3.656 3.656 0 00-.6 6.144l12.766 7.37a5.469 5.469 0 004.918.209z" fill="#fefefe" opacity=".02"/><path data-name="Path 262" d="M429.531 296.752l80.855-46.679c1.967-1.559 1.974-4.339.082-5.49l-12.861-7.43a5.458 5.458 0 00-4.911-.2l-80.1 46.246a3.605 3.605 0 00-.577 6.074l12.6 7.276a5.459 5.459 0 004.912.203z" fill="#fcfcfc" opacity=".039"/><path data-name="Path 263" d="M429.584 296.594l80.583-46.525c1.95-1.54 1.955-4.29.073-5.434l-12.691-7.326a5.449 5.449 0 00-4.906-.2l-79.845 46.1a3.561 3.561 0 00-.558 6.006l12.438 7.18a5.449 5.449 0 004.906.199z" fill="#fbfbfb" opacity=".059"/><path data-name="Path 264" d="M429.636 296.44l80.314-46.37c1.934-1.521 1.936-4.238.063-5.375l-12.52-7.229a5.446 5.446 0 00-4.9-.2l-79.591 45.946a3.516 3.516 0 00-.539 5.94l12.272 7.084a5.454 5.454 0 004.901.204z" fill="#f9f9f9" opacity=".078"/><path data-name="Path 265" d="M429.69 296.283l80.04-46.211c1.92-1.5 1.92-4.191.056-5.321l-12.349-7.129a5.448 5.448 0 00-4.9-.2l-79.332 45.8a3.465 3.465 0 00-.52 5.87l12.105 6.988a5.441 5.441 0 004.9.203z" fill="#f8f8f8" opacity=".098"/><path data-name="Path 266" d="M429.741 296.131l79.77-46.056c1.906-1.486 1.9-4.14.047-5.263l-12.178-7.033a5.431 5.431 0 00-4.895-.2l-79.075 45.652a3.419 3.419 0 00-.5 5.8l11.941 6.894a5.439 5.439 0 004.89.206z" fill="#f7f7f7" opacity=".118"/><path data-name="Path 267" d="M429.796 295.971l79.5-45.9c1.889-1.467 1.88-4.091.038-5.206l-12.007-6.934a5.441 5.441 0 00-4.892-.2l-78.821 45.507a3.372 3.372 0 00-.483 5.731l11.775 6.8a5.441 5.441 0 004.89.202z" fill="#f5f5f5" opacity=".137"/><path data-name="Path 268" d="M429.847 295.817l79.228-45.742c1.873-1.453 1.861-4.041.028-5.152l-11.836-6.833a5.439 5.439 0 00-4.888-.2l-78.565 45.36a3.326 3.326 0 00-.464 5.666l11.608 6.7a5.439 5.439 0 004.889.201z" fill="#f4f4f4" opacity=".157"/><path data-name="Path 269" d="M429.901 295.659l78.954-45.585c1.859-1.435 1.845-3.992.021-5.094l-11.667-6.737a5.428 5.428 0 00-4.883-.2l-78.307 45.211a3.279 3.279 0 00-.448 5.6l11.447 6.608a5.428 5.428 0 004.883.197z" fill="#f2f2f2" opacity=".176"/><path data-name="Path 270" d="M429.949 295.504l78.685-45.43a3 3 0 00.012-5.038l-11.5-6.636a5.419 5.419 0 00-4.878-.2l-78.054 45.064a3.233 3.233 0 00-.427 5.528l11.28 6.512a5.419 5.419 0 004.882.2z" fill="#f1f1f1" opacity=".196"/><path data-name="Path 271" d="M430.007 295.347l78.412-45.268a2.958 2.958 0 000-4.981l-11.327-6.54a5.421 5.421 0 00-4.876-.2l-77.8 44.917a3.184 3.184 0 00-.408 5.457l11.114 6.418a5.421 5.421 0 004.885.197z" fill="#efefef" opacity=".216"/><path data-name="Path 272" d="M430.058 295.193l78.141-45.116a2.917 2.917 0 000-4.925l-11.156-6.439a5.412 5.412 0 00-4.871-.2l-77.541 44.769a3.141 3.141 0 00-.391 5.392l10.95 6.322a5.419 5.419 0 004.868.197z" fill="#eee" opacity=".235"/><path data-name="Path 273" d="M430.112 295.036l77.869-44.959a2.876 2.876 0 00-.012-4.869l-10.985-6.341a5.413 5.413 0 00-4.869-.2l-77.285 44.62a3.093 3.093 0 00-.37 5.321l10.783 6.226a5.414 5.414 0 004.869.202z" fill="#ededed" opacity=".255"/><path data-name="Path 274" d="M430.163 294.881l77.6-44.8a2.836 2.836 0 00-.021-4.813l-10.816-6.245a5.406 5.406 0 00-4.862-.2l-77.03 44.474a3.046 3.046 0 00-.352 5.253l10.619 6.132a5.406 5.406 0 004.862.199z" fill="#ebebeb" opacity=".275"/><path data-name="Path 275" d="M430.217 294.724l77.327-44.645a2.8 2.8 0 00-.03-4.756l-10.645-6.144a5.4 5.4 0 00-4.859-.2l-76.772 44.324a3 3 0 00-.335 5.188l10.455 6.034a5.394 5.394 0 004.859.199z" fill="#eaeaea" opacity=".294"/><path data-name="Path 276" d="M430.269 294.569l77.055-44.49a2.755 2.755 0 00-.038-4.7l-10.474-6.048a5.4 5.4 0 00-4.855-.2l-76.519 44.178a2.956 2.956 0 00-.314 5.117l10.289 5.94a5.4 5.4 0 004.856.203z" fill="#e8e8e8" opacity=".314"/><path data-name="Path 277" d="M430.323 294.417l76.784-44.331a2.717 2.717 0 00-.047-4.644l-10.3-5.947a5.394 5.394 0 00-4.852-.2l-76.264 44.022a2.91 2.91 0 00-.3 5.049l10.122 5.844a5.387 5.387 0 004.857.207z" fill="#e7e7e7" opacity=".333"/><path data-name="Path 278" d="M430.374 294.257l76.517-44.176a2.676 2.676 0 00-.056-4.585l-10.132-5.851a5.391 5.391 0 00-4.848-.2l-76.008 43.881a2.863 2.863 0 00-.279 4.979l9.958 5.75a5.391 5.391 0 004.848.202z" fill="#e6e6e6" opacity=".353"/><path data-name="Path 279" d="M430.428 294.096l76.242-44.019a2.637 2.637 0 00-.066-4.529l-9.96-5.753a5.386 5.386 0 00-4.845-.2l-75.75 43.733a2.821 2.821 0 00-.258 4.913l9.792 5.654a5.386 5.386 0 004.845.201z" fill="#e4e4e4" opacity=".373"/><path data-name="Path 280" d="M430.48 293.946l75.972-43.86a2.6 2.6 0 00-.073-4.475l-9.792-5.652a5.379 5.379 0 00-4.838-.2l-75.497 43.584a2.772 2.772 0 00-.239 4.843l9.628 5.558a5.379 5.379 0 004.839.202z" fill="#e3e3e3" opacity=".392"/><path data-name="Path 281" d="M430.534 293.789l75.7-43.7a2.558 2.558 0 00-.082-4.416l-9.62-5.556a5.373 5.373 0 00-4.836-.2l-75.236 43.438a2.728 2.728 0 00-.223 4.775l9.463 5.464a5.373 5.373 0 004.834.195z" fill="#e1e1e1" opacity=".412"/><path data-name="Path 282" d="M430.585 293.635l75.429-43.55a2.52 2.52 0 00-.089-4.36l-9.452-5.455a5.364 5.364 0 00-4.831-.2l-74.984 43.295a2.683 2.683 0 00-.2 4.707l9.3 5.366a5.364 5.364 0 004.827.197z" fill="#e0e0e0" opacity=".431"/><path data-name="Path 283" d="M430.643 293.477l75.157-43.391a2.482 2.482 0 00-.1-4.3l-9.281-5.359a5.366 5.366 0 00-4.829-.2l-74.727 43.139a2.64 2.64 0 00-.185 4.639l9.133 5.272a5.366 5.366 0 004.832.2z" fill="#dfdfdf" opacity=".451"/><path data-name="Path 284" d="M430.691 293.322l74.882-43.236a2.442 2.442 0 00-.105-4.248l-9.109-5.258a5.364 5.364 0 00-4.824-.2l-74.47 43a2.592 2.592 0 00-.166 4.569l8.966 5.178a5.371 5.371 0 004.826.195z" fill="#ddd" opacity=".471"/><path data-name="Path 285" d="M430.745 293.166l74.613-43.079a2.4 2.4 0 00-.115-4.189l-8.94-5.164a5.358 5.358 0 00-4.822-.2l-74.212 42.847a2.548 2.548 0 00-.148 4.5l8.8 5.082a5.351 5.351 0 004.824.203z" fill="#dcdcdc" opacity=".49"/><path data-name="Path 286" d="M430.796 293.011l74.343-42.922a2.365 2.365 0 00-.124-4.135l-8.77-5.063a5.351 5.351 0 00-4.815-.2l-73.959 42.7a2.506 2.506 0 00-.129 4.435l8.638 4.986a5.351 5.351 0 004.816.199z" fill="#dadada" opacity=".51"/><path data-name="Path 287" d="M430.85 292.853l74.071-42.765a2.327 2.327 0 00-.134-4.079l-8.6-4.963a5.346 5.346 0 00-4.813-.2l-73.7 42.551a2.459 2.459 0 00-.11 4.365l8.472 4.89a5.346 5.346 0 004.814.201z" fill="#d9d9d9" opacity=".529"/><path data-name="Path 288" d="M430.902 292.703l73.8-42.61a2.286 2.286 0 00-.141-4.02l-8.427-4.867a5.351 5.351 0 00-4.808-.2l-73.445 42.4a2.416 2.416 0 00-.091 4.3l8.305 4.8a5.351 5.351 0 004.807.197z" fill="#d7d7d7" opacity=".549"/><path data-name="Path 289" d="M430.954 292.542l73.53-42.451a2.25 2.25 0 00-.15-3.966l-8.256-4.766a5.326 5.326 0 00-4.8-.2l-73.192 42.256a2.371 2.371 0 00-.073 4.227l8.141 4.7a5.333 5.333 0 004.8.2z" fill="#d6d6d6" opacity=".569"/><path data-name="Path 290" d="M431.008 292.388l73.258-42.3a2.211 2.211 0 00-.159-3.908l-8.085-4.67a5.336 5.336 0 00-4.8-.2l-72.934 42.108a2.328 2.328 0 00-.054 4.161l7.975 4.6a5.336 5.336 0 004.799.209z" fill="#d5d5d5" opacity=".588"/><path data-name="Path 291" d="M431.059 292.23l72.988-42.139a2.173 2.173 0 00-.169-3.851l-7.914-4.569a5.333 5.333 0 00-4.8-.2l-72.679 41.961a2.283 2.283 0 00-.035 4.091l7.808 4.51a5.333 5.333 0 004.801.197z" fill="#d3d3d3" opacity=".608"/><path data-name="Path 292" d="M431.114 292.075l72.714-41.982a2.137 2.137 0 00-.176-3.8l-7.745-4.47a5.331 5.331 0 00-4.791-.2l-72.423 41.813a2.241 2.241 0 00-.016 4.023l7.647 4.414a5.317 5.317 0 004.79.202z" fill="#d2d2d2" opacity=".627"/><path data-name="Path 293" d="M431.164 291.92l72.444-41.827a2.1 2.1 0 00-.183-3.739l-7.576-4.374a5.313 5.313 0 00-4.787-.2l-72.167 41.67a2.2 2.2 0 000 3.955l7.48 4.318a5.321 5.321 0 004.789.197z" fill="#d0d0d0" opacity=".647"/><path data-name="Path 294" d="M431.218 291.763l72.172-41.67a2.061 2.061 0 00-.192-3.683l-7.405-4.273a5.317 5.317 0 00-4.785-.2l-71.91 41.518a2.154 2.154 0 00.021 3.887l7.314 4.222a5.317 5.317 0 004.785.199z" fill="#cfcfcf" opacity=".667"/><path data-name="Path 295" d="M431.27 291.609l71.9-41.513a2.024 2.024 0 00-.2-3.626l-7.234-4.177a5.314 5.314 0 00-4.78-.2l-71.652 41.372a2.11 2.11 0 00.04 3.816l7.15 4.128a5.322 5.322 0 004.776.2z" fill="#cecece" opacity=".686"/><path data-name="Path 296" d="M431.324 291.452l71.629-41.356c1.442-.961 1.339-2.658-.209-3.57l-7.063-4.079a5.308 5.308 0 00-4.777-.2l-71.4 41.222c-1.667.959-1.463 2.82.059 3.748l6.983 4.034a5.309 5.309 0 004.778.201z" fill="#ccc" opacity=".706"/><path data-name="Path 297" d="M431.376 291.297l71.359-41.2c1.425-.945 1.32-2.609-.218-3.514l-6.892-3.98a5.3 5.3 0 00-4.773-.2l-71.143 41.075c-1.636.942-1.437 2.759.077 3.68l6.817 3.936a5.306 5.306 0 004.773.203z" fill="#cbcbcb" opacity=".725"/><path data-name="Path 298" d="M431.43 291.139l71.087-41.041c1.409-.926 1.3-2.56-.227-3.458l-6.723-3.882a5.3 5.3 0 00-4.768-.2l-70.889 40.93c-1.6.926-1.409 2.7.1 3.612l6.655 3.842a5.3 5.3 0 004.765.197z" fill="#c9c9c9" opacity=".745"/><path data-name="Path 299" d="M431.48 290.988l70.818-40.887c1.395-.907 1.282-2.511-.237-3.4l-6.552-3.781a5.294 5.294 0 00-4.763-.2l-70.632 40.776c-1.575.91-1.383 2.64.115 3.544l6.489 3.746a5.294 5.294 0 004.762.202z" fill="#c8c8c8" opacity=".765"/><path data-name="Path 300" d="M431.535 290.828l70.543-40.728c1.381-.893 1.264-2.461-.244-3.345l-6.381-3.685a5.289 5.289 0 00-4.761-.2l-70.374 40.632c-1.545.891-1.355 2.579.134 3.476l6.322 3.65a5.289 5.289 0 004.761.2z" fill="#c7c7c7" opacity=".784"/><path data-name="Path 301" d="M431.585 290.673l70.274-40.573c1.364-.874 1.245-2.412-.253-3.289l-6.21-3.584a5.287 5.287 0 00-4.756-.2l-70.121 40.484c-1.512.874-1.327 2.52.152 3.408l6.158 3.556a5.294 5.294 0 004.756.198z" fill="#c5c5c5" opacity=".804"/><path data-name="Path 302" d="M431.641 290.516l70-40.416c1.348-.856 1.226-2.361-.263-3.23l-6.039-3.488a5.289 5.289 0 00-4.754-.2l-69.863 40.336c-1.484.856-1.3 2.459.171 3.338l5.992 3.46a5.281 5.281 0 004.756.2z" fill="#c4c4c4" opacity=".824"/><path data-name="Path 303" d="M431.692 290.361l69.732-40.259c1.331-.839 1.207-2.314-.272-3.176l-5.87-3.39a5.281 5.281 0 00-4.747-.2l-69.608 40.189c-1.453.839-1.275 2.4.19 3.27l5.828 3.369a5.281 5.281 0 004.747.197z" fill="#c2c2c2" opacity=".843"/><path data-name="Path 304" d="M431.746 290.205l69.458-40.1c1.317-.82 1.188-2.264-.277-3.118l-5.7-3.291a5.269 5.269 0 00-4.745-.2l-69.351 40.04c-1.423.82-1.247 2.337.206 3.2l5.664 3.268a5.269 5.269 0 004.745.201z" fill="#c1c1c1" opacity=".863"/><path data-name="Path 305" d="M431.798 290.05l69.188-39.947c1.3-.8 1.17-2.213-.286-3.061l-5.53-3.193a5.274 5.274 0 00-4.74-.2l-69.1 39.893c-1.392.8-1.219 2.279.227 3.134l5.5 3.174a5.274 5.274 0 004.741.2z" fill="#bfbfbf" opacity=".882"/><path data-name="Path 306" d="M431.851 289.893l68.916-39.788c1.287-.788 1.151-2.166-.3-3.008l-5.359-3.092a5.262 5.262 0 00-4.738-.2l-68.835 39.749c-1.362.785-1.193 2.218.246 3.064l5.331 3.078a5.262 5.262 0 004.739.197z" fill="#bebebe" opacity=".902"/><path data-name="Path 307" d="M431.903 289.738l68.647-39.633c1.271-.769 1.132-2.114-.3-2.949l-5.188-3a5.267 5.267 0 00-4.733-.2l-68.584 39.6c-1.332.769-1.167 2.159.263 3l5.167 2.984a5.259 5.259 0 004.728.198z" fill="#bdbdbd" opacity=".922"/><path data-name="Path 308" d="M431.957 289.581l68.373-39.476c1.256-.75 1.116-2.065-.312-2.893l-5.017-2.9a5.261 5.261 0 00-4.731-.195l-68.328 39.45c-1.3.75-1.139 2.1.284 2.928l5 2.888a5.261 5.261 0 004.731.198z" fill="#bbb" opacity=".941"/><path data-name="Path 309" d="M432.008 289.427l68.1-39.319c1.24-.734 1.095-2.018-.321-2.836l-4.848-2.8a5.246 5.246 0 00-4.723-.2l-68.073 39.3c-1.271.734-1.111 2.037.3 2.86l4.838 2.792a5.247 5.247 0 004.727.203z" fill="#bababa" opacity=".961"/><path data-name="Path 310" d="M432.063 289.274l67.831-39.162c1.224-.715 1.076-1.967-.331-2.78l-4.677-2.7a5.248 5.248 0 00-4.721-.195l-67.81 39.148c-1.24.717-1.085 1.978.319 2.792l4.672 2.7a5.248 5.248 0 004.717.197z" fill="#b8b8b8" opacity=".98"/><path data-name="Path 311" d="M432.113 289.115l67.561-39.007c1.21-.7 1.057-1.917-.34-2.724l-4.506-2.6a5.239 5.239 0 00-4.716-.2l-67.561 39.007c-1.207.7-1.057 1.918.34 2.724l4.506 2.6a5.239 5.239 0 004.716.2z" fill="#b7b7b7"/></g></g><g data-name="Group 171" opacity=".75"><path data-name="Path 312" d="M283.292 240.402l88-50.808a4.314 4.314 0 001.8-3.444v-4.2c0-1.327-.806-1.936-1.8-1.362l-88 50.808a4.314 4.314 0 00-1.8 3.444v4.2c-.003 1.327.803 1.936 1.8 1.362z" fill="#fff"/><path data-name="Path 313" d="M282.448 252.542l89.688-51.783a2.292 2.292 0 00.959-1.831v-3.1c0-.7-.429-1.029-.959-.722l-89.688 51.781a2.3 2.3 0 00-.959 1.831v3.1c0 .706.429 1.029.959.724z" fill="#fff"/><path data-name="Path 314" d="M282.448 262.988l89.688-51.783a2.292 2.292 0 00.959-1.831v-3.1c0-.7-.429-1.029-.959-.722l-89.688 51.78a2.3 2.3 0 00-.959 1.831v3.1c0 .707.429 1.03.959.725z" fill="#fff"/><path data-name="Path 315" d="M300.603 273.397l71.63-41.361a2.049 2.049 0 00.858-1.636v-3.364c0-.631-.384-.921-.858-.647l-71.63 41.354a2.049 2.049 0 00-.858 1.636v3.371c0 .63.388.921.858.647z" fill="#fff"/><path data-name="Path 316" d="M282.448 273.434l89.688-51.783a2.292 2.292 0 00.959-1.831v-3.1c0-.7-.429-1.029-.959-.722l-89.688 51.775a2.3 2.3 0 00-.959 1.831v3.1c0 .712.429 1.035.959.73z" fill="#fff"/><g data-name="Group 168" fill="#fff"><g data-name="Group 166"><path data-name="Path 317" d="M316.818 290.076l-33.217 19.178c-.783.45-1.418.084-1.418-.82v-2.091a3.128 3.128 0 011.418-2.454l33.217-19.18c.783-.45 1.418-.084 1.418.82v2.091a3.136 3.136 0 01-1.418 2.456z"/><path data-name="Path 318" d="M316.818 302.914l-33.217 19.176c-.783.452-1.418.087-1.418-.818v-2.092a3.135 3.135 0 011.418-2.454l33.217-19.178c.783-.452 1.418-.087 1.418.818v2.093a3.135 3.135 0 01-1.418 2.455z"/><path data-name="Path 319" d="M316.818 315.634l-33.217 19.178c-.783.452-1.418.087-1.418-.818v-2.091a3.136 3.136 0 011.418-2.457l33.217-19.178c.783-.452 1.418-.084 1.418.818v2.098a3.128 3.128 0 01-1.418 2.45z"/><path data-name="Path 320" d="M328.748 284.212l-3.781 2.182c-.729.42-1.32-.026-1.32-1V281.5a3.161 3.161 0 011.32-2.52l3.781-2.182c.727-.42 1.32.026 1.32 1v3.894a3.167 3.167 0 01-1.32 2.52z"/><path data-name="Path 321" d="M328.748 297.049l-3.781 2.182c-.729.422-1.32-.026-1.32-1v-3.894a3.157 3.157 0 011.32-2.52l3.781-2.182c.727-.422 1.32.026 1.32 1v3.894a3.164 3.164 0 01-1.32 2.52z"/><path data-name="Path 322" d="M328.748 309.769l-3.781 2.182c-.729.42-1.32-.026-1.32-1v-3.894a3.157 3.157 0 011.32-2.52l3.781-2.182c.727-.42 1.32.026 1.32 1v3.894a3.168 3.168 0 01-1.32 2.52z"/></g><g data-name="Group 167"><path data-name="Path 323" d="M356.557 255.982v20.054l-12.281-7.089c3.16-5.434 7.494-10.169 12.281-12.966"/><path data-name="Path 324" d="M344.684 272.279l11.5 6.636-7.759 20.983c-5.04-.3-8.455-4.527-8.455-11.644a33.33 33.33 0 014.716-15.976"/><path data-name="Path 325" d="M358.277 259.144c8.84-5.04 15.994-.879 15.994 9.346a26.853 26.853 0 01-.959 6.805l-.016.059-.061.237h-.012c-2.393 8.191-8.244 16.618-15 20.516a14.21 14.21 0 01-7.59 2.182l7.637-20.648z"/></g></g><g data-name="Group 169"><path data-name="Path 326" d="M195.35 344.551v44.059c0 2.178 1.331 3.188 2.982 2.248l71.42-41.239a7.088 7.088 0 002.982-5.687v-44.058c0-2.178-1.331-3.188-2.982-2.248l-71.42 41.238a7.122 7.122 0 00-2.982 5.687z" fill="#fff"/><path data-name="Path 327" d="M195.35 370.949v17.661c0 2.178 1.331 3.188 2.982 2.248l71.42-41.239a7.088 7.088 0 002.982-5.687v-5.436l-18.51-7.705-17.016 25.458-24.816-11.536z" fill="#0444cc"/><path data-name="Path 328" d="M229.903 339.984c0 3.9 2.736 5.478 6.111 3.53a13.51 13.51 0 006.111-10.586c0-3.9-2.736-5.478-6.111-3.528a13.506 13.506 0 00-6.111 10.584z" fill="#0444cc"/></g><g data-name="Group 170"><path data-name="Path 329" d="M195.35 286.14v44.056c0 2.18 1.329 3.188 2.982 2.248l71.418-41.236a7.081 7.081 0 002.982-5.687v-44.059c0-2.18-1.329-3.188-2.982-2.248l-71.418 41.236a7.117 7.117 0 00-2.982 5.69z" fill="#fff"/><path data-name="Path 330" d="M195.35 312.537v17.659c0 2.18 1.329 3.188 2.982 2.248l71.418-41.236a7.081 7.081 0 002.982-5.687v-5.436l-18.507-7.708-17.019 25.458-24.815-11.536z" fill="#0444cc"/><path data-name="Path 331" d="M229.901 281.569c0 3.9 2.736 5.478 6.111 3.528a13.509 13.509 0 006.114-10.586c0-3.9-2.738-5.476-6.114-3.528a13.506 13.506 0 00-6.111 10.586z" fill="#0444cc"/></g></g><g data-name="Group 174"><path data-name="Path 332" d="M178.065 53.783c5.5-3.746 14.93.549 14.1 4.925l-3.744 67.644c0 6.311-3.833 13.636-8.561 16.367l-78.279 45.193-9.032 29.267-4.649-21.364-9.264 10.267c-3.744 2.419-12.987.884-12.987-8.842v-56.649c0-5.978 3.451-12.935 6.922-15.291z" transform="translate(-.47 6.57)" fill="url(#e)"/><g data-name="Group 172"><path data-name="Path 333" d="M183.177 61.931c4.97-3.366 9.206-.567 9.206 6.081v67.273c0 6.311-3.833 13.636-8.561 16.365l-78.279 45.2-13.458 26.9-.23-19-13.69 7.9c-4.728 2.729-8.561-.171-8.561-6.482v-56.645c0-5.978 3.453-12.935 7.916-15.964z" fill="#0444cc"/></g><g data-name="Group 173" fill="#fff"><path data-name="Path 334" d="M97.579 160.182l23.449-27.565v4.445a3.03 3.03 0 01-.241 1.17 5.044 5.044 0 01-.846 1.278l-13.6 15.826a17.274 17.274 0 01-1.287 1.392c-.455.436-.938.872-1.439 1.3a9.346 9.346 0 011.439-.375 8.449 8.449 0 011.287-.115l13.6.089a1.023 1.023 0 01.846.314 1.427 1.427 0 01.241.877v4.477l-23.449-.525z"/><path data-name="Path 335" d="M128.566 167.859a7.437 7.437 0 01-1.257 2.546 6.071 6.071 0 01-1.711 1.582l-2.271 1.313 18.207-62.875a7.7 7.7 0 011.118-2.358 5.506 5.506 0 011.728-1.592l2.272-1.313z"/><path data-name="Path 336" d="M148.954 147.172v-4.477a3.134 3.134 0 01.241-1.156 4.936 4.936 0 01.849-1.294l13.6-15.8c.406-.464.823-.917 1.256-1.355a18.7 18.7 0 011.411-1.271 11.671 11.671 0 01-1.411.345 5.488 5.488 0 01-1.256.077l-13.6-.12a1.043 1.043 0 01-.849-.3 1.421 1.421 0 01-.241-.891v-4.436l23.421.506v2.588z"/></g></g><g data-name="Group 178"><g data-name="Group 176"><path data-name="Path 337" d="M391.67 3.8c-16.606 9.584-29.436 32.912-30.064 52.073-.291 8.8 2.783 17.1 7.382 20.54l.724 17.371 9.677-16.517a28.149 28.149 0 0012.281-4.041c16.6-9.585 30.064-32.9 30.064-52.071 0-6.9.122-11.58-2.886-15.251-5.347-6.52-16.554-8.239-27.178-2.104z" fill="#183268"/><g data-name="Group 175"><path data-name="Path 338" d="M395.031 5.226c-16.606 9.585-30.064 32.9-30.064 52.071 0 8.72 2.8 15.047 7.4 18.491l-2.654 18 13.036-15.092a28.149 28.149 0 0012.281-4.041c16.6-9.585 30.064-32.9 30.064-52.071S411.631-4.361 395.031 5.226z" fill="#0444cc"/></g></g><g data-name="Group 177" fill="#fff"><path data-name="Path 339" d="M399.15 23.922a.666.666 0 01-.45.082c-.164-.026-.246-.169-.246-.431v-1.66l.785-.455a6.847 6.847 0 012.288-.91 2.408 2.408 0 011.617.223 2.267 2.267 0 01.961 1.221 6.019 6.019 0 01.319 2.1 13.969 13.969 0 01-.113 1.749c-.07.6-.15 1.193-.234 1.789s-.164 1.191-.237 1.779a13.524 13.524 0 00-.11 1.707 1.884 1.884 0 00.464 1.477q.468.4 1.43-.159v2.173a3.507 3.507 0 00-1.43 1.493 4.435 4.435 0 00-.464 2.014 10.733 10.733 0 00.11 1.578q.109.76.237 1.5c.084.5.164 1 .234 1.514a11.183 11.183 0 01.113 1.622 9.691 9.691 0 01-.319 2.468 9.437 9.437 0 01-.961 2.335 10.088 10.088 0 01-1.617 2.086 10.88 10.88 0 01-2.288 1.732l-.785.452V51.75a1.186 1.186 0 01.246-.724 1.6 1.6 0 01.45-.448l.206-.12a4.3 4.3 0 001.692-1.772 5.414 5.414 0 00.591-2.522 14.71 14.71 0 00-.1-1.758c-.061-.546-.131-1.074-.206-1.592s-.143-1.027-.206-1.531a12.675 12.675 0 01-.1-1.578 6.046 6.046 0 01.624-2.6 7.105 7.105 0 011.662-2.26 1.975 1.975 0 01-.945.056 1.433 1.433 0 01-.717-.38 1.966 1.966 0 01-.459-.771 3.465 3.465 0 01-.158-1.108 15.611 15.611 0 01.1-1.69c.063-.579.134-1.17.206-1.77s.145-1.21.206-1.821a17.674 17.674 0 00.1-1.88 2.281 2.281 0 00-.591-1.847c-.4-.309-.961-.251-1.692.171z"/><path data-name="Path 340" d="M384.431 44.554a3.509 3.509 0 001.428-1.491 4.463 4.463 0 00.469-2.016 10.7 10.7 0 00-.113-1.578c-.075-.5-.155-1.008-.237-1.507s-.162-1-.237-1.512a11.5 11.5 0 01-.113-1.622 9.8 9.8 0 01.319-2.468 9.348 9.348 0 01.966-2.335 10.065 10.065 0 011.613-2.086 10.84 10.84 0 012.274-1.723l.8-.462v1.657a1.149 1.149 0 01-.251.72 1.68 1.68 0 01-.445.436l-.223.129A4.3 4.3 0 00389 30.471a5.419 5.419 0 00-.6 2.536 15.218 15.218 0 00.1 1.768c.066.537.136 1.064.216 1.578s.152 1.02.216 1.526a12.7 12.7 0 01.1 1.578 5.518 5.518 0 01-.162 1.3 6.831 6.831 0 01-.462 1.3 7.206 7.206 0 01-.717 1.21 6.391 6.391 0 01-.94 1.031 1.653 1.653 0 011.657.342 2.506 2.506 0 01.624 1.882 15.537 15.537 0 01-.1 1.688c-.063.579-.136 1.172-.216 1.775s-.15 1.217-.216 1.835a18.354 18.354 0 00-.1 1.868 2.213 2.213 0 00.6 1.835q.6.45 1.681-.173l.223-.129a.649.649 0 01.445-.07c.166.03.251.176.251.436v1.667l-.8.462a6.806 6.806 0 01-2.274.9 2.408 2.408 0 01-1.613-.223 2.236 2.236 0 01-.966-1.221 6.075 6.075 0 01-.319-2.1 14.46 14.46 0 01.113-1.749c.075-.6.152-1.193.237-1.791s.162-1.186.237-1.777a13.567 13.567 0 00.113-1.707 1.871 1.871 0 00-.469-1.474c-.312-.267-.785-.213-1.428.157z"/></g></g><g data-name="Group 185"><g data-name="Group 183"><g data-name="Group 182"><g data-name="Group 179"><path data-name="Path 341" d="M42.297 303.428c19.6.394 40.432-9.424 40.432-9.424s2.677.443 7.848 3.577c0 0-10.375 43.339-15.453 62.292-8.008 29.881-24.982 61.237-24.982 61.237s-31.088 1.849-40.673-23.332c-5.776-15.172-7.607-57.085-7.607-57.085a230.913 230.913 0 0040.435-37.265z" fill="#d5d5d5"/></g><g data-name="Group 181"><path data-name="Path 342" d="M50.142 307.007c19.6.394 40.435-9.426 40.435-9.426s-1.735 43.956-7.607 65.869c-8.005 29.881-32.828 57.66-32.828 57.66s-24.82.884-32.828-19.754c-5.872-15.134-7.6-57.085-7.6-57.085a230.875 230.875 0 0040.428-37.264z"/><g data-name="Group 180"><path data-name="Path 343" d="M55.477 371.774l15.781-25.634-6.255-4.355-10.262 16.669-24.5-5.751-5.356 11.889z" fill="#fff"/></g></g></g></g><g data-name="Group 184" style="mix-blend-mode:multiply;isolation:isolate"><path data-name="Path 345" d="M14.637 489.374c17.537 10.237 45.894 10.371 63.335.3s17.366-26.531-.171-36.766-45.894-10.371-63.337-.3-17.366 26.532.173 36.766z" fill="#fdfdfd" opacity=".032"/><path data-name="Path 346" d="M15.648 488.791c16.977 9.909 44.424 10.038 61.31.291s16.81-25.683-.166-35.589-44.427-10.038-61.31-.291-16.81 25.683.166 35.589z" fill="#fafafa" opacity=".065"/><path data-name="Path 347" d="M16.658 488.207c16.416 9.581 42.957 9.7 59.282.281s16.254-24.834-.162-34.412-42.955-9.707-59.28-.281-16.254 24.834.16 34.412z" fill="#f8f8f8" opacity=".097"/><path data-name="Path 348" d="M17.67 487.623c15.851 9.252 41.487 9.374 57.252.27s15.7-23.981-.155-33.233-41.487-9.374-57.254-.272-15.696 23.983.157 33.235z" fill="#f6f6f6" opacity=".129"/><path data-name="Path 349" d="M18.681 487.042c15.291 8.924 40.017 9.041 55.226.26s15.141-23.132-.15-32.057-40.017-9.041-55.226-.263-15.141 23.133.15 32.06z" fill="#f3f3f3" opacity=".161"/><path data-name="Path 350" d="M19.688 486.455c14.731 8.6 38.55 8.711 53.2.251s14.585-22.284-.145-30.88-38.548-8.711-53.2-.251-14.583 22.284.145 30.88z" fill="#f1f1f1" opacity=".194"/><path data-name="Path 351" d="M20.702 485.872c14.171 8.27 37.08 8.378 51.173.241s14.03-21.435-.141-29.7-37.078-8.378-51.171-.241-14.029 21.432.139 29.7z" fill="#efefef" opacity=".226"/><path data-name="Path 352" d="M21.714 485.289c13.608 7.942 35.61 8.045 49.143.232s13.474-20.587-.134-28.526-35.61-8.045-49.143-.232-13.473 20.584.134 28.526z" fill="#ececec" opacity=".258"/><path data-name="Path 353" d="M22.725 484.705c13.045 7.614 34.141 7.715 47.116.223s12.919-19.736-.127-27.349-34.143-7.715-47.116-.223-12.918 19.735.127 27.349z" fill="#eaeaea" opacity=".29"/><path data-name="Path 354" d="M23.735 484.121c12.485 7.286 32.673 7.382 45.09.213s12.361-18.887-.124-26.173-32.671-7.382-45.088-.213-12.361 18.888.122 26.173z" fill="#e8e8e8" opacity=".323"/><path data-name="Path 355" d="M24.748 483.538c11.922 6.96 31.2 7.051 43.06.2s11.805-18.038-.117-25-31.2-7.051-43.06-.2-11.808 18.042.117 25z" fill="#e5e5e5" opacity=".355"/><path data-name="Path 356" d="M25.758 482.954c11.362 6.632 29.734 6.718 41.032.195s11.252-17.19-.11-23.819-29.734-6.718-41.035-.195-11.249 17.189.113 23.819z" fill="#e3e3e3" opacity=".387"/><path data-name="Path 357" d="M26.768 482.37c10.8 6.3 28.264 6.386 39.007.185s10.694-16.339-.108-22.642-28.264-6.386-39-.185-10.698 16.339.101 22.642z" fill="#e1e1e1" opacity=".419"/><path data-name="Path 358" d="M27.781 481.787c10.237 5.975 26.794 6.055 36.977.176s10.139-15.49-.1-21.466-26.792-6.059-36.977-.176-10.139 15.49.1 21.466z" fill="#dedede" opacity=".452"/><path data-name="Path 359" d="M28.788 481.203c9.677 5.649 25.326 5.722 34.949.164s9.583-14.639-.094-20.286-25.326-5.722-34.952-.166-9.576 14.641.097 20.288z" fill="#dcdcdc" opacity=".484"/><path data-name="Path 360" d="M29.802 480.619c9.116 5.321 23.857 5.389 32.924.155s9.025-13.791-.091-19.11-23.854-5.389-32.922-.157-9.025 13.793.089 19.112z" fill="#dadada" opacity=".516"/><path data-name="Path 361" d="M30.815 480.036c8.554 4.993 22.387 5.059 30.894.145s8.472-12.94-.084-17.933-22.387-5.059-30.894-.145-8.472 12.94.084 17.933z" fill="#d8d8d8" opacity=".548"/><path data-name="Path 362" d="M31.825 479.447c7.994 4.665 20.917 4.726 28.866.136s7.916-12.091-.077-16.756-20.917-4.726-28.869-.136-7.914 12.096.08 16.756z" fill="#d5d5d5" opacity=".581"/><path data-name="Path 363" d="M32.835 478.868c7.431 4.337 19.45 4.4 26.841.127s7.358-11.243-.075-15.579-19.447-4.4-26.838-.127-7.359 11.242.072 15.579z" fill="#d3d3d3" opacity=".613"/><path data-name="Path 364" d="M33.846 478.284c6.871 4.011 17.98 4.062 24.813.117s6.8-10.394-.068-14.4-17.977-4.063-24.811-.117-6.802 10.391.066 14.4z" fill="#d1d1d1" opacity=".645"/><path data-name="Path 365" d="M34.859 477.701c6.308 3.683 16.51 3.73 22.783.108s6.247-9.543-.061-13.226-16.51-3.73-22.785-.108-6.246 9.543.063 13.226z" fill="#cecece" opacity=".677"/><path data-name="Path 366" d="M35.869 477.117c5.748 3.355 15.04 3.4 20.758.1s5.689-8.695-.056-12.049-15.043-3.4-20.758-.1-5.692 8.695.056 12.049z" fill="#ccc" opacity=".71"/><path data-name="Path 367" d="M36.879 476.533c5.188 3.026 13.573 3.066 18.73.089s5.136-7.846-.052-10.872-13.57-3.066-18.728-.089-5.136 7.846.05 10.872z" fill="#cacaca" opacity=".742"/><path data-name="Path 368" d="M37.887 475.949c4.623 2.7 12.1 2.736 16.7.08s4.58-7-.045-9.7-12.1-2.736-16.7-.08-4.575 7.002.045 9.7z" fill="#c7c7c7" opacity=".774"/><path data-name="Path 369" d="M38.902 475.365a16.14 16.14 0 0014.675.07c4.041-2.335 4.023-6.149-.04-8.519a16.14 16.14 0 00-14.675-.07c-4.041 2.335-4.022 6.147.04 8.519z" fill="#c5c5c5" opacity=".806"/><path data-name="Path 370" d="M39.912 474.782a13.915 13.915 0 0012.647.061c3.483-2.011 3.467-5.3-.035-7.342a13.91 13.91 0 00-12.644-.061c-3.484 2.011-3.468 5.298.032 7.342z" fill="#c3c3c3" opacity=".839"/><path data-name="Path 371" d="M40.925 474.198a11.67 11.67 0 0010.617.049c2.926-1.688 2.911-4.447-.028-6.163a11.675 11.675 0 00-10.619-.049c-2.924 1.688-2.912 4.447.03 6.163z" fill="silver" opacity=".871"/><path data-name="Path 372" d="M41.935 473.62a9.45 9.45 0 008.591.04c2.365-1.364 2.356-3.6-.023-4.986a9.449 9.449 0 00-8.591-.04c-2.366 1.359-2.356 3.593.023 4.986z" fill="#bebebe" opacity=".903"/><path data-name="Path 373" d="M42.946 473.031a7.224 7.224 0 006.564.03c1.807-1.043 1.8-2.75-.019-3.809a7.219 7.219 0 00-6.561-.03c-1.808 1.043-1.801 2.749.016 3.809z" fill="#bcbcbc" opacity=".935"/><path data-name="Path 374" d="M43.959 472.448a4.98 4.98 0 004.534.021c1.249-.722 1.245-1.9-.012-2.633a4.985 4.985 0 00-4.536-.021c-1.25.72-1.243 1.899.014 2.633z" fill="#b9b9b9" opacity=".968"/><path data-name="Path 375" d="M44.969 471.863a2.759 2.759 0 002.508.012c.692-.4.687-1.05-.007-1.456a2.759 2.759 0 00-2.508-.012.77.77 0 00.007 1.456z" fill="#b7b7b7"/></g></g><g data-name="Group 200"><g data-name="Group 198"><g data-name="Group 197" style="isolation:isolate"><path data-name="Path 376" d="M540.19 281.484a1.278 1.278 0 01-.1-.516l-.019-6.669-8.179-4.754.019 6.669a.563.563 0 000 .063v.063l.007.063.009.061.012.066.019.066.023.068.026.061v.007c.014.03.03.061.047.089a.659.659 0 00.22.213l8.179 4.754a.675.675 0 01-.263-.304z" fill="#d5d5d5"/><path data-name="Path 377" d="M573.217 224.285a.669.669 0 01.408.082l-8.179-4.754a.585.585 0 00-.1-.047.55.55 0 00-.089-.023l-.073-.012H565l-.056.009-.054.012-.054.014-.052.019-.051.019-.054.023-.052.023-.054.028-.042.023-5.8 3.352 8.179 4.754 5.8-3.352a1.3 1.3 0 01.5-.176z" fill="#d5d5d5"/><g data-name="Group 186"><path data-name="Path 378" d="M555.937 234.458l-8.18-4.753.174.269 8.18 4.754z" fill="#d5d5d5"/></g><g data-name="Group 187"><path data-name="Path 379" d="M555.639 234.118l-8.18-4.754.3.34 8.18 4.753z" fill="#d5d5d5"/></g><g data-name="Group 190" style="isolation:isolate"><path data-name="Path 380" d="M555.119 233.538l-8.181-4.754a2.746 2.746 0 01.523.579l8.179 4.754a2.739 2.739 0 00-.521-.579z" fill="#d5d5d5"/><g data-name="Group 189" clip-path="url(#f)" transform="translate(546.938 228.784)"><g data-name="Group 188"><path data-name="Path 381" d="M8.181 4.754L0 0a2.746 2.746 0 01.523.579l8.179 4.754a2.739 2.739 0 00-.52-.579" fill="#d5d5d5"/></g></g></g><g data-name="Group 191"><path data-name="Path 383" d="M554.895 233.325l-8.18-4.754.223.212 8.18 4.754z" fill="#d5d5d5"/></g><g data-name="Group 194" style="isolation:isolate"><path data-name="Path 384" d="M554.126 232.769l-8.179-4.754a4.581 4.581 0 01.769.556l8.179 4.754a4.585 4.585 0 00-.769-.556z" fill="#d5d5d5"/><g data-name="Group 193" clip-path="url(#g)" transform="translate(545.947 228.015)"><g data-name="Group 192"><path data-name="Path 385" d="M8.179 4.754L0 0a4.581 4.581 0 01.769.556L8.948 5.31a4.585 4.585 0 00-.769-.556" fill="#d5d5d5"/></g></g></g><path data-name="Path 387" d="M569.146 250.313l-8.179-4.752-3.84-2.189.049-.248.047-.34v-.023c.016-.084.03-.169.045-.256s.028-.185.04-.277.023-.195.033-.291.016-.2.023-.3v-.016l.026-.27c.014-.279.031-.558.04-.832v-.41c0-.159 0-.312-.012-.462-.009-.241-.026-.476-.04-.708l-.026-.241v-.061c-.009-.091-.016-.183-.028-.27s-.026-.192-.042-.286a6.523 6.523 0 00-.073-.359v-.016l-.049-.284-.176-.668-.1-.368-.042-.12c-.091-.246-.2-.5-.3-.731l-.1-.2-.323-.609-8.179-4.754.324.609.1.2c.124.27.249.567.349.851l.1.368.173.668.052.284a6.336 6.336 0 01.15.994l.026.239c.026.384.052.767.054 1.193 0 .4-.023.809-.047 1.219l-.023.272a9.369 9.369 0 01-.145 1.163l-.049.342-.171.865-.1.483c-.1.427-.22.837-.342 1.249l-.1.34-.319.952-.173.469-.293.684a12.556 12.556 0 01-.518 1.179l-.22.469a23.59 23.59 0 01-.832 1.557l-.014.028c-.3.516-.621 1.024-.952 1.528l-.3.424c-.246.342-.492.713-.738 1.024l-.469.612-.321.384-.666.755-.246.256c-.3.312-.593.626-.914.926l-.368.326-.668.584-.27.213a9.353 9.353 0 01-.94.713l-.224.159c-.345.227-.689.457-1.036.656-.37.213-.717.384-1.038.541l-.246.115a6.876 6.876 0 01-.94.37l-.272.1-.666.185-.37.1c-.3.059-.619.1-.917.131l-.223.014-.691.03-.3-.028-.471-.068a2.239 2.239 0 01-.359-.056c-.138-.03-.274-.068-.408-.1l-.3-.084a6.294 6.294 0 01-.994-.459l8.181 4.754a6.2 6.2 0 00.994.459l.3.084c.136.03.272.066.41.1l.082.019a2.2 2.2 0 00.211.033h.066l.469.068.3.028.694-.03.223-.014a12.77 12.77 0 00.915-.131l.37-.1.668-.185.272-.1a17.849 17.849 0 00.5-.175c.092-.034.176-.073.262-.11l.178-.084.246-.113.185-.091c.18-.089.37-.185.567-.291.094-.052.188-.106.284-.162l.073-.04c.136-.082.274-.166.41-.253.185-.117.37-.239.556-.361l.223-.157.1-.07a9.765 9.765 0 00.518-.383c.082-.066.159-.127.234-.19l.082-.07.272-.213.666-.584.37-.328.12-.113c.106-.1.209-.2.31-.307.164-.166.323-.335.483-.5l.248-.256.666-.755.319-.384.469-.612c.052-.063.1-.131.152-.2.2-.265.391-.553.588-.825l.3-.427c.328-.5.645-1.006.945-1.519l.023-.042a22.834 22.834 0 00.729-1.35c.033-.063.066-.131.1-.2l.223-.469q.077-.155.148-.309c.042-.089.084-.178.122-.267s.068-.155.1-.232.059-.145.087-.218l.059-.152.3-.682.171-.469.319-.952.1-.34c.066-.22.131-.441.192-.663.038-.131.073-.263.105-.4l.045-.19.1-.483.122-.614 7.9 4.595z" fill="#d5d5d5"/><path data-name="Path 388" d="M522.47 278.305a2.176 2.176 0 01.1-.607 3.1 3.1 0 01.286-.656l4.086-7.079-8.179-4.754-4.086 7.079-.054.1-.045.082-.033.07-.03.066-.026.063-.026.063-.026.066-.023.068-.021.068v.014l-.014.052-.019.068-.016.07-.014.066-.012.066-.009.066-.007.061v.301l.007.061.009.061.012.061.016.063.021.066.016.04v.007l.012.023a.711.711 0 00.047.084.646.646 0 00.216.213l8.181 4.752a.668.668 0 01-.274-.319v-.007a1.229 1.229 0 01-.095-.498z" fill="#d5d5d5"/><path data-name="Path 389" d="M569.044 214.353l-8.181-4.754-6.588-3.729-.044-.028a.532.532 0 00-.106-.047.364.364 0 00-.087-.023l-.07-.012h-.063a.471.471 0 00-.059 0h-.051l-.054.009-.052.012-.052.014-.049.016-.049.019-.049.021-.052.023-.049.026-.04.021-.012.007-.052.033-.052.033-.054.04-.054.04-.056.047-.054.047-.056.052-.052.052-.038.04-.012.012-.047.054-.049.056-.047.059-.051.068c-.026.033-.049.068-.073.1-.04.056-.075.115-.11.173l-.03.052-4.112 7.093 8.181 4.754 4.112-7.093a2.792 2.792 0 01.42-.577 2.114 2.114 0 01.481-.389 1.224 1.224 0 01.469-.164.667.667 0 01.413.08l.019.012z" fill="#d5d5d5"/><path data-name="Path 390" d="M526.525 269.303q-.271-.45-.513-.935c-.047-.1-.1-.185-.143-.284-.141-.3-.272-.619-.4-.94-.031-.082-.066-.155-.1-.237a18.465 18.465 0 01-.326-.989c-.023-.077-.052-.148-.075-.225l-8.175-4.754v.014c.021.08.052.152.075.23.1.328.2.656.319.968l.009.028c.03.08.066.152.1.23.122.314.248.624.387.921a.9.9 0 01.035.084c.035.07.077.131.113.2q.239.485.511.935c.037.059.066.129.1.188.1.159.206.316.314.467l8.179 4.754c-.142-.207-.274-.432-.41-.655z" fill="#d5d5d5"/><path data-name="Path 391" d="M552.935 218.967c.11-.021.22-.035.33-.054.26-.045.52-.082.776-.11a11.856 11.856 0 011.114-.083c.108 0 .22-.012.328-.012.349 0 .694.007 1.029.035l-8.181-4.754c-.3-.026-.6-.037-.9-.04h-.124c-.11 0-.22.007-.331.012-.159 0-.317 0-.476.016-.089.007-.181.019-.272.028-.12.009-.241.023-.363.037-.1.012-.2.016-.3.03-.159.021-.321.054-.483.08l-.328.054c-.044.009-.089.014-.134.023-.321.061-.642.134-.971.216h-.019l8.179 4.754c.383-.082.755-.159 1.126-.232z" fill="#d5d5d5"/><path data-name="Path 392" d="M537.599 228.346q1.136-1.188 2.332-2.274l-8.179-4.754q-.492.443-.973.9c-.314.3-.628.612-.935.926-.143.145-.284.3-.424.445l-.152.159c-.091.1-.185.19-.274.286a46.205 46.205 0 00-1.498 1.705c-.145.173-.288.349-.431.527l8.181 4.754a42.214 42.214 0 012.2-2.518z" fill="#d5d5d5"/><path data-name="Path 393" d="M525.794 248.7a42.075 42.075 0 011.081-3.179l-8.181-4.752a41.68 41.68 0 00-.98 2.837c-.035.115-.068.23-.1.345l-.049.166c-.059.2-.12.4-.176.6q-.162.584-.3 1.17-.151.608-.286 1.221l-.04.183-5.8 3.35 8.181 4.754 5.8-3.352q.338-1.579.8-3.167z" fill="#d5d5d5"/><path data-name="Path 394" d="M551.013 211.634a.686.686 0 01.408.08l-8.179-4.752a.52.52 0 00-.1-.049c-.028-.009-.056-.016-.087-.023s-.049-.009-.075-.012h-.179l-.056.009-.052.012-.054.016-.054.016-.052.019-.052.023-.054.026-.054.028-.042.023-9.311 5.375 8.179 4.754 9.311-5.378a1.265 1.265 0 01.506-.173z" fill="#d5d5d5"/><path data-name="Path 395" d="M517.986 268.83a1.238 1.238 0 01-.1-.513l-.031-10.7a2.1 2.1 0 01.1-.635 2.849 2.849 0 01.27-.621v-.009a2.936 2.936 0 01.4-.546 2.192 2.192 0 01.5-.406l-8.181-4.754-.012.009-.056.033-.056.038-.056.04-.059.045-.056.047-.059.049-.056.054-.054.054-.038.038-.016.014-.049.056-.049.056-.049.061-.056.075-.08.113c-.026.038-.063.1-.094.15l-.009.019-.007.009-.047.082-.037.077-.033.066-.028.061-.026.061-.026.063-.023.061-.021.066-.021.066v.016l-.014.047-.019.068-.014.068-.014.068-.012.066-.009.066-.007.063v.188l.031 10.7v.127l.007.063.009.063.014.063.016.066.023.068.026.061v.009c.014.03.031.059.047.087a.658.658 0 00.22.213l8.179 4.754a.676.676 0 01-.268-.303z" fill="#d5d5d5"/><path data-name="Path 396" d="M540.011 218.77a3.017 3.017 0 01.27-.621v-.007a3 3 0 01.4-.544 2.233 2.233 0 01.5-.4l-8.179-4.754-.014.007-.056.035-.056.037-.056.04-.059.045-.056.047-.059.049-.056.054-.054.054-.035.035-.016.014-.049.056-.049.056-.049.061-.056.073-.08.115c-.033.049-.063.1-.094.15l-.012.021-.047.084-.04.077-.033.066-.028.061-.026.061-.023.061-.023.063-.024.066-.021.066-.007.019-.014.049-.016.068-.016.068-.014.068-.012.066-.009.066-.007.063v.129a.494.494 0 000 .059l.019 6.669 8.179 4.754-.019-6.669a2.235 2.235 0 01.096-.637z" fill="#d5d5d5"/><g data-name="Group 195"><path data-name="Path 397" d="M535.245 231.024l-8.18-4.754-4.114-2.344 8.18 4.753z" fill="#d5d5d5"/></g><path data-name="Path 398" d="M530.215 228.761a1.25 1.25 0 01.483-.166.735.735 0 01.431.084l-8.181-4.752a.668.668 0 00-.11-.052.689.689 0 00-.094-.026l-.075-.012h-.068a.528.528 0 00-.061 0h-.054l-.054.007-.054.012-.049.016-.052.016-.049.019-.052.021-.049.023-.049.026-.04.021-.012.007-.052.03-.052.035-.054.037-.056.042-.054.047-.059.049-.054.052-.056.054-.033.035-.016.016-.049.056-.049.059-.052.061-.056.073a3.057 3.057 0 00-.199.305l-.007.014-6.55 11.343-.012.016-.063.117-.035.068-.033.068-.028.059-.026.061-.023.061-.023.059-.021.063-.021.066v.012l-.014.049-.019.066-.014.066-.014.066-.009.063-.009.061-.007.063v.36l.009.061.014.063.016.066.023.07.023.059v.012l.049.089a.68.68 0 00.239.23l8.179 4.754a.7.7 0 01-.291-.326 2.043 2.043 0 01.288-1.765l6.547-11.343a3.187 3.187 0 01.429-.584 2.167 2.167 0 01.483-.382z" fill="#d5d5d5"/><g data-name="Group 196"><path data-name="Path 399" d="M524.938 252.041a43.173 43.173 0 011.936-6.519l-4.114-2.344c-.52-.3-.523-1.233 0-2.1l6.539-11.341a2.658 2.658 0 01.912-.975.912.912 0 01.917-.082l4.114 2.346a43.24 43.24 0 014.686-4.953l-.019-6.669a2.793 2.793 0 011.28-2.218l9.311-5.378c.717-.413 1.287-.087 1.289.736l.019 6.669a14.392 14.392 0 014.7-.467l4.112-7.093a2.554 2.554 0 01.9-.968.874.874 0 01.9-.073l6.618 3.741c.495.284.5 1.219 0 2.1l-4.086 7.079a15.065 15.065 0 011.941 4.28l5.8-3.352c.717-.413 1.287-.089 1.289.734l.031 10.7a2.8 2.8 0 01-1.28 2.218l-5.806 3.35a44.851 44.851 0 01-1.911 6.507l4.114 2.342c.495.312.5 1.249 0 2.1l-6.573 11.388a2.58 2.58 0 01-.9.945.911.911 0 01-.9.1l-4.137-2.33a45.8 45.8 0 01-4.686 4.923l.019 6.669a2.8 2.8 0 01-1.282 2.218l-9.311 5.375c-.717.415-1.287.089-1.289-.734l-.019-6.669a15.322 15.322 0 01-4.7.495l-4.088 7.079a2.7 2.7 0 01-.912.954.949.949 0 01-.917.1l-6.592-3.783c-.518-.27-.523-1.2 0-2.1l4.086-7.079a14.232 14.232 0 01-1.967-4.266l-5.8 3.352c-.715.413-1.285.089-1.287-.734l-.031-10.7a2.8 2.8 0 011.28-2.218zm9.557 2.529l.026.241c.049.34.075.694.15.992l.052.284.174.668.127.354a7.3 7.3 0 00.324.865l.1.225.349.567.174.27.272.354c.176.213.349.4.523.581l.223.211a5.934 5.934 0 001.81 1.031l.3.084a4.468 4.468 0 00.769.155l.469.068.3.028.694-.03.223-.014c.3-.03.617-.073.914-.131l.37-.1.668-.185.272-.1a6.817 6.817 0 00.94-.373l.246-.113c.321-.157.666-.328 1.036-.544.347-.2.692-.427 1.039-.654l.223-.157a9.393 9.393 0 00.938-.713l.272-.213.666-.584.37-.328c.321-.3.616-.612.912-.924l.248-.256.666-.755.319-.384.469-.612c.246-.312.492-.682.741-1.024l.3-.427a27.41 27.41 0 001.8-3.113l.223-.469a12 12 0 00.516-1.179l.3-.682.171-.469.319-.952.1-.34c.122-.413.244-.823.342-1.249l.1-.483.171-.867.047-.34a8.993 8.993 0 00.145-1.165l.026-.27c.023-.41.047-.823.045-1.219 0-.427-.026-.809-.052-1.193l-.026-.241a6.349 6.349 0 00-.152-.992l-.049-.284-.176-.666-.1-.37a10.24 10.24 0 00-.347-.851l-.1-.2-.323-.61-.174-.27-.3-.34a2.74 2.74 0 00-.52-.579l-.225-.213a5.382 5.382 0 00-1.807-1.031l-.3-.084-.743-.169-.469-.04-.324-.014-.668-.012-.246.028a7.505 7.505 0 00-.917.131l-.37.1-.666.185-.272.1a5.992 5.992 0 00-.94.37l-.223.1c-.345.171-.692.342-1.036.541-.373.216-.717.443-1.062.67l-.223.157a10.236 10.236 0 00-.938.713l-.272.213-.668.584-.37.328c-.3.284-.617.612-.912.924l-.223.241-.689.8-.3.37-.469.584c-.272.356-.518.7-.764 1.038l-.3.427a29.966 29.966 0 00-1.8 3.113l-.22.469a45.8 45.8 0 00-.518 1.179l-.27.7-.171.438-.345 1-.1.312c-.124.413-.22.837-.319 1.235l-.122.5-.171.867-.049.34c-.073.413-.1.767-.145 1.163l-.023.272c-.023.41-.047.823-.047 1.247 0 .4.028.781.054 1.165"/></g></g></g><g data-name="Group 199" style="mix-blend-mode:multiply;isolation:isolate" fill="#d5d5d5"><path data-name="Path 401" d="M516.377 330.458c13.451 7.851 35.2 7.951 48.578.23s13.32-20.35-.131-28.2-35.2-7.951-48.578-.227-13.317 20.346.131 28.197z" opacity=".032"/><path data-name="Path 402" d="M517.156 330.008c13.02 7.6 34.07 7.7 47.019.223s12.891-19.7-.129-27.293-34.07-7.7-47.019-.223-12.891 19.696.129 27.293z" opacity=".065"/><path data-name="Path 403" d="M517.932 329.561c12.588 7.347 32.943 7.443 45.461.216s12.464-19.044-.122-26.391-32.943-7.443-45.461-.213-12.464 19.041.122 26.388z" opacity=".097"/><path data-name="Path 404" d="M518.71 329.112c12.155 7.094 31.813 7.187 43.9.206s12.037-18.39-.12-25.486-31.813-7.187-43.9-.206-12.036 18.393.12 25.486z" opacity=".129"/><path data-name="Path 405" d="M519.486 328.663c11.726 6.843 30.683 6.932 42.345.2s11.608-17.736-.115-24.579-30.683-6.932-42.345-.2-11.608 17.736.115 24.579z" opacity=".161"/><path data-name="Path 406" d="M520.264 328.215c11.292 6.589 29.553 6.676 40.784.192s11.184-17.084-.11-23.676-29.553-6.676-40.784-.192-11.184 17.084.11 23.676z" opacity=".194"/><path data-name="Path 407" d="M521.038 327.765c10.863 6.341 28.425 6.423 39.227.185s10.755-16.43-.105-22.769-28.425-6.423-39.227-.185-10.753 16.43.105 22.769z" opacity=".226"/><path data-name="Path 408" d="M521.819 327.317c10.429 6.088 27.3 6.168 37.669.178s10.326-15.779-.1-21.866-27.3-6.168-37.669-.178-10.33 15.778.1 21.866z" opacity=".258"/><path data-name="Path 409" d="M522.594 326.87c10 5.835 26.166 5.912 36.11.169s9.9-15.125-.1-20.962-26.166-5.91-36.11-.169-9.893 15.125.1 20.962z" opacity=".29"/><path data-name="Path 410" d="M523.373 326.421c9.567 5.584 25.036 5.657 34.551.164s9.473-14.473-.094-20.057-25.036-5.657-34.551-.164-9.473 14.472.094 20.057z" opacity=".323"/><path data-name="Path 411" d="M524.149 325.971c9.135 5.331 23.908 5.4 32.994.155s9.046-13.819-.089-19.152-23.908-5.4-32.994-.155-9.047 13.819.089 19.152z" opacity=".355"/><path data-name="Path 412" d="M524.927 325.524c8.7 5.08 22.778 5.145 31.435.148s8.617-13.167-.087-18.247-22.778-5.148-31.435-.15-8.617 13.169.087 18.249z" opacity=".387"/><path data-name="Path 413" d="M525.703 325.073c8.273 4.829 21.651 4.892 29.876.141s8.193-12.513-.08-17.342-21.648-4.892-29.877-.141-8.193 12.516.081 17.342z" opacity=".419"/><path data-name="Path 414" d="M526.481 324.626c7.841 4.576 20.519 4.634 28.318.134s7.764-11.862-.077-16.44-20.519-4.634-28.318-.134-7.764 11.865.077 16.44z" opacity=".452"/><path data-name="Path 415" d="M527.257 324.176c7.41 4.325 19.391 4.381 26.761.127s7.335-11.21-.073-15.532-19.391-4.381-26.761-.127-7.335 11.211.073 15.532z" opacity=".484"/><path data-name="Path 416" d="M528.035 323.728c6.979 4.072 18.261 4.126 25.2.12s6.911-10.558-.068-14.63-18.261-4.126-25.2-.12-6.911 10.558.068 14.63z" opacity=".516"/><path data-name="Path 417" d="M528.811 323.28c6.547 3.819 17.134 3.87 23.643.11s6.482-9.9-.063-13.723-17.134-3.873-23.643-.113-6.482 9.905.063 13.726z" opacity=".548"/><path data-name="Path 418" d="M529.588 322.831c6.114 3.57 16 3.617 22.085.105s6.055-9.252-.061-12.82-16-3.615-22.085-.1-6.054 9.247.061 12.815z" opacity=".581"/><path data-name="Path 419" d="M530.365 322.383c5.685 3.317 14.874 3.359 20.526.1s5.628-8.6-.054-11.915-14.874-3.359-20.526-.1-5.628 8.598.054 11.915z" opacity=".613"/><path data-name="Path 420" d="M531.144 321.933c5.251 3.066 13.744 3.106 18.967.091s5.2-7.947-.052-11.011-13.744-3.106-18.967-.089-5.199 7.945.052 11.009z" opacity=".645"/><path data-name="Path 421" d="M531.92 321.485c4.822 2.813 12.616 2.851 17.41.082s4.773-7.293-.047-10.106-12.616-2.851-17.41-.082-4.773 7.293.047 10.106z" opacity=".677"/><path data-name="Path 422" d="M532.698 321.038c4.388 2.56 11.484 2.595 15.849.075s4.346-6.641-.042-9.2-11.484-2.593-15.849-.073-4.346 6.635.042 9.198z" opacity=".71"/><path data-name="Path 423" d="M533.474 320.589a15.725 15.725 0 0014.292.068c3.936-2.271 3.919-5.987-.038-8.3a15.725 15.725 0 00-14.292-.068c-3.935 2.275-3.919 5.989.038 8.3z" opacity=".742"/><path data-name="Path 424" d="M534.252 320.139a14 14 0 0012.734.059c3.507-2.023 3.49-5.333-.035-7.391a14.009 14.009 0 00-12.734-.059c-3.507 2.023-3.49 5.333.035 7.391z" opacity=".774"/><path data-name="Path 425" d="M535.027 319.691a12.3 12.3 0 0011.177.052c3.076-1.777 3.064-4.681-.031-6.486a12.291 12.291 0 00-11.177-.054c-3.075 1.776-3.063 4.681.031 6.488z" opacity=".806"/><path data-name="Path 426" d="M535.806 319.241a10.57 10.57 0 009.616.045c2.649-1.528 2.637-4.027-.026-5.581a10.57 10.57 0 00-9.616-.045c-2.649 1.529-2.637 4.029.026 5.581z" opacity=".839"/><path data-name="Path 427" d="M536.582 318.793a8.866 8.866 0 008.059.038c2.22-1.282 2.208-3.376-.021-4.679a8.873 8.873 0 00-8.059-.038c-2.22 1.283-2.209 3.376.021 4.679z" opacity=".871"/><path data-name="Path 428" d="M537.36 318.343a7.15 7.15 0 006.5.031c1.789-1.031 1.782-2.722-.019-3.772a7.15 7.15 0 00-6.5-.03c-1.788 1.033-1.781 2.721.019 3.771z" opacity=".903"/><path data-name="Path 429" d="M538.139 317.896a5.434 5.434 0 004.942.023c1.362-.785 1.355-2.07-.012-2.869a5.441 5.441 0 00-4.942-.023c-1.365.785-1.358 2.069.012 2.869z" opacity=".935"/><path data-name="Path 430" d="M538.914 317.448a3.718 3.718 0 003.383.014 1.037 1.037 0 00-.009-1.962 3.711 3.711 0 00-3.383-.016 1.039 1.039 0 00.009 1.964z" opacity=".968"/><path data-name="Path 431" d="M539.691 316.998a2.007 2.007 0 001.826.009.561.561 0 000-1.06 2.014 2.014 0 00-1.826-.009.561.561 0 000 1.06z"/></g></g></g></svg>