<svg xmlns="http://www.w3.org/2000/svg" viewBox="0 0 196.71 177.97"><g data-name="Warstwa 2"><path d="M159.88.78a153.51 153.51 0 01-13 35.64C142 45.94 136.35 57 125.9 67.07c-6.51 6.28-10.27 7.73-46 24.65-27.16 12.87-33.33 16-42 22.65-12.71 9.79-19.18 18.32-22 22.31A95.44 95.44 0 003.33 162m190.19-97.6a95.09 95.09 0 01-18.32 27.32c-13.5 13.93-31.31 24-31.31 24-7.48 4.22-13.13 6.49-19 13.32-2.78 3.26-7.22 8.59-8 16.66a27.09 27.09 0 003.66 16 29.77 29.77 0 0016 13" fill="none" stroke="#fff" stroke-miterlimit="10" stroke-width="7" data-name="Warstwa 1"/></g></svg>