<svg width="27" height="21" xmlns="http://www.w3.org/2000/svg" xmlns:xlink="http://www.w3.org/1999/xlink" xmlns:svgjs="http://svgjs.com/svgjs" viewBox="0 0.217 27 20.567" fill="#252525"><svg xmlns="http://www.w3.org/2000/svg" width="27" height="21" viewBox="1.2 1.25 25.6 19.5"><path paint-order="stroke fill markers" fill-rule="evenodd" d="M24.55 1.25H3.45C2.21 1.25 1.2 2.26 1.2 3.5v15a2.254 2.254 0 0 0 2.25 2.25h21.1a2.254 2.254 0 0 0 2.25-2.25v-15a2.254 2.254 0 0 0-2.25-2.25zm-.31 1.5L14.047 12.942 3.768 2.75h20.471zM2.7 18.19V3.802l7.224 7.162L2.7 18.19zm1.06 1.06l7.23-7.229 2.532 2.511a.75.75 0 0 0 1.058-.002l2.47-2.47 7.19 7.19H3.76zm21.54-1.06L18.11 11l7.19-7.19v14.38z"/></svg></svg>