<svg width="67" height="77" xmlns="http://www.w3.org/2000/svg" xmlns:xlink="http://www.w3.org/1999/xlink" xmlns:svgjs="http://svgjs.com/svgjs" viewBox="0 0.438 67 76.124" fill="#d5b467"><svg xmlns="http://www.w3.org/2000/svg" width="67" height="77" viewBox="1.002 1.51 65.995 74.983"><path paint-order="stroke fill markers" fill-rule="evenodd" d="M17.474 35.758V22.18h13.467L15.971 1.511 1.003 22.181H14.47v13.577c0 10.814 8.762 19.613 19.53 19.613 9.113 0 16.527 7.445 16.527 16.595v3.018c0 .834.671 1.508 1.502 1.508.83 0 1.502-.674 1.502-1.508v-3.018c0-10.814-8.761-19.612-19.53-19.612-9.112 0-16.526-7.446-16.526-16.596zM6.904 19.163L15.971 6.64l9.068 12.522H6.903zm10.57 55.82v-3.017c0-4.093 1.493-8.023 4.205-11.067a1.509 1.509 0 0 0-.117-2.13 1.5 1.5 0 0 0-2.121.117 19.635 19.635 0 0 0-4.972 13.08v3.018c0 .834.672 1.508 1.503 1.508.83 0 1.502-.674 1.502-1.508zM50.526 22.18v13.578c0 4.051-1.467 7.95-4.129 10.98a1.51 1.51 0 0 0 .134 2.13c.622.55 1.571.491 2.12-.135a19.643 19.643 0 0 0 4.88-12.976V22.179h13.467l-14.97-20.67-14.97 20.671h13.468zm-7.566-3.017L52.028 6.64l9.068 12.522H42.96z"/></svg></svg>