<svg width="77" height="77" xmlns="http://www.w3.org/2000/svg" xmlns:xlink="http://www.w3.org/1999/xlink" xmlns:svgjs="http://svgjs.com/svgjs" viewBox="0 0.394 77 76.212" fill="#d5b467"><svg xmlns="http://www.w3.org/2000/svg" width="77" height="77" viewBox="1.112 1.5 75.776 75"><path paint-order="stroke fill markers" fill-rule="evenodd" d="M51.721 49.725c-1.795 0-3.256-1.266-3.256-2.823 0-1.556 1.46-2.822 3.256-2.822 1.795 0 3.256 1.266 3.256 2.822a1.481 1.481 0 1 0 2.96 0c0-2.716-2.02-5-4.736-5.62v-.77a1.481 1.481 0 1 0-2.96 0v.77c-2.715.62-4.736 2.904-4.736 5.62 0 3.191 2.789 5.787 6.216 5.787 1.795 0 3.256 1.266 3.256 2.823 0 1.556-1.46 2.822-3.256 2.822-1.795 0-3.256-1.266-3.256-2.822a1.481 1.481 0 0 0-2.96 0c0 2.716 2.02 5 4.736 5.62v.64c0 .818.663 1.482 1.48 1.482s1.48-.664 1.48-1.482v-.64c2.715-.62 4.736-2.904 4.736-5.62 0-3.191-2.788-5.787-6.216-5.787zm16.21-8.817a19.292 19.292 0 0 0-7.877-6.981 1.479 1.479 0 0 0-1.975.694 1.483 1.483 0 0 0 .693 1.978c5.61 2.7 9.236 8.472 9.236 14.703 0 2.666-.656 5.31-1.898 7.647a1.483 1.483 0 0 0 1.305 2.179 1.48 1.48 0 0 0 1.308-.786 19.332 19.332 0 0 0 2.245-9.04c0-3.7-1.05-7.294-3.037-10.394zm-13.884-8.874h-.1a1.481 1.481 0 0 0 0 2.964h.094a1.481 1.481 0 1 0 .007-2.964zm-9.363 33.972c-5.61-2.701-9.236-8.473-9.236-14.704 0-2.666.656-5.31 1.898-7.647.384-.722.11-1.62-.612-2.004a1.479 1.479 0 0 0-2.001.612 19.33 19.33 0 0 0-2.245 9.04c0 3.699 1.05 7.293 3.037 10.393a19.295 19.295 0 0 0 7.877 6.982 1.48 1.48 0 0 0 1.975-.694 1.483 1.483 0 0 0-.693-1.978zm4.824 1.6h-.086a1.481 1.481 0 1 0-.013 2.964l.1.001a1.481 1.481 0 0 0 0-2.964zm8.94-40.587c-.18-.43-.4-.835-.657-1.211h3.853c3.754 0 6.808-3.059 6.808-6.818 0-3.76-3.054-6.818-6.808-6.818H49.792a6.785 6.785 0 0 0 1.196-3.854c0-3.76-3.054-6.818-6.808-6.818H7.92c-3.754 0-6.808 3.059-6.808 6.818 0 3.76 3.054 6.818 6.808 6.818h11.852a6.786 6.786 0 0 0-1.196 3.854c0 1.43.442 2.756 1.196 3.854h-3.86c-3.754 0-6.808 3.058-6.808 6.818a6.811 6.811 0 0 0 2.577 5.336 6.81 6.81 0 0 0 0 10.672 6.81 6.81 0 0 0 0 10.672 6.81 6.81 0 0 0-2.577 5.336c0 3.759 3.054 6.818 6.808 6.818h17.442c4.594 4.922 11.131 8.004 18.374 8.004 13.873 0 25.16-11.304 25.16-25.198 0-11.563-7.819-21.331-18.44-24.283zm3.196-11.883a3.855 3.855 0 0 1 3.848 3.854 3.855 3.855 0 0 1-3.848 3.854h-9.472-26.788a3.855 3.855 0 0 1-3.848-3.854 3.855 3.855 0 0 1 3.848-3.854h36.26zM7.92 12.172a3.855 3.855 0 0 1-3.848-3.854A3.855 3.855 0 0 1 7.92 4.464h36.26a3.855 3.855 0 0 1 3.848 3.854 3.855 3.855 0 0 1-3.848 3.854H7.92zm7.992 13.636h36.26c.596 0 1.167.139 1.679.387-.7-.059-1.408-.09-2.123-.09-6.948 0-13.247 2.835-17.804 7.41H15.912a3.855 3.855 0 0 1-3.848-3.853 3.855 3.855 0 0 1 3.848-3.854zm0 10.672h15.483a25.142 25.142 0 0 0-3.804 7.708H15.91a3.855 3.855 0 0 1 0-7.708zm0 10.672h11a25.29 25.29 0 0 0-.092 7.708H15.912a3.855 3.855 0 0 1-3.848-3.854 3.855 3.855 0 0 1 3.848-3.854zm0 18.38a3.855 3.855 0 0 1-3.848-3.854 3.855 3.855 0 0 1 3.848-3.854h11.512a25.116 25.116 0 0 0 3.551 7.707H15.912zm35.816 8.003c-12.241 0-22.2-9.973-22.2-22.233s9.959-22.233 22.2-22.233 22.2 9.974 22.2 22.233c0 12.26-9.959 22.233-22.2 22.233z"/></svg></svg>