<svg width="23" height="32" xmlns="http://www.w3.org/2000/svg" xmlns:xlink="http://www.w3.org/1999/xlink" xmlns:svgjs="http://svgjs.com/svgjs" viewBox="0.25 0 22.5 32" fill="#252525"><svg xmlns="http://www.w3.org/2000/svg" width="23" height="32" viewBox="1.605 1.716 20.79 29.568"><path paint-order="stroke fill markers" fill-rule="evenodd" d="M12 1.716c-5.732 0-10.395 4.663-10.395 10.395 0 1.936.536 3.826 1.552 5.466l8.251 13.297c.158.255.437.41.736.41h.007a.866.866 0 0 0 .736-.421l8.042-13.426a10.383 10.383 0 0 0 1.466-5.326c0-5.732-4.663-10.395-10.395-10.395zm7.442 14.831l-7.31 12.207-7.503-12.09a8.653 8.653 0 0 1-1.303-4.553c0-4.777 3.897-8.674 8.674-8.674 4.776 0 8.668 3.897 8.668 8.674 0 1.566-.428 3.1-1.226 4.436zM12 6.913a5.203 5.203 0 0 0-5.198 5.198A5.19 5.19 0 0 0 12 17.308c2.94 0 5.197-2.38 5.197-5.197A5.203 5.203 0 0 0 12 6.913zm0 8.674a3.48 3.48 0 0 1-3.477-3.476A3.489 3.489 0 0 1 12 8.634c1.91 0 3.47 1.566 3.47 3.477A3.473 3.473 0 0 1 12 15.587z"/></svg></svg>