<svg id="Warstwa_2" data-name="Warstwa 2" xmlns="http://www.w3.org/2000/svg" width="48.452" height="16.227" viewBox="0 0 48.452 16.227">
  <g id="Layer_1" data-name="Layer 1" transform="translate(0 0)">
    <path id="Path_28" data-name="Path 28" d="M.311,7.359,7.355.315a1.07,1.07,0,0,1,1.51,0L9.5.955a1.06,1.06,0,0,1,.312.753,1.081,1.081,0,0,1-.312.764L5.395,6.59h42a1.041,1.041,0,0,1,1.054,1.051v.9a1.082,1.082,0,0,1-1.054,1.1H5.348L9.5,13.782a1.057,1.057,0,0,1,0,1.5l-.639.638a1.07,1.07,0,0,1-1.51,0L.311,8.875a1.076,1.076,0,0,1,0-1.515Z" transform="translate(0.001 -0.004)" fill="#fff"/>
  </g>
</svg>
