<svg xmlns="http://www.w3.org/2000/svg" width="16" height="13.311" viewBox="0 0 16 13.311">
  <g id="next_2_" data-name="next (2)" transform="translate(0 -41.346)">
    <g id="Group_3" data-name="Group 3" transform="translate(0 41.346)">
      <path id="Path_6" data-name="Path 6" d="M15.744,47.38,9.966,41.6a.878.878,0,0,0-1.238,0l-.525.525a.869.869,0,0,0-.256.619.886.886,0,0,0,.256.626l3.371,3.378H.864A.855.855,0,0,0,0,47.611v.742a.887.887,0,0,0,.864.9H11.612L8.2,52.649a.867.867,0,0,0,0,1.23l.525.523a.878.878,0,0,0,1.238,0l5.778-5.778a.883.883,0,0,0,0-1.243Z" transform="translate(0 -41.346)" fill="#c4a66a"/>
    </g>
  </g>
</svg>
