<svg id="Warstwa_2" data-name="Warstwa 2" xmlns="http://www.w3.org/2000/svg" width="48.452" height="16.227" viewBox="0 0 48.452 16.227">
  <g id="Layer_1" data-name="Layer 1">
    <path id="Path_28" data-name="Path 28" d="M48.139,7.359,41.095.315a1.07,1.07,0,0,0-1.51,0l-.639.64a1.06,1.06,0,0,0-.312.753,1.081,1.081,0,0,0,.312.764L43.055,6.59h-42A1.041,1.041,0,0,0,0,7.641v.9a1.082,1.082,0,0,0,1.054,1.1H43.1l-4.156,4.141a1.057,1.057,0,0,0,0,1.5l.639.638a1.07,1.07,0,0,0,1.51,0l7.044-7.044a1.076,1.076,0,0,0,0-1.515Z" transform="translate(0.001 -0.004)" fill="#fff"/>
  </g>
</svg>
