<svg id="_004-people" data-name="004-people" xmlns="http://www.w3.org/2000/svg" width="48.027" height="44.047" viewBox="0 0 48.027 44.047">
  <g id="Group_26" data-name="Group 26" transform="translate(0 0)">
    <path id="Path_35" data-name="Path 35" d="M47.027,41.25H45.061V40.234a2.519,2.519,0,0,0-1.734-2.39l-.078-.023a12.027,12.027,0,0,1-2.031-.793c-1.8-.685-2.267-1.179-2.388-1.412,0-.009-.007-.018-.012-.026l-.01-1.572a7.781,7.781,0,0,0,1.649-4.552h0a8.154,8.154,0,0,0-.082-4.363,4.306,4.306,0,0,0-2.783-2.2s-.116-.523,1.111-1.26c.205-.123-.97-.429-2.6-.429-2.48,0-6.008.714-7.267,3.882a10.4,10.4,0,0,0-.2,4.869l0,0a8,8,0,0,0,1.628,4.053l-.01,1.572a.106.106,0,0,0-.012.026c-.12.233-.589.727-2.388,1.412a12.1,12.1,0,0,1-2.031.793l-.078.023a2.518,2.518,0,0,0-1.736,2.39V41.25H22.042v-.937a2.446,2.446,0,0,0-1.629-2.327l-.073-.022a11.24,11.24,0,0,1-1.908-.772l-.058-.023a6.675,6.675,0,0,0,3.068-1.291l.789-.757-.824-.719c-.753-.656-.929-2.489-1.1-4.261a15.206,15.206,0,0,0-1.326-5.773c-1.13-2.068-3.134-3.12-5.96-3.128-2.821.008-4.824,1.06-5.954,3.127A15.212,15.212,0,0,0,5.738,30.14c-.171,1.773-.347,3.606-1.1,4.261l-.824.719.789.757A6.677,6.677,0,0,0,7.67,37.168l-.058.023a11.213,11.213,0,0,1-1.908.772l-.073.022A2.446,2.446,0,0,0,4,40.313v.937H1a1,1,0,0,0-1,1v4a1,1,0,0,0,1,1H2V64.263a1,1,0,0,0,1,1H45.025a1,1,0,0,0,1-1V47.253h1a1,1,0,0,0,1-1v-4A1,1,0,0,0,47.027,41.25ZM32.8,23.81a8.249,8.249,0,0,1,2.817-.583.965.965,0,0,0,.021.106l.273,1.241,1.238.281a2.486,2.486,0,0,1,.24.086,18.636,18.636,0,0,1-2.854.249,18.327,18.327,0,0,1-3.248-.327A4.06,4.06,0,0,1,32.8,23.81ZM31.272,26.9a19.98,19.98,0,0,0,3.266.3,20.769,20.769,0,0,0,3.271-.29,4.928,4.928,0,0,1,.648,2.555,6.013,6.013,0,0,1-1.618,3.816,4.255,4.255,0,0,1-2.3,1.57,4.265,4.265,0,0,1-2.3-1.57,6.021,6.021,0,0,1-1.618-3.816A4.907,4.907,0,0,1,31.272,26.9ZM26.016,40.234a.518.518,0,0,1,.339-.482l.012,0a10.036,10.036,0,0,0,1.889-.706c.129-.063.233-.112.315-.144,1.924-.734,2.99-1.464,3.454-2.369h0c.028-.053.047-.1.062-.132l.167-.369v-.061a4.24,4.24,0,0,0,2.282.876,4.245,4.245,0,0,0,2.284-.876v.052l.161.365c.015.036.038.086.067.146.466.9,1.53,1.635,3.456,2.369.082.031.185.08.315.143a10,10,0,0,0,1.889.706l.01,0a.519.519,0,0,1,.34.482V41.25H26.016V40.234Zm-7.608-8.96a10.24,10.24,0,0,0,.849,3.553,12.651,12.651,0,0,1-3.079.683l0-.248A8.666,8.666,0,0,0,18.407,31.273ZM15.082,33.49a4.014,4.014,0,0,1-2.059,1.5,4.008,4.008,0,0,1-2.061-1.5,6.1,6.1,0,0,1-1.488-3.43,13.348,13.348,0,0,0,4.555-2.907,11.489,11.489,0,0,0,2.4,1.316,5.609,5.609,0,0,1,.155,1.329A5.952,5.952,0,0,1,15.082,33.49ZM16.5,24.364a3.845,3.845,0,0,1,.723.962,6.626,6.626,0,0,1,.572,1.5,8.757,8.757,0,0,1-2.359-1.137C15.892,25.169,16.251,24.7,16.5,24.364Zm-7.68.962c.487-.892,1.453-2.078,4.2-2.086a7.086,7.086,0,0,1,1.68.187c-1.062,1.385-3.636,4.332-6.757,4.99A9.166,9.166,0,0,1,8.82,25.326Zm-2.033,9.5a10.217,10.217,0,0,0,.848-3.553,8.67,8.67,0,0,0,2.232,3.987l0,.248A12.651,12.651,0,0,1,6.788,34.827ZM6,40.313a.457.457,0,0,1,.256-.427h0a9.255,9.255,0,0,0,1.8-.7c.119-.059.214-.106.285-.134,1.836-.726,2.854-1.45,3.3-2.349l0,0,0-.005.03-.065a3.1,3.1,0,0,0,1.34.364,3.1,3.1,0,0,0,1.34-.364c.01.023.023.05.037.079.446.9,1.464,1.62,3.3,2.345.07.027.164.074.284.133a9.254,9.254,0,0,0,1.8.7h0a.457.457,0,0,1,.256.427v.937H6ZM16.009,63.262H4V47.253H16.009v16.01Zm14.008,0H18.01V47.253H30.017Zm14.009,0H32.019V47.253H44.026Zm2-18.01H2v-2H46.025v2Z" transform="translate(0 -21.216)" fill="#c4a66a"/>
  </g>
</svg>
