<svg id="mouse-clicker" xmlns="http://www.w3.org/2000/svg" width="31.325" height="53.247" viewBox="0 0 31.325 53.247">
  <path id="Path_26" data-name="Path 26" d="M15.662,0A15.68,15.68,0,0,0,0,15.662V37.585a15.662,15.662,0,0,0,31.325,0V15.662A15.68,15.68,0,0,0,15.662,0ZM28.13,37.585a12.468,12.468,0,1,1-24.935,0V15.662a12.468,12.468,0,1,1,24.935,0Zm0,0" fill="#c4a66a"/>
  <path id="Path_27" data-name="Path 27" d="M136.843,101.852a1.6,1.6,0,0,0-1.6,1.6V110.8a1.6,1.6,0,1,0,3.195,0v-7.352A1.6,1.6,0,0,0,136.843,101.852Zm0,0" transform="translate(-121.18 -91.26)" fill="#c4a66a"/>
</svg>
