<svg width="25" height="25" viewBox="0 0 25 25" fill="none" xmlns="http://www.w3.org/2000/svg">
<path fill-rule="evenodd" clip-rule="evenodd" d="M12.4141 24.9998L12.4261 24.9998H12.4192L12.4141 24.9998ZM12.5808 24.9998H12.5739L12.5859 24.9998L12.5808 24.9998ZM12.7018 24.9984L12.6952 24.9985L12.7086 24.9983L12.7018 24.9984ZM12.2914 24.9983L12.3048 24.9985L12.2982 24.9984L12.2914 24.9983ZM12.1686 24.9957L12.1837 24.9961L12.1776 24.9959L12.1686 24.9957ZM12.8224 24.9959L12.8163 24.9961L12.8314 24.9957L12.8224 24.9959ZM12.8626 24.9949L12.8528 24.9952L12.8682 24.9947L12.8626 24.9949ZM12.1318 24.9947L12.1472 24.9952L12.1374 24.9949L12.1318 24.9947ZM12.9428 24.9923L12.9374 24.9925L12.9542 24.9919L12.9428 24.9923ZM12.0458 24.9919L12.0626 24.9925L12.0572 24.9923L12.0458 24.9919ZM12.0092 24.9906L12.0269 24.9912L12.0171 24.9909L12.0092 24.9906ZM12.9829 24.9909L12.9731 24.9912L12.9908 24.9906L12.9829 24.9909ZM11.887 24.9853L11.9062 24.9861L11.8971 24.9857L11.887 24.9853ZM13.1029 24.9857L13.0938 24.9861L13.113 24.9853L13.1029 24.9857ZM11.8514 24.9834L11.8708 24.9844L11.8572 24.9838L11.8514 24.9834ZM13.1428 24.9838L13.1292 24.9844L13.1486 24.9834L13.1428 24.9838ZM13.2226 24.9794L13.2148 24.9799L13.2346 24.9788L13.2226 24.9794ZM11.7654 24.9788L11.7852 24.9799L11.7774 24.9794L11.7654 24.9788ZM11.7301 24.9767L11.7499 24.9778L11.7375 24.9771L11.7301 24.9767ZM13.2625 24.9771L13.2501 24.9778L13.2699 24.9767L13.2625 24.9771ZM13.342 24.9721L13.3361 24.9725L13.355 24.9712L13.342 24.9721ZM11.645 24.9712L11.6639 24.9725L11.658 24.9721L11.645 24.9712ZM11.6098 24.9688L11.6284 24.9701L11.6182 24.9694L11.6098 24.9688ZM13.3818 24.9694L13.3716 24.9701L13.3902 24.9688L13.3818 24.9694ZM13.5008 24.9605L13.4937 24.961L13.5088 24.9598L13.5008 24.9605ZM11.4912 24.9598L11.5063 24.961L11.4992 24.9605L11.4912 24.9598ZM10.5469 24.848C4.57427 23.9093 0 18.7346 0 12.5C0 5.60109 5.60107 0 12.5 0C19.3989 0 25 5.60109 25 12.5C25 18.7346 20.4257 23.9093 14.4531 24.848V16.1133H17.3657L17.9199 12.5H14.4531V10.1552C14.4531 9.16672 14.9374 8.20314 16.4902 8.20314H18.0664V5.12696C18.0664 5.12696 16.6359 4.88282 15.2683 4.88282C12.413 4.88282 10.5469 6.61329 10.5469 9.74611V12.5H7.37305V16.1133H10.5469V24.848Z" fill="black"/>
</svg>
