<svg width="101" height="101" xmlns="http://www.w3.org/2000/svg" xmlns:xlink="http://www.w3.org/1999/xlink" xmlns:svgjs="http://svgjs.com/svgjs" viewBox="0.03 0 100.941 101" fill="#cca375"><svg xmlns="http://www.w3.org/2000/svg" width="101" height="101" viewBox="1.59 1.72 98.501 98.559"><path paint-order="stroke fill markers" fill-rule="evenodd" d="M86.218 16.77C76.854 7.065 64.284 1.72 50.825 1.72a2.097 2.097 0 0 0 0 4.192c12.312 0 23.81 4.89 32.378 13.771C91.807 28.6 96.306 40.36 95.872 52.791c-.902 23.36-19.897 42.365-43.235 43.267-12.432.43-24.185-4.066-33.096-12.675-8.874-8.574-13.76-20.08-13.76-32.4 0-12.874 5.062-22.202 9.323-27.776.529-.705 1.324-1.13 2.24-1.195.923-.069 1.824.26 2.46.895L65.057 68.19a2.097 2.097 0 0 0 2.963-2.964L22.765 19.942c-1.494-1.496-3.57-2.258-5.719-2.113-2.115.151-4.045 1.193-5.284 2.846C7.123 26.748 1.59 36.936 1.59 50.984c0 13.467 5.342 26.044 15.04 35.415 9.306 8.99 21.443 13.88 34.36 13.88.599 0 1.2-.01 1.802-.032 25.518-.986 46.28-21.76 47.268-47.302.475-13.586-4.44-26.434-13.842-36.175z"/></svg></svg>