<svg id="_001-place" data-name="001-place" xmlns="http://www.w3.org/2000/svg" width="20.84" height="25.76" viewBox="0 0 20.84 25.76">
  <g id="Group_12" data-name="Group 12" transform="translate(0)">
    <g id="Group_11" data-name="Group 11">
      <path id="Path_29" data-name="Path 29" d="M67.857,4.479a10.4,10.4,0,0,0-17.1,0,10.4,10.4,0,0,0-1.211,9.584,8.192,8.192,0,0,0,1.51,2.493l7.566,8.887a.9.9,0,0,0,1.371,0l7.564-8.884a8.2,8.2,0,0,0,1.51-2.489A10.4,10.4,0,0,0,67.857,4.479Zm-.478,8.959a6.425,6.425,0,0,1-1.188,1.946l0,0-6.88,8.081-6.884-8.086a6.429,6.429,0,0,1-1.19-1.952A8.6,8.6,0,0,1,52.238,5.5a8.6,8.6,0,0,1,14.137,0A8.606,8.606,0,0,1,67.379,13.438Z" transform="translate(-48.886 0)" fill="#fff"/>
    </g>
  </g>
  <g id="Group_14" data-name="Group 14" transform="translate(5.377 5.344)">
    <g id="Group_13" data-name="Group 13">
      <path id="Path_30" data-name="Path 30" d="M160.8,106.219a5.044,5.044,0,1,0,5.044,5.044A5.05,5.05,0,0,0,160.8,106.219Zm0,8.286a3.242,3.242,0,1,1,3.242-3.242A3.246,3.246,0,0,1,160.8,114.505Z" transform="translate(-155.754 -106.219)" fill="#fff"/>
    </g>
  </g>
</svg>
