<svg id="_002-idea" data-name="002-idea" xmlns="http://www.w3.org/2000/svg" width="59.476" height="56" viewBox="0 0 59.476 56">
  <path id="Path_41" data-name="Path 41" d="M151.913,132.631A14.039,14.039,0,1,0,135.6,155.084v7.285a1.2,1.2,0,0,0,1.16,1.233h5.052c.049,0,.1.01.148.01s.1-.01.149-.01h5.275a1.2,1.2,0,0,0,1.181-1.211v-7.267a14.08,14.08,0,0,0,7.551-12.451,13.928,13.928,0,0,0-4.2-10.041Zm-5.063,20.621a1.244,1.244,0,0,0-.733,1.112v6.791h-2.935V146.478h1.345a1.223,1.223,0,0,0,0-2.446h-5.015a1.223,1.223,0,0,0,0,2.446h1.223v14.677h-2.691v-6.841a1.242,1.242,0,0,0-.747-1.118,11.584,11.584,0,1,1,16.382-10.525,11.715,11.715,0,0,1-6.83,10.581Zm0,0" transform="translate(-112.343 -112.86)" fill="#1f698b"/>
  <path id="Path_42" data-name="Path 42" d="M211.211,437.988h-7.5a1.223,1.223,0,1,0,0,2.446h7.5a1.223,1.223,0,1,0,0-2.446Zm0,0" transform="translate(-177.725 -384.434)" fill="#1f698b"/>
  <path id="Path_43" data-name="Path 43" d="M407.915,205.819a1.224,1.224,0,0,0-1.73,0,1.2,1.2,0,0,0-.009,1.7l.012.012,1.316,1.295h-4.987a1.223,1.223,0,1,0,0,2.446H407.5l-1.316,1.329a1.231,1.231,0,0,0,.863,2.1,1.216,1.216,0,0,0,.863-.355l3.412-3.4a1.222,1.222,0,0,0,0-1.728l0,0Zm0,0" transform="translate(-352.211 -180.349)" fill="#1f698b"/>
  <path id="Path_44" data-name="Path 44" d="M207.442,5.633l1.311-1.316V9.3a1.223,1.223,0,0,0,2.446,0V4.317l1.312,1.316a1.223,1.223,0,1,0,1.739-1.72l-.007-.007-3.4-3.413a1.224,1.224,0,0,0-1.73,0l0,0-3.4,3.413a1.223,1.223,0,0,0,1.732,1.727Zm0,0" transform="translate(-180.239 -0.134)" fill="#1f698b"/>
  <path id="Path_45" data-name="Path 45" d="M4.184,211.19H9.171a1.223,1.223,0,0,0,0-2.446H4.184L5.5,207.45a1.219,1.219,0,0,0-1.716-1.731l-.011.011-3.412,3.4a1.225,1.225,0,0,0,0,1.732l0,0,3.412,3.4a1.223,1.223,0,0,0,1.73,0,1.244,1.244,0,0,0,0-1.747Zm0,0" transform="translate(-0.001 -180.263)" fill="#1f698b"/>
  <path id="Path_46" data-name="Path 46" d="M358.884,353.032h0a1.21,1.21,0,0,0-1.221,1.2v.012l0,1.85-3.526-3.53a1.222,1.222,0,1,0-1.73,1.726l3.527,3.523-1.858-.008h0a1.222,1.222,0,0,0-.026,2.444h.024l4.818,0h0a1.209,1.209,0,0,0,1.223-1.2v-.018l-.008-4.8a1.208,1.208,0,0,0-1.213-1.2Zm0,0" transform="translate(-308.991 -309.14)" fill="#1f698b"/>
  <path id="Path_47" data-name="Path 47" d="M74.259,352.531l-3.526,3.526,0-1.842a1.209,1.209,0,0,0-1.209-1.209h-.015a1.21,1.21,0,0,0-1.223,1.2v.01l-.008,4.81a1.2,1.2,0,0,0,.358.855,1.209,1.209,0,0,0,.865.346h4.82a1.223,1.223,0,1,0,0-2.446h0l-1.858.007,3.527-3.525a1.222,1.222,0,1,0-1.73-1.728Zm0,0" transform="translate(-59.93 -309.115)" fill="#1f698b"/>
  <path id="Path_48" data-name="Path 48" d="M353.271,76.106a1.219,1.219,0,0,0,.865-.358l3.526-3.526,0,1.869a1.232,1.232,0,0,0,1.221,1.236h0a1.233,1.233,0,0,0,1.223-1.232l.008-4.823a1.291,1.291,0,0,0-.358-.9,1.25,1.25,0,0,0-.865-.387h0l-4.818.034a1.206,1.206,0,1,0-.022,2.412h.026l1.858.027L352.406,74a1.235,1.235,0,0,0,.865,2.1Zm0,0" transform="translate(-308.99 -59.689)" fill="#1f698b"/>
  <path id="Path_49" data-name="Path 49" d="M69.512,75.327h0a1.232,1.232,0,0,0,1.221-1.236l0-1.863,3.526,3.524a1.224,1.224,0,0,0,1.73-1.732l-3.527-3.557,1.858-.027h0a1.2,1.2,0,0,0,1.223-1.172v-.018a1.233,1.233,0,0,0-1.221-1.236l-4.818-.019h0a1.269,1.269,0,0,0-1.223,1.265l.009,4.836a1.238,1.238,0,0,0,1.223,1.238Zm0,0" transform="translate(-59.93 -59.689)" fill="#1f698b"/>
</svg>
