<svg id="_003-chat" data-name="003-chat" xmlns="http://www.w3.org/2000/svg" width="25.309" height="25.76" viewBox="0 0 25.309 25.76">
  <g id="Group_24" data-name="Group 24" transform="translate(0)">
    <g id="Group_23" data-name="Group 23">
      <path id="Path_33" data-name="Path 33" d="M17.145,0a12.655,12.655,0,0,0-11.8,17.27,12.513,12.513,0,0,0,1.773,3.117l-1.73,4.027a.965.965,0,0,0,1.053,1.331L12.97,24.6a12.421,12.421,0,0,0,4.142.709A12.655,12.655,0,1,0,17.145,0Zm-.033,23.38a10.429,10.429,0,0,1-3.705-.675.956.956,0,0,0-.513-.05l-5.028.882,1.257-2.927A.965.965,0,0,0,8.966,19.6a10.491,10.491,0,0,1-1.824-3.032,10.725,10.725,0,1,1,9.971,6.815Z" transform="translate(-4.474)" fill="#fff"/>
    </g>
  </g>
  <g id="Group_26" data-name="Group 26" transform="translate(3.795 10.323)">
    <g id="Group_25" data-name="Group 25">
      <path id="Path_34" data-name="Path 34" d="M82.473,205.184a2.573,2.573,0,1,0,2.573,2.573A2.576,2.576,0,0,0,82.473,205.184Zm0,3.216a.643.643,0,1,1,.643-.643A.644.644,0,0,1,82.473,208.4Z" transform="translate(-79.9 -205.184)" fill="#fff"/>
    </g>
  </g>
  <g id="Group_28" data-name="Group 28" transform="translate(10.098 10.323)">
    <g id="Group_27" data-name="Group 27">
      <path id="Path_35" data-name="Path 35" d="M207.757,205.184a2.573,2.573,0,1,0,2.573,2.573A2.576,2.576,0,0,0,207.757,205.184Zm0,3.216a.643.643,0,1,1,.643-.643A.644.644,0,0,1,207.757,208.4Z" transform="translate(-205.184 -205.184)" fill="#fff"/>
    </g>
  </g>
  <g id="Group_30" data-name="Group 30" transform="translate(16.401 10.323)">
    <g id="Group_29" data-name="Group 29">
      <path id="Path_36" data-name="Path 36" d="M333.04,205.184a2.573,2.573,0,1,0,2.573,2.573A2.576,2.576,0,0,0,333.04,205.184Zm0,3.216a.643.643,0,1,1,.643-.643A.644.644,0,0,1,333.04,208.4Z" transform="translate(-330.467 -205.184)" fill="#fff"/>
    </g>
  </g>
</svg>
