<svg id="_002-envelope" data-name="002-envelope" xmlns="http://www.w3.org/2000/svg" width="24.572" height="25.759" viewBox="0 0 24.572 25.759">
  <g id="Group_16" data-name="Group 16" transform="translate(0 0)">
    <g id="Group_15" data-name="Group 15">
      <path id="Path_31" data-name="Path 31" d="M36.069,9.22,24.593.174a.81.81,0,0,0-1,0L12.115,9.22a.81.81,0,0,0-.309.636V24.949a.81.81,0,0,0,.81.81H35.567a.81.81,0,0,0,.81-.81V9.856A.81.81,0,0,0,36.069,9.22Zm-1.311,14.92H13.426V10.249L24.092,1.842l10.666,8.407Z" transform="translate(-11.806 0)" fill="#fff"/>
    </g>
  </g>
  <g id="Group_18" data-name="Group 18" transform="translate(0.357 17.605)">
    <g id="Group_17" data-name="Group 17">
      <path id="Path_32" data-name="Path 32" d="M36.549,350.165a.81.81,0,0,0-.588-.253H25.7a.809.809,0,0,0-.588.253l-6.21,6.561,1.176,1.114,5.971-6.308h9.563l5.971,6.308,1.177-1.114Z" transform="translate(-18.901 -349.912)" fill="#fff"/>
    </g>
  </g>
  <g id="Group_20" data-name="Group 20" transform="translate(16.767 9.396)">
    <g id="Group_19" data-name="Group 19" transform="translate(0 0)">
      <rect id="Rectangle_12" data-name="Rectangle 12" width="10.634" height="1.62" transform="matrix(0.597, -0.803, 0.803, 0.597, 0, 8.533)" fill="#fff"/>
    </g>
  </g>
  <g id="Group_22" data-name="Group 22" transform="translate(0.134 9.398)">
    <g id="Group_21" data-name="Group 21" transform="translate(0 0)">
      <rect id="Rectangle_13" data-name="Rectangle 13" width="1.62" height="10.649" transform="translate(0 0.969) rotate(-36.755)" fill="#fff"/>
    </g>
  </g>
</svg>
