<svg id="_004-file" data-name="004-file" xmlns="http://www.w3.org/2000/svg" width="49.414" height="56.508" viewBox="0 0 49.414 56.508">
  <path id="Path_54" data-name="Path 54" d="M38.863.379A1.229,1.229,0,0,0,37.986,0H16.459a4.963,4.963,0,0,0-4.951,4.909V8.562H5.451A4.991,4.991,0,0,0,.5,13.5V51.6a4.963,4.963,0,0,0,4.951,4.909h28.5A4.963,4.963,0,0,0,38.905,51.6V47.946h6.057A4.991,4.991,0,0,0,49.913,43v-30.8a1.264,1.264,0,0,0-.375-.856Zm.287,3.876,6.589,6.752h-5.76a.846.846,0,0,1-.829-.8ZM36.459,51.6a2.514,2.514,0,0,1-2.5,2.462H5.451a2.514,2.514,0,0,1-2.5-2.462V13.5a2.542,2.542,0,0,1,2.5-2.495h6.057V43a4.991,4.991,0,0,0,4.951,4.941h20Zm8.5-6.1h-28.5A2.542,2.542,0,0,1,13.954,43V4.909a2.514,2.514,0,0,1,2.5-2.462H36.7v7.767a3.293,3.293,0,0,0,3.276,3.241h7.488V43a2.542,2.542,0,0,1-2.5,2.495Zm0,0" transform="translate(-0.5)" fill="#1f698b"/>
  <path id="Path_55" data-name="Path 55" d="M165.351,311H142.4a1.223,1.223,0,0,0,0,2.446h22.948a1.223,1.223,0,0,0,0-2.446Zm0,0" transform="translate(-123.973 -272.961)" fill="#1f698b"/>
  <path id="Path_56" data-name="Path 56" d="M142.4,269.446h13.738a1.223,1.223,0,1,0,0-2.446H142.4a1.223,1.223,0,0,0,0,2.446Zm0,0" transform="translate(-123.973 -234.343)" fill="#1f698b"/>
  <path id="Path_57" data-name="Path 57" d="M202.061,106.317H199.3a1.226,1.226,0,0,0-.84,2.117l6.9,6.518a1.223,1.223,0,1,0,1.72-1.74l-.04-.038-4.671-4.428a5.325,5.325,0,0,0,4.912-4.143h1.666a1.223,1.223,0,1,0,0-2.446h-1.666a6.634,6.634,0,0,0-.723-1.712h2.388a1.223,1.223,0,1,0,0-2.446H199.3a1.223,1.223,0,0,0,0,2.446h2.76a2.97,2.97,0,0,1,2.645,1.712h-5.4a1.223,1.223,0,0,0,0,2.446h5.4a2.969,2.969,0,0,1-2.644,1.712Zm0,0" transform="translate(-173.913 -86.014)" fill="#1f698b"/>
</svg>
