<svg id="_005-bar-chart" data-name="005-bar-chart" xmlns="http://www.w3.org/2000/svg" width="60.206" height="47.658" viewBox="0 0 60.206 47.658">
  <path id="Path_58" data-name="Path 58" d="M175.029,158.989a1.223,1.223,0,0,0-1.223-1.223h-7.583A1.223,1.223,0,0,0,165,158.989v21.282a1.223,1.223,0,0,0,1.223,1.223h7.583a1.223,1.223,0,0,0,1.223-1.223Zm-7.583,1.223h5.137v18.836h-5.137Zm0,0" transform="translate(-144.819 -138.484)" fill="#1f698b"/>
  <path id="Path_59" data-name="Path 59" d="M59.029,251.989a1.223,1.223,0,0,0-1.223-1.223H50.223A1.223,1.223,0,0,0,49,251.989V261.9a1.223,1.223,0,0,0,1.223,1.223h7.583a1.223,1.223,0,0,0,1.223-1.223Zm-7.583,1.223h5.015v7.461H51.446Zm0,0" transform="translate(-43.007 -220.109)" fill="#1f698b"/>
  <path id="Path_60" data-name="Path 60" d="M291.029,216.989a1.223,1.223,0,0,0-1.223-1.223h-7.583A1.223,1.223,0,0,0,281,216.989v14.188a1.223,1.223,0,0,0,1.223,1.223h7.583a1.223,1.223,0,0,0,1.223-1.223Zm-7.583,1.223h5.137v11.742h-5.137Zm0,0" transform="translate(-246.631 -189.39)" fill="#1f698b"/>
  <path id="Path_61" data-name="Path 61" d="M96.53.117a5.623,5.623,0,0,0-5.1,8L86.555,12.2a5.615,5.615,0,0,0-8.523.309L72.393,8.875c0-.066.005-.131.005-.2a5.625,5.625,0,1,0-10.69,2.448L55.8,16.9a5.637,5.637,0,1,0,1.96,1.5l5.478-5.355a5.619,5.619,0,0,0,8.483-1.7l5.231,3.37A5.625,5.625,0,1,0,87.8,14.348l5.123-4.293A5.624,5.624,0,1,0,96.53.118ZM53.444,25.185a3.179,3.179,0,1,1,3.179-3.179A3.179,3.179,0,0,1,53.444,25.185ZM66.774,11.856a3.179,3.179,0,1,1,3.179-3.18,3.179,3.179,0,0,1-3.179,3.18Zm15.652,7.337a3.179,3.179,0,1,1,3.179-3.179A3.179,3.179,0,0,1,82.426,19.193ZM96.53,8.922a3.179,3.179,0,1,1,3.179-3.18A3.179,3.179,0,0,1,96.53,8.922Zm0,0" transform="translate(-41.95 -0.117)" fill="#1f698b"/>
  <path id="Path_62" data-name="Path 62" d="M48.9,79.82H2.446V40.637a1.223,1.223,0,0,0-2.446,0V81a1.236,1.236,0,0,0,1.194,1.266H48.9a1.223,1.223,0,0,0,0-2.446Zm0,0" transform="translate(0 -34.608)" fill="#1f698b"/>
</svg>
