<svg id="_003-file-2" data-name="003-file-2" xmlns="http://www.w3.org/2000/svg" width="49.414" height="56.508" viewBox="0 0 49.414 56.508">
  <path id="Path_50" data-name="Path 50" d="M38.863.379A1.229,1.229,0,0,0,37.986,0H16.459a4.963,4.963,0,0,0-4.951,4.909V8.562H5.451A4.991,4.991,0,0,0,.5,13.5V51.6a4.963,4.963,0,0,0,4.951,4.909h28.5A4.963,4.963,0,0,0,38.905,51.6V47.946h6.057A4.991,4.991,0,0,0,49.913,43v-30.8a1.264,1.264,0,0,0-.375-.856Zm.287,3.876,6.589,6.752h-5.76a.846.846,0,0,1-.829-.8ZM36.459,51.6a2.514,2.514,0,0,1-2.5,2.462H5.451a2.514,2.514,0,0,1-2.5-2.462V13.5a2.542,2.542,0,0,1,2.5-2.495h6.057V43a4.991,4.991,0,0,0,4.951,4.941h20Zm8.5-6.1h-28.5A2.542,2.542,0,0,1,13.954,43V4.909a2.514,2.514,0,0,1,2.5-2.462H36.7v7.767a3.293,3.293,0,0,0,3.276,3.241h7.488V43a2.542,2.542,0,0,1-2.5,2.495Zm0,0" transform="translate(-0.5)" fill="#1f698b"/>
  <path id="Path_51" data-name="Path 51" d="M165.351,311H142.4a1.223,1.223,0,0,0,0,2.446h22.948a1.223,1.223,0,0,0,0-2.446Zm0,0" transform="translate(-123.973 -272.961)" fill="#1f698b"/>
  <path id="Path_52" data-name="Path 52" d="M142.4,269.446h13.738a1.223,1.223,0,1,0,0-2.446H142.4a1.223,1.223,0,0,0,0,2.446Zm0,0" transform="translate(-123.973 -234.343)" fill="#1f698b"/>
  <path id="Path_53" data-name="Path 53" d="M214.566,100.689a2.145,2.145,0,0,1-2.143-2.143,1.223,1.223,0,0,0-2.446,0,4.6,4.6,0,0,0,3.244,4.388v1.024a1.223,1.223,0,0,0,2.446,0V103a4.59,4.59,0,0,0-1.1-9.045,2.143,2.143,0,1,1,2.143-2.144,1.223,1.223,0,0,0,2.446,0,4.6,4.6,0,0,0-3.489-4.455V86.223a1.223,1.223,0,0,0-2.446,0v1.2a4.59,4.59,0,0,0,1.345,8.978,2.143,2.143,0,1,1,.033,4.287h-.032Zm0,0" transform="translate(-184.355 -74.603)" fill="#1f698b"/>
</svg>
