<svg width="95" height="89" xmlns="http://www.w3.org/2000/svg" xmlns:xlink="http://www.w3.org/1999/xlink" xmlns:svgjs="http://svgjs.com/svgjs" viewBox="0 0.12 95 88.76" fill="#fff"><svg xmlns="http://www.w3.org/2000/svg" width="95" height="89" viewBox="1.408 1.747 93.184 87.064"><path paint-order="stroke fill markers" fill-rule="evenodd" d="M72.811 41.588a1.55 1.55 0 00-1.867-1.425c-15.995 3.344-21.358-6.104-21.573-6.5a1.617 1.617 0 00-2.742 0c-.053.099-5.442 9.869-21.573 6.5a1.55 1.55 0 00-1.867 1.425c-.02.319-1.7 32.122 24.035 47.014.48.279 1.072.279 1.553 0C74.51 73.71 72.83 41.907 72.81 41.588zM48 85.449C28.08 73.358 26.345 50.12 26.266 43.55 38.918 45.58 45.412 40.154 48 37.07c2.586 3.086 9.094 8.516 21.735 6.477C69.665 50.115 67.956 73.34 48 85.45zM20.045 56.938a1.554 1.554 0 000-3.11H2.96a1.554 1.554 0 000 3.11h17.084zm1.553 6.219a1.554 1.554 0 000-3.11H4.514a1.554 1.554 0 000 3.11h17.084zm2.651 5.764a1.557 1.557 0 00-1.098-2.655H6.067a1.554 1.554 0 000 3.11h17.084a1.55 1.55 0 001.098-.455zm2.008 3.565H9.173a1.554 1.554 0 000 3.109h17.084a1.554 1.554 0 000-3.11zm66.782-18.658H75.955a1.554 1.554 0 000 3.11H93.04a1.554 1.554 0 000-3.11zm-1.553 6.22H74.402a1.554 1.554 0 000 3.109h17.084a1.554 1.554 0 000-3.11zm-1.553 6.219H72.849a1.551 1.551 0 00-1.553 1.555 1.555 1.555 0 001.553 1.554h17.084a1.554 1.554 0 100-3.11zm-3.107 6.219H69.743a1.554 1.554 0 000 3.109h17.083a1.554 1.554 0 000-3.11zm-27.72-18.099l-6.693-1.024-3.007-6.414a1.553 1.553 0 00-2.812 0l-3.008 6.414-6.693 1.024a1.553 1.553 0 00-.876 2.622l4.888 5.015-1.157 7.102a1.557 1.557 0 00.638 1.521 1.548 1.548 0 001.646.09L48 67.434l5.968 3.303a1.552 1.552 0 002.284-1.611l-1.157-7.102 4.888-5.015a1.556 1.556 0 00-.877-2.622zm-6.782 6.028a1.56 1.56 0 00-.422 1.336l.77 4.715-3.921-2.169a1.547 1.547 0 00-1.502 0l-3.92 2.17.768-4.716a1.556 1.556 0 00-.421-1.336l-3.325-3.412 4.524-.692a1.555 1.555 0 001.171-.876L48 51.268l1.953 4.167c.22.469.66.797 1.171.876l4.524.692-3.324 3.412zM26.08 27.405a3.076 3.076 0 003 2.324h37.84a3.141 3.141 0 001.532-5.863l-8.77-5.02h7.234a3.138 3.138 0 001.533-5.859L49.527 2.147a3.122 3.122 0 00-3.06.003l-18.91 10.834a3.138 3.138 0 001.527 5.862h7.233l-8.77 5.02a3.111 3.111 0 00-1.467 3.54zm3.015-11.719L47.989 4.85l18.927 10.887H54.25l-4.719-2.702h-.002a3.097 3.097 0 00-3.062 0l-4.717 2.7-12.656-.048zM48 15.74l18.92 10.88-37.831-.054 18.91-10.826z"/></svg></svg>