<svg width="172" height="39" viewBox="0 0 172 39" fill="none" xmlns="http://www.w3.org/2000/svg">
<path d="M50.032 24.28C49.9925 25.2674 49.7851 26.166 49.4099 26.9757C49.0544 27.7854 48.5705 28.5062 47.9583 29.1381C47.3264 29.7701 46.5167 30.3033 45.5292 30.7378C44.5418 31.1723 43.4754 31.3895 42.3299 31.3895C41.2635 31.3895 40.2366 31.2019 39.2491 30.8267C38.2617 30.4514 37.3928 29.8886 36.6423 29.1381C36.0696 28.5852 35.6055 27.9828 35.25 27.3311C34.9143 26.6597 34.6477 25.9586 34.4502 25.2279C34.2725 24.4972 34.154 23.7369 34.0947 22.9469C34.0355 22.1372 34.0059 21.3177 34.0059 20.4882C34.0059 19.6588 34.0355 18.8491 34.0947 18.0591C34.154 17.2494 34.2725 16.4792 34.4502 15.7485C34.6477 15.0178 34.9143 14.3266 35.25 13.6749C35.6055 13.0034 36.0696 12.3912 36.6423 11.8383C37.3928 11.0878 38.2617 10.525 39.2491 10.1498C40.2366 9.77453 41.2635 9.58691 42.3299 9.58691C43.4754 9.58691 44.5319 9.79428 45.4996 10.209C46.4871 10.604 47.2968 11.1174 47.9287 11.7494C48.5409 12.3814 49.0248 13.0923 49.3802 13.8823C49.7555 14.6722 49.9628 15.5609 50.0023 16.5483H47.277C47.2573 15.9756 47.1388 15.4424 46.9215 14.9487C46.724 14.455 46.4574 14.0106 46.1217 13.6157C45.707 13.1614 45.1738 12.7961 44.5221 12.5196C43.8703 12.2234 43.1396 12.0753 42.3299 12.0753C41.619 12.0753 40.9278 12.2135 40.2563 12.49C39.6046 12.7665 39.022 13.1614 38.5086 13.6749C38.0741 14.1291 37.7384 14.6327 37.5014 15.1857C37.2644 15.7386 37.0867 16.3212 36.9682 16.9334C36.8497 17.5259 36.7806 18.1282 36.7608 18.7404C36.7411 19.3527 36.7312 19.9352 36.7312 20.4882C36.7312 21.0412 36.7411 21.6238 36.7608 22.236C36.7806 22.8482 36.8497 23.4604 36.9682 24.0726C37.0867 24.6651 37.2644 25.2476 37.5014 25.8204C37.7384 26.3733 38.0741 26.867 38.5086 27.3015C39.022 27.815 39.6046 28.21 40.2563 28.4864C40.9278 28.7629 41.619 28.9012 42.3299 28.9012C43.1396 28.9012 43.8703 28.753 44.5221 28.4568C45.1935 28.1408 45.7366 27.7557 46.1513 27.3015C46.4871 26.9065 46.7537 26.4523 46.9511 25.9389C47.1684 25.4056 47.2869 24.8527 47.3066 24.28H50.032Z" fill="url(#paint0_linear_381_26)"/>
<path d="M69.6362 16.104C69.6362 14.7808 69.2313 13.8329 68.4216 13.2602C67.6317 12.6875 66.6146 12.4011 65.3705 12.4011H59.7717V19.7773H65.3705C65.9827 19.7773 66.5455 19.718 67.059 19.5995C67.5922 19.4613 68.0464 19.244 68.4216 18.9478C68.8166 18.6516 69.1129 18.2764 69.3103 17.8221C69.5276 17.3482 69.6362 16.7754 69.6362 16.104ZM69.5473 30.9748L65.5778 22.236H59.7717V30.9748H57.1352V9.97201H65.3705C66.6146 9.97201 67.6712 10.1399 68.5401 10.4756C69.4091 10.7916 70.1299 11.2458 70.7026 11.8383C71.2161 12.3715 71.6209 12.9837 71.9172 13.6749C72.2134 14.3661 72.3615 15.1758 72.3615 16.104C72.3615 17.0322 72.2233 17.8221 71.9468 18.4738C71.6703 19.1255 71.2753 19.718 70.7619 20.2512C70.4459 20.5869 70.0707 20.8832 69.6362 21.1399C69.2215 21.3769 68.7574 21.5744 68.2439 21.7324L72.4504 30.9748H69.5473Z" fill="url(#paint1_linear_381_26)"/>
<path d="M94.4636 23.2728C94.4636 24.5762 94.2858 25.7315 93.9304 26.7387C93.5749 27.7459 93.0614 28.5951 92.39 29.2863C91.7185 29.9577 90.9088 30.4712 89.9609 30.8267C89.0327 31.1821 87.9761 31.3599 86.7912 31.3599C85.6063 31.3599 84.5398 31.1821 83.5919 30.8267C82.6637 30.4712 81.8639 29.9577 81.1924 29.2863C80.521 28.5951 80.0075 27.7459 79.652 26.7387C79.2966 25.7315 79.1188 24.5762 79.1188 23.2728V9.97201H81.7553V23.332C81.7553 24.1615 81.8441 24.9218 82.0219 25.613C82.2194 26.3042 82.5156 26.8967 82.9106 27.3904C83.3056 27.8644 83.819 28.2396 84.451 28.5161C85.1027 28.7728 85.8828 28.9012 86.7912 28.9012C87.6996 28.9012 88.4698 28.7728 89.1018 28.5161C89.7535 28.2396 90.2769 27.8644 90.6718 27.3904C91.0668 26.8967 91.3532 26.3042 91.5309 25.613C91.7284 24.9218 91.8271 24.1615 91.8271 23.332V9.97201H94.4636V23.2728Z" fill="url(#paint2_linear_381_26)"/>
<path d="M102.75 30.9748V9.97201H105.446V30.9748H102.75Z" fill="url(#paint3_linear_381_26)"/>
<path d="M120.673 12.4307V30.9748H118.007V12.4307H111.756V9.97201H126.923V12.4307H120.673Z" fill="url(#paint4_linear_381_26)"/>
<path d="M133.235 30.9748V9.97201H147.277V12.4011H135.872V18.7997H145.884V21.288H135.872V28.5457H147.277V30.9748H133.235Z" fill="url(#paint5_linear_381_26)"/>
<path d="M167.213 16.104C167.213 14.7808 166.808 13.8329 165.998 13.2602C165.209 12.6875 164.191 12.4011 162.947 12.4011H157.349V19.7773H162.947C163.56 19.7773 164.122 19.718 164.636 19.5995C165.169 19.4613 165.623 19.244 165.998 18.9478C166.393 18.6516 166.69 18.2764 166.887 17.8221C167.104 17.3482 167.213 16.7754 167.213 16.104ZM167.124 30.9748L163.155 22.236H157.349V30.9748H154.712V9.97201H162.947C164.191 9.97201 165.248 10.1399 166.117 10.4756C166.986 10.7916 167.707 11.2458 168.279 11.8383C168.793 12.3715 169.198 12.9837 169.494 13.6749C169.79 14.3661 169.938 15.1758 169.938 16.104C169.938 17.0322 169.8 17.8221 169.524 18.4738C169.247 19.1255 168.852 19.718 168.339 20.2512C168.023 20.5869 167.648 20.8832 167.213 21.1399C166.798 21.3769 166.334 21.5744 165.821 21.7324L170.027 30.9748H167.124Z" fill="url(#paint6_linear_381_26)"/>
<path fill-rule="evenodd" clip-rule="evenodd" d="M15.7199 22.3743L12.7694 26.3661L16.8033 31.8156H22.711L15.7199 22.3743ZM15.7199 18.5596L22.711 9.13184H16.8033L12.7694 14.5814L15.7199 18.5596ZM5.90091 9.13865H0L8.40165 20.4874L0 31.8429H5.90091L14.3094 20.4874L5.90091 9.13865Z" fill="url(#paint7_linear_381_26)"/>
<defs>
<linearGradient id="paint0_linear_381_26" x1="39.9976" y1="0.244691" x2="188.3" y2="40.2831" gradientUnits="userSpaceOnUse">
<stop stop-color="#B5B5B5"/>
<stop offset="1" stop-color="#646464"/>
</linearGradient>
<linearGradient id="paint1_linear_381_26" x1="39.9976" y1="0.244691" x2="188.3" y2="40.2831" gradientUnits="userSpaceOnUse">
<stop stop-color="#B5B5B5"/>
<stop offset="1" stop-color="#646464"/>
</linearGradient>
<linearGradient id="paint2_linear_381_26" x1="39.9976" y1="0.244691" x2="188.3" y2="40.2831" gradientUnits="userSpaceOnUse">
<stop stop-color="#B5B5B5"/>
<stop offset="1" stop-color="#646464"/>
</linearGradient>
<linearGradient id="paint3_linear_381_26" x1="39.9976" y1="0.244691" x2="188.3" y2="40.2831" gradientUnits="userSpaceOnUse">
<stop stop-color="#B5B5B5"/>
<stop offset="1" stop-color="#646464"/>
</linearGradient>
<linearGradient id="paint4_linear_381_26" x1="39.9976" y1="0.244691" x2="188.3" y2="40.2831" gradientUnits="userSpaceOnUse">
<stop stop-color="#B5B5B5"/>
<stop offset="1" stop-color="#646464"/>
</linearGradient>
<linearGradient id="paint5_linear_381_26" x1="39.9976" y1="0.244691" x2="188.3" y2="40.2831" gradientUnits="userSpaceOnUse">
<stop stop-color="#B5B5B5"/>
<stop offset="1" stop-color="#646464"/>
</linearGradient>
<linearGradient id="paint6_linear_381_26" x1="39.9976" y1="0.244691" x2="188.3" y2="40.2831" gradientUnits="userSpaceOnUse">
<stop stop-color="#B5B5B5"/>
<stop offset="1" stop-color="#646464"/>
</linearGradient>
<linearGradient id="paint7_linear_381_26" x1="-10.1137" y1="-1.70004" x2="29.1649" y2="31.7641" gradientUnits="userSpaceOnUse">
<stop stop-color="#ECECEC"/>
<stop offset="1" stop-color="#4F4F4F"/>
</linearGradient>
</defs>
</svg>
