<svg xmlns="http://www.w3.org/2000/svg" viewBox="0 0 599.95 201.1"><defs><style>.cls-1{fill:#101820;}.cls-2{fill:#37a539;}</style></defs><title>Zasób 1</title><g id="Warstwa_2" data-name="Warstwa 2"><g id="layer"><path class="cls-1" d="M256.9,67.4a2.27,2.27,0,0,1,0-2.5L300.8,7.5c1.9-2.3,1.3-4.2,1-4.9A4.44,4.44,0,0,0,297.4.1H264.5a11.36,11.36,0,0,0-8.2,4s-26.2,34.1-34,44.4V6.5A6.47,6.47,0,0,0,215.9,0H190a6.49,6.49,0,0,0-6.5,6.5V128.1a6.49,6.49,0,0,0,6.5,6.5h25.9a6.4,6.4,0,0,0,6.4-6.5V83.5c8.2,10.5,35.9,47.3,35.9,47.3,1.7,2.3,5.6,3.9,8.6,3.9h32.4a4.53,4.53,0,0,0,4.4-2.5,4.34,4.34,0,0,0-1-4.9L256.9,67.4Z"/><path class="cls-2" d="M0,0H133.8V134.6H0Z"/><path class="cls-1" d="M532,0H490.5A6.49,6.49,0,0,0,484,6.5V27.4a6.49,6.49,0,0,0,6.5,6.5h35.3c20.9,0,33.9,12.8,33.9,33.4,0,20.9-12.8,33.4-34.3,33.4H475.1a1.81,1.81,0,0,1-1.6-1.4L457.9,6a7.27,7.27,0,0,0-7-6L425.5.1a8.56,8.56,0,0,0-7.7,5.1s-19,47.1-23.9,59.4C389.2,52.2,370,5.4,370,5.4A8.25,8.25,0,0,0,362.4.2L338.9.3a7.66,7.66,0,0,0-7.5,6L310.9,128a6.86,6.86,0,0,0,1.4,4.7,6,6,0,0,0,4.5,2.1h25.8c3.4,0,6.6-3.3,7.1-6.7,0,0,6.4-44.3,8.7-60.5,6.3,15.9,25,61.9,25,61.9a8.55,8.55,0,0,0,7.7,5.2h5.8a8.66,8.66,0,0,0,7.7-5.2s18.7-46.2,25.3-62c2.1,16.3,7.7,61.1,7.7,61.1a7.09,7.09,0,0,0,6.9,6.1h87.4c37.5,0,68-30.2,68-67.3S569.5,0,532,0"/><path class="cls-1" d="M334.7,193.4h-2.3a.58.58,0,0,1-.6-.6l-2.5-8.9H319.2l-2.5,8.9a.86.86,0,0,1-.7.6h-2.3a.53.53,0,0,1-.6-.6v-.2l7.1-25.2a3.73,3.73,0,0,1,4-2.9,3.79,3.79,0,0,1,3.9,2.9l7.1,25.3v.2c.2.2-.1.5-.5.5ZM325,168.1c-.1-.4-.3-.7-.7-.7s-.6.2-.8.7l-3.6,12.8h8.6Zm29.6,25.3h-1.8a.79.79,0,0,1-.8-.8V179.8c0-3.9-1.3-5.2-4.3-5.2a11.44,11.44,0,0,0-5.2,1.5v16.3a.79.79,0,0,1-.8.8h-1.9a.71.71,0,0,1-.7-.8V172.7a.77.77,0,0,1,.7-.8h1.9a.71.71,0,0,1,.7.8v.7a11.61,11.61,0,0,1,6.2-1.7c4.7,0,6.7,2.9,6.7,8.1v12.8A.66.66,0,0,1,354.6,193.4Zm35.2,0h-2.4a1.49,1.49,0,0,1-1.3-.6l-12-22.8a.1.1,0,0,0-.1-.1v22.8a.68.68,0,0,1-.7.7h-2c-.4,0-.7-.1-.7-.5V165.6a1.11,1.11,0,0,1,1.1-1.1h2.1c1.1,0,1.3.2,1.6.8L387.3,188l.1.1V165.3a.68.68,0,0,1,.7-.7h2.1a.68.68,0,0,1,.7.7v27a1,1,0,0,1-1.1,1.1Zm23,0c-1.5.2-5.3.2-7.5.2-5.4,0-8.2-2.1-8.2-7.2V171.5c0-5.2,2.9-7.2,8.2-7.2,2.3,0,5.9.1,7.5.2a.68.68,0,0,1,.4.6V167c0,.2-.2.5-.4.5h-7.5c-4.1,0-4.8,1.1-4.8,4v5.4h11.9a.79.79,0,0,1,.8.8v1.5a.79.79,0,0,1-.8.8H400.5v6.5c0,2.9.6,4,4.8,4h7.5a.46.46,0,0,1,.4.5v2A.42.42,0,0,1,412.8,193.4Zm21.6-.3a32.13,32.13,0,0,1-6.4.5c-4.8,0-10.2-2.5-10.2-12v-5.4c0-9.5,5.5-12,10.2-12a37.93,37.93,0,0,1,6.5.6.56.56,0,0,1,.6.5v2c0,.2-.1.4-.5.4h-.1c-1.4-.1-4.3-.3-6.5-.3-3.8,0-6.7,2.2-6.7,8.8v5.4c0,6.5,2.9,8.8,6.7,8.8,2.2,0,5-.2,6.4-.3h.2a.53.53,0,0,1,.6.6v1.6a1,1,0,0,1-.8.8Zm30.7,0a32.13,32.13,0,0,1-6.4.5c-4.8,0-10.2-2.5-10.2-12v-5.4c0-9.5,5.5-12,10.2-12a37.93,37.93,0,0,1,6.5.6.56.56,0,0,1,.6.5v2c0,.2-.1.4-.5.4h-.1c-1.4-.1-4.3-.3-6.5-.3-3.8,0-6.7,2.2-6.7,8.8v5.4c0,6.5,2.9,8.8,6.7,8.8,2.2,0,5-.2,6.4-.3h.2a.53.53,0,0,1,.6.6v1.6c0,.5-.4.7-.8.8Zm12.3.6c-5.7,0-8.6-3.7-8.6-9.4v-2.9c0-5.7,2.9-9.4,8.6-9.4s8.6,3.7,8.6,9.4v2.9C486,189.9,483.1,193.7,477.4,193.7Zm5.2-12.5c0-4-1.6-6.5-5.2-6.5s-5.2,2.5-5.2,6.5v2.9c0,4,1.6,6.5,5.2,6.5s5.2-2.5,5.2-6.5Zm32.9,12.2h-1.8a.79.79,0,0,1-.8-.8V178.9c0-3.3-1.5-4.1-3.6-4.1a15.26,15.26,0,0,0-4.5,1,13.22,13.22,0,0,1,.3,3v13.8a.71.71,0,0,1-.7.8h-2.1c-.4,0-.6-.3-.6-.8V178.8c0-3.4-1-4-3-4a12.56,12.56,0,0,0-4.8,1.5v16.3a.71.71,0,0,1-.7.8h-2.1c-.4,0-.6-.3-.6-.8V172.8a.77.77,0,0,1,.7-.8h1.9a.71.71,0,0,1,.7.8v.7a10.93,10.93,0,0,1,5.6-1.8,4.85,4.85,0,0,1,3.9,1.6,15.49,15.49,0,0,1,6.4-1.6c3.5,0,6.3,1.7,6.3,7.1v13.7a.57.57,0,0,1-.5.9Zm14,.3a39.33,39.33,0,0,1-4.5-.4v7.1a.68.68,0,0,1-.7.7h-2a.68.68,0,0,1-.7-.7V173.7c0-.5.1-.7.8-.9a32.85,32.85,0,0,1,7.1-.9c5.8,0,8.5,3.7,8.5,9.6v2.8c0,6-2.8,9.4-8.5,9.4Zm5.1-12.3c0-4-1.2-6.7-5.1-6.7a25.77,25.77,0,0,0-4.5.4v15.4a35.76,35.76,0,0,0,4.5.4c3.8,0,5.1-2.5,5.1-6.7Zm22,12h-1.7a.79.79,0,0,1-.8-.8v-.9a11.46,11.46,0,0,1-5.9,1.9c-3.3,0-6.3-1.4-6.3-6.3v-.5c0-4.2,2.5-6.3,9.4-6.3h2.9v-1.6c0-3.3-1.1-4.4-4.1-4.4-2.5,0-4.4.2-5.9.3H544c-.3,0-.7-.1-.7-.6v-1.3c0-.4.2-.6.8-.7a42.21,42.21,0,0,1,6-.5c5.4,0,7.5,2.7,7.5,7.3v13.6a1.33,1.33,0,0,1-1,.8ZM554,183.1h-2.9c-4.7,0-5.9,1-5.9,3.8v.5c0,2.8,1.3,3.6,3.6,3.6a10.79,10.79,0,0,0,5.2-1.6v-6.3Zm24.2,10.3h-1.8a.79.79,0,0,1-.8-.8V179.8c0-3.9-1.3-5.2-4.3-5.2a11.44,11.44,0,0,0-5.2,1.5v16.3a.79.79,0,0,1-.8.8h-1.9a.71.71,0,0,1-.7-.8V172.7a.77.77,0,0,1,.7-.8h1.9a.71.71,0,0,1,.7.8v.7a11.61,11.61,0,0,1,6.2-1.7c4.7,0,6.7,2.9,6.7,8.1v12.8A.66.66,0,0,1,578.2,193.4ZM599.9,173l-6.4,22.4c-1.2,4.2-2.6,5.7-7.1,5.7a28.78,28.78,0,0,1-3.3-.3c-.5-.1-.8-.2-.8-.6v-1.4c0-.4.3-.6.7-.6h.1c.9.1,2.6.2,3.5.2,2.2,0,3.2-.6,3.8-3.3l.4-1.6h-.6c-1.2,0-2.1-.2-2.9-2.7L582.1,173a.31.31,0,0,1-.1-.2c0-.4.2-.6.7-.6h2.1a.65.65,0,0,1,.6.6l4.6,16.8c.2.8.5.9.7.9h.6l4.8-17.8a.86.86,0,0,1,.7-.6h2.1a.53.53,0,0,1,.6.6c.5.1.5.2.4.3Z"/></g></g></svg>