<svg xmlns="http://www.w3.org/2000/svg" viewBox="0 0 1024 337.56"><defs><style>.sag-cls-1{fill:#fe194f;}.sag-cls-2{fill:#fff;}</style></defs><title>Logo SAG</title><g id="Layer_2" data-name="Layer 2"><g id="Layer_1-2" data-name="Layer 1"><rect class="sag-cls-1" width="1024" height="337.56"/><path class="sag-cls-2" d="M269.69,266.88c-11,7.44-24.57,9.7-57.86,9.7H103.54V238.11h98.27c16.49,0,25.86-1.29,31.36-4.85,7.44-4.2,11.31-11.31,11.31-20,0-9.7-4.85-18.42-13.25-22.63-4.85-2.9-13.25-4.2-23.92-4.2H167.55c-24.89,0-41.7-4.21-52.69-13.25C101.28,161.82,93.2,144,93.2,124.66c0-26.83,14.22-50.43,35.56-58.51C139.1,62.27,150.41,61,176.92,61H283.59V99.44H187.27c-20,0-27.48.65-32.65,3.24-6.79,3.88-10.67,11-10.67,20.69,0,8.41,3.56,15.52,9.7,19.72,5.82,3.56,12.93,4.85,29.74,4.85H218c31,0,47.52,4.53,60.12,16.49,10.67,10,17.46,29.09,17.46,48.81C295.55,235.53,285.53,255.9,269.69,266.88ZM529,276.58,508.3,226.48h-82.1L405.5,276.58h-54L440.74,61h52.69l89.22,215.61ZM829.65,99.44H740.75c-41.05,0-57.22,18.75-57.22,65.95,0,26.18,5.82,48.81,14.87,59.15,8.73,9.38,22.31,13.58,44,13.58h41.38V187H723.62V148.57h106v128H733.32c-33.29,0-50.43-4.21-66.27-16.81-22-17.13-33.94-48.49-33.94-90.19,0-41.05,12-72.73,33.62-90.19C682.25,67.12,704.55,61,735.26,61h94.39Zm118.49,25.94L931,137.67l-14.16-20-13.9,20-17.1-12.29L900.3,105.6,876,98.39l7.48-19.78,23.78,7.75L906.45,61h21.11l-.8,25.38,23.52-7.75L958,98.39l-24.32,7.22ZM436.54,188H498L467.24,112.7Z"/></g></g></svg>