<svg xmlns="http://www.w3.org/2000/svg" width="205" height="57.295" viewBox="0 0 205 57.295">
    <defs>
        <style>
            .cls-1{fill:#fff}
        </style>
    </defs>
    <g id="logo-group" transform="translate(-213.836 -300.667)">
        <path id="icon" d="M335.359 300.927h-.5l-.3.013c-.122.006-.333.019-.468.029s-.327.027-.425.038-.3.034-.44.052-.371.05-.506.071-.328.053-.429.071-.254.048-.34.066-.234.053-.327.076-.225.057-.293.076l-.3.085c-.1.028-.281.086-.411.128s-.368.122-.529.178-.5.177-.756.269-.584.21-.733.262l-.444.152-.178.06s.019.125.046.276l.05.273.185.088c.1.049.221.1.266.123s.227.088.406.153l.619.227 1.082.4 1.134.422.775.283c.237.086.607.218.822.293s.575.2.8.273.549.18.723.234l.506.156.357.1c.093.026.254.067.359.09s.267.055.361.071.238.037.321.047.221.026.307.033.25.019.364.025c.132.007.354.009.61.005.221 0 .461-.01.534-.015l.293-.024c.088-.008.243-.025.343-.038s.23-.034.288-.046.157-.038.219-.057.16-.054.217-.077.152-.068.211-.1.148-.083.2-.115.134-.093.186-.134.134-.115.181-.163.113-.121.146-.161.088-.118.124-.172a2.412 2.412 0 0 0 .121-.213c.031-.062.069-.149.085-.192s.039-.116.052-.161.031-.126.042-.181.024-.15.03-.212a2.433 2.433 0 0 0 .006-.288 2.515 2.515 0 0 0-.02-.265c-.008-.049-.027-.137-.042-.194a2.127 2.127 0 0 0-.066-.2c-.022-.055-.059-.135-.082-.179s-.07-.121-.1-.17-.1-.138-.151-.2a2.387 2.387 0 0 0-.174-.18c-.045-.041-.116-.1-.156-.133s-.127-.094-.193-.138-.175-.11-.243-.148-.174-.093-.236-.123-.166-.076-.23-.1-.179-.072-.255-.1-.2-.076-.285-.1-.219-.074-.307-.1-.252-.076-.364-.107-.295-.078-.407-.1-.28-.063-.373-.082-.26-.049-.369-.067-.313-.048-.454-.065-.359-.041-.487-.052-.31-.024-.406-.029-.362-.011-.591-.013zm8.563 3.09a.646.646 0 0 0-.123 0 .745.745 0 0 0-.086.026.537.537 0 0 0-.093.049.826.826 0 0 0-.1.083 1.063 1.063 0 0 0-.1.13 1.648 1.648 0 0 0-.1.176c-.025.054-.074.179-.109.278s-.084.232-.11.3-.073.174-.1.245-.1.2-.15.3-.128.225-.173.3-.122.187-.171.255-.126.172-.172.229-.126.153-.179.213-.159.173-.237.251-.2.2-.282.262-.192.159-.255.206-.181.13-.262.184-.2.13-.274.171-.2.108-.288.151-.231.106-.317.139-.217.081-.292.105-.2.06-.288.081-.214.048-.29.061-.2.031-.274.04a5.679 5.679 0 0 1-.874 0c-.083-.009-.253-.032-.378-.049s-.31-.047-.411-.066-.286-.055-.411-.081-.344-.077-.487-.113-.332-.084-.421-.108l-.326-.091-.307-.09-.312-.095-.463-.145-.633-.2-.506-.161-.6-.185-.68-.209-.657-.209c-.226-.073-1.155-.381-2.065-.685l-1.654-.552-.249.023c-.137.013-.335.034-.439.047s-.273.037-.375.053-.278.047-.392.07-.287.06-.385.084-.25.064-.34.09-.227.068-.305.094-.2.07-.279.1-.2.078-.274.11-.214.1-.307.143-.238.123-.321.17-.224.134-.312.193-.205.14-.26.18-.133.1-.175.135-.133.111-.2.172-.213.2-.317.3-.228.237-.275.292l-.169.2c-.046.054-.125.159-.175.227l-.187.26c-.053.075-.146.218-.208.317s-.153.25-.2.336-.131.23-.18.321-.15.285-.223.432-.175.357-.227.468-.126.274-.165.363-.085.2-.1.236-.049.13-.072.2-.054.172-.069.232-.034.149-.042.2-.017.141-.021.2a1.266 1.266 0 0 0 .006.208 1.345 1.345 0 0 0 .034.172 1.077 1.077 0 0 0 .059.151.812.812 0 0 0 .188.248 1.24 1.24 0 0 0 .125.1c.034.022.1.058.139.08s.115.053.161.07.135.045.2.061.16.038.217.048.14.023.184.029l.184.02c.057.005.236.012.4.015.183 0 .568 0 1.025-.011.509-.012.884-.015 1.233-.011.276 0 .564.01.639.015l.293.025c.086.008.229.025.319.038s.221.034.293.047.2.041.286.062.237.065.335.1.246.087.326.121l.406.175c.143.062.381.169.529.236s.395.181.548.254.532.257.841.412.7.354.87.443.447.239.619.333.444.245.6.336.406.232.543.312l.473.279c.122.073.371.224.553.336s.469.291.638.4l.553.356.619.406c.205.135.452.295.548.354l.343.21c.092.055.271.16.4.232s.319.179.428.238.332.174.5.256.385.189.492.239.275.125.373.167.272.115.387.161.278.11.364.142.275.1.421.148.358.117.473.151.3.087.42.118.317.079.444.108.3.065.383.081.228.041.321.057.232.036.307.047.214.027.307.038.251.025.35.033.282.019.406.025c.141.007.381.009.633.006.224 0 .5-.012.61-.02s.286-.024.388-.034.263-.03.359-.043.251-.036.345-.052.236-.041.317-.057.212-.043.293-.061.231-.054.334-.08.284-.075.4-.109.333-.1.479-.15.358-.123.473-.166.3-.115.408-.161.274-.116.364-.156.26-.119.377-.175.3-.147.4-.2.252-.136.326-.181.177-.112.228-.148.135-.1.187-.142.14-.121.2-.177.134-.141.173-.191.1-.128.126-.175.074-.128.1-.18a1.975 1.975 0 0 0 .08-.2 1.943 1.943 0 0 0 .052-.189c.01-.048.023-.129.028-.18s.01-.133.01-.184-.007-.165-.014-.253l-.08-.95c-.036-.434-.081-.942-.1-1.13l-.052-.51-.043-.364c-.013-.107-.039-.3-.057-.421l-.057-.369c-.013-.078-.041-.233-.062-.345s-.057-.291-.081-.4-.066-.287-.1-.4-.079-.3-.112-.411-.092-.3-.13-.416-.1-.291-.134-.388-.1-.264-.142-.373-.111-.274-.15-.366-.115-.26-.167-.373-.144-.3-.2-.414-.14-.268-.18-.34-.112-.2-.159-.279l-.18-.3c-.052-.085-.144-.226-.205-.317s-.157-.229-.213-.307-.155-.212-.221-.3-.187-.236-.27-.336-.2-.237-.264-.306-.18-.2-.261-.281-.218-.222-.3-.3l-.251-.235c-.051-.047-.154-.136-.227-.2s-.2-.164-.274-.227-.193-.152-.255-.2-.177-.131-.255-.187-.214-.149-.3-.208-.218-.143-.289-.187-.175-.106-.232-.138-.143-.075-.191-.1a1.428 1.428 0 0 0-.161-.058.908.908 0 0 0-.158-.023zM324.088 314.5h-.265l-.255.013c-.1.006-.25.017-.331.024s-.234.025-.34.038-.281.039-.388.056-.266.047-.354.065-.237.05-.331.072l-.425.1c-.14.033-.313.076-.383.094s-.2.056-.279.084-.188.068-.234.089a1.5 1.5 0 0 0-.151.082 1.345 1.345 0 0 0-.119.087.931.931 0 0 0-.1.11 1.065 1.065 0 0 0-.092.142 1.451 1.451 0 0 0-.067.156c-.015.044-.037.119-.048.165s-.026.129-.034.182-.021.164-.029.246-.018.264-.023.4-.01.448-.01.683v.428l.033.262c.018.144.048.36.066.479s.048.3.067.411.051.281.071.388.061.3.09.43.08.347.114.482.083.322.108.415.073.255.1.359.09.289.131.412.106.309.145.416.094.253.123.326.079.2.113.279.093.219.132.307.116.255.172.371.146.3.2.4l.171.319c.039.071.107.189.151.265s.125.209.18.3.152.239.216.334.171.25.239.345.177.242.243.328.167.213.224.284.167.2.244.29.2.223.264.3.237.248.376.386.32.312.4.387.207.184.274.242.188.159.267.224.215.172.3.238.219.166.3.221.185.128.238.161.142.083.2.111a1.5 1.5 0 0 0 .184.078 1.211 1.211 0 0 0 .163.039.443.443 0 0 0 .151 0 .711.711 0 0 0 .122-.03.845.845 0 0 0 .1-.053.921.921 0 0 0 .137-.115 1.51 1.51 0 0 0 .147-.18c.037-.055.093-.146.124-.2s.092-.181.134-.274.119-.251.17-.35.127-.237.168-.307.113-.183.159-.251.124-.178.174-.246.136-.176.19-.241.2-.216.316-.336.269-.26.332-.312.165-.133.227-.18.164-.119.227-.161.175-.113.25-.159.235-.131.354-.19.281-.132.359-.164.193-.074.255-.1.172-.056.244-.077.184-.05.249-.066.161-.037.214-.047l.21-.037c.062-.01.171-.024.241-.032s.208-.019.307-.025.281-.009.43-.006.321.012.406.02.229.026.319.039.236.038.326.057.214.046.277.062.188.05.279.076.266.079.39.118.317.1.43.142.292.1.4.143.336.128.51.2.419.168.543.22l.5.213.666.29.534.233c.078.034.206.087.284.118l.293.114c.083.032.226.082.317.113s.255.083.364.117.254.075.321.094.219.057.336.085.3.069.4.09.278.053.388.072.3.046.421.061.294.034.383.043.227.019.307.024.293.013.473.016c.2 0 .419 0 .567-.005.133-.006.315-.018.406-.025s.253-.025.359-.038.281-.038.389-.056.266-.048.354-.066.244-.055.349-.082.27-.073.369-.1.246-.078.326-.107.21-.077.288-.108.208-.086.288-.121.227-.106.326-.156.25-.132.336-.181.218-.129.293-.178.188-.124.25-.168.173-.126.246-.182.2-.159.278-.228.214-.191.3-.272.213-.215.288-.3.193-.221.262-.307.159-.2.2-.26.118-.168.17-.246.127-.195.166-.26.108-.185.152-.266l.129-.243c.029-.053.079-.164.117-.249s.1-.218.127-.3.068-.176.081-.218.034-.127.047-.189.03-.16.039-.217.03-.251.048-.43l.039-.375.006-.049h-.1c-.054 0-.245.006-.424.009s-.373.009-.43.015-.146.018-.2.028a2 2 0 0 0-.227.064l-.35.123c-.12.042-.311.106-.425.143s-.3.091-.406.122-.264.074-.345.094l-.334.081c-.103.024-.281.062-.4.086s-.323.061-.464.085-.374.057-.517.075-.358.041-.477.052-.279.024-.354.029-.269.014-.43.02c-.178.007-.428.009-.638.005-.19 0-.451-.012-.581-.02s-.289-.018-.354-.024l-.217-.019-.261-.028-.3-.037-.268-.038-.288-.048c-.088-.015-.248-.045-.354-.066s-.279-.057-.383-.08l-.345-.08c-.086-.021-.252-.064-.369-.095s-.3-.084-.411-.118-.25-.078-.312-.1l-.293-.1c-.1-.035-.267-.1-.373-.141s-.292-.12-.411-.172-.285-.127-.369-.166-.268-.13-.411-.2-.332-.17-.421-.217-.267-.148-.4-.222-.313-.181-.406-.237-.246-.149-.339-.207l-.345-.218-.393-.255c-.12-.079-.333-.221-.473-.317l-.515-.353-.6-.421-.671-.467c-.179-.124-.494-.338-.7-.474s-.465-.305-.577-.375-.3-.183-.409-.252-.281-.168-.373-.22-.267-.151-.39-.218-.343-.183-.492-.257-.34-.169-.425-.209-.228-.1-.317-.144-.25-.107-.358-.151-.266-.106-.35-.137-.259-.093-.388-.137-.345-.111-.477-.149-.32-.089-.416-.112-.256-.06-.354-.081-.239-.049-.312-.062-.2-.034-.288-.047-.23-.032-.321-.042-.244-.026-.34-.034-.277-.019-.4-.024-.314-.009-.421-.008zm8.067 11.682h-.227c-.027 0-.109.01-.184.018s-.194.025-.265.038-.187.039-.26.057-.194.055-.269.081-.188.068-.249.094l-.227.1c-.063.027-.178.095-.256.141s-.192.12-.254.163-.168.123-.236.177-.19.164-.271.245-.176.183-.211.227-.1.131-.14.194a2.772 2.772 0 0 0-.144.25c-.037.075-.081.175-.1.222s-.041.125-.054.175-.031.13-.04.18a1.575 1.575 0 0 0-.017.288 1.4 1.4 0 0 0 .021.31 2.2 2.2 0 0 0 .055.217c.019.058.052.146.073.2s.064.131.094.182.087.136.127.189a2.427 2.427 0 0 0 .182.206c.06.06.149.142.2.181s.143.106.208.149.2.119.307.171.268.127.364.169.243.1.326.136.228.09.321.125.283.1.421.147.346.111.463.145.3.083.4.109.255.062.336.081.236.05.345.071.254.047.321.058l.288.043c.091.012.248.032.348.042s.269.026.373.034.294.018.422.023.317.009.421.009.3 0 .425-.01.326-.016.435-.024.3-.025.416-.038.3-.036.411-.052l.307-.047c.062-.01.211-.038.331-.062s.326-.068.458-.1.345-.084.473-.117.353-.1.5-.137.382-.111.52-.153.378-.116.534-.166l.558-.179.685-.225.761-.249.638-.205.291-.094s-.047-.046-.108-.1-.215-.2-.343-.325-.258-.248-.291-.275a.846.846 0 0 0-.106-.074.325.325 0 0 0-.125-.034l-.211-.019c-.073-.006-.232-.023-.354-.038s-.313-.043-.425-.061-.3-.052-.407-.075-.276-.058-.365-.079l-.293-.072-.316-.086c-.102-.028-.291-.086-.421-.126s-.341-.11-.468-.154-.34-.12-.473-.17-.339-.128-.458-.175-.362-.145-.539-.218-.689-.29-1.139-.482-.946-.4-1.1-.469-.4-.166-.548-.224-.364-.143-.487-.189-.285-.1-.359-.126-.2-.059-.286-.08-.219-.051-.3-.066-.207-.035-.274-.043-.18-.019-.251-.025-.21-.009-.308-.008z" class="cls-1" transform="translate(-69.553 -.17)"/>
        <g id="title" transform="translate(213.836 300.667)">
            <path id="path394614" d="M597.021-86.2l5.156-4.043v31.022l-21.244-18.932v14.892l-5.157 4.043V-90.24l21.245 19.512z" class="cls-1" transform="translate(-575.776 90.24)"/>
            <path id="path394618" d="M807.482-59.061h-5.734L794.9-71.684h-11.468V-76.8h14.892a3.476 3.476 0 0 0 1.692-.5 3.54 3.54 0 0 0 1.2-1.2 4.313 4.313 0 0 0 .536-2.351 4.222 4.222 0 0 0-.536-2.31 3.54 3.54 0 0 0-1.2-1.2 3.477 3.477 0 0 0-1.692-.5h-14.892V-90h14.892a9.94 9.94 0 0 1 4.29 1.155 11.013 11.013 0 0 1 1.568 1.114 6.5 6.5 0 0 1 1.361 1.609 8.189 8.189 0 0 1 .99 2.269 10.856 10.856 0 0 1 .371 3.011 10.314 10.314 0 0 1-.908 4.62 9.519 9.519 0 0 1-2.063 2.805 6.769 6.769 0 0 1-2.145 1.361 5.684 5.684 0 0 1-1.2.371z" class="cls-1" transform="translate(-706.487 90.083)"/>
            <path id="path394620" d="M883.98-90a15.311 15.311 0 0 1 6.02 1.361 16.011 16.011 0 0 1 4.909 3.341 15.429 15.429 0 0 1 3.3 4.909 14.588 14.588 0 0 1 1.2 5.858 14.627 14.627 0 0 1-1.279 6.064 16.249 16.249 0 0 1-3.424 4.909 16.3 16.3 0 0 1-4.95 3.259 14.914 14.914 0 0 1-5.775 1.238h-10.314v-5.2H884.6a7.566 7.566 0 0 0 3.754-.784 10.245 10.245 0 0 0 3.094-2.31 11.318 11.318 0 0 0 2.063-3.341 9.971 9.971 0 0 0 .784-3.836 9.67 9.67 0 0 0-.784-3.8 10.658 10.658 0 0 0-2.063-3.341 9.747 9.747 0 0 0-3.053-2.31 8.146 8.146 0 0 0-3.8-.825h-10.928V-90z" class="cls-1" transform="translate(-762.837 90.083)"/>
            <path id="path394622" d="M969.057-59.061v-5.157h20.667v5.157zm18.357-18.068v5.157h-18.357v-5.157zM969.057-90h20.667v5.157h-20.667z" class="cls-1" transform="translate(-822.57 90.083)"/>
            <path id="path394624" d="M1075.38-86.2l5.156-4.043v31.022l-21.245-18.935v14.892l-5.156 4.043V-90.24l21.245 19.512z" class="cls-1" transform="translate(-875.537 90.24)"/>
        </g>
        <g id="subtitle" transform="translate(286.787 340.764)">
            <path id="path394627" d="M779.457-37.28a6.7 6.7 0 0 1 3.337.843 6.148 6.148 0 0 1 2.383 2.328 6.188 6.188 0 0 1 .88 3.245 6.188 6.188 0 0 1-.88 3.245 6.187 6.187 0 0 1-2.383 2.31 6.842 6.842 0 0 1-3.374.843h-5.12V-37.28zm.037 11.679a5.234 5.234 0 0 0 2.659-.7 5.14 5.14 0 0 0 1.907-1.888 5.164 5.164 0 0 0 .715-2.677 5.164 5.164 0 0 0-.715-2.677 5.2 5.2 0 0 0-1.943-1.907 5.269 5.269 0 0 0-2.677-.7h-3.87v10.55z" class="cls-1" transform="translate(-774.305 38.068)"/>
            <path id="path394629" d="M815.5-34.877h1.228v9.607H815.5zm.623-3.63a.79.79 0 0 1 .605.257.82.82 0 0 1 .238.605.848.848 0 0 1-.257.623.769.769 0 0 1-.587.257.848.848 0 0 1-.623-.257.882.882 0 0 1-.238-.623.819.819 0 0 1 .238-.605.848.848 0 0 1 .626-.257z" class="cls-1" transform="translate(-800.41 38.873)"/>
            <path id="path394631" d="M836.332-28.017v8.6a4.9 4.9 0 0 1-.587 2.438 3.871 3.871 0 0 1-1.687 1.6 5.324 5.324 0 0 1-2.512.568 6.144 6.144 0 0 1-3.942-1.467l.587-.88a5.511 5.511 0 0 0 1.54.972 4.6 4.6 0 0 0 1.76.33 3.543 3.543 0 0 0 2.622-.972 3.4 3.4 0 0 0 .99-2.567v-1.558a3.806 3.806 0 0 1-1.467 1.577 4.213 4.213 0 0 1-2.2.568 4.474 4.474 0 0 1-2.292-.587 4.307 4.307 0 0 1-1.558-1.65 5.15 5.15 0 0 1-.55-2.4 5.04 5.04 0 0 1 .55-2.383 4.133 4.133 0 0 1 1.577-1.632 4.473 4.473 0 0 1 2.292-.587 4.116 4.116 0 0 1 2.182.568 3.816 3.816 0 0 1 1.467 1.577v-2.108zm-4.675 8.217a3.473 3.473 0 0 0 1.778-.458 3.314 3.314 0 0 0 1.228-1.3 3.872 3.872 0 0 0 .44-1.852 3.911 3.911 0 0 0-.44-1.87 3.187 3.187 0 0 0-1.228-1.283 3.369 3.369 0 0 0-1.778-.477 3.37 3.37 0 0 0-1.778.477 3.313 3.313 0 0 0-1.247 1.283 3.912 3.912 0 0 0-.44 1.87 3.912 3.912 0 0 0 .44 1.87 3.538 3.538 0 0 0 1.228 1.283 3.509 3.509 0 0 0 1.797.457z" class="cls-1" transform="translate(-807.362 32.014)"/>
            <path id="path394633" d="M863.315-34.877h1.228v9.607h-1.228zm.623-3.63a.79.79 0 0 1 .605.257.82.82 0 0 1 .238.605.848.848 0 0 1-.257.623.769.769 0 0 1-.587.257.849.849 0 0 1-.623-.257.883.883 0 0 1-.238-.623.82.82 0 0 1 .238-.605.849.849 0 0 1 .624-.257z" class="cls-1" transform="translate(-830.239 38.873)"/>
            <path id="path394635" d="M880.539-23.2a3.925 3.925 0 0 1-2.127.715 2.283 2.283 0 0 1-1.742-.678 2.863 2.863 0 0 1-.642-2.035v-5.72h-1.375l-.018-.953h1.393v-2.475h1.228v2.475l3.117-.018v.972h-3.117v5.517q0 1.778 1.32 1.778a3.159 3.159 0 0 0 1.6-.513z" class="cls-1" transform="translate(-837.051 36.143)"/>
            <path id="path394637" d="M902.672-18.41l-.018-1.613a3.548 3.548 0 0 1-1.485 1.265 5.19 5.19 0 0 1-2.109.4 3.882 3.882 0 0 1-1.723-.367 2.853 2.853 0 0 1-1.137-1.045 2.791 2.791 0 0 1-.4-1.485 2.318 2.318 0 0 1 .953-1.962 4.4 4.4 0 0 1 2.658-.715h3.227v-.733a2.27 2.27 0 0 0-.678-1.76 2.829 2.829 0 0 0-1.98-.623 5.2 5.2 0 0 0-3.1 1.155l-.55-.843a7.88 7.88 0 0 1 1.852-.99 5.719 5.719 0 0 1 2.017-.33 3.828 3.828 0 0 1 2.7.88 3.127 3.127 0 0 1 .972 2.4l.018 6.362zm-3.392-.972a3.813 3.813 0 0 0 2.163-.587 2.95 2.95 0 0 0 1.21-1.687v-1.32h-3.1a3.6 3.6 0 0 0-1.925.422 1.4 1.4 0 0 0-.66 1.265 1.743 1.743 0 0 0 .623 1.393 2.619 2.619 0 0 0 1.689.515z" class="cls-1" transform="translate(-850.164 32.014)"/>
            <path id="path394639" d="M929.142-39.573h1.229v13.6h-1.229z" class="cls-1" transform="translate(-871.273 39.573)"/>
        </g>
    </g>
</svg>
