<svg xmlns="http://www.w3.org/2000/svg" width="80.725" height="62.291" viewBox="0 0 80.725 62.291">
  <g id="Group_453" data-name="Group 453" transform="translate(-696.438 -264.209)">
    <path id="Path_798" data-name="Path 798" d="M787.106,290.6a7.154,7.154,0,1,0,7.154,7.154A7.162,7.162,0,0,0,787.106,290.6Zm0,11.757a4.6,4.6,0,1,1,4.6-4.6A4.608,4.608,0,0,1,787.106,302.356Z" transform="translate(-30.934 -9.648)" fill="#0746cd" stroke="#fff" stroke-width="1"/>
    <path id="Path_799" data-name="Path 799" d="M796.266,284.017h-2.3q-.113-.29-.236-.572l1.627-1.626a3.394,3.394,0,0,0,0-4.794l-3.409-3.41a3.472,3.472,0,0,0-4.794,0l-1.638,1.637c-.187-.082-.375-.159-.567-.234V272.7a3.393,3.393,0,0,0-3.39-3.39h-4.819a3.394,3.394,0,0,0-3.39,3.39v2.331c-.185.073-.37.151-.555.231l-1.649-1.649a3.47,3.47,0,0,0-4.793,0l-3.409,3.409a3.389,3.389,0,0,0,0,4.794l1.655,1.655c-.079.181-.154.361-.226.544h-2.337a3.394,3.394,0,0,0-3.39,3.39v4.824a3.393,3.393,0,0,0,3.39,3.39h2.336c.072.184.147.366.227.548l-1.655,1.655a3.389,3.389,0,0,0,0,4.794l3.409,3.409a3.389,3.389,0,0,0,4.794,0l1.649-1.649c.186.082.37.159.555.232v2.325a3.394,3.394,0,0,0,3.39,3.39h4.819a3.394,3.394,0,0,0,3.39-3.39v-2.311c.191-.075.38-.152.567-.234l1.638,1.637a3.389,3.389,0,0,0,4.794,0l3.409-3.409a3.394,3.394,0,0,0,0-4.794l-1.627-1.627c.085-.193.165-.384.24-.577h2.3a3.393,3.393,0,0,0,3.389-3.39v-4.824A3.4,3.4,0,0,0,796.266,284.017Zm.838,8.214a.84.84,0,0,1-.839.839h-3.193c-.016,0-.032,0-.048.005a1.273,1.273,0,0,0-.157.016c-.032.005-.063.011-.094.018a1.387,1.387,0,0,0-.142.044c-.032.012-.063.024-.094.038a1.215,1.215,0,0,0-.125.068c-.03.018-.059.036-.087.056a1.318,1.318,0,0,0-.107.088c-.026.024-.052.048-.077.074a1.22,1.22,0,0,0-.085.1c-.023.031-.046.063-.066.1a1.151,1.151,0,0,0-.06.11c-.019.04-.036.08-.052.121-.007.019-.018.036-.023.055a12.315,12.315,0,0,1-.8,1.925c-.013.025-.019.051-.03.076s-.016.041-.024.061a1.265,1.265,0,0,0-.082.42c0,.018,0,.036,0,.055a1.278,1.278,0,0,0,.082.423c.007.018.014.035.023.051a1.262,1.262,0,0,0,.249.374c.006.006.008.015.014.021l2.256,2.255a.84.84,0,0,1,0,1.186l-3.409,3.409a.858.858,0,0,1-1.186,0l-2.268-2.267c-.007-.007-.016-.009-.024-.016a1.268,1.268,0,0,0-.371-.247l-.053-.023a1.276,1.276,0,0,0-.423-.082h-.055a1.264,1.264,0,0,0-.42.082l-.061.024c-.026.011-.053.018-.079.031a12.763,12.763,0,0,1-1.922.8c-.017.006-.031.015-.048.021a1.19,1.19,0,0,0-.123.054c-.036.018-.073.036-.107.058s-.066.045-.1.07a1.147,1.147,0,0,0-.1.082c-.028.026-.054.055-.08.085a1.188,1.188,0,0,0-.08.1c-.024.033-.045.067-.065.1s-.041.07-.058.106a1.224,1.224,0,0,0-.046.115c-.014.039-.027.078-.037.119a1.148,1.148,0,0,0-.021.115,1.287,1.287,0,0,0-.014.138c0,.017-.005.033-.005.051v3.2a.839.839,0,0,1-.839.839h-4.819a.84.84,0,0,1-.839-.839v-3.216c0-.019,0-.036-.006-.055a1.262,1.262,0,0,0-.014-.137c-.006-.04-.013-.078-.023-.116s-.023-.08-.037-.119a1.15,1.15,0,0,0-.046-.115c-.018-.036-.037-.072-.058-.106a1.106,1.106,0,0,0-.066-.1,1.16,1.16,0,0,0-.08-.1,1.148,1.148,0,0,0-.082-.084,1.218,1.218,0,0,0-.1-.081c-.033-.025-.065-.048-.1-.07a1.1,1.1,0,0,0-.107-.058,1.2,1.2,0,0,0-.124-.053c-.018-.007-.034-.017-.053-.023a12.317,12.317,0,0,1-1.905-.79c-.024-.013-.05-.019-.075-.03l-.062-.024a1.249,1.249,0,0,0-.42-.082h-.054a1.271,1.271,0,0,0-.422.082l-.055.024a1.275,1.275,0,0,0-.371.247c-.007.007-.016.009-.023.016l-2.277,2.277a.859.859,0,0,1-1.186,0l-3.409-3.41a.838.838,0,0,1,0-1.186l2.284-2.284c.007-.007.009-.017.016-.024a1.255,1.255,0,0,0,.246-.371c.008-.019.016-.036.024-.055a1.265,1.265,0,0,0,.082-.421c0-.019,0-.037,0-.056a1.256,1.256,0,0,0-.082-.419c-.008-.021-.015-.041-.025-.062s-.017-.051-.029-.076a12.44,12.44,0,0,1-.785-1.9c-.006-.019-.016-.035-.023-.053-.016-.041-.033-.082-.053-.121s-.038-.073-.059-.109a1.182,1.182,0,0,0-.068-.1,1.316,1.316,0,0,0-.084-.1c-.025-.026-.051-.051-.078-.075a1.187,1.187,0,0,0-.106-.087c-.029-.021-.058-.039-.089-.058a1.173,1.173,0,0,0-.123-.066c-.031-.014-.063-.026-.095-.038a1.228,1.228,0,0,0-.142-.044c-.031-.008-.063-.013-.094-.018a1.324,1.324,0,0,0-.158-.016c-.016,0-.03,0-.046,0h-3.227a.84.84,0,0,1-.839-.839V287.4a.84.84,0,0,1,.839-.839h3.234a1.258,1.258,0,0,0,.346-.055c.024-.007.048-.014.072-.023a1.267,1.267,0,0,0,.307-.156c.014-.01.026-.022.039-.032a1.259,1.259,0,0,0,.227-.225c.013-.016.028-.031.039-.048a1.294,1.294,0,0,0,.161-.317c0-.012.013-.021.016-.033a12.429,12.429,0,0,1,.785-1.9c.013-.024.019-.051.029-.075s.016-.041.024-.062a1.26,1.26,0,0,0,.082-.419c0-.019,0-.037,0-.056a1.265,1.265,0,0,0-.082-.421c-.007-.019-.016-.036-.024-.055a1.273,1.273,0,0,0-.246-.371c-.007-.007-.009-.016-.016-.024l-2.284-2.284a.838.838,0,0,1,0-1.186l3.409-3.409a.859.859,0,0,1,1.186,0l2.277,2.278c.011.011.026.014.037.024a1.281,1.281,0,0,0,.332.221c.036.016.07.033.106.046a1.132,1.132,0,0,0,.853,0c.029-.01.056-.019.085-.031s.047-.014.07-.026a12.342,12.342,0,0,1,1.905-.79c.019-.006.035-.016.053-.023a1.209,1.209,0,0,0,.124-.053c.036-.018.072-.037.107-.058s.068-.045.1-.07a1.214,1.214,0,0,0,.1-.081c.029-.027.055-.055.082-.085a1.166,1.166,0,0,0,.08-.1,1.1,1.1,0,0,0,.067-.1c.021-.035.04-.07.058-.106s.033-.076.046-.115.027-.078.037-.119.016-.077.023-.116a1.231,1.231,0,0,0,.014-.137c0-.019.006-.036.006-.055V272.7a.84.84,0,0,1,.839-.839h4.819a.84.84,0,0,1,.839.839v3.205c0,.018,0,.033.005.051a1.242,1.242,0,0,0,.014.138,1.147,1.147,0,0,0,.021.115c.01.041.023.08.037.119a1.211,1.211,0,0,0,.046.115c.017.036.037.071.058.106s.041.07.065.1.052.065.08.1.052.058.08.085.065.055.1.082.065.048.1.07.07.04.107.058a1.256,1.256,0,0,0,.123.054c.017.006.031.016.048.021a12.8,12.8,0,0,1,1.922.8c.024.013.049.017.073.027s.056.022.086.032a1.132,1.132,0,0,0,.853,0c.037-.013.07-.029.106-.045a1.256,1.256,0,0,0,.333-.221c.011-.01.026-.013.036-.024l2.268-2.267a.859.859,0,0,1,1.186,0l3.409,3.409a.841.841,0,0,1,0,1.186l-2.256,2.255c-.007.007-.009.016-.015.023a1.251,1.251,0,0,0-.247.372c-.008.018-.016.035-.023.054a1.271,1.271,0,0,0-.082.422c0,.019,0,.036,0,.055a1.267,1.267,0,0,0,.082.421c.008.021.015.039.024.06s.018.054.031.08a12.627,12.627,0,0,1,.8,1.925c0,.011.011.018.014.029a1.262,1.262,0,0,0,.164.321c.011.016.025.029.037.045a1.277,1.277,0,0,0,.23.228c.013.009.023.021.036.03a1.263,1.263,0,0,0,.307.156c.024.009.048.015.072.023a1.254,1.254,0,0,0,.345.055h3.2a.84.84,0,0,1,.839.839v4.824Z" transform="translate(-22.993 -1.715)" fill="#0746cd" stroke="#fff" stroke-width="1"/>
    <path id="Path_800" data-name="Path 800" d="M724,314.542a9.522,9.522,0,1,0,9.523,9.522A9.533,9.533,0,0,0,724,314.542Zm0,16.495a6.972,6.972,0,1,1,6.972-6.972A6.98,6.98,0,0,1,724,331.037Z" transform="translate(-6.534 -18.57)" fill="#0746cd" stroke="#fff" stroke-width="1"/>
    <path id="Path_801" data-name="Path 801" d="M734.562,311.736h-2.3q-.113-.29-.236-.572l1.627-1.626a3.394,3.394,0,0,0,0-4.794l-3.409-3.409a3.472,3.472,0,0,0-4.794,0l-1.638,1.637q-.279-.122-.566-.234v-2.317a3.393,3.393,0,0,0-3.389-3.389h-4.819a3.394,3.394,0,0,0-3.39,3.389v2.331q-.278.109-.555.231l-1.649-1.649a3.4,3.4,0,0,0-4.794,0l-3.408,3.408a3.39,3.39,0,0,0,0,4.794l1.654,1.655q-.119.271-.226.543h-2.337a3.394,3.394,0,0,0-3.39,3.39v4.824a3.394,3.394,0,0,0,3.39,3.39h2.336q.108.277.227.549l-1.655,1.655a3.39,3.39,0,0,0,0,4.794l3.408,3.409a3.4,3.4,0,0,0,4.794,0l1.649-1.649c.186.082.37.159.555.231v2.326a3.394,3.394,0,0,0,3.39,3.39h4.819a3.393,3.393,0,0,0,3.389-3.39v-2.311q.287-.112.567-.234l1.638,1.637a3.389,3.389,0,0,0,4.794,0l3.409-3.409a3.394,3.394,0,0,0,0-4.794l-1.627-1.627c.085-.193.164-.384.24-.577h2.3a3.394,3.394,0,0,0,3.39-3.39v-4.824A3.4,3.4,0,0,0,734.562,311.736Zm.839,8.215a.84.84,0,0,1-.839.839h-3.195c-.017,0-.033,0-.05.005a1.293,1.293,0,0,0-.157.016c-.031.005-.062.011-.092.018a1.207,1.207,0,0,0-.147.046c-.029.011-.059.023-.088.036a1.325,1.325,0,0,0-.131.072c-.028.017-.054.034-.08.053a1.322,1.322,0,0,0-.113.093c-.025.023-.05.046-.073.071a1.283,1.283,0,0,0-.087.105.991.991,0,0,0-.066.1c-.021.035-.04.07-.058.107a1.3,1.3,0,0,0-.054.127c-.006.018-.016.033-.022.052a12.131,12.131,0,0,1-.795,1.923c-.013.025-.019.051-.03.077s-.016.039-.023.06a1.253,1.253,0,0,0-.082.421c0,.019,0,.036,0,.055a1.278,1.278,0,0,0,.082.423c.007.018.015.035.023.053a1.267,1.267,0,0,0,.248.373c.006.006.008.016.014.022l2.256,2.255a.841.841,0,0,1,0,1.187l-3.409,3.408a.857.857,0,0,1-1.186,0l-2.268-2.267c-.008-.008-.018-.009-.025-.017a1.264,1.264,0,0,0-.368-.244l-.057-.024a1.269,1.269,0,0,0-.418-.082c-.02,0-.039,0-.059,0a1.255,1.255,0,0,0-.418.082l-.061.024c-.027.012-.055.018-.08.032a12.63,12.63,0,0,1-1.92.8c-.017.006-.031.015-.048.021a1.2,1.2,0,0,0-.123.054c-.036.018-.072.036-.107.058a1.2,1.2,0,0,0-.1.07,1.032,1.032,0,0,0-.1.082c-.028.026-.055.055-.08.084s-.056.063-.08.1-.045.067-.065.1-.041.07-.058.106a1.237,1.237,0,0,0-.046.115c-.014.039-.027.078-.037.119a1.147,1.147,0,0,0-.021.115,1.288,1.288,0,0,0-.014.138c0,.017-.005.033-.005.051v3.2a.84.84,0,0,1-.839.839h-4.819a.841.841,0,0,1-.839-.839v-3.216c0-.019-.005-.036-.006-.055a1.262,1.262,0,0,0-.014-.137c-.006-.04-.013-.078-.023-.116a1.133,1.133,0,0,0-.037-.119,1.166,1.166,0,0,0-.046-.115c-.018-.036-.037-.072-.058-.106a1.1,1.1,0,0,0-.066-.1c-.024-.034-.052-.065-.08-.1a1.142,1.142,0,0,0-.082-.084c-.031-.029-.064-.055-.1-.081s-.065-.048-.1-.069a1.1,1.1,0,0,0-.107-.058,1.2,1.2,0,0,0-.124-.053c-.018-.006-.034-.017-.053-.023a12.317,12.317,0,0,1-1.905-.79c-.025-.013-.05-.019-.075-.029s-.041-.016-.062-.024a1.249,1.249,0,0,0-.42-.082c-.018,0-.035,0-.053,0a1.269,1.269,0,0,0-.424.083l-.052.023a1.279,1.279,0,0,0-.373.248c-.007.006-.016.008-.023.015l-2.277,2.277a.84.84,0,0,1-1.187,0l-3.408-3.409a.839.839,0,0,1,0-1.187l2.283-2.284c.007-.007.009-.016.016-.023a1.264,1.264,0,0,0,.246-.37c.008-.019.017-.036.024-.056a1.3,1.3,0,0,0,.082-.421c0-.019,0-.037,0-.056a1.255,1.255,0,0,0-.082-.419c-.008-.021-.015-.041-.024-.062s-.017-.051-.029-.076a12.436,12.436,0,0,1-.785-1.9c-.006-.018-.016-.034-.023-.051-.016-.042-.033-.083-.053-.123s-.037-.073-.058-.107-.044-.066-.068-.1a1.266,1.266,0,0,0-.083-.1c-.026-.028-.054-.053-.082-.079s-.065-.056-.1-.082-.065-.044-.1-.064-.072-.041-.11-.06-.073-.031-.111-.045-.082-.028-.124-.038a1.133,1.133,0,0,0-.112-.021c-.046-.007-.093-.012-.14-.014-.018,0-.035-.005-.053-.005H700.33a.84.84,0,0,1-.839-.839v-4.824a.84.84,0,0,1,.839-.839h3.234a1.237,1.237,0,0,0,.346-.055c.025-.007.048-.014.072-.023a1.263,1.263,0,0,0,.307-.156c.014-.009.026-.022.039-.032a1.277,1.277,0,0,0,.226-.225c.013-.016.028-.031.04-.048a1.292,1.292,0,0,0,.161-.317c0-.012.013-.021.016-.033a12.407,12.407,0,0,1,.785-1.9c.013-.025.019-.051.03-.077s.016-.04.024-.061a1.265,1.265,0,0,0,.082-.42c0-.019,0-.036,0-.055a1.269,1.269,0,0,0-.083-.424c-.007-.018-.014-.034-.023-.051a1.265,1.265,0,0,0-.248-.375c-.006-.006-.008-.015-.014-.022l-2.283-2.284a.838.838,0,0,1,0-1.186l3.408-3.408a.84.84,0,0,1,1.187,0l2.277,2.278c.011.011.026.014.037.025a1.266,1.266,0,0,0,.332.221c.036.016.07.033.106.046a1.132,1.132,0,0,0,.853,0c.029-.01.056-.019.085-.031s.047-.014.07-.026a12.317,12.317,0,0,1,1.905-.79c.018-.006.035-.016.053-.023a1.209,1.209,0,0,0,.124-.053c.036-.018.072-.037.107-.058s.068-.045.1-.07a1.2,1.2,0,0,0,.1-.081c.029-.027.055-.055.082-.084a1.171,1.171,0,0,0,.08-.1,1.1,1.1,0,0,0,.067-.1c.021-.035.04-.07.058-.106s.033-.076.046-.115a1.14,1.14,0,0,0,.037-.119c.009-.038.017-.077.023-.117a1.247,1.247,0,0,0,.014-.137c0-.019.006-.036.006-.055v-3.222a.84.84,0,0,1,.839-.839h4.819a.84.84,0,0,1,.839.839v3.205c0,.018,0,.034.005.051a1.258,1.258,0,0,0,.014.138c.006.039.012.077.021.115s.023.08.037.119a1.22,1.22,0,0,0,.046.115,1.165,1.165,0,0,0,.058.106c.021.035.041.07.065.1s.052.065.08.1.052.058.08.085.065.055.1.082a1.192,1.192,0,0,0,.1.07c.034.021.07.04.107.058a1.27,1.27,0,0,0,.123.054c.017.006.031.016.048.021a12.631,12.631,0,0,1,1.92.8c.024.013.05.017.075.028s.055.021.084.031a1.134,1.134,0,0,0,.854,0c.036-.013.07-.029.106-.045a1.257,1.257,0,0,0,.331-.22c.011-.011.026-.014.038-.025l2.268-2.267a.859.859,0,0,1,1.186,0l3.409,3.409a.841.841,0,0,1,0,1.187l-2.256,2.255c-.007.007-.009.016-.016.024a1.276,1.276,0,0,0-.247.371c-.008.019-.016.036-.024.056a1.271,1.271,0,0,0-.082.42c0,.02,0,.039,0,.058a1.258,1.258,0,0,0,.081.417c.008.022.016.043.026.065s.018.053.031.078a12.491,12.491,0,0,1,.794,1.923c0,.011.012.02.016.031a1.266,1.266,0,0,0,.162.318c.012.017.026.031.038.046a1.261,1.261,0,0,0,.229.226c.013.01.024.021.037.031a1.262,1.262,0,0,0,.307.156c.024.009.048.015.072.023a1.255,1.255,0,0,0,.345.055h3.2a.84.84,0,0,1,.839.839v4.822Z" transform="translate(0 -12.045)" fill="#0746cd" stroke="#fff" stroke-width="1"/>
    <path id="Path_802" data-name="Path 802" d="M728.9,281.786a1.276,1.276,0,0,0,1.275-1.275V274.4a2.036,2.036,0,0,1,2.033-2.033h13.043l-2.823,2.947a1.275,1.275,0,1,0,1.842,1.764l4.889-5.105a397.363,397.363,0,0,1,.257-.4,1.188,1.188,0,0,0,.051-.238,1,1,0,0,0-.188-.932,1.216,1.216,0,0,0-.12-.19l-4.889-5.1a1.275,1.275,0,1,0-1.841,1.765l2.823,2.948H732.205a4.589,4.589,0,0,0-4.584,4.583v6.112A1.274,1.274,0,0,0,728.9,281.786Z" transform="translate(-11.434)" fill="#0746cd" stroke="#fff" stroke-width="1"/>
  </g>
</svg>
