<svg id="NET_Core_Logo" xmlns="http://www.w3.org/2000/svg" width="89.199" height="89.199" viewBox="0 0 89.199 89.199">
  <ellipse id="Ellipse_335" data-name="Ellipse 335" cx="43.987" cy="43.987" rx="43.987" ry="43.987" transform="translate(1.226)" fill="#5c2d91"/>
  <path id="Path_2222" data-name="Path 2222" d="M13.832,9a43.987,43.987,0,1,0,62.1,62.1Z" transform="translate(0.892 3.371)" fill="#fff" opacity="0.1"/>
  <path id="Path_2223" data-name="Path 2223" d="M7.928,38.318a1.856,1.856,0,0,1-1.375-.577,1.9,1.9,0,0,1-.564-1.375,1.924,1.924,0,0,1,.564-1.375A1.842,1.842,0,0,1,7.928,34.4a1.883,1.883,0,0,1,1.375.591,1.911,1.911,0,0,1,.577,1.375,1.971,1.971,0,0,1-1.952,1.952Z" transform="translate(3.469 12.886)" fill="#fff"/>
  <path id="Path_2224" data-name="Path 2224" d="M32.769,43.829h-3.6L16.288,23.842a8.248,8.248,0,0,1-.8-1.567h-.11a25.733,25.733,0,0,1,.137,3.436V43.829H12.59V18.77H16.4L28.934,38.4q.784,1.223,1.017,1.677h.069a26.5,26.5,0,0,1-.179-3.684V18.77h2.928Z" transform="translate(5.942 7.031)" fill="#fff"/>
  <path id="Path_2225" data-name="Path 2225" d="M45.32,43.829H32V18.77H44.7v2.653H35v8.33h9.045v2.639H35v8.687H45.333Z" transform="translate(13.212 7.031)" fill="#fff"/>
  <path id="Path_2226" data-name="Path 2226" d="M60.746,21.423H53.461V43.829H50.533V21.423h-7.2V18.77H60.746Z" transform="translate(17.456 7.031)" fill="#fff"/>
  <path id="Path_2227" data-name="Path 2227" d="M28.47,52.458a6.777,6.777,0,0,1-3.189.674,5.141,5.141,0,0,1-3.945-1.581,5.856,5.856,0,0,1-1.485-4.124,6.131,6.131,0,0,1,1.663-4.481,5.663,5.663,0,0,1,4.234-1.7,6.777,6.777,0,0,1,2.749.481V43.1a5.5,5.5,0,0,0-2.749-.687,4.206,4.206,0,0,0-3.23,1.375,5,5,0,0,0-1.237,3.546A4.77,4.77,0,0,0,22.436,50.7a3.931,3.931,0,0,0,3.038,1.251,5.691,5.691,0,0,0,3.01-.77Z" transform="translate(8.659 15.447)" fill="#f2f2f2"/>
  <path id="Path_2228" data-name="Path 2228" d="M31.306,52.263a3.821,3.821,0,0,1-2.928-1.223,4.275,4.275,0,0,1-1.086-3.065,4.454,4.454,0,0,1,1.141-3.244A4.124,4.124,0,0,1,31.5,43.561,3.7,3.7,0,0,1,34.371,44.7,4.509,4.509,0,0,1,35.4,47.85a4.426,4.426,0,0,1-1.113,3.162A3.9,3.9,0,0,1,31.306,52.263Zm.1-7.519a2.516,2.516,0,0,0-2.007.866A3.56,3.56,0,0,0,28.653,48a3.368,3.368,0,0,0,.742,2.309,2.543,2.543,0,0,0,2.007.852,2.419,2.419,0,0,0,1.966-.825,3.6,3.6,0,0,0,.687-2.364,3.656,3.656,0,0,0-.687-2.378,2.406,2.406,0,0,0-1.966-.852Z" transform="translate(11.446 16.315)" fill="#f2f2f2"/>
  <path id="Path_2229" data-name="Path 2229" d="M39.036,45.121a1.622,1.622,0,0,0-1-.261,1.691,1.691,0,0,0-1.375.8,3.684,3.684,0,0,0-.564,2.172v4.206H34.72V43.788h1.375v1.718h0a2.887,2.887,0,0,1,.866-1.375,1.966,1.966,0,0,1,1.292-.481,2.158,2.158,0,0,1,.784.11Z" transform="translate(14.231 16.35)" fill="#f2f2f2"/>
  <path id="Path_2230" data-name="Path 2230" d="M45.693,48.275H39.878a3.079,3.079,0,0,0,.7,2.117,2.557,2.557,0,0,0,1.952.742,4.124,4.124,0,0,0,2.557-.921V51.45a4.784,4.784,0,0,1-2.873.784,3.491,3.491,0,0,1-2.749-1.127,4.6,4.6,0,0,1-1-3.162,4.509,4.509,0,0,1,1.086-3.134A3.505,3.505,0,0,1,42.3,43.6a3.107,3.107,0,0,1,2.5,1.045,4.371,4.371,0,0,1,.88,2.914Zm-1.375-1.113a2.749,2.749,0,0,0-.55-1.773,1.883,1.883,0,0,0-1.512-.632,2.131,2.131,0,0,0-1.581.674,3.038,3.038,0,0,0-.811,1.746Z" transform="translate(15.63 16.33)" fill="#f2f2f2"/>
</svg>
