<svg xmlns="http://www.w3.org/2000/svg" id="attach-paperclip-diagonal-symbol" width="17.112" height="16.802" viewBox="0 0 17.112 16.802">
    <path id="Path_2178" fill="#fff" d="M15.785 9.514L6.891.619a.569.569 0 0 0-.8.805l8.895 8.894a3.4 3.4 0 1 1-4.8 4.8l-8.373-8.36A2.3 2.3 0 1 1 5.071 3.5l7.229 7.229a1.15 1.15 0 1 1-1.626 1.627L4.346 6.03a.569.569 0 0 0-.8.805l6.326 6.326a2.29 2.29 0 1 0 3.238-3.238L5.877 2.694a3.443 3.443 0 1 0-4.869 4.87l8.363 8.364a4.535 4.535 0 1 0 6.414-6.414z" data-name="Path 2178" transform="translate(0 -.453)"/>
</svg>
