<svg xmlns="http://www.w3.org/2000/svg" width="42.129" height="67.439" viewBox="0 0 42.129 67.439">
  <g id="Group_452" data-name="Group 452" transform="translate(-1663.144 -2287.81)">
    <path id="Path_1726" data-name="Path 1726" d="M1699.447,2283.59h-30.478a5.391,5.391,0,0,0-5.525,5.233v55.959a5.391,5.391,0,0,0,5.525,5.233h5.249a1.01,1.01,0,1,0,0-2.017h-5.249a3.312,3.312,0,0,1-3.4-3.215v-2.376h9.941v1.046a5.832,5.832,0,0,0,1.491,3.875l1.578,2.6a1.077,1.077,0,0,0,.924.506,1.108,1.108,0,0,0,.53-.134.98.98,0,0,0,.392-1.378l-1.627-2.677a1.026,1.026,0,0,0-.119-.159,3.885,3.885,0,0,1-1.038-2.629v-5.423a3.639,3.639,0,0,1,1.082-2.567v.984a1.067,1.067,0,0,0,2.13,0V2318.1a1.221,1.221,0,0,1,1.25-1.246,1.278,1.278,0,0,1,1.3,1.246v12.086a.962.962,0,0,0-.019.177v6.115a1.067,1.067,0,0,0,2.13,0v-5.964c.005-.031.014-.061.016-.092a1.253,1.253,0,0,1,1.286-1.084h.012a1.31,1.31,0,0,1,.9.359,1.287,1.287,0,0,1,.414.929v1.445a.957.957,0,0,0-.016.15v4.257a1.067,1.067,0,0,0,2.13,0V2332.3a.948.948,0,0,0,.016-.149,1.3,1.3,0,0,1,2.6-.023.953.953,0,0,0-.01.1v4.257a1.067,1.067,0,0,0,2.13,0v-3.52a.925.925,0,0,0,.013-.123c0-.42.826-.774,1.345-.774a1.316,1.316,0,0,1,1.345,1.246v10.169a7.189,7.189,0,0,1-1.18,3.935l-.962,1.475a.977.977,0,0,0,.346,1.388,1.1,1.1,0,0,0,.559.151,1.079,1.079,0,0,0,.907-.479l.963-1.475a9.128,9.128,0,0,0,1.5-5v-1.074h3.01v2.376a3.171,3.171,0,0,1-1.5,2.667.976.976,0,0,0-.286,1.4,1.1,1.1,0,0,0,1.479.271,5.159,5.159,0,0,0,2.436-4.338v-55.959A5.393,5.393,0,0,0,1699.447,2283.59Zm.383,56.8v-7.076a3.378,3.378,0,0,0-3.475-3.264,4.228,4.228,0,0,0-1.822.443,3.473,3.473,0,0,0-2.956-1.6,3.558,3.558,0,0,0-1.616.384,3.356,3.356,0,0,0-.733-1,3.509,3.509,0,0,0-2.428-.944,3.637,3.637,0,0,0-1.263.238v-9.458a3.355,3.355,0,0,0-3.433-3.263,3.288,3.288,0,0,0-3.38,3.263v14.745l-1.1.822c-.016.012-.031.023-.046.036a5.633,5.633,0,0,0-2.061,4.32v2.359h-9.94v-51.565a3.313,3.313,0,0,1,3.4-3.216h30.478a3.313,3.313,0,0,1,3.4,3.216v51.565h-3.01Z" transform="translate(0 4.52)" fill="#0746cd" stroke="#fff" stroke-width="0.6"/>
    <path id="Path_1727" data-name="Path 1727" d="M1703.018,2363.21a7.213,7.213,0,0,0-5.785,11.521,1.065,1.065,0,0,0,1.708-1.274,5.082,5.082,0,1,1,8.339-.265,1.065,1.065,0,0,0,1.785,1.163,7.213,7.213,0,0,0-6.047-11.144Z" transform="translate(-20.995 -50.872)" fill="#0746cd" stroke="#fff" stroke-width="0.6"/>
    <path id="Path_1728" data-name="Path 1728" d="M1691.748,2345.84a13.315,13.315,0,0,0-6.683,24.832,1.065,1.065,0,1,0,1.07-1.842,11.185,11.185,0,1,1,13.7-1.95,1.065,1.065,0,0,0,1.54,1.472,13.314,13.314,0,0,0-9.626-22.512Z" transform="translate(-9.725 -39.603)" fill="#0746cd" stroke="#fff" stroke-width="0.6"/>
  </g>
</svg>
