<svg xmlns="http://www.w3.org/2000/svg" id="linkedin_1_" width="15.251" height="13.932" data-name="linkedin (1)" viewBox="0 0 15.251 13.932">
    <defs>
        <style>
            .cls-1{fill:#0444cc}
        </style>
    </defs>
    <g id="Group_120" data-name="Group 120">
        <path id="Path_113" d="M.5 188.507h1.978a.5.5 0 0 0 .5-.5v-8.666a.5.5 0 0 0-.5-.5H.5a.5.5 0 0 0-.5.5v8.666a.5.5 0 0 0 .5.5z" class="cls-1" data-name="Path 113" transform="translate(0 -174.575)"/>
        <path id="Path_114" d="M.5 26.667h1.978a.5.5 0 0 0 .5-.5v-1.756a.5.5 0 0 0-.5-.5H.5a.5.5 0 0 0-.5.5v1.761a.5.5 0 0 0 .5.495z" class="cls-1" data-name="Path 114" transform="translate(0 -23.916)"/>
        <path id="Path_115" d="M191.04 170.9a3.015 3.015 0 0 0-1.233-.9 4.463 4.463 0 0 0-1.8-.354 4.405 4.405 0 0 0-3.385 1.525c-.184.2-.318.158-.318-.115v-.66a.5.5 0 0 0-.5-.5h-1.771a.5.5 0 0 0-.5.5v8.666a.5.5 0 0 0 .5.5h1.983a.5.5 0 0 0 .5-.5v-3.014a9.7 9.7 0 0 1 .227-2.582 2.132 2.132 0 0 1 .841-1.122 2.384 2.384 0 0 1 1.386-.423 1.769 1.769 0 0 1 1.032.3 1.651 1.651 0 0 1 .619.831 8.86 8.86 0 0 1 .19 2.354v3.659a.5.5 0 0 0 .5.5h1.983a.5.5 0 0 0 .5-.5v-4.908a9.294 9.294 0 0 0-.164-2 3.275 3.275 0 0 0-.59-1.257z" class="cls-1" data-name="Path 115" transform="translate(-176.535 -165.624)"/>
    </g>
</svg>
