<svg xmlns="http://www.w3.org/2000/svg" width="56.135" height="57" viewBox="0 0 56.135 57">
  <g id="Group_230" data-name="Group 230" transform="translate(-22.903 -230.476)">
    <path id="Path_459" data-name="Path 459" d="M37.03,269.451a.864.864,0,0,1-.676-.324A17.723,17.723,0,0,1,32.389,257.9a17.935,17.935,0,0,1,34.667-6.454.867.867,0,0,1-1.619.624,16.2,16.2,0,0,0-31.314,5.83,16.01,16.01,0,0,0,3.581,10.144.868.868,0,0,1-.675,1.411Z" transform="translate(0.649 0.649)" fill="#0444cc"/>
    <path id="Path_460" data-name="Path 460" d="M61.67,267.765a.869.869,0,0,1-.676-1.412,16.441,16.441,0,0,0,.968-1.332.868.868,0,1,1,1.454.947c-.329.505-.689,1-1.069,1.474A.869.869,0,0,1,61.67,267.765Z" transform="translate(2.592 2.336)" fill="#0444cc"/>
    <path id="Path_461" data-name="Path 461" d="M63.894,264.535a.868.868,0,0,1-.8-1.213,15.952,15.952,0,0,0,.866-2.58.868.868,0,0,1,1.687.41,17.921,17.921,0,0,1-.96,2.86A.869.869,0,0,1,63.894,264.535Zm1.356-5.555-.062,0a.868.868,0,0,1-.8-.926c.027-.377.04-.762.04-1.143,0-.528-.026-1.06-.076-1.581a.868.868,0,1,1,1.728-.168c.056.577.084,1.166.084,1.749,0,.422-.015.847-.045,1.265A.867.867,0,0,1,65.249,258.981Z" transform="translate(2.744 1.635)" fill="#0444cc"/>
    <path id="Path_462" data-name="Path 462" d="M64.676,253.57a.87.87,0,0,1-.838-.64,15.924,15.924,0,0,0-.513-1.564.867.867,0,1,1,1.619-.624,17.938,17.938,0,0,1,.569,1.732.868.868,0,0,1-.609,1.065A.855.855,0,0,1,64.676,253.57Z" transform="translate(2.761 1.348)" fill="#0444cc"/>
    <path id="Path_463" data-name="Path 463" d="M71.3,277.543a.867.867,0,0,1-.613-1.481l1.572-1.572a.371.371,0,0,0,0-.522l-3.113-3.112a1.486,1.486,0,0,1-.228-1.8,20.674,20.674,0,0,0,2.173-5.249,1.486,1.486,0,0,1,1.435-1.114h4.4a.369.369,0,0,0,.369-.369v-7.558a.37.37,0,0,0-.369-.37h-4.4a1.486,1.486,0,0,1-1.435-1.114,20.658,20.658,0,0,0-2.173-5.248,1.486,1.486,0,0,1,.228-1.8l3.113-3.113a.37.37,0,0,0,0-.522l-5.344-5.344a.369.369,0,0,0-.521,0l-3.114,3.113a1.489,1.489,0,0,1-1.8.228,20.713,20.713,0,0,0-5.25-2.174,1.484,1.484,0,0,1-1.113-1.434v-4.4a.369.369,0,0,0-.37-.369H47.192a.369.369,0,0,0-.37.369v4.4a1.485,1.485,0,0,1-1.114,1.434,20.758,20.758,0,0,0-5.249,2.173,1.486,1.486,0,0,1-1.8-.227l-3.113-3.113a.37.37,0,0,0-.521,0L29.679,242.6a.37.37,0,0,0,0,.522l3.113,3.113a1.484,1.484,0,0,1,.228,1.8,20.681,20.681,0,0,0-2.173,5.249,1.488,1.488,0,0,1-1.435,1.114h-4.4a.369.369,0,0,0-.369.37v7.558a.369.369,0,0,0,.369.369h4.4a1.488,1.488,0,0,1,1.435,1.113,20.662,20.662,0,0,0,2.172,5.25,1.484,1.484,0,0,1-.227,1.8l-3.113,3.112a.37.37,0,0,0,0,.522l1.572,1.572a.867.867,0,1,1-1.227,1.227l-1.572-1.572a2.106,2.106,0,0,1,0-2.975l2.974-2.974a22.406,22.406,0,0,1-2.212-5.341H25.008a2.107,2.107,0,0,1-2.1-2.1v-7.558a2.107,2.107,0,0,1,2.1-2.1h4.207a22.4,22.4,0,0,1,2.212-5.34l-2.974-2.975a2.1,2.1,0,0,1,0-2.975l5.344-5.344a2.106,2.106,0,0,1,2.975,0L39.746,239a22.383,22.383,0,0,1,5.341-2.21v-4.208a2.107,2.107,0,0,1,2.1-2.1h7.557a2.107,2.107,0,0,1,2.1,2.1v4.208A22.4,22.4,0,0,1,62.194,239l2.974-2.974a2.153,2.153,0,0,1,2.975,0l5.344,5.344a2.1,2.1,0,0,1,0,2.975l-2.975,2.974a22.412,22.412,0,0,1,2.212,5.341h4.207a2.107,2.107,0,0,1,2.1,2.1v7.558a2.107,2.107,0,0,1-2.1,2.1H72.725a22.4,22.4,0,0,1-2.211,5.341l2.974,2.974a2.107,2.107,0,0,1,0,2.975l-1.573,1.572A.863.863,0,0,1,71.3,277.543Z" fill="#0444cc"/>
    <path id="Path_464" data-name="Path 464" d="M49.656,266.521a7.539,7.539,0,1,1,7.539-7.54A7.548,7.548,0,0,1,49.656,266.521Zm0-13.343a5.8,5.8,0,1,0,5.8,5.8A5.81,5.81,0,0,0,49.656,253.178Z" transform="translate(1.314 1.434)" fill="#0444cc"/>
    <path id="Path_465" data-name="Path 465" d="M66.759,284.954H33.809a.867.867,0,0,1-.868-.867,17.372,17.372,0,0,1,12.748-16.708.867.867,0,1,1,.459,1.672A15.64,15.64,0,0,0,34.7,283.219H65.867a15.641,15.641,0,0,0-11.448-14.168.867.867,0,1,1,.459-1.672,17.373,17.373,0,0,1,12.748,16.708A.867.867,0,0,1,66.759,284.954Z" transform="translate(0.687 2.522)" fill="#0444cc"/>
  </g>
</svg>
