<svg xmlns="http://www.w3.org/2000/svg" width="92.07" height="94.923" viewBox="0 0 92.07 94.923">
  <g id="postgresql_1_" data-name="postgresql (1)" transform="translate(-0.297 -0.364)">
    <path id="Path_2249" data-name="Path 2249" d="M92.124,57.225A4.671,4.671,0,0,0,88.246,54.1a8.879,8.879,0,0,0-3.094.171,27.811,27.811,0,0,1-4.768.627,91.956,91.956,0,0,0,9.735-23.155c3.23-12.506,1.5-18.2-.513-20.78C84.268,4.144,76.48.479,67.084.367a39.912,39.912,0,0,0-11.708,1.64,43.59,43.59,0,0,0-6.846-.627A22.257,22.257,0,0,0,36.6,4.319,54.373,54.373,0,0,0,28.183,2.2C19.948.853,13.311,1.906,8.456,5.336,2.577,9.488-.148,16.7.356,26.779c.16,3.2,1.95,12.933,4.767,22.164a76.546,76.546,0,0,0,5.133,13.1c2.533,4.8,5.244,7.627,8.287,8.642a8.146,8.146,0,0,0,8.064-1.748,7.052,7.052,0,0,0,1.7,1.459,11.282,11.282,0,0,0,3.2,1.348,17.183,17.183,0,0,0,11.186-.666c.02.581.036,1.136.049,1.616.022.778.043,1.54.072,2.253.194,4.822.522,8.57,1.494,11.194.053.144.125.364.2.6a13.476,13.476,0,0,0,3.359,5.916,10.019,10.019,0,0,0,7.086,2.635,15.926,15.926,0,0,0,3.312-.368C61.8,94.16,65.822,93,68.73,88.863c2.75-3.915,4.087-9.812,4.329-19.1.031-.263.06-.514.088-.753l.058-.491.648.057.167.011a25.635,25.635,0,0,0,10.723-1.858c2.14-.993,9-4.613,7.382-9.5" transform="translate(0 0)"/>
    <path id="Path_2250" data-name="Path 2250" d="M93.026,65.245C82.3,67.456,81.567,63.826,81.567,63.826c11.32-16.8,16.053-38.119,11.969-43.338-11.141-14.235-30.427-7.5-30.749-7.328l-.1.019a38.239,38.239,0,0,0-7.153-.745,17.668,17.668,0,0,0-11.324,3.39S9.8,1.65,11.4,33.649c.34,6.807,9.757,51.508,20.988,38.006,4.105-4.937,8.072-9.112,8.072-9.112a10.412,10.412,0,0,0,6.8,1.737l.192-.163a7.492,7.492,0,0,0,.077,1.922c-2.893,3.233-2.043,3.8-7.827,4.991-5.853,1.206-2.415,3.354-.17,3.915,2.722.68,9.018,1.644,13.272-4.311l-.169.68c1.133.908,1.929,5.906,1.8,10.438s-.222,7.642.671,10.072,1.784,7.9,9.388,6.268c6.353-1.362,9.646-4.89,10.1-10.776.325-4.184,1.061-3.565,1.107-7.307l.59-1.771c.68-5.672.108-7.5,4.022-6.651l.952.084a21.682,21.682,0,0,0,8.865-1.492c4.765-2.211,7.592-5.9,2.893-4.934h0" transform="translate(-7.067 -7.069)" fill="#336791"/>
    <path id="Path_2251" data-name="Path 2251" d="M103.4,80.252a3.326,3.326,0,0,0-2.284.325.838.838,0,0,0-.347.557,1.628,1.628,0,0,0,.4,1.066,2.986,2.986,0,0,0,1.9,1.182,2.159,2.159,0,0,0,.3.021,2.458,2.458,0,0,0,2.327-1.583c.117-.842-1.105-1.4-2.291-1.568m32.008.026c-.092-.66-1.267-.848-2.382-.693s-2.193.658-2.1,1.319a2.26,2.26,0,0,0,2.1,1.393,2.008,2.008,0,0,0,.281-.019,2.708,2.708,0,0,0,1.529-.836,1.685,1.685,0,0,0,.574-1.163" transform="translate(-64.244 -50.628)" fill="#fff"/>
    <path id="Path_2252" data-name="Path 2252" d="M94.1,62.4c-.409-1.236-1.725-1.634-3.911-1.182-6.491,1.34-8.816.412-9.579-.15A89.252,89.252,0,0,0,92.048,35.424,48.729,48.729,0,0,0,93.742,24.4c.053-3.412-.528-5.919-1.726-7.45C87.184,10.772,80.093,7.46,71.509,7.369A35.133,35.133,0,0,0,59.655,9.238a29.552,29.552,0,0,0-6.67-.857,19.27,19.27,0,0,0-11.43,3.151A51.024,51.024,0,0,0,32.267,9.1C24.742,7.885,18.762,8.8,14.5,11.826,9.4,15.433,7.053,21.881,7.509,30.991c.153,3.065,1.9,12.493,4.655,21.522,3.627,11.884,7.571,18.612,11.72,20a5.249,5.249,0,0,0,1.663.275c1.513,0,3.369-.682,5.3-3q3.532-4.237,7.3-8.265a11.769,11.769,0,0,0,5.255,1.413c0,.048.008.1.013.143q-.473.564-.927,1.145c-1.27,1.612-1.534,1.948-5.621,2.789-1.163.24-4.25.876-4.3,3.041-.049,2.365,3.65,3.358,4.072,3.463a17.438,17.438,0,0,0,4.233.549,12.319,12.319,0,0,0,8.478-3.166c-.071,8.431.28,16.739,1.293,19.27C51.479,92.235,53.5,97.3,59.9,97.3a14.842,14.842,0,0,0,3.109-.353c6.677-1.431,9.577-4.382,10.7-10.889.6-3.477,1.63-11.78,2.115-16.234a13.083,13.083,0,0,0,3.762.465,22.391,22.391,0,0,0,8.54-1.627c2.413-1.12,6.766-3.87,5.977-6.259Zm-15.9-30.1a27.011,27.011,0,0,1-.395,3.754,34.676,34.676,0,0,0-.474,4.407,33.422,33.422,0,0,0,.349,4.984c.4,3.324.809,6.746-.777,10.123a13.162,13.162,0,0,1-.7-1.445c-.2-.478-.625-1.246-1.219-2.309C72.676,47.684,67.274,38,70.039,34.042c.824-1.177,2.914-2.387,8.162-1.735ZM71.841,10.032c7.691.17,13.775,3.047,18.083,8.551,3.3,4.222-.334,23.433-10.866,40.006q-.159-.2-.319-.4L78.6,58.02c2.722-4.495,2.189-8.941,1.716-12.884a30.9,30.9,0,0,1-.332-4.582,32.45,32.45,0,0,1,.444-4.088,25.814,25.814,0,0,0,.415-5.061,2.1,2.1,0,0,0,.044-.713c-.171-1.819-2.248-7.262-6.48-12.189a29.19,29.19,0,0,0-10.3-7.745,34.736,34.736,0,0,1,7.73-.727ZM28.8,68.082c-2.127,2.557-3.6,2.067-4.079,1.906-3.147-1.05-6.8-7.7-10.019-18.251-2.786-9.127-4.414-18.306-4.543-20.88C9.755,22.718,11.728,17.045,16.027,14c7-4.961,18.5-1.991,23.118-.486-.066.066-.136.127-.2.194-7.584,7.659-7.4,20.744-7.385,21.544,0,.309.025.746.061,1.347a54.137,54.137,0,0,1-.275,10.936,13.83,13.83,0,0,0,3.645,11.576q.449.468.943.89c-1.3,1.392-4.123,4.469-7.129,8.085Zm8.1-10.813a11.19,11.19,0,0,1-2.932-9.37,56.6,56.6,0,0,0,.3-11.461c-.019-.321-.036-.6-.046-.824,1.108-.982,6.242-3.733,9.9-2.894A4.029,4.029,0,0,1,47.241,36.2c2.19,10.132.29,14.354-1.237,17.748-.315.7-.612,1.36-.866,2.043l-.2.529a34.642,34.642,0,0,0-1.249,3.758,9.452,9.452,0,0,1-6.785-3.007Zm.384,13.663a5.874,5.874,0,0,1-1.773-.762,8.657,8.657,0,0,1,1.888-.562c4.808-.99,5.551-1.688,7.172-3.747.372-.472.793-1.007,1.377-1.659h0c.869-.973,1.267-.808,1.988-.509a2.812,2.812,0,0,1,1.384,1.78,1.982,1.982,0,0,1-.169,1.666C45.772,71.88,40.836,71.819,37.291,70.932ZM62.455,94.348c-5.882,1.26-7.965-1.741-9.337-5.172-.886-2.215-1.321-12.2-1.012-23.234a1.329,1.329,0,0,0-.057-.422,5.569,5.569,0,0,0-.164-.779,5.385,5.385,0,0,0-2.922-3.5,4.121,4.121,0,0,0-2.689-.326,32.5,32.5,0,0,1,1.158-3.466l.2-.532c.223-.6.5-1.221.8-1.878,1.6-3.55,3.787-8.413,1.411-19.4-.89-4.115-3.861-6.124-8.365-5.658a19.3,19.3,0,0,0-6.4,1.994c-.265.134-.507.264-.734.39.344-4.146,1.643-11.894,6.5-16.8,3.06-3.086,7.136-4.61,12.1-4.528a25.652,25.652,0,0,1,19.6,9.366A29.746,29.746,0,0,1,77.9,29.6c-4.959-.5-8.331.474-10.041,2.919-3.719,5.317,2.035,15.636,4.8,20.6.507.909.945,1.694,1.083,2.028a18.416,18.416,0,0,0,2.918,4.7c.261.326.514.642.707.918-1.5.433-4.2,1.433-3.954,6.434-.2,2.509-1.608,14.257-2.325,18.407-.946,5.483-2.963,7.526-8.637,8.742Zm24.552-28.1a19.372,19.372,0,0,1-6.547,1.362c-2.7.126-4.069-.3-4.392-.566-.151-3.116,1.008-3.442,2.236-3.786.193-.054.381-.107.563-.171a4.586,4.586,0,0,0,.372.273c2.167,1.431,6.033,1.585,11.491.458l.06-.012a14.694,14.694,0,0,1-3.782,2.441Z" transform="translate(-4.576 -4.478)" fill="#fff"/>
  </g>
</svg>
