<svg id="mongodb" xmlns="http://www.w3.org/2000/svg" width="46.997" height="104.632" viewBox="0 0 46.997 104.632">
  <path id="Path_2219" data-name="Path 2219" d="M294.344,3.65l2.792,5.244a15.722,15.722,0,0,0,2.109,2.623,73.253,73.253,0,0,1,6.553,7.409A64.382,64.382,0,0,1,316,39.5a50.581,50.581,0,0,1,2.164,13.961,49.268,49.268,0,0,1-14.385,36.356,41.541,41.541,0,0,1-5.133,4.388c-.968,0-1.426-.742-1.825-1.425a11.739,11.739,0,0,1-1.425-4.1,19.8,19.8,0,0,1-.458-5.186v-.8c-.078-.17-.931-78.637-.592-79.039h0Z" transform="translate(-271.173 -3.364)" fill="#459b45"/>
  <path id="Path_2220" data-name="Path 2220" d="M23.17.111c-.115-.228-.228-.056-.344.056a5.273,5.273,0,0,1-.968,3.139A15.017,15.017,0,0,1,19.35,5.814,54.633,54.633,0,0,0,7.1,21.429,62.721,62.721,0,0,0,.038,46.957C-.247,50.2,1.065,61.66,2.088,64.966a54.591,54.591,0,0,0,14.3,22.51,62.529,62.529,0,0,0,5.068,4.332c.513,0,.569-.457.686-.8a15.8,15.8,0,0,0,.513-2.224L23.8,80.239,23.169.111Z" transform="translate(0.002 0.001)" fill="#56ad4e"/>
  <path id="Path_2221" data-name="Path 2221" d="M277.982,1017.787a7.8,7.8,0,0,1,1.426-3.476,3.594,3.594,0,0,1-1.6-1.481,10.532,10.532,0,0,1-.85-1.88,32.54,32.54,0,0,1-1.2-7.35v-1.481a7.112,7.112,0,0,0-.344,2.452,56.322,56.322,0,0,1-1.026,7.695,6.837,6.837,0,0,1-.916,2.962,1.137,1.137,0,0,0,.056.4,34.011,34.011,0,0,1,1.481,9.233v1.144c0,1.366-.056,1.078,1.079,1.537a4.991,4.991,0,0,1,1.425.569c.344,0,.4-.284.4-.513l-.17-1.88v-5.245a13.9,13.9,0,0,1,.228-2.681Z" transform="translate(-252.019 -923.478)" fill="#b2afa5"/>
</svg>
