<svg xmlns="http://www.w3.org/2000/svg" width="64.856" height="50.295" viewBox="0 0 64.856 50.295">
  <g id="Group_310" data-name="Group 310" transform="translate(-289.346 -835.671)">
    <path id="Path_912" data-name="Path 912" d="M352.306,848.9v-4.949a3.7,3.7,0,0,0-3.7-3.7H321.119a1.251,1.251,0,0,1-.864-.357l-2.647-2.64a3.7,3.7,0,0,0-2.636-1.089H294.937a3.7,3.7,0,0,0-3.7,3.7v15.179a4.7,4.7,0,0,0-1.4,3.326v25.845a1.249,1.249,0,0,0,1.249,1.249h61.358a1.249,1.249,0,0,0,1.249-1.249V852.225A4.679,4.679,0,0,0,352.306,848.9Zm-58.567-9.035a1.2,1.2,0,0,1,1.2-1.2h20.035a1.22,1.22,0,0,1,.871.358l2.653,2.647a3.774,3.774,0,0,0,2.622,1.081H348.61a1.2,1.2,0,0,1,1.2,1.2v3.662l-.022,0a4.637,4.637,0,0,0-.762-.065h-3.037v-.912a2.512,2.512,0,0,0-2.508-2.508H299.894a2.511,2.511,0,0,0-2.508,2.508v7.058h-2.866a4.748,4.748,0,0,0-.769.063h-.014V839.867Zm36.038,7.681a4.625,4.625,0,0,0-3.938,2.221l-2.289,2.656a1.323,1.323,0,0,0-.139.2,2.122,2.122,0,0,1-1.835,1.073h-21.69l.009-7.069,43.595.01v.912H329.777ZM351.2,882.968h-58.86v-24.6a2.194,2.194,0,0,1,.894-1.761,2.128,2.128,0,0,1,1.285-.418h27.055a4.581,4.581,0,0,0,1.731-.34,4.637,4.637,0,0,0,2.207-1.88l2.288-2.656a1.28,1.28,0,0,0,.138-.2,2.122,2.122,0,0,1,1.835-1.074h19.248a2.188,2.188,0,0,1,2.178,2.178v30.743Z" fill="#0444cc" stroke="#fff" stroke-width="1"/>
    <path id="Path_913" data-name="Path 913" d="M344.545,868.781a4.722,4.722,0,0,0-4.713,4.721c0,.075.014.146.018.22l-12.943,4.229a5.958,5.958,0,1,0-.018,6.03l7.687,2.58c0,.088-.022.175-.022.263a4.75,4.75,0,1,0,.815-2.631l-7.689-2.581a5.966,5.966,0,0,0,.055-.666,5.769,5.769,0,0,0-.05-.622l12.937-4.227a4.675,4.675,0,0,0,3.923,2.118,4.717,4.717,0,1,0,0-9.435Zm-22.78,15.629a3.468,3.468,0,1,1,3.3-4.52,3.225,3.225,0,0,1,.173,1.057,3.3,3.3,0,0,1-.187,1.106A3.444,3.444,0,0,1,321.765,884.409Zm17.51.191a2.23,2.23,0,1,1-2.1,1.512A2.225,2.225,0,0,1,339.274,884.6Zm5.271-8.884a2.2,2.2,0,0,1-2.107-1.544,2.05,2.05,0,0,1-.108-.671,2.219,2.219,0,1,1,2.215,2.215Z" transform="translate(-10.007 -12.576)" fill="#0444cc" stroke="#fff" stroke-width="1"/>
  </g>
</svg>
