<svg xmlns="http://www.w3.org/2000/svg" width="89.413" height="71.955" viewBox="0 0 89.413 71.955">
  <g id="google-cloud-1_1_" data-name="google-cloud-1 (1)" transform="translate(-0.048 -0.046)">
    <path id="Path_2240" data-name="Path 2240" d="M333.749,19.86h2.728l7.773-7.773.382-3.3A34.937,34.937,0,0,0,287.8,25.83a4.233,4.233,0,0,1,2.728-.165L306.071,23.1s.791-1.308,1.2-1.226a19.391,19.391,0,0,1,26.535-2.016h-.056Z" transform="translate(-276.967)" fill="#ea4335"/>
    <path id="Path_2241" data-name="Path 2241" d="M1172.6,251.016A35.016,35.016,0,0,0,1162.045,234l-10.906,10.906a19.389,19.389,0,0,1,7.117,15.381v1.938a9.707,9.707,0,0,1,0,19.414h-19.418L1136.9,283.6v11.645l1.938,1.938h19.418a25.253,25.253,0,0,0,14.343-46.171Z" transform="translate(-1094.244 -225.185)" fill="#4285f4"/>
    <path id="Path_2242" data-name="Path 2242" d="M278.246,1495.416h19.418v-15.543H278.246a9.621,9.621,0,0,1-4.01-.873l-2.729.843-7.826,7.773-.682,2.728a25.132,25.132,0,0,0,15.246,5.071Z" transform="translate(-253.097 -1423.524)" fill="#34a853"/>
    <path id="Path_2243" data-name="Path 2243" d="M25.15,571.6A25.251,25.251,0,0,0,9.907,616.864L21.169,605.6a9.708,9.708,0,1,1,12.844-12.844l11.262-11.262a25.241,25.241,0,0,0-20.126-9.9Z" transform="translate(0 -550.129)" fill="#fbbc05"/>
  </g>
</svg>
