<svg id="react-2" xmlns="http://www.w3.org/2000/svg" width="94.538" height="84.19" viewBox="0 0 94.538 84.19">
  <path id="Path_2182" data-name="Path 2182" d="M270.238,120.1c0-6.263-7.843-12.2-19.867-15.878,2.775-12.256,1.542-22.006-3.893-25.128a8.448,8.448,0,0,0-4.316-1.079v4.3a4.462,4.462,0,0,1,2.2.5c2.621,1.5,3.758,7.226,2.871,14.587-.212,1.811-.559,3.719-.983,5.665a93.386,93.386,0,0,0-12.236-2.1,94,94,0,0,0-8.016-9.635c6.282-5.839,12.179-9.038,16.187-9.038V78c-5.3,0-12.236,3.777-19.251,10.329-7.014-6.513-13.951-10.252-19.251-10.252v4.3c3.989,0,9.9,3.18,16.187,8.98a91.012,91.012,0,0,0-7.958,9.616,89.989,89.989,0,0,0-12.256,2.12c-.443-1.927-.771-3.8-1-5.588-.906-7.361.212-13.084,2.813-14.607a4.289,4.289,0,0,1,2.216-.5V78.1a8.592,8.592,0,0,0-4.355,1.079c-5.415,3.122-6.629,12.853-3.835,25.07-11.986,3.7-19.79,9.616-19.79,15.859,0,6.263,7.843,12.2,19.867,15.878-2.775,12.256-1.542,22.006,3.893,25.128a8.471,8.471,0,0,0,4.336,1.079c5.3,0,12.236-3.777,19.251-10.329,7.014,6.513,13.951,10.252,19.251,10.252a8.592,8.592,0,0,0,4.355-1.079c5.415-3.122,6.629-12.853,3.835-25.07,11.947-3.681,19.752-9.616,19.752-15.859Zm-25.089-12.853c-.713,2.486-1.6,5.049-2.6,7.612-.79-1.542-1.619-3.083-2.524-4.625-.886-1.542-1.831-3.045-2.775-4.509C239.984,106.134,242.624,106.635,245.149,107.252Zm-8.826,20.522c-1.5,2.6-3.045,5.068-4.644,7.361-2.871.251-5.781.385-8.71.385-2.91,0-5.819-.135-8.671-.366q-2.4-3.44-4.663-7.323-2.2-3.787-4.008-7.669c1.195-2.582,2.544-5.164,3.989-7.689,1.5-2.6,3.045-5.068,4.644-7.361,2.871-.251,5.781-.385,8.71-.385,2.91,0,5.819.135,8.671.366q2.4,3.44,4.663,7.323,2.2,3.787,4.008,7.669C239.1,122.668,237.768,125.25,236.323,127.774Zm6.224-2.505c1.041,2.582,1.927,5.164,2.659,7.669-2.524.617-5.184,1.137-7.939,1.542.944-1.484,1.888-3.006,2.775-4.567C240.929,128.371,241.757,126.811,242.547,125.269Zm-19.54,20.561a79.443,79.443,0,0,1-5.357-6.166c1.734.077,3.507.135,5.3.135,1.811,0,3.6-.039,5.357-.135A75.224,75.224,0,0,1,223.008,145.83Zm-14.337-11.35c-2.736-.4-5.376-.906-7.9-1.522.713-2.486,1.6-5.049,2.6-7.612.79,1.542,1.619,3.083,2.524,4.625S207.727,133.015,208.671,134.48Zm14.24-40.1a79.453,79.453,0,0,1,5.357,6.166c-1.734-.077-3.507-.135-5.3-.135-1.811,0-3.6.039-5.357.135A75.209,75.209,0,0,1,222.911,94.379Zm-14.26,11.35c-.944,1.484-1.888,3.006-2.775,4.567-.886,1.542-1.715,3.083-2.505,4.625-1.041-2.582-1.927-5.164-2.659-7.669,2.524-.6,5.184-1.118,7.939-1.522Zm-17.439,24.126c-6.822-2.91-11.234-6.725-11.234-9.751s4.413-6.86,11.234-9.751c1.657-.713,3.469-1.349,5.338-1.946a92.554,92.554,0,0,0,4.336,11.735,91.245,91.245,0,0,0-4.278,11.678c-1.908-.6-3.719-1.253-5.4-1.966Zm10.367,27.537c-2.621-1.5-3.758-7.226-2.871-14.587.212-1.811.559-3.719.983-5.665a93.391,93.391,0,0,0,12.236,2.1,94.005,94.005,0,0,0,8.016,9.635c-6.282,5.839-12.179,9.038-16.187,9.038A4.6,4.6,0,0,1,201.579,157.392Zm45.708-14.684c.906,7.361-.212,13.084-2.813,14.607a4.289,4.289,0,0,1-2.216.5c-3.989,0-9.9-3.18-16.187-8.98a91.018,91.018,0,0,0,7.958-9.616,89.98,89.98,0,0,0,12.256-2.12A53.957,53.957,0,0,1,247.288,142.708Zm7.419-12.853c-1.657.713-3.469,1.349-5.338,1.946a92.538,92.538,0,0,0-4.336-11.735,91.244,91.244,0,0,0,4.278-11.678c1.908.6,3.719,1.253,5.415,1.966,6.822,2.91,11.234,6.725,11.234,9.751-.019,3.025-4.432,6.86-11.254,9.751Z" transform="translate(-175.7 -78)" fill="#61dafb"/>
  <ellipse id="Ellipse_334" data-name="Ellipse 334" cx="8.806" cy="8.806" rx="8.806" ry="8.806" transform="translate(38.443 33.298)" fill="#61dafb"/>
</svg>
