<svg xmlns="http://www.w3.org/2000/svg" width="69.823" height="55.72" viewBox="0 0 69.823 55.72">
  <g id="Group_454" data-name="Group 454" transform="translate(-2192.685 -2305.69)">
    <path id="Path_1723" data-name="Path 1723" d="M2228.469,2447.639h2.705a1.071,1.071,0,1,0,0-2.143h-2.705a1.071,1.071,0,0,0,0,2.143Z" transform="translate(-22.284 -90.236)" fill="#0444cc" stroke="#fff" stroke-width="0.5"/>
    <path id="Path_1724" data-name="Path 1724" d="M2257.32,2305.94h-19.334a4.944,4.944,0,0,0-4.938,4.938v11.356a10.9,10.9,0,0,0-6.557,9.984,8.744,8.744,0,0,1-4.345,7.55v-28.89a4.943,4.943,0,0,0-4.938-4.938h-19.334a4.944,4.944,0,0,0-4.938,4.938v45.344a4.944,4.944,0,0,0,4.938,4.938h19.334a4.944,4.944,0,0,0,4.938-4.938v-10.176a1.072,1.072,0,0,0-2.143,0v5.418h-24.924v-40.587a2.8,2.8,0,0,1,2.794-2.795h19.334a2.8,2.8,0,0,1,2.795,2.795v29.785a8.708,8.708,0,0,1-2.252.3h-.625a4.472,4.472,0,1,0,0,2.144h.625a10.9,10.9,0,0,0,10.884-10.884,8.75,8.75,0,0,1,8.74-8.74h4.268l-.865.71a1.072,1.072,0,1,0,1.361,1.656l3.177-2.61a1.072,1.072,0,0,0,.047-1.615l-3.177-2.936a1.072,1.072,0,0,0-1.455,1.574l1.166,1.077h-4.521a10.886,10.886,0,0,0-2.183.22v-10.677a2.8,2.8,0,0,1,2.795-2.795h19.334a2.8,2.8,0,0,1,2.795,2.795v40.587H2235.19v-24.009a1.072,1.072,0,0,0-2.143,0v28.765a4.944,4.944,0,0,0,4.938,4.938h19.335a4.943,4.943,0,0,0,4.938-4.938v-45.344A4.942,4.942,0,0,0,2257.32,2305.94ZM2220,2353.607v2.613a2.8,2.8,0,0,1-2.795,2.795h-19.334a2.8,2.8,0,0,1-2.795-2.795v-2.613Zm-7.213-9.249a2.329,2.329,0,1,1,2.328-2.329A2.331,2.331,0,0,1,2212.787,2344.359Zm44.533,14.656h-19.334a2.8,2.8,0,0,1-2.795-2.794v-2.614h24.924v2.614A2.8,2.8,0,0,1,2257.32,2359.014Z" fill="#0444cc" stroke="#fff" stroke-width="0.5"/>
    <path id="Path_1725" data-name="Path 1725" d="M2344.68,2445.49h-2.7a1.072,1.072,0,0,0,0,2.143h2.7a1.072,1.072,0,0,0,0-2.143Z" transform="translate(-95.676 -90.232)" fill="#0444cc" stroke="#fff" stroke-width="0.5"/>
  </g>
</svg>
