<svg xmlns="http://www.w3.org/2000/svg" width="18.806" height="18.81" viewBox="0 0 18.806 18.81">
    <defs>
        <style>
            .cls-1{fill:#0444cc}
        </style>
    </defs>
    <g id="instagram-sketched_3_" data-name="instagram-sketched (3)" transform="translate(-.449)">
        <path id="Path_2120" d="M19.206 5.53a6.873 6.873 0 0 0-.437-2.282A4.818 4.818 0 0 0 16.017.5a6.891 6.891 0 0 0-2.282-.441C12.728.011 12.409 0 9.855 0S6.982.011 5.979.055A6.875 6.875 0 0 0 3.7.492 4.589 4.589 0 0 0 2.029 1.58 4.631 4.631 0 0 0 .945 3.245a6.891 6.891 0 0 0-.438 2.281C.46 6.533.449 6.853.449 9.407S.46 12.28.5 13.283a6.873 6.873 0 0 0 .437 2.282 4.817 4.817 0 0 0 2.752 2.752 6.892 6.892 0 0 0 2.282.437c1 .044 1.323.055 3.877.055s2.873-.011 3.877-.055a6.871 6.871 0 0 0 2.282-.437 4.811 4.811 0 0 0 2.752-2.752 6.9 6.9 0 0 0 .437-2.282c.044-1 .055-1.323.055-3.877s0-2.873-.048-3.877zm-1.694 7.68a5.155 5.155 0 0 1-.323 1.745 3.12 3.12 0 0 1-1.789 1.786 5.174 5.174 0 0 1-1.745.323c-.992.044-1.29.055-3.8.055s-2.811-.011-3.8-.055a5.153 5.153 0 0 1-1.745-.323 2.894 2.894 0 0 1-1.08-.7 2.924 2.924 0 0 1-.7-1.08 5.175 5.175 0 0 1-.323-1.745c-.044-.992-.055-1.29-.055-3.8s.011-2.811.055-3.8a5.153 5.153 0 0 1 .323-1.745 2.859 2.859 0 0 1 .706-1.08 2.92 2.92 0 0 1 1.08-.7 5.177 5.177 0 0 1 1.745-.323c.992-.044 1.29-.055 3.8-.055s2.811.011 3.8.055a5.156 5.156 0 0 1 1.745.323 2.892 2.892 0 0 1 1.08.7 2.924 2.924 0 0 1 .7 1.08 5.176 5.176 0 0 1 .323 1.745c.044.992.055 1.29.055 3.8s-.011 2.8-.055 3.8zm0 0" class="cls-1" data-name="Path 2120"/>
        <path id="Path_2121" d="M129.781 124.5a4.832 4.832 0 1 0 4.832 4.832 4.833 4.833 0 0 0-4.832-4.832zm0 7.966a3.134 3.134 0 1 1 3.134-3.134 3.135 3.135 0 0 1-3.134 3.134zm0 0" class="cls-1" data-name="Path 2121" transform="translate(-119.926 -119.925)"/>
        <path id="Path_2122" d="M364.706 89.73a1.128 1.128 0 1 1-1.128-1.128 1.128 1.128 0 0 1 1.128 1.128zm0 0" class="cls-1" data-name="Path 2122" transform="translate(-348.7 -85.346)"/>
    </g>
</svg>
