<svg id="nodejs-1" xmlns="http://www.w3.org/2000/svg" width="125.525" height="76.864" viewBox="0 0 125.525 76.864">
  <path id="Path_2202" data-name="Path 2202" d="M210.992,218.175a2.489,2.489,0,0,1-1.192-.312l-3.774-2.241c-.568-.312-.284-.426-.113-.482a6.885,6.885,0,0,0,1.7-.766.261.261,0,0,1,.284.028l2.894,1.731a.36.36,0,0,0,.34,0l11.321-6.554a.326.326,0,0,0,.17-.312v-13.08a.326.326,0,0,0-.17-.312l-11.321-6.526a.359.359,0,0,0-.34,0l-11.321,6.526a.356.356,0,0,0-.17.312v13.08a.357.357,0,0,0,.17.312l3.093,1.787c1.674.851,2.724-.142,2.724-1.135V197.32a.345.345,0,0,1,.341-.341h1.447a.345.345,0,0,1,.34.341v12.91c0,2.241-1.22,3.547-3.348,3.547a4.867,4.867,0,0,1-2.61-.71l-2.979-1.7a2.394,2.394,0,0,1-1.192-2.071v-13.08a2.4,2.4,0,0,1,1.192-2.071l11.321-6.554a2.533,2.533,0,0,1,2.384,0l11.321,6.554a2.4,2.4,0,0,1,1.192,2.071v13.08a2.4,2.4,0,0,1-1.192,2.071l-11.321,6.554a2.9,2.9,0,0,1-1.192.255Zm3.49-8.994c-4.965,0-5.987-2.27-5.987-4.2a.345.345,0,0,1,.34-.341h1.475a.292.292,0,0,1,.312.284c.227,1.5.88,2.241,3.887,2.241,2.383,0,3.405-.539,3.405-1.816,0-.738-.284-1.277-4-1.646-3.093-.312-5.022-.993-5.022-3.462,0-2.3,1.93-3.66,5.164-3.66,3.632,0,5.419,1.249,5.646,3.972a.458.458,0,0,1-.085.256.351.351,0,0,1-.227.113h-1.475a.332.332,0,0,1-.312-.255c-.341-1.56-1.22-2.071-3.547-2.071-2.61,0-2.923.908-2.923,1.589,0,.823.369,1.078,3.887,1.532,3.49.454,5.136,1.107,5.136,3.547C220.129,207.762,218.086,209.181,214.482,209.181Z" transform="translate(-148.911 -141.311)" fill="#689f63"/>
  <path id="Path_2203" data-name="Path 2203" d="M27.186,25.706a1.444,1.444,0,0,0-.738-1.249l-12.03-6.923a1.747,1.747,0,0,0-.653-.2h-.114a1.348,1.348,0,0,0-.653.2L.969,24.458a1.443,1.443,0,0,0-.738,1.249L.259,44.319a.706.706,0,0,0,.369.624.644.644,0,0,0,.709,0l7.15-4.086a1.444,1.444,0,0,0,.738-1.248V30.9a1.443,1.443,0,0,1,.738-1.248L13,27.891a1.375,1.375,0,0,1,.738-.2,1.22,1.22,0,0,1,.709.2l3.036,1.759A1.443,1.443,0,0,1,18.22,30.9v8.711a1.444,1.444,0,0,0,.738,1.248l7.15,4.086a.692.692,0,0,0,.738,0,.705.705,0,0,0,.369-.624l-.028-18.613ZM85.011.085a.78.78,0,0,0-.709,0,.74.74,0,0,0-.369.624V19.152a.511.511,0,0,1-.766.454l-3.008-1.731a1.462,1.462,0,0,0-1.447,0l-12.03,6.952a1.444,1.444,0,0,0-.738,1.248V39.95a1.444,1.444,0,0,0,.738,1.249l12.03,6.951a1.462,1.462,0,0,0,1.447,0L92.19,41.2a1.444,1.444,0,0,0,.738-1.249V5.362a1.455,1.455,0,0,0-.738-1.277l-7.178-4ZM83.9,35.382a.326.326,0,0,1-.17.312L79.62,38.077a.421.421,0,0,1-.369,0l-4.114-2.383a.356.356,0,0,1-.17-.312V30.615a.326.326,0,0,1,.17-.312l4.114-2.384a.421.421,0,0,1,.369,0L83.734,30.3a.355.355,0,0,1,.17.312v4.767Zm41.141-4.88a1.417,1.417,0,0,0,.709-1.249V25.876a1.478,1.478,0,0,0-.709-1.248L113.1,17.705a1.462,1.462,0,0,0-1.447,0l-12.03,6.951a1.443,1.443,0,0,0-.738,1.249V39.779a1.443,1.443,0,0,0,.738,1.248l11.945,6.81a1.409,1.409,0,0,0,1.419,0l7.235-4.029a.713.713,0,0,0,0-1.249l-12.087-6.952a.739.739,0,0,1-.369-.624V30.644a.706.706,0,0,1,.369-.624l3.774-2.156a.693.693,0,0,1,.738,0l3.774,2.156a.739.739,0,0,1,.369.624v3.4a.7.7,0,0,0,.369.624.692.692,0,0,0,.738,0l7.15-4.171Z" transform="translate(-0.231 0)" fill="#333"/>
  <path id="Path_2204" data-name="Path 2204" d="M448.793,121.455a.258.258,0,0,1,.284,0l2.3,1.334a.3.3,0,0,1,.142.255v2.667a.3.3,0,0,1-.142.255l-2.3,1.334a.258.258,0,0,1-.284,0l-2.3-1.334a.3.3,0,0,1-.142-.255v-2.667a.3.3,0,0,1,.142-.255Z" transform="translate(-336.831 -91.606)" fill="#689f63"/>
  <g id="Group_472" data-name="Group 472" transform="translate(32.857 15.237)">
    <path id="Path_2205" data-name="Path 2205" d="M14.564,1.261a1.462,1.462,0,0,0-1.447,0L1.171,8.156A1.417,1.417,0,0,0,.462,9.4V23.222a1.478,1.478,0,0,0,.709,1.248l11.945,6.895a1.462,1.462,0,0,0,1.447,0l11.945-6.895a1.417,1.417,0,0,0,.709-1.248V9.4a1.478,1.478,0,0,0-.709-1.248Z" transform="translate(-0.349 1.264)" fill="#689f63"/>
    <g id="Group_470" data-name="Group 470" transform="translate(0 2.329)">
      <path id="Path_2206" data-name="Path 2206" d="M12.74,1.247.766,8.141A1.472,1.472,0,0,0,0,9.39V23.208a1.367,1.367,0,0,0,.369.908L13.818,1.077a1.621,1.621,0,0,0-1.078.17ZM13.9,31.493a1.745,1.745,0,0,0,.341-.142l11.974-6.895a1.443,1.443,0,0,0,.738-1.248V9.39a1.445,1.445,0,0,0-.426-.993L13.9,31.493Z" transform="translate(0 -1.051)" fill="none"/>
      <path id="Path_2207" data-name="Path 2207" d="M27.322,8.308l-12-6.895a1.97,1.97,0,0,0-.369-.142L1.5,24.311a1.493,1.493,0,0,0,.4.341l12,6.895a1.382,1.382,0,0,0,1.106.142l12.626-23.1a1.489,1.489,0,0,0-.312-.284Z" transform="translate(-1.133 -1.218)" fill="#689f63"/>
    </g>
    <g id="Group_471" data-name="Group 471" transform="translate(0 0)">
      <path id="Path_2208" data-name="Path 2208" d="M26.955,23.288V9.47a1.471,1.471,0,0,0-.766-1.248l-12-6.895a1.254,1.254,0,0,0-.454-.17L26.869,23.6a.572.572,0,0,0,.085-.312ZM.766,8.222A1.472,1.472,0,0,0,0,9.47V23.288a1.534,1.534,0,0,0,.766,1.248l12,6.895a1.336,1.336,0,0,0,.936.17L.851,8.193l-.085.028Z" transform="translate(0 1.198)" fill="none"/>
      <path id="Path_2209" data-name="Path 2209" d="M49.868.809,49.7.894h.227Z" transform="translate(-37.497 -0.809)" fill="#689f63" fill-rule="evenodd"/>
      <path id="Path_2210" data-name="Path 2210" d="M28.745,33.7a1.614,1.614,0,0,0,.709-.908L16.289,10.323a1.441,1.441,0,0,0-1.021.17L3.351,17.359,16.2,40.8a1.978,1.978,0,0,0,.539-.17l12-6.923Z" transform="translate(-2.528 -7.968)" fill="#689f63" fill-rule="evenodd"/>
      <path id="Path_2211" data-name="Path 2211" d="M111.038,104.276l-.085-.142v.2l.085-.057Z" transform="translate(-83.714 -78.768)" fill="#689f63" fill-rule="evenodd"/>
      <path id="Path_2212" data-name="Path 2212" d="M68.336,102.758l-11.974,6.895a1.712,1.712,0,0,1-.539.17l.227.426,13.279-7.689v-.17l-.341-.568A1.318,1.318,0,0,1,68.336,102.758Z" transform="translate(-42.119 -77.024)" fill="#689f63" fill-rule="evenodd"/>
      <path id="Path_2213" data-name="Path 2213" d="M68.336,102.758l-11.974,6.895a1.712,1.712,0,0,1-.539.17l.227.426,13.279-7.689v-.17l-.341-.568A1.318,1.318,0,0,1,68.336,102.758Z" transform="translate(-42.119 -77.024)" fill="#689f63" fill-rule="evenodd"/>
    </g>
  </g>
</svg>
