<svg xmlns="http://www.w3.org/2000/svg" width="58.5" height="49.956" viewBox="0 0 58.5 49.956">
  <g id="Group_461" data-name="Group 461" transform="translate(-168.962 -388.25)">
    <path id="Path_2140" data-name="Path 2140" d="M199.821,428.762H173.14a3.14,3.14,0,0,1-3.14-3.138V392.138A3.14,3.14,0,0,1,173.14,389h47.683a3.14,3.14,0,0,1,3.14,3.138v1.122" transform="translate(-0.023 0)" fill="none" stroke="#0444cc" stroke-linecap="round" stroke-linejoin="round" stroke-width="1.5"/>
    <line id="Line_20" data-name="Line 20" x1="29" transform="translate(169.712 419.456)" fill="none" stroke="#0444cc" stroke-linecap="round" stroke-linejoin="round" stroke-width="1.5"/>
    <line id="Line_21" data-name="Line 21" x1="14" transform="translate(185.712 437.456)" fill="none" stroke="#0444cc" stroke-linecap="round" stroke-linejoin="round" stroke-width="1.5"/>
    <path id="Path_2141" data-name="Path 2141" d="M183.228,424.893l3.121-2.2a2.4,2.4,0,0,0,.815-1.964L187.157,417" transform="translate(5.534 11.762)" fill="none" stroke="#0444cc" stroke-linecap="round" stroke-linejoin="round" stroke-width="1.5"/>
    <line id="Line_22" data-name="Line 22" x2="11" transform="translate(187.712 398.456)" fill="none" stroke="#0444cc" stroke-linecap="round" stroke-linejoin="round" stroke-width="1.5"/>
    <line id="Line_23" data-name="Line 23" x2="11" transform="translate(187.712 405.456)" fill="none" stroke="#0444cc" stroke-linecap="round" stroke-linejoin="round" stroke-width="1.5"/>
    <line id="Line_24" data-name="Line 24" x2="22" transform="translate(176.712 409.456)" fill="none" stroke="#0444cc" stroke-linecap="round" stroke-linejoin="round" stroke-width="1.5"/>
    <path id="Path_2142" data-name="Path 2142" d="M175,401.68h7.1V396" transform="translate(2.077 2.94)" fill="none" stroke="#0444cc" stroke-linecap="round" stroke-linejoin="round" stroke-width="1.5"/>
    <path id="Path_2143" data-name="Path 2143" d="M182.1,396H175v5.68" transform="translate(2.077 2.94)" fill="none" stroke="#0444cc" stroke-linecap="round" stroke-linejoin="round" stroke-width="1.5"/>
    <rect id="Rectangle_156" data-name="Rectangle 156" width="23" height="42" rx="1.432" transform="translate(203.712 395.456)" stroke-width="1.5" stroke="#0444cc" stroke-linecap="round" stroke-linejoin="round" fill="none"/>
    <line id="Line_25" data-name="Line 25" x2="3" transform="translate(218.712 408.456)" fill="none" stroke="#0444cc" stroke-linecap="round" stroke-linejoin="round" stroke-width="1.5"/>
    <line id="Line_26" data-name="Line 26" x2="3" transform="translate(218.712 415.456)" fill="none" stroke="#0444cc" stroke-linecap="round" stroke-linejoin="round" stroke-width="1.5"/>
    <line id="Line_27" data-name="Line 27" x2="12" transform="translate(209.712 419.456)" fill="none" stroke="#0444cc" stroke-linecap="round" stroke-linejoin="round" stroke-width="1.5"/>
    <rect id="Rectangle_157" data-name="Rectangle 157" width="4" height="7" transform="translate(209.712 408.456)" stroke-width="1.5" stroke="#0444cc" stroke-linecap="round" stroke-linejoin="round" fill="none"/>
    <line id="Line_28" data-name="Line 28" x2="23" transform="translate(203.712 401.456)" fill="none" stroke="#0444cc" stroke-linecap="round" stroke-linejoin="round" stroke-width="1.5"/>
    <line id="Line_29" data-name="Line 29" x2="23" transform="translate(203.712 427.456)" fill="none" stroke="#0444cc" stroke-linecap="round" stroke-linejoin="round" stroke-width="1.5"/>
    <line id="Line_30" data-name="Line 30" x2="3" transform="translate(213.712 432.456)" fill="none" stroke="#0444cc" stroke-linecap="round" stroke-linejoin="round" stroke-width="1.5"/>
  </g>
</svg>
