<svg data-name="Warstwa 2" xmlns="http://www.w3.org/2000/svg" width="320.619" height="51.962"><g data-name="Warstwa 1" fill="#fff"><path data-name="Path 1" d="M25.288 17.031V5.548a4.281 4.281 0 011.288-2.95 4.033 4.033 0 011.238-.849H2.08L0 7.557a12.241 12.241 0 012.427-2.894c1.656-1.415 4-2.059 6.969-2.059h11.547a.481.481 0 01.354.156 4.146 4.146 0 011.125 2.724v15.212a.5.5 0 01-.142.347.509.509 0 01-.34.141H10.67a3.34 3.34 0 01-2.3-1.033 3.134 3.134 0 01-.552-.792v5.038a3.014 3.014 0 01.552-.792 3.34 3.34 0 012.3-1.033h11.264a.481.481 0 01.481.481v15.155a4.245 4.245 0 01-1.153 2.781.481.481 0 01-.354.156H9.4c-2.972 0-5.314-.658-6.969-2.059A12.347 12.347 0 010 36.199l2.08 5.809h25.727a4.359 4.359 0 01-2.519-3.8zm37.457 32.038a35.427 35.427 0 01-8.866-6.955L33.856 20.732a.481.481 0 010-.644L47.569 4.246a8.491 8.491 0 013.8-2.5h-7.19a2.038 2.038 0 01.644.708 2.314 2.314 0 01.233 1.083 2.257 2.257 0 01-.573 1.358L30.842 21.97l19.21 20.484c5.993 6.368 12.106 9.5 18.4 9.509a18.523 18.523 0 002.83-.233 21.163 21.163 0 01-8.533-2.66z"/><path data-name="Path 2" d="M153.595 4.741h-7.979a10.281 10.281 0 01-1.6-.142 6.057 6.057 0 01-1.231-.283v2.972h.241v-.425a1.366 1.366 0 01.389-.976 1.323 1.323 0 01.955-.439h4.479V19.6a1.514 1.514 0 01-1.507 1.415h-.311v.233h5.172v-.233h-.311a1.415 1.415 0 01-1.047-.425 1.479 1.479 0 01-.46-1.04V5.448h4.479a1.366 1.366 0 01.948.439 1.344 1.344 0 01.4.976v.4h.241V4.316a7.076 7.076 0 01-.934.248 8.611 8.611 0 01-1.924.177zm-21.934 31.684h3.1v-.41h-3.1v-2.83h3.722v-.425h-4.245v7.075h4.245v-.425h-3.729zm8.491-31.663h-5.236V5h.283a.87.87 0 01.8.474.892.892 0 01.17.5 1.04 1.04 0 01-.12.467l-3.736 6.63-3.538-6.6a1.019 1.019 0 01-.12-.488 1.062 1.062 0 01.141-.5.884.884 0 01.8-.474h.311v-.247h-5.809V5h.333a2.533 2.533 0 011.359.4 3.057 3.057 0 01.991.962l4.5 7.528v5.66a1.479 1.479 0 01-.46 1.04 1.415 1.415 0 01-1.047.425h-.29v.233h5.132v-.233h-.283a1.5 1.5 0 01-1.507-1.486v-5.66l4.634-7.507a3.729 3.729 0 011.047-.976 2.469 2.469 0 011.34-.386h.325zm9.778 27.969l-2.887 7.075h.389a.219.219 0 00.12-.035.233.233 0 00.071-.1l.828-2.052h3.465l.828 2.052a.276.276 0 00.071.1.156.156 0 00.113.035h.4l-2.887-7.075zm-1.323 4.5l1.415-3.538a.712.712 0 01.078-.2 1.734 1.734 0 00.064-.226 3.3 3.3 0 00.141.425l1.415 3.538zm-8.158-4.5h-.517v7.075h3.856v-.432h-3.34zm51.367-11.688h-.311a1.51 1.51 0 01-1.507-1.486V6.467a1.479 1.479 0 01.46-1.04A1.415 1.415 0 01191.505 5h.311v-.238h-5.172V5h.311a1.415 1.415 0 011.047.425 1.479 1.479 0 01.46 1.04v13.09a1.507 1.507 0 01-.46 1.047 1.415 1.415 0 01-1.047.439h-.311v.233h5.172zm4.62-15.708a.639.639 0 01-.12.75l-5.561 6.984 7.783 8.328q3.63 3.877 7.5 3.87a7.783 7.783 0 001.8-.212v-.233a8.158 8.158 0 01-3.976-1.075 14.031 14.031 0 01-3.5-2.752l-8.024-8.561 5.5-6.368a3.269 3.269 0 012.568-1.111h.1v-.193h-4.953v.191h.233a.708.708 0 01.658.382zm119.23-4.083a5.449 5.449 0 00-.97-1.252q-1.2 1.16-2.993 3.092l.163.163a82.884 82.884 0 003.8-2.003zM93.8 36.241a.594.594 0 00-.191-.092.708.708 0 00.163-.092.814.814 0 00.163-.156l3.085-3.17h-.4a.439.439 0 00-.177.035.4.4 0 00-.149.113l-2.83 2.929-.106.092a.374.374 0 01-.106.057h-.708v-3.226h-.559v7.075h.516v-3.417h.651a.375.375 0 01.134.042.838.838 0 01.106.064l.1.1 2.986 3.05a.319.319 0 00.113.106.4.4 0 00.184 0h.417l-3.248-3.389a.906.906 0 00-.142-.12zm158.222-18.786h-.241a5.724 5.724 0 01-1.535 2.314 4.019 4.019 0 01-2.66.778h-3.375v-7.075h4.012a1.132 1.132 0 01.785.354 1.118 1.118 0 01.318.807v.354h.241v-3.709h-.241v.322a1.118 1.118 0 01-.326.828 1.182 1.182 0 01-.807.354h-3.983V5.5h4.847a1.337 1.337 0 01.934.425 1.359 1.359 0 01.389.969v.425h.233V4.344a6.51 6.51 0 01-1.217.276 9.34 9.34 0 01-1.592.142h-6.913V5h.283a1.415 1.415 0 011.012.389 1.535 1.535 0 01.5.976v13.192a1.507 1.507 0 01-.46 1.047 1.415 1.415 0 01-1.047.439h-.311v.233h9.792zm-136.14 21.227v.283l-4.566-6.113a.212.212 0 00-.085-.078.2.2 0 00-.106 0h-.255v7.075h.446v-5.943a1.991 1.991 0 000-.283l4.585 6.127a.283.283 0 00.085.078.234.234 0 00.106 0h.241v-7.076h-.446zM98.653 19.79a4.026 4.026 0 01-2.667.778h-3.37v-7.075h4a1.132 1.132 0 01.792.354 1.118 1.118 0 01.318.807v.354h.241v-3.73h-.241v.322a1.118 1.118 0 01-.325.828 1.189 1.189 0 01-.807.354h-3.978V5.5h4.811a1.337 1.337 0 01.934.425 1.352 1.352 0 01.382.969v.425h.241V4.344a6.806 6.806 0 01-1.217.276 9.34 9.34 0 01-1.592.142h-6.913V5h.283a1.415 1.415 0 011.012.389 1.535 1.535 0 01.5.955v13.21a1.507 1.507 0 01-.46 1.047 1.415 1.415 0 01-1.047.439h-.311v.233h9.821l1.366-3.821h-.233a5.724 5.724 0 01-1.535 2.314zm20.519-12.736a8.491 8.491 0 00-6.127-2.278h-7.974v.241h.283a1.585 1.585 0 011.054.389 1.217 1.217 0 01.481.962v13.189a1.507 1.507 0 01-.46 1.047 1.415 1.415 0 01-1.054.439h-.3v.233h8A8.491 8.491 0 00119.194 19a7.967 7.967 0 002.342-5.979 7.96 7.96 0 00-2.342-5.95zm-.262 9.906a6.325 6.325 0 01-2.356 2.653 6.531 6.531 0 01-3.538.941h-4.642V5.476h4.642a6.184 6.184 0 014.854 2.073 7.932 7.932 0 011.847 5.476 8.852 8.852 0 01-.785 3.955zm7.571 21.64h-.05l-.05.035a4.457 4.457 0 01-.425.34 2.576 2.576 0 01-.46.241 2.632 2.632 0 01-.552.156 4.663 4.663 0 01-.708.05 2.915 2.915 0 01-1.12-.222 2.632 2.632 0 01-.892-.623 2.985 2.985 0 01-.6-1 4.245 4.245 0 010-2.66 2.922 2.922 0 01.594-1 2.667 2.667 0 01.913-.63 3.155 3.155 0 011.174-.219 2.788 2.788 0 01.856.113 2.958 2.958 0 01.594.241 2.916 2.916 0 01.375.241.481.481 0 00.191.113.141.141 0 00.127-.064l.156-.226a3.318 3.318 0 00-2.3-.856 3.538 3.538 0 00-1.415.262 3.141 3.141 0 00-1.083.708 3.241 3.241 0 00-.708 1.139 4.025 4.025 0 00-.255 1.465 4.479 4.479 0 00.241 1.486 3.227 3.227 0 00.708 1.139 2.944 2.944 0 001.047.708 3.474 3.474 0 001.344.262 4 4 0 00.807-.078 3.113 3.113 0 00.672-.2 3.212 3.212 0 001.04-.708l-.2-.219-.007.014zm-23.179-5.866l-2.886 7.073h.389a.219.219 0 00.12-.035.233.233 0 00.071-.1l.828-2.052h3.467l.825 2.052a.276.276 0 00.071.1.156.156 0 00.113.035h.4l-2.884-7.076zm-1.323 4.5l1.415-3.538a.712.712 0 01.078-.2 1.731 1.731 0 00.064-.226 3.3 3.3 0 00.141.425l1.415 3.538zm194.576-17.465a4.054 4.054 0 01-2.639.75h-3.375v-7.076h4.012a1.146 1.146 0 01.792.354 1.118 1.118 0 01.318.807v.354h.233v-3.68h-.233v.322a1.125 1.125 0 01-.332.828 1.175 1.175 0 01-.8.354h-3.991V5.5h4.811a1.415 1.415 0 011.323 1.415v.425h.233V4.344a6.538 6.538 0 01-1.21.276 9.467 9.467 0 01-1.592.142h-6.913V5h.283a1.415 1.415 0 011.012.389 1.5 1.5 0 01.5.955v13.21a1.479 1.479 0 01-.46 1.047 1.415 1.415 0 01-1.047.439h-.3v.233h9.785l1.373-3.821h-.241a5.717 5.717 0 01-1.507 2.314zm-41.939 18.842h-.05a.128.128 0 00-.05.035 4.452 4.452 0 01-.424.34 2.647 2.647 0 01-.467.241 2.568 2.568 0 01-.545.156 4.767 4.767 0 01-.708.05 2.879 2.879 0 01-1.111-.219 2.66 2.66 0 01-.9-.623 2.83 2.83 0 01-.594-1 3.736 3.736 0 01-.219-1.337 3.906 3.906 0 01.212-1.323 3.056 3.056 0 01.6-1 2.667 2.667 0 01.913-.63 3.12 3.12 0 011.167-.219 2.788 2.788 0 01.856.113 2.653 2.653 0 01.594.241 2.491 2.491 0 01.375.241.446.446 0 00.2.113.127.127 0 00.12-.064l.156-.226a3.453 3.453 0 00-1.019-.63 3.417 3.417 0 00-1.281-.226 3.538 3.538 0 00-1.415.262 3.114 3.114 0 00-1.075.708 3.157 3.157 0 00-.708 1.139 4.026 4.026 0 00-.248 1.465 4.309 4.309 0 00.241 1.486 3.319 3.319 0 00.708 1.139 2.908 2.908 0 001.054.708 3.453 3.453 0 001.344.262 4.1 4.1 0 00.807-.078 3.233 3.233 0 00.672-.2 3.185 3.185 0 00.566-.325 3.284 3.284 0 00.474-.417l-.2-.219a.134.134 0 00-.05.035zm-12.5-5.88l-2.9 7.076h.4a.2.2 0 00.113-.035.233.233 0 00.071-.1l.828-2.052h3.481l.828 2.052a.17.17 0 00.071.1.149.149 0 00.113.035h.4l-2.887-7.075zm-1.33 4.5l1.415-3.538a1.286 1.286 0 00.078-.2 1.109 1.109 0 01.064-.226q.078.248.149.425l1.415 3.538zm-8.193-.991a.594.594 0 00-.191-.092.608.608 0 00.163-.092 1.061 1.061 0 00.17-.156l3.085-3.17h-.41a.4.4 0 00-.17.035.347.347 0 00-.149.113l-2.83 2.929-.1.092-.106.057h-.715v-3.225h-.509v7.075h.509v-3.417h.651a.333.333 0 01.134.042.383.383 0 01.106.064l.106.1 2.979 3.05a.5.5 0 00.113.106.432.432 0 00.191 0h.41l-3.246-3.351a.906.906 0 00-.2-.163zm28.458 0a.6.6 0 00-.191-.092.707.707 0 00.163-.092 1.06 1.06 0 00.17-.156l3.078-3.17h-.4a.439.439 0 00-.177.035.4.4 0 00-.149.113l-2.83 2.929-.106.092-.1.057h-.715v-3.225h-.517v7.075h.517v-3.417h.651a.375.375 0 01.134.042.838.838 0 01.106.064l.1.1 2.986 3.05a.318.318 0 00.113.106.4.4 0 00.184 0h.417l-3.248-3.389a.9.9 0 00-.184-.12zm10.436-18.149l.283-3.7h-.184q-.4 3.538-2.314 5.073a6.8 6.8 0 01-4.415 1.415 6.219 6.219 0 01-4.818-2.229 8.49 8.49 0 01-1.833-5.66 8.391 8.391 0 011.854-5.66 6.191 6.191 0 014.953-2.123 6.425 6.425 0 013.75 1.1 5.236 5.236 0 012.123 3.127h.212l-.467-3.325a9.906 9.906 0 00-5.6-1.606 8.377 8.377 0 00-6.215 2.353 8.441 8.441 0 00-2.349 6.219 8.427 8.427 0 002.349 6.212 8.243 8.243 0 006.071 2.384 7.311 7.311 0 006.594-3.58zm44.257-13.33V5h.446a1.461 1.461 0 011.465 1.436v11.7L304.791 4.415h-.233l.042.375a17.487 17.487 0 01.17 2.568v12.248a1.425 1.425 0 01-1.443 1.436h-.446v.233h4.861v-.233h-.453a1.415 1.415 0 01-.708-.191 1.358 1.358 0 01-.708-1.224V7.882l12.856 13.726h.212l-.05-.425a20.134 20.134 0 01-.163-2.6V6.417A1.475 1.475 0 01320.194 5h.425v-.238zM276.786 5h.311a1.45 1.45 0 011.047.425 1.479 1.479 0 01.46 1.04v13.09a1.507 1.507 0 01-.46 1.047 1.415 1.415 0 01-1.047.439h-.311v.233h5.165v-.233h-.3a1.51 1.51 0 01-1.507-1.486V6.467a1.479 1.479 0 01.46-1.04A1.415 1.415 0 01281.647 5h.3v-.238h-5.161zm-117.05 31.545a3.128 3.128 0 00.835-.219 2.017 2.017 0 00.637-.41 1.677 1.677 0 00.4-.587 1.9 1.9 0 00.142-.708 1.649 1.649 0 00-.608-1.415 2.965 2.965 0 00-1.825-.474h-1.8v7.075h.509V36.6h1.231a.269.269 0 01.092.064l.085.092 2.264 2.866a.276.276 0 00.106.1.283.283 0 00.142 0h.439l-2.427-3.05a.708.708 0 00-.219-.127zm-.488-.325h-1.224v-3.078h1.292a2.406 2.406 0 011.415.361 1.3 1.3 0 01.488 1.118 1.549 1.549 0 01-.134.665 1.415 1.415 0 01-.389.5 1.826 1.826 0 01-.63.325 3.077 3.077 0 01-.821.106zm76.368-15.177h-.3a1.523 1.523 0 01-1.514-1.486V6.467a1.507 1.507 0 01.46-1.04A1.458 1.458 0 01235.309 5h.3v-.238h-5.165V5h.3a1.458 1.458 0 011.054.425 1.479 1.479 0 01.46 1.04v13.09a1.507 1.507 0 01-.46 1.047 1.415 1.415 0 01-1.054.439h-.3v.233h5.172zm34.953 11.689l-2.894 7.075h.389a.219.219 0 00.12-.035.233.233 0 00.071-.1l.828-2.052h3.467l.828 2.052a.276.276 0 00.071.1.155.155 0 00.113.035h.4l-2.887-7.075zm-1.33 4.5l1.415-3.538a.713.713 0 01.078-.2 1.731 1.731 0 00.064-.226 3.3 3.3 0 00.142.425l1.415 3.538zM222.216 5h.212a.877.877 0 01.708.3.976.976 0 01.233.58 1.918 1.918 0 01-.071.531l-3.163 11.038-4.619-13.034h-.212l-4.388 13.543-3.6-11.519a1.691 1.691 0 01-.071-.517.969.969 0 01.248-.6.877.877 0 01.703-.322h.212v-.238h-5.242V5h.191a2.229 2.229 0 011.2.368 2.122 2.122 0 01.87 1.068l5.42 15.12h.212a10.843 10.843 0 01.5-2.618l3.587-10.875 4.811 13.493h.212a10.288 10.288 0 01.524-2.618l3.913-12.474a1.847 1.847 0 01.545-.807 2.123 2.123 0 011.535-.637h.184v-.258h-4.654zm-48.11 27.731l-2.89 7.076h.389a.24.24 0 00.12-.035.318.318 0 00.071-.1l.828-2.052h3.467l.828 2.052a.212.212 0 00.071.1.156.156 0 00.113.035h.4l-2.894-7.075zm-1.323 4.5l1.415-3.538a.966.966 0 01.071-.2 1.06 1.06 0 00.064-.226 3.351 3.351 0 00.149.425l1.415 3.538zm15.906-4.5l-2.887 7.075h.389a.24.24 0 00.12-.035.22.22 0 00.064-.1l.835-2.052h3.467l.828 2.052a.17.17 0 00.071.1.149.149 0 00.113.035h.4l-2.894-7.075zm-1.33 4.5l1.415-3.538a1.284 1.284 0 00.078-.2 1.111 1.111 0 01.064-.226 3.355 3.355 0 00.149.425l1.415 3.538zm-20.823 2.562h.516v-7.076h-.516zm3.1-18.75h-.212v.233h5.342v-.233h-.191a2.123 2.123 0 01-1.175-.375 2.533 2.533 0 01-.9-1.111l-6.326-15.12h-.219a8.632 8.632 0 01-.87 2.427l-5.328 12.693a2.788 2.788 0 01-.92 1.111 2.123 2.123 0 01-1.16.375h-.212v.233h4.741v-.233h-.177a.9.9 0 01-.708-.318 1 1 0 01-.248-.587 1.755 1.755 0 01.1-.559l1.578-4.033h6.365l1.514 4.012a1.974 1.974 0 01.092.566 1.012 1.012 0 01-.248.6.877.877 0 01-.814.318zm-6.672-6.184l2.972-7.571 2.83 7.571zm62.264 18.807a3.071 3.071 0 00-1.068-.708 3.537 3.537 0 00-1.366-.255 3.467 3.467 0 00-1.373.262 3.092 3.092 0 00-1.061.708 3.227 3.227 0 00-.708 1.139 4.564 4.564 0 000 2.965 3.29 3.29 0 00.708 1.139 3.191 3.191 0 001.061.708 3.594 3.594 0 001.373.255 3.537 3.537 0 001.366-.255 3.149 3.149 0 001.068-.708 3.291 3.291 0 00.708-1.139 4.564 4.564 0 000-2.965 3.226 3.226 0 00-.686-1.167zm.2 3.948a2.893 2.893 0 01-.58 1 2.441 2.441 0 01-.9.623 3.24 3.24 0 01-2.307 0 2.533 2.533 0 01-.906-.623 2.894 2.894 0 01-.58-1 4.415 4.415 0 010-2.66 2.893 2.893 0 01.6-.991 2.534 2.534 0 01.906-.623 3.142 3.142 0 012.307 0 2.441 2.441 0 01.9.623 2.893 2.893 0 01.58 1 4.415 4.415 0 010 2.66zm-24.134-3.934a3.021 3.021 0 00-1.061-.708 3.729 3.729 0 00-1.373-.248h-2.583V39.8h2.583a3.729 3.729 0 001.38-.248 2.944 2.944 0 001.061-.708 3.22 3.22 0 00.708-1.111 4.2 4.2 0 00.241-1.472 4.133 4.133 0 00-.241-1.465 3.319 3.319 0 00-.715-1.118zm.205 3.906a2.774 2.774 0 01-.552.976 2.526 2.526 0 01-.9.609 3.078 3.078 0 01-1.16.212h-2.071v-6.234h2.066a3.078 3.078 0 011.16.212 2.441 2.441 0 01.9.6 2.774 2.774 0 01.58.976 3.963 3.963 0 01.2 1.316 4.033 4.033 0 01-.226 1.332zm13.67-4.811a.219.219 0 00-.071.092l-1.782 5.808a.607.607 0 01-.042.212 1.737 1.737 0 01-.05.233 1.32 1.32 0 00-.05-.241 1.408 1.408 0 00-.064-.205l-2-5.809a.318.318 0 00-.071-.092.163.163 0 00-.113-.042h-.141a.177.177 0 00-.12.042.219.219 0 00-.071.092l-2 5.809a.436.436 0 01-.064.212.447.447 0 01-.05.241 3.121 3.121 0 00-.1-.453l-1.783-5.809a.184.184 0 00-.191-.134h-.417l2.222 7.075h.453l2.123-6.127a1.143 1.143 0 01.071-.255 1.711 1.711 0 00.071.255l2.038 6.113h.46l2.222-7.075h-.389a.177.177 0 00-.094.057z"/></g></svg>